<svg id="Layer_1" data-name="Layer 1" xmlns="http://www.w3.org/2000/svg" viewBox="0 0 600 600"><defs><style>.cls-1,.cls-51{fill:#231f20;}.cls-2{fill:#3f3b3c;}.cls-3{font-size:26.42px;}.cls-23,.cls-3,.cls-4,.cls-5,.cls-6{fill:#ed1c24;}.cls-23,.cls-3,.cls-34,.cls-39,.cls-42,.cls-46,.cls-6{font-family:HalisR-Medium, Halis R;}.cls-5{font-size:100.61px;}.cls-5,.cls-51{font-family:FestivoLC-BasicRLine, Festivo LC;}.cls-6{font-size:17px;letter-spacing:0.05em;}.cls-7{letter-spacing:0.04em;}.cls-8{fill:#a6a8ab;}.cls-15,.cls-8{fill-rule:evenodd;}.cls-9{font-size:11.09px;font-family:FestivoLC-Basic, Festivo LC;letter-spacing:-0.02em;}.cls-13,.cls-14,.cls-15,.cls-16,.cls-20,.cls-22,.cls-31,.cls-32,.cls-34,.cls-38,.cls-39,.cls-42,.cls-46,.cls-9{fill:#fff;}.cls-10{letter-spacing:-0.08em;}.cls-11{letter-spacing:0.04em;}.cls-12{font-family:FestivoLC-Mini, Festivo LC;letter-spacing:-0.02em;}.cls-14{font-size:12px;font-family:Futura-CondensedLight, Futura;}.cls-16,.cls-20,.cls-23{font-size:5.72px;}.cls-16,.cls-20{font-family:HalisR-Bold, Halis R;font-weight:700;}.cls-17{letter-spacing:-0.04em;}.cls-18,.cls-20{letter-spacing:-0.01em;}.cls-19{letter-spacing:-0.02em;}.cls-21{letter-spacing:0em;}.cls-22{font-size:17.14px;letter-spacing:-0.02em;}.cls-22,.cls-31{font-family:FestivoLC-Inline, Festivo LC;}.cls-23{letter-spacing:0.06em;}.cls-24{letter-spacing:0.05em;}.cls-25{letter-spacing:0.06em;}.cls-26{letter-spacing:-0.04em;}.cls-27{letter-spacing:0.05em;}.cls-28{letter-spacing:0.03em;}.cls-29{letter-spacing:0.05em;}.cls-30{letter-spacing:0.01em;}.cls-31{font-size:26.44px;}.cls-32{font-size:7px;font-family:Futura-Condensed, Futura;letter-spacing:0.11em;}.cls-33{letter-spacing:0.04em;}.cls-34{font-size:5.29px;}.cls-35{letter-spacing:-0.01em;}.cls-36{letter-spacing:-0.02em;}.cls-37{fill:none;stroke:#ed1c24;stroke-miterlimit:10;stroke-width:0.91px;}.cls-38{font-size:26.52px;font-family:FestivoLC-Wood, Festivo LC;}.cls-39{font-size:5.56px;}.cls-40{letter-spacing:-0.04em;}.cls-41{letter-spacing:-0.05em;}.cls-42{font-size:4.3px;}.cls-43{letter-spacing:-0.1em;}.cls-44{letter-spacing:-0.04em;}.cls-45{letter-spacing:0em;}.cls-46{font-size:5.72px;letter-spacing:0.06em;}.cls-47{letter-spacing:0.01em;}.cls-48{letter-spacing:0.06em;}.cls-49{letter-spacing:0.02em;}.cls-50{letter-spacing:0.03em;}.cls-51{font-size:21px;}</style></defs><title>biltong-spicy-packaging</title><rect class="cls-1" x="131.75" y="43.51" width="318.49" height="512.85" rx="3.65" ry="3.65" transform="translate(-16.09 16.49) rotate(-3.16)"/><path class="cls-2" d="M469,541.34c.06,2.45.9,1.52,1.08,1.88C469.67,539.14,468.79,541.45,469,541.34Z"/><polygon class="cls-2" points="464.77 501.14 465.17 501.83 463.95 495.94 464.77 501.14"/><path class="cls-2" d="M462.7,463.45c-1.31,3.65,1,13.64.83,20.39l-.28,1.13,1.38,3C464,479.77,462.59,469.22,462.7,463.45Z"/><path class="cls-2" d="M464.86,443.17c-.52,1.27-.75-4.32.07,4.7,0-.46.07-.59.1-.86C465,446.19,464.92,445.07,464.86,443.17Z"/><path class="cls-2" d="M465,447c.26,4,.35-2.62,0,0Z"/><path class="cls-2" d="M463.68,428.69l.81,5.2c.29-1.11.11-5.77.46-4.05C464.37,424.49,464.08,425.61,463.68,428.69Z"/><path class="cls-2" d="M462.3,423.8l.37,2.7A4.82,4.82,0,0,0,462.3,423.8Z"/><path class="cls-2" d="M463.46,432.22l-.79-5.72c-.2.77-.69.88.31,2.63C462.52,428.68,463,429.79,463.46,432.22Z"/><path class="cls-2" d="M463.41,435.48c-.17,3-.16,6.75-1,1.53C463.2,447,464.18,445.47,463.41,435.48Z"/><path class="cls-2" d="M461,461.61l-.22,3.95.69,3.36C461.15,467.24,461.49,461.34,461,461.61Z"/><path class="cls-2" d="M462.66,396.08c-.34-.31-.76,1.81-1.15,2.22l.58,3.84C462.2,400.14,462.2,396.37,462.66,396.08Z"/><path class="cls-2" d="M461.51,398.3l-.87-5.75C460.86,397.72,461.17,398.64,461.51,398.3Z"/><polygon class="cls-2" points="460.57 422.96 462.26 432.39 460.46 421.13 460.57 422.96"/><polygon class="cls-2" points="461.48 374.01 462.4 377.24 460.96 371.47 461.48 374.01"/><path class="cls-2" d="M460.54,359.38c.75,2.39.86-3.38,1.38-.84a79.59,79.59,0,0,0-1.69-10.37A56.69,56.69,0,0,1,460.54,359.38Z"/><path class="cls-2" d="M459.25,343.07c.24,1.61.6,3.28,1,5.1A44.18,44.18,0,0,0,459.25,343.07Z"/><path class="cls-2" d="M460.25,382.7c.17-.46.63-1.35.67-4.6l-.78,2.32Z"/><path class="cls-2" d="M460.12,380.5l0-.08-.22-4.91Z"/><path class="cls-2" d="M460.28,383.27l0-.57A.58.58,0,0,0,460.28,383.27Z"/><path class="cls-2" d="M460.55,407.77c-.69-3.37-1.63-10.42-2-3.52C459.29,406.64,459.51,402.7,460.55,407.77Z"/><path class="cls-2" d="M459.31,386.16l.13,6.15c.23-.13.52-1.26.86.41Z"/><polygon class="cls-2" points="458.85 383.17 459.31 386.16 459.26 383.88 458.85 383.17"/><path class="cls-2" d="M459,353.64a71.57,71.57,0,0,1-1-8.8c0,3.52.12,7.16.31,10.6C458.63,355.91,459.22,357.4,459,353.64Z"/><path class="cls-2" d="M459.45,366.7l-.08-.59C459.31,366.48,459.31,366.77,459.45,366.7Z"/><path class="cls-2" d="M456.23,312.58l-.14.53a1.26,1.26,0,0,1,.16.11Z"/><path class="cls-2" d="M458.18,356a20.82,20.82,0,0,0,.64,5.7c-.2-2-.38-4.06-.51-6.3C458.18,355.23,458.09,355.19,458.18,356Z"/><path class="cls-2" d="M458.33,334.1c-.11,1.38-.19,3-.24,4.6C458.3,337.34,458.59,334.57,458.33,334.1Z"/><path class="cls-2" d="M459.57,365.21l.06.39C459.78,364.72,459.69,364.84,459.57,365.21Z"/><path class="cls-2" d="M459.57,365.21c-.21-1.35-.49-2.41-.75-3.47.16,1.6.34,3.09.54,4.37A5.92,5.92,0,0,1,459.57,365.21Z"/><path class="cls-2" d="M449.88,303.13c.86.42,2,7.31,1.46,13.35,1,5.86,3.5,1.85,4.76-3.38-.38-.16-.71-.14-1.54-6.18-.34,2.15-.33,13.52-1.37,8.44-.88-8-.07-6.6.16-10.53-.86,3.38-2.09-10.14-3.53-8.3l.93,7C450.51,303.7,450,301.16,449.88,303.13Z"/><path class="cls-2" d="M456.64,324.67l.24,2.49a65,65,0,0,1,.66-8.69c-.64-4.13-1-5-1.29-5.24l.56,12.3Z"/><path class="cls-2" d="M457.51,338.37c-1-1.9-1.74-7.87-2.52-4.15.47,7.32,1,5.09,1.68,9.44-.88-11.81.7,3.37.74-5.2.28,2.31.45,4.4.59,6.37,0-2.13,0-4.19.08-6.14l0,.27V339h0c-.09.52-.15.69-.11.11a1.7,1.7,0,0,1,0-.25,1.32,1.32,0,0,1-.37-.51c0-3.43.21-.55.37.51,0,0,.09.13.14.14a.23.23,0,0,0,0,0l-1.16-11.81C456.9,329.67,457.1,332.81,457.51,338.37Z"/><path class="cls-2" d="M456.22,398c.06-.37.13-.36.19-.39C456.26,396.89,456.17,396.6,456.22,398Z"/><path class="cls-2" d="M456.5,393.13a14.71,14.71,0,0,1,.64,4.35c-.14,2.44-.44,0-.73.16.34,1.67,1,5.87,1.13.55l-.17-.83c0-4.78.85-11,1-10.15A19.06,19.06,0,0,0,456.5,393.13Z"/><path class="cls-2" d="M456.76,365.42l-1-9.83-.51,5.06.46-.28C455.84,366,456.35,364.75,456.76,365.42Z"/><polygon class="cls-2" points="456.62 311.43 457.65 312.68 455.98 307.06 456.62 311.43"/><polygon class="cls-2" points="455.79 298.62 456.66 299.05 455.96 295.7 455.79 298.62"/><path class="cls-2" d="M130.84,196.76l.4,2.88C131.09,198.28,131,197.4,130.84,196.76Z"/><path class="cls-2" d="M129.74,175.79l-.44-.49C129.58,176.25,129.77,176.64,129.74,175.79Z"/><path class="cls-2" d="M383.09,32.75c-4.26-.55-9-1.5-8.48-.59L376,33A44.25,44.25,0,0,1,383.09,32.75Z"/><path class="cls-2" d="M167.88,50.13l1.25.21,2.8-1Z"/><path class="cls-2" d="M165.12,54.09l-5.6-.29C160.78,53.94,162.58,54,165.12,54.09Z"/><path class="cls-2" d="M138.16,311.26l1.12,3.33C139,309.3,138.64,311.65,138.16,311.26Z"/><path class="cls-2" d="M448.19,167.42c.16-3.66.15-6.57.05-9.12C448,162.72,447.36,166.3,448.19,167.42Z"/><path class="cls-2" d="M120.64,189.05c.26,1.76.49,2.51.7,2.45C121.08,189.68,120.84,188.66,120.64,189.05Z"/><path class="cls-2" d="M447.66,147.78c-.06.65-.07,1.28-.11,1.94.3,2.65.57,5.33.69,8.58A36,36,0,0,0,447.66,147.78Z"/><path class="cls-2" d="M309.73,550.46c.3,0,.67,0,.95.06C310.76,550.39,310.34,550.41,309.73,550.46Z"/><path class="cls-2" d="M431.27,553c-1.19.12-3.13.23-5,.35A46.75,46.75,0,0,0,431.27,553Z"/><path class="cls-2" d="M453.34,247c.21,2.71.13.43,0,0Z"/><path class="cls-2" d="M450.44,260.47c-.13-.57-.29-1-.51-1.06A2,2,0,0,1,450.44,260.47Z"/><path class="cls-2" d="M440.45,121v-.24C440.3,121.62,440.33,121.47,440.45,121Z"/><path class="cls-2" d="M453.15,251.16c.06-1,.09-2.21.08-3.49C453.19,248.24,453.16,249.3,453.15,251.16Z"/><path class="cls-2" d="M453.55,250.59l0,2.38C453.77,253.3,453.85,253,453.55,250.59Z"/><path class="cls-2" d="M453.08,243.27c.1,1.55.14,3,.15,4.4,0-.54.07-.76.11-.62Z"/><path class="cls-2" d="M145.61,504.28c0,.18,0,.39-.05.59C146.09,507.59,146,506.39,145.61,504.28Z"/><path class="cls-2" d="M312.89,46.19l.31-.06h-.4Z"/><path class="cls-2" d="M303.17,47.41a24.2,24.2,0,0,1,9.63-1.29l-3.37-2.47Z"/><path class="cls-2" d="M133.89,247l.45-6.9c1.82,8.2,1.68,14.21,2.48,7.71-2.93-.81-1.77-26.63-4.69-27.42l.35-4.55c0,1.3.22,1.49.27,2.78.89-8.86-2.44-6.41-2.66-17.76,0-4,.27-6.73.76-4.06l-1.2-8.75c-.09-2.56.45-2,.53.59l-1-13.4.09.09c-.56-1.89-1.49-6.19-1.91-8.29.22-3.43.4,1.69.71.8L127,160.42c.58-3.07,1.64,3,1.82,8.18,2.49-7.09-1.07-6.12-.22-21.18l.75,7c1.38-4.61.49-10,1.06-18-.43,1.91-1.68,16-2.85,8a40.68,40.68,0,0,0-.79-9.6c1-.1.53-4.33.18-9.64l1.38.29c-.71-5.72-1.37-5.23-2.17-8.57-.22-6.41.76-7.79,1.56-9.35-.35-10.26-1.29,7.17-2.22-4.95,0-8.55-.84-14.51-2.21-24.66.14-6,.89,1,1.15-1.16l-1.37-5.23c0-1.3.31-.9.49-.69-.67-4.43-1.37-.29-2.13-7.28a3.25,3.25,0,0,1-.47-1.82l0-.7v-.63c0-.37.06-.76.1-1.17l.16-1.16a2.1,2.1,0,0,1,.45-1.11,2.6,2.6,0,0,1,2.47-.82c.45,0,.89.05,1.31.06h.62l1-.07a27,27,0,0,0,4.49-.7c2.16.27-1,.89-.3,1.38,11.84-1.77,10.15-1.37,19.84-3.41l8.37.43c-6.17-.68,1.58-2.31,8.36-3.68-2.2-.37-4.07-.7-5.33-.84L173.44,48c1.33.15.26.67-1.5,1.34.74-.15,1.44-.3,2-.44,3.93.28,2,1.18-.8,2.09l-4-.62c-2.65,1-5.12,2-4.52,2.78a26.19,26.19,0,0,1,3.56-.56c-.69.26-1.13.49-.8.6a12.33,12.33,0,0,0,3.27-.68l2.57,1.37.57-.63,14.34.16c10.14-2.08,18.91-4.81,35.1-6.33-4,1.33-.77,1.86-.91,3.18-4.5-1.14-12.53,1.28-21,1.47,4.4-.1,3.47.58,2.36.86l14.93-2.09c-.28,1.09,3.23.63,7.17.86-3.08-2,11.1-2,17.17-3,.42.69-1,1.5-8.46,1.74,8.3,1.14,10.48-3.08,18.61-2.16-1.82.12-2.8.06-3.5.46,4.21-.87,14.62-.94,12.21-.18l-1.81.11c12.08-.42,36.74-2,38.44-3.91.13.22-1.46,2.26-2.17,2.66l21.2-7.25c-1.81,1.65,5.67,4.93-4.29,6.36a67.17,67.17,0,0,0,12.48-.76c-2-.11-5-2-2.34-2.26,7.45,1.32,5.16.64,14.3,1.61-3-.17.17-2.77,4.82-3-.7.4.52,2.37-1.16,2.72l11.43-3c-2.86.59-.4,2,2.22,2.58-1.23-.4,10-.51,13.06-.91l-4.93-.28c13.07-.36,12.7-4.06,25.66-4.65-1.54.58-3.7,3.24,2.9,3.18,2.95-1.39,13-6.6,24.44-8.17l2.24.58L427,32.5a295,295,0,0,1-28.82,8.81c4.91.28,1.41.75,8.71.28,2.62.51-3.93,1.21-6.08,1.37l17-.52c-1-1.37,13.3-2.17,11.19-3.22,0,0,0,0,0,0h0l-1.28.26-2.3.31-4.6.62-9.2,1.25c-.36-.61,1.62-1.58,5-2.51,1.68-.47,3.71-.92,6-1.32,1.13-.2,2.31-.38,3.53-.54l1.8-.22,1.59-.17,1.78-.14a2.86,2.86,0,0,1,1.72.38c.45.46.35.85.1,1a4.31,4.31,0,0,1-1.21.47,3.72,3.72,0,0,0-2,1.22,1.6,1.6,0,0,1,1.35,0,1.79,1.79,0,0,1,1.05,1.62c.11.73.18,1.45.22,2.12a11.3,11.3,0,0,1,0,2.22l-.26-1.27-.13-.63-.07-.32a1.16,1.16,0,0,0-.06-.18q-.22-.61-.44-1.1a5.13,5.13,0,0,0,0,1.07l.09.9.14,1.11c.21,1.46.5,2.86.76,4.31a32.13,32.13,0,0,1,.51,10c.06,2.79-1.37,8.42-.5,8.85,1.37-4.63,6.35-5.8,7.74-2.84-.06,1-.74,14.71-1.37,17.94-1,4.66-3.42-6.72-4.29-2.75.4.15,1,2.65,1.23,3.7-.17,2.94-1.27-1.14-.74,5.2,1.5,1,.59,12.93,1.39,2.94.76,6.19.07,6.62.54,13.92.8-2.38,3.54,6.38,4.29,12.59-.39-.35-.79,1.08-1,1.77.57,12.75.3,19.63.94,31.52-.29,1.11-.4,6.87-1.15,4.46a35.78,35.78,0,0,1,1.16,6.9c-.86,7.16-.65-8.16-1.85-2.67.86.42,1.68,9.42,2.49,14.61,1.21-1.68-.42-12.08-1.23-17.28,1.79-.12,4.16,8.88,5.67,21.25,1,9.85-.92,4.34-.57,6,.71,18.56,4,15.63,3.56,31.09-.8,6.17-2.25.4-3,1.8-.88-8,0-12.39-.31-17.83l-.17,6.74a54.9,54.9,0,0,1-.94-10.83c-.74,5.18,1.54,31.34,1.38,45.7.52,2.52,1.16,6.89,1.5,4.78l-.41-4.52c.69-4.21,1.74,8.45,1.85,2.7,1,6,2.37,12.79,2.33,21.36l-1.21,1.68c.37-.2.46-5.63-.06-8,.77,3.53-1,13.2.88,17l.57-6c1,6.06,2.79,13.52,2.79,21.12,1.09-3.52-.24-1.74,1-7.2-1.61,4.77-1-19.39-2.54-11.78,1.44-5.62.21-9.6,1.29-16.91-.42.25-.68,2.6-.82-3.77a10.18,10.18,0,0,1-.45-1.37v-.43l0,.35c-.08-.27-.09-.3,0,.13a13.82,13.82,0,0,1-.47,3.28c-1.16-3.1-1.69-13.22-2.39-16.61,0-3.79.58,1.55.92-.53l-1-5.07c.92-.56,1-10.11,2.07-1.25l-.4-8a84.06,84.06,0,0,0-.5-15.21c0-3.79-1.58-9.47-.65-6.23l-1.28-12.52.23-.13c-.57-12.39-3-25.4-2.05-39.65a140.44,140.44,0,0,1-1.12-15.44l.75-1.41c-.58-5.33-.07-16.12-1-18.37,1.89-5.9-1-26-1.08-35.44l-1.09-.3c-.3-6.48-.95-12.68-1.82-20.7l-.92.55a83.92,83.92,0,0,1-.68-12.55V43.3l0-1.31c0-1,0-2-.08-2.94a13.72,13.72,0,0,0-.46-2.79,7.49,7.49,0,0,0-6-5.34,13.89,13.89,0,0,0-3-.19l-1.15.07a6.1,6.1,0,0,1,1.19-.23,10.16,10.16,0,0,1,3.34.18,7.16,7.16,0,0,1,3.22,1.67,7.41,7.41,0,0,0-2.9-1.75,11.37,11.37,0,0,0-3.56-.53c-1.2,0-2.42,0-3.64.09-.8,0-1.5,0-2.26.09-1.49.08-3,.2-4.48.34-3,.29-6,.67-8.92,1-5.89.73-11.62,1.38-16.88,1a29.26,29.26,0,0,1-7.18.38,5.51,5.51,0,0,0,.73-.09l-1.22.06c-1.32-.09-2.67-.21-4.14-.28,1.25.16,2.45.29,3.49.32-2.28.15-5.74.45-9.12.88L376,33l-.78.07c-3.35-.19-2.65.63-.83,1.3-1.7.26-3.26.55-4.46.86-2.8-1.5-8.88,1-12.67-.51-2.24,1-17,1.59-18.74,3.49-.13-.23-1.14-.28.7-.4a56.13,56.13,0,0,0-11,.7l-1.68-1.21-8.17,2.2c-5.06-.51-7.17-.86-2.24-2.13-12,2.2-9.74,1.12-19.89,3.2l.45-.87C293,40,287.24,41.4,285,40.83c-8.27-1.14-40.52,2-61.61,1.69,4.21,2.24-9.83-.57-10.56,1.39-1.26-.52-4.2-.68-.83-1.38-10.69,1.17-16.16,0-23.48,2-1.26-.52,2.25-1,1.14-1.27-.85.17-3.38.7-4.51.41s1.54-.58,3.23-.92c-10.95.7-12,2.56-12.66,4.3-5.6-.49-8.36-.23-12.31,1.1-2-.45-5.22-.85,1.58-1.42-3.83.13-23.44.48-23.75,1.86a27,27,0,0,0-6.36.41l-9,.38a49,49,0,0,0-4.93.37,7.4,7.4,0,0,0-2.72.88,6,6,0,0,0-2.38,2.67,5.93,5.93,0,0,1,2-2.13,10.33,10.33,0,0,0-1.38,3.19,8.93,8.93,0,0,0-.17,1.81c0,.63,0,1.31,0,2l0,4c0,1.28.06,2.7.19,4.28l-.18-.18c-.31,15.66.94,6.7.45,22.16l1-.89c2.26,1.31-.53,13.7.8,22.59l.4-3.26c1,4.84-2.22,13.8-2.22,18.71-.13,1.08-.4-1.67-.62-3.15-.58,12.89,1.42,1.59,2.26,11.13-.62,1.8-2-2.17-1.73,4.27-.4,3.24,3.36,18.53,2.47,27.38.45-2,.89-3.92,1.55.5.57,6.79-1.07,18.51,1,24.56-.1.87-.23,1.21-.36,1.25.74,5.18,1.68,16.86,2.8,19.94-3.24,5,3.5,32.24.25,32.3l1.06,16-.35-.4c.35,10.24,1.33,13.81,2.3,17.36-.09,2.38-.49.67-.67.48.17,15,.39,16.45,2.7,28.89l-1,1.36c.8,3.36-.45,21.69,1.59,36.28-.13-.14-.35-.43-.56-1.59,2.14,16.42-.73,39.63,3.43,45.46l1.54,10.83c-.48-14.09,1.77,2,2.09-3.82.53,5.52-.36,14.37-.93,7.58l.13-1.07c-2.13-2.39.26,17.53-1.12,17.23,1.63,27.69,2,54.75,3.37,80.7l1.38-3.07.41,9.05c-.23,2.4-1,3.26-1.33-3.2-.69,3.44,1.33,10.79,1.68,11,.07,12.68-2.08-4.84-1.9-1l.41,5.26.12-1.2c.87,4.23,1.56,4.57,1.91,12.34,0,4.93-.82,2.57-.77,4.51-.11,0-.13.65.12,3l.5,11.41,1-4.63c.88,5,.53,10.72,1.62,5.39a46.65,46.65,0,0,0-.49,8.61l0,1.88c0,.68,0,1.39.07,2.1a16.07,16.07,0,0,0,.27,2.07,6.55,6.55,0,0,0,.67,1.94,6.36,6.36,0,0,0,3.2,2.86,7.17,7.17,0,0,0,2.12.47,15.87,15.87,0,0,0,2.32.07l17.16-1c4.72-.27,8.35-.44,9.68-.33,7-1.28,14-1.65,22.68-2-2.17-.14-3.53-1.44,3.94-1.68-2.57,3,13.74.48,19.88,2.18-5.47-1.06,21.2-1.51,12.64-3,6.24-.11.44,1,5.2,1.45,14.76-1.92,32.71-1.09,51-2.47.27-.39-2.84-.79,1.06-1.56l9.78,1.33c3.61-.38,3.21-2.33,9.9-1.41-1-.26-2.37-.66,0-.91,36-.17,73.27-5.54,109.92-4.14-5-.45-1.69-.7,2.08-.94-2.46,0,0-.92-.5-1.4l15.34.56c2.7-1.55,16.36-1,17.88-2.43l-4.82.51c6.34-1.93-9.19-3-8.36-5.1-7.1,2.19-19.12-1.61-30.79,1.61-2.63-.27,2.19-.78.77-1.17-2.95,1-6.55,1.42-13.27,1.4l.75-.26c-18.81,1.25-26.92.84-48.1,1.44l1.62.92a55.05,55.05,0,0,1-7.66-.28c-5.13,1.81,12.76-.62,8.11,1.32-6.14-1.71-32,1.74-36.24-.36-7,.37,2.11,1-4.87,1.42l-1.89-.53-1.72.91c-4.59.12-6.94-.54-7.14-1.06,1.12,0,3.15-.32,4.34-.43-6-.41-16.74,1.18-18.79,1l6.74,0c-19,1.64-42.38,2.1-60.73,4.4l1.43.4c-14,1.65-11.3.1-26.73,1.36l.56-.14a74.17,74.17,0,0,1-11.41,1.29c3.87-.77-7.4-.67-2.32-1.57C183.25,559,191,558.41,181,560.72l-2.37-.66c-3.4.9-3.66,1.29-11.37,1.92,6.29-1-5-.92,2-2.21a88.87,88.87,0,0,0-9.73,0c-1.44.08-2.79.2-4.07.32l-.95.1-.45,0-.23,0-.93.16a5.11,5.11,0,0,1-2.28.15,1.83,1.83,0,0,1-1.27-1.47,7.87,7.87,0,0,1,.11-1.94,4.88,4.88,0,0,1,.24-.87c.09-.52.21-1,.35-1.57-.65-1.83-1-1.86-1.17-1a12.83,12.83,0,0,0-.14,2v2c0,.63,0,1.28.1,1.86a2.33,2.33,0,0,0,.77,1.32,4.29,4.29,0,0,0,.69.45c.09.05,0,.08-.36,0,.39.42.36.58-.11.67a2.2,2.2,0,0,1-1.94-1,3.19,3.19,0,0,1-.49-1.53c-.09-.58-.17-1.21-.24-1.85-.13-1.17-.24-2.9-.26-4.13-.24-5.18,2.29-8.95,1.53-22,.06,1.29.23,1.37.29,2.67.28-4.9-1.28-9.5-.71-15.52-1.5-3.28-.35-7.76-2.08-8.63l1,11.91c-.81-6.74-3.12-13-2.79-24.18a45.05,45.05,0,0,1,1.39,6.41c.31-3.29-.67-6.26-.35-9.67,1.73.87,1.17,14.48,2.85,21.66.51-3.54-2-13.65,0-10.1-2.6-5.11-.42-12.84-2.67-21.55l1,.53a54.58,54.58,0,0,1-1-6.82l1.56,4.57c-1.51-7.07.21-13.81-.77-20.62.82,14.33-1,3.28-1.43,9.38-2.32-17.6,2.07-10.31.49-30.06.29,2.67,0,10.09-.74,5.93a88,88,0,0,1,.51-11.11c-.93-13.1-.92,2.07-1.85-3.48,1-4.53-.85-6.41-1.56-12.13l1-.1c-.17-15-2.35-3.84-2.3-17.33l1.73,5.61-.75-7,1.24,1.38c-1.28-7.58-1.19-10-1.28-17.46-.62,1.78-1.91-.87-2.31-7.49.36-4.55,1.11,2.47.45-6.9a14.3,14.3,0,0,1,1,8.49c.36.4.76,2.05,1.11,2.47.43-4.9-.52-12.22-.71-15.62a31.78,31.78,0,0,1,0,3.68l-2.17-13.52c.27-2.16.67-.48,1.06,1.18-.26-2.75-.84-4.63-1.15-8.67.89,1,1.73.7,2.44,6.41l-1.64-12.9c.31-.89.62-6.7,1-5,.09-7.21-2.59-17.53-2.47-27.08a16.4,16.4,0,0,1-.63-3.49c-.31-9,.27-16.94-1.45-27.48l1.16-6.1c-.8-8.29-1.42,8.25-2.75-5.55-1-9.76,1.07-3.73,1.29-7.18-1-4.83-3-13.21-2.3-22.27C133.71,241.85,133.62,244.2,133.89,247Zm-6.33-102.39c.32,2,1.2,5.89.68,7.38C126.95,149.76,127.41,148,127.56,144.58Zm55.51-93.32a19.29,19.29,0,0,1-6.35.13A40.64,40.64,0,0,1,183.07,51.26ZM450.86,217.31a2,2,0,0,0-.06-.21C451,212.65,450.88,214.23,450.86,217.31Zm.07,9.22c.19.92.33.84.45.45a20.1,20.1,0,0,1-.48-5C450.67,222.6,450.55,223.79,450.93,226.53ZM140.34,533.69l.17-1.8C141,535.91,140.7,534.79,140.34,533.69Z"/><path class="cls-2" d="M165.49,53.63a1.33,1.33,0,0,1-.88-.51C163.84,53.34,163.84,53.54,165.49,53.63Z"/><path class="cls-2" d="M137.95,310.64V311a.7.7,0,0,0,.2.3Z"/><path class="cls-2" d="M434.39,84.6a20,20,0,0,1,.33-3.68C434.46,80.83,434.29,81.7,434.39,84.6Z"/><path class="cls-2" d="M455.36,275.15l-.59-5.87a30.2,30.2,0,0,1,0,5.32C455,274.45,455.24,273.31,455.36,275.15Z"/><path class="cls-2" d="M451.87,326.62c.17.85.11,1.82.29,2.67l.46-.26C452.38,325.36,451.86,322.81,451.87,326.62Z"/><path class="cls-2" d="M452.27,280.79c-.83.51-.34,4.19.05,8.31,0-.25,0-.48,0-.73C453.55,289.52,452.91,285.14,452.27,280.79Z"/><path class="cls-2" d="M452.4,290.05c.11,1.27.21,2.57.23,3.81C453.14,294.32,452.65,292.31,452.4,290.05Z"/><path class="cls-2" d="M452.14,238.16c-.11,2,1.17,1.17.88,2.29C454.23,242.57,451,227.48,452.14,238.16Z"/><polygon class="cls-2" points="449.62 284.29 450.6 282.75 449.62 280.49 449.62 284.29"/><path class="cls-2" d="M448.6,251.67l.07,6.61c.17-.11.32.72.46,1.75C448.94,256,448.9,251.5,448.6,251.67Z"/><path class="cls-2" d="M449.13,260a41.11,41.11,0,0,0,.47,5.3C449.52,264.18,449.35,261.72,449.13,260Z"/><polygon class="cls-2" points="448.8 275.29 448.92 273.33 448.74 268.67 448.8 275.29"/><path class="cls-2" d="M444.88,180.8l-.7-7.18c-.4-.71-.52,1.26-.22,3.93C444.3,179.27,444.59,181.93,444.88,180.8Z"/><path class="cls-2" d="M443.18,202.72a10.44,10.44,0,0,1,.63-3.22l-1.33-.15Z"/><path class="cls-2" d="M441.71,181.76c-.4-.7-1.62-10.38-1-1.27C441.08,181.2,441.78,188.39,441.71,181.76Z"/><polygon class="cls-2" points="437.38 73.27 437.49 75.1 439.64 74.72 437.38 73.27"/><path class="cls-2" d="M377.15,44.1c8.55,0,2-1.44,9.69-1.22,2-.62-6.33-.18-4.3-.73C377.43,43,374.71,42.81,377.15,44.1Z"/><path class="cls-2" d="M382.54,42.15c.82-.13,1.69-.28,2.61-.47A24.84,24.84,0,0,0,382.54,42.15Z"/><polygon class="cls-2" points="451.42 553.1 456.93 553.25 453.35 552.72 451.42 553.1"/><path class="cls-2" d="M462.92,550.51a7.44,7.44,0,0,0,3.09-.29,7.94,7.94,0,0,0,1.67-6.87,7.58,7.58,0,0,1-.17,2.24,7.11,7.11,0,0,1-1.08,2.4A6.13,6.13,0,0,1,462.92,550.51Z"/><path class="cls-2" d="M129.48,129.19l-.35-.4c-.31.87-.27,2.15-.18,4.73Z"/><polygon class="cls-2" points="132.57 203.6 132.53 202.31 131.42 204.78 132.57 203.6"/><path class="cls-2" d="M137.61,265.91c-.09-2.55-.53-5.53-.62-8.09C137.52,263.36,136.1,266.68,137.61,265.91Z"/><text class="cls-3" transform="matrix(0.94, -0.35, 0.35, 0.94, 178.93, 172.31)">S</text><text class="cls-3" transform="translate(195.59 166.1) rotate(-17.08)">P</text><text class="cls-3" transform="matrix(0.97, -0.25, 0.25, 0.97, 213.64, 160.69)">I</text><text class="cls-3" transform="matrix(0.98, -0.2, 0.2, 0.98, 222.96, 158.18)">C</text><text class="cls-3" transform="translate(242.96 154.07) rotate(-8.34)">Y</text><text class="cls-3" transform="translate(261.45 151.49) rotate(-5.92)"> </text><text class="cls-3" transform="translate(270.47 150.51) rotate(-3.74)">B</text><text class="cls-3" transform="translate(289.23 149.44) rotate(-1.1)">I</text><text class="cls-3" transform="translate(298.91 149.22) rotate(1.07)">L</text><text class="cls-3" transform="matrix(1, 0.06, -0.06, 1, 311.2, 149.39)">T</text><text class="cls-3" transform="matrix(0.99, 0.12, -0.12, 0.99, 326.96, 150.23)">O</text><text class="cls-3" transform="translate(349.32 152.89) rotate(10.63)">N</text><text class="cls-3" transform="matrix(0.97, 0.25, -0.25, 0.97, 370.35, 156.9)">G</text><path class="cls-4" d="M153.85,161.5c.16,0,.44-.1.6-.12a8.63,8.63,0,0,1,2.67-.51,8.34,8.34,0,0,1,2,.31c.29.1.57.1.84.22.42.2.88.31,1.29.48a13.48,13.48,0,0,1,1.49.65,17.88,17.88,0,0,0,1.66.71,3.54,3.54,0,0,0,.82.35,5.55,5.55,0,0,0,.92.19,1.43,1.43,0,0,1,.59.18c0,.14,0,.32-.2.37a5,5,0,0,1-1.54.13,5.45,5.45,0,0,1-.88-.13c-.29-.06-.61-.06-.89-.14a14.26,14.26,0,0,0-1.59-.25,13.15,13.15,0,0,0-1.33,0,7.45,7.45,0,0,1-2-.21c-.53-.08-1-.22-1.53-.33a8.93,8.93,0,0,1-1.21-.41,4.41,4.41,0,0,1-1.26-.82,2.24,2.24,0,0,0-.49-.46C153.77,161.62,153.77,161.53,153.85,161.5Zm9.86,17.72c.12-.29.06-.61.15-.9a3.71,3.71,0,0,0,0-1.08,3,3,0,0,1,0-.66,9.72,9.72,0,0,0,.16-1.11c0-.18.18-.3.2-.46a2.48,2.48,0,0,1,.27-.82c.13-.26.18-.54.29-.83s.28-.63.45-.95c.28-.52.51-1.05.81-1.54s.54-.94.81-1.4a6.43,6.43,0,0,0,.48-.81,3,3,0,0,1,.41-.77,3.49,3.49,0,0,1,.58-.58c.22-.09.39.19.33.52-.11.09-.1.36-.14.52-.17.65-.31,1.28-.49,1.91s-.3,1.59-.46,2.34c-.08.25-.06.54-.14.81a2.11,2.11,0,0,0-.09.75,1.3,1.3,0,0,1-.12.62c-.29.69-.5,1.42-.81,2.11-.16.33-.4.63-.57,1a6.74,6.74,0,0,1-1.67,1.78C163.86,179.78,163.71,179.66,163.71,179.22Zm-8.6-6.81a7.78,7.78,0,0,1,.75-.84c.12-.25.39-.44.51-.69a2.55,2.55,0,0,1,.5-.64,7.07,7.07,0,0,1,2.2-1.43,16.08,16.08,0,0,0,1.82-.6c.32-.14.68-.19,1-.36a5,5,0,0,1,.73-.32c.51-.17,1-.46,1.5-.57.33-.2.71-.26,1-.45s.48-.2.73-.32a1.42,1.42,0,0,1,.8-.09c.33,0,.19.37-.09.58a5.87,5.87,0,0,1-1.24,1.09c-.47.34-1,.66-1.44,1-.32.16-.58.42-.89.56a7.5,7.5,0,0,0-.87.62,6,6,0,0,0-.61.41c-.2.14-.32.33-.52.46a2.82,2.82,0,0,0-.6.42,5.53,5.53,0,0,1-.85.57,8.46,8.46,0,0,1-1.59.77,7.11,7.11,0,0,1-1.65.14c-.23,0-.47.13-.7,0C155.29,172.88,155.12,172.75,155.11,172.41Z"/><path class="cls-4" d="M412.57,151.95a2.41,2.41,0,0,0-.51.44,4.37,4.37,0,0,1-1.27.78,9.83,9.83,0,0,1-1.23.37c-.51.09-1,.23-1.54.28A7.42,7.42,0,0,1,406,154a12.83,12.83,0,0,0-1.32,0,15.48,15.48,0,0,0-1.6.2c-.29.08-.61.06-.9.11a5,5,0,0,1-.89.1,4.91,4.91,0,0,1-1.53-.18c-.16-.06-.16-.23-.2-.37a1.51,1.51,0,0,1,.6-.17,4.78,4.78,0,0,0,.93-.16,3.41,3.41,0,0,0,.83-.32c.58-.18,1.12-.43,1.68-.67a13.75,13.75,0,0,1,1.5-.6c.42-.16.88-.26,1.3-.45s.56-.1.85-.19a8.25,8.25,0,0,1,2-.26,8.63,8.63,0,0,1,2.65.58c.15,0,.44.11.59.15S412.59,151.88,412.57,151.95Zm-10.89,17.62a6.86,6.86,0,0,1-1.63-1.83c-.15-.33-.37-.64-.53-1-.3-.7-.48-1.43-.75-2.13a1.43,1.43,0,0,1-.11-.62,2.19,2.19,0,0,0-.08-.76c-.07-.26,0-.55-.11-.81-.13-.77-.21-1.74-.39-2.36s-.29-1.28-.44-1.92c0-.16,0-.42-.13-.53,0-.32.13-.6.36-.5a4.19,4.19,0,0,1,.57.6,3,3,0,0,1,.38.78,6.12,6.12,0,0,0,.45.83c.26.47.54.94.78,1.42s.5,1.05.77,1.57c.16.32.29.64.42,1s.15.57.27.83a2.82,2.82,0,0,1,.25.83c0,.16.18.3.17.47a8.4,8.4,0,0,0,.14,1.12,3.11,3.11,0,0,1,0,.65,4.08,4.08,0,0,0,0,1.09c.08.3,0,.62.12.91S402,169.73,401.68,169.57Zm8.69-6.63c-.22.09-.46,0-.69,0a6.87,6.87,0,0,1-1.64-.19,8.52,8.52,0,0,1-1.56-.82,4.15,4.15,0,0,1-.83-.6,3.76,3.76,0,0,0-.59-.43c-.19-.13-.31-.32-.51-.47a4.54,4.54,0,0,0-.6-.42,6.68,6.68,0,0,0-.85-.65c-.32-.15-.56-.41-.87-.58-.46-.35-.95-.68-1.42-1a6.3,6.3,0,0,1-1.21-1.13c-.27-.22-.39-.57-.07-.59a1.34,1.34,0,0,1,.81.12c.24.12.48.2.71.34s.71.26,1,.48c.51.13,1,.43,1.47.61a5.69,5.69,0,0,1,.73.35,10.07,10.07,0,0,0,1,.4c.58.25,1.19.45,1.8.65a6.83,6.83,0,0,1,2.14,1.5,2.26,2.26,0,0,1,.48.64c.11.26.38.46.48.71a6,6,0,0,1,.73.86C410.91,163,410.74,163.09,410.37,162.94Z"/><text class="cls-5" transform="translate(190.57 283.95) rotate(-3.15)">BEEF</text><text class="cls-6" transform="translate(207.55 314.19) rotate(-3.15)">A<tspan class="cls-7" x="12.9" y="0">I</tspan><tspan x="19.07" y="0">R-DRIED SLICES</tspan></text><path class="cls-8" d="M422,473.44c-4.39-10.59-8.15-25.43-6.91-36.55.83-7.37,1.42-14.77,2.26-22.14.45-2.34,3.07-11.94,1-13.72-7.91-6.66-29.23.12-38.49,1-7.52.7-15.14-.12-22.61,1.13-5.2.87-11.2,4.88-16.48,4.74,0,0-10-1-11.3-.65-1.49.34-13.72,2.4-14.13,2.84-2.26-2.28-15-1.87-18.45-2.06a137.83,137.83,0,0,0-23.86.75c-16,1.72-31.93,3.16-48,3.55-7.89.19-15.79.34-23.66.91s-17.33,3.06-24.12,2.62c-1.61-.11,6.13,35.32,7.24,38.6-2.82,5.7-3.83,12.07-5.48,18.11-1.23,4.53-5.13,13.61-2.85,18.14,1.91,3.78,4.26,2.49,9.61,1.73,9.76-1.39,19.43-3.35,29.13-5.06,6.21-1.09,12.62-2.35,19-1.81,8.32.71,15.69,2.81,24,.54,6.87-1.88,13.53-5,20.77-5.38,6.32-.34,12.23-.39,18.83-.61,16.16-.54,32.59-.81,48.74-.88,5,0,5.1-2.09,9.69.09a19.92,19.92,0,0,0,8.86,1.83c8.14-.11,15.89-4.18,23.86-1.87,8.39,2.43,16.29.71,24.76,1.41,1.19.1,7.74,2,8.38,1,1.19-1.91,1.08-6.31.26-8.28Z"/><text class="cls-9" transform="translate(347.52 471.51) rotate(-3.21)">E<tspan class="cls-10" x="5.28" y="0">A</tspan><tspan x="9.93" y="0">T OUR ME</tspan><tspan class="cls-10" x="49.66" y="0">A</tspan><tspan class="cls-11" x="54.31" y="0">T</tspan><tspan class="cls-12" x="60.05" y="-1.38">™</tspan></text><path class="cls-13" d="M439.15,545.53A17.77,17.77,0,1,1,456,526.85,17.79,17.79,0,0,1,439.15,545.53Zm-1.84-35.07a17.35,17.35,0,1,0,18.23,16.41A17.36,17.36,0,0,0,437.31,510.46Z"/><path class="cls-13" d="M436,518.42c.07,1.27-.53,1.94-1.49,2s-1.61-.56-1.68-1.79l-.13-2.45.65,0,.13,2.41c0,.79.42,1.2,1,1.16s.91-.45.87-1.23l-.13-2.45.65,0Z"/><path class="cls-13" d="M436.75,520.22l0-.83.71,0,0,.83Z"/><path class="cls-13" d="M440.65,517.54c.8.18,1.22.48,1.26,1.19a1.22,1.22,0,0,1-1.26,1.34,2.15,2.15,0,0,1-1.58-.6l.37-.56a1.59,1.59,0,0,0,1.2.49c.4,0,.65-.24.63-.57s-.17-.47-.87-.61-1.26-.42-1.3-1.21a1.2,1.2,0,0,1,1.2-1.3,1.9,1.9,0,0,1,1.37.46l-.32.58a1.55,1.55,0,0,0-1-.38c-.38,0-.59.25-.58.54S439.93,517.39,440.65,517.54Z"/><path class="cls-13" d="M442.62,519.91l0-.83.7,0,0,.83Z"/><path class="cls-13" d="M428.5,522.42l.13,2.47-.38,0-.13-2.47Z"/><path class="cls-13" d="M430.89,522.29l.37,0,.13,2.47-.32,0-1.28-1.7.09,1.76-.37,0-.13-2.47.35,0L431,524Z"/><path class="cls-13" d="M433,523.22c.46.1.71.28.73.69a.71.71,0,0,1-.73.78,1.22,1.22,0,0,1-.92-.35l.21-.32a1,1,0,0,0,.7.28c.24,0,.38-.14.37-.33s-.1-.27-.5-.36-.74-.24-.76-.7a.7.7,0,0,1,.7-.76,1.09,1.09,0,0,1,.79.27l-.18.34a.88.88,0,0,0-.6-.22c-.22,0-.34.15-.34.31S432.59,523.13,433,523.22Z"/><path class="cls-13" d="M435.29,523.74l-.43,0,0,.79-.38,0-.13-2.47.85,0a.77.77,0,0,1,.86.78A.81.81,0,0,1,435.29,523.74Zm-.05-1.29-.44,0,0,.88.44,0a.45.45,0,1,0,0-.89Z"/><path class="cls-13" d="M438.38,522.29l-1.22.06,0,.64,1.08-.06,0,.39-1.08.06,0,.66,1.24-.07,0,.39-1.61.08-.13-2.47,1.6-.08Z"/><path class="cls-13" d="M440.26,524.31a1.29,1.29,0,0,1-.12-2.55,1.05,1.05,0,0,1,.87.34l-.22.33a.82.82,0,0,0-.62-.27.79.79,0,0,0-.67.91.8.8,0,0,0,.76.84.81.81,0,0,0,.6-.36l.26.27A1.07,1.07,0,0,1,440.26,524.31Z"/><path class="cls-13" d="M442.75,524.14l-.38,0-.11-2.06-.68,0,0-.4,1.75-.09,0,.4-.68,0Z"/><path class="cls-13" d="M445.63,521.91l-1.22.06,0,.64,1.08-.06,0,.39-1.08.06,0,.66,1.24-.06,0,.39-1.62.08L444,521.6l1.6-.08Z"/><path class="cls-13" d="M447.31,523.9l-.8,0-.13-2.46.8,0a1.24,1.24,0,0,1,.13,2.46Zm-.11-2.07-.42,0,.09,1.68.43,0a.75.75,0,0,0,.7-.87A.77.77,0,0,0,447.2,521.83Z"/><path class="cls-13" d="M426,529.26l-.4,0-.25-.59-1,.05-.19.61-.39,0,.82-2.54.35,0Zm-1.23-1.91-.32,1,.74,0Z"/><path class="cls-13" d="M428,526.68l.37,0,.13,2.47-.32,0-1.28-1.7.09,1.76-.37,0-.13-2.46.35,0,1.24,1.65Z"/><path class="cls-13" d="M430.2,529l-.8,0-.13-2.46.8,0a1.24,1.24,0,0,1,.13,2.47Zm-.11-2.07-.43,0,.09,1.67.43,0a.76.76,0,0,0,.7-.87A.76.76,0,0,0,430.09,527Z"/><path class="cls-13" d="M434.11,528l-.43,0,0,.79-.38,0-.13-2.47.85,0a.77.77,0,0,1,.86.78A.81.81,0,0,1,434.11,528Zm-.05-1.28-.44,0,0,.88.44,0a.43.43,0,0,0,.44-.47A.41.41,0,0,0,434.05,526.76Z"/><path class="cls-13" d="M437.55,528.65l-.4,0-.25-.59-1,.06-.19.61-.39,0,.82-2.54.35,0Zm-1.23-1.91-.32,1,.74,0Z"/><path class="cls-13" d="M438.95,527.14c.46.1.71.28.73.69a.71.71,0,0,1-.73.78,1.24,1.24,0,0,1-.92-.35l.21-.32a.94.94,0,0,0,.7.29c.23,0,.38-.14.37-.33s-.1-.27-.5-.36-.73-.24-.76-.7a.7.7,0,0,1,.7-.76,1.13,1.13,0,0,1,.8.27l-.19.34a.91.91,0,0,0-.6-.22.31.31,0,0,0-.33.31C438.43,527,438.53,527.05,438.95,527.14Z"/><path class="cls-13" d="M441.19,527c.46.1.71.28.73.69a.71.71,0,0,1-.73.78,1.24,1.24,0,0,1-.92-.35l.21-.32a.94.94,0,0,0,.7.28c.23,0,.38-.14.37-.33s-.1-.27-.51-.36-.73-.24-.76-.7a.7.7,0,0,1,.7-.76,1.1,1.1,0,0,1,.8.27l-.19.34a.9.9,0,0,0-.6-.22c-.22,0-.34.14-.33.31S440.77,526.94,441.19,527Z"/><path class="cls-13" d="M444.2,526.22l-1.22.07,0,.64,1.08-.06,0,.39-1.08.06,0,.66,1.24-.06,0,.39-1.62.08-.13-2.47,1.6-.08Z"/><path class="cls-13" d="M445.88,528.22l-.8,0-.13-2.47.8,0a1.24,1.24,0,0,1,.13,2.47Zm-.11-2.07-.42,0,.08,1.67.43,0a.75.75,0,0,0,.71-.87A.77.77,0,0,0,445.78,526.14Z"/><path class="cls-13" d="M450.61,526.13a.59.59,0,0,1-.28.57.6.6,0,0,1,.46.58c0,.44-.28.7-.76.72l-1,.05-.13-2.47,1,0A.63.63,0,0,1,450.61,526.13Zm-.38.09c0-.2-.15-.31-.4-.29l-.54,0,0,.65.52,0C450.08,526.56,450.24,526.45,450.23,526.21Zm.17,1c0-.21-.16-.32-.46-.31l-.6,0,0,.68.63,0C450.26,527.6,450.42,527.47,450.4,527.25Z"/><path class="cls-13" d="M452.48,527.87l-.38,0,0-1-.94-1.45.45,0,.66,1.07.55-1.13.43,0-.78,1.53Z"/><path class="cls-13" d="M424.14,533.59l-.8,0-.13-2.46.8,0a1.24,1.24,0,0,1,.13,2.47Zm-.11-2.07-.42,0,.09,1.67.42,0a.76.76,0,0,0,.71-.87A.77.77,0,0,0,424,531.52Z"/><path class="cls-13" d="M427.55,531.33l-1.22.06,0,.64,1.08-.05,0,.39-1.08.06,0,.65,1.24-.06,0,.38-1.61.09-.13-2.47,1.6-.08Z"/><path class="cls-13" d="M429.19,532.53l-.43,0,0,.79-.38,0-.13-2.47.85,0a.77.77,0,0,1,.86.78A.81.81,0,0,1,429.19,532.53Zm-.05-1.28-.44,0,0,.88.44,0a.43.43,0,0,0,.44-.47A.41.41,0,0,0,429.14,531.25Z"/><path class="cls-13" d="M432.63,533.14l-.4,0-.25-.58-1,.05-.19.6-.39,0,.82-2.53.35,0Zm-1.23-1.91-.32,1,.74,0Z"/><path class="cls-13" d="M434.69,533l-.58-.83-.47,0,0,.85-.38,0-.13-2.46,1-.05a.74.74,0,0,1,.84.74.72.72,0,0,1-.48.78l.63.9Zm-.56-2.05-.55,0,0,.82.55,0a.41.41,0,0,0,.42-.43A.39.39,0,0,0,434.13,531Z"/><path class="cls-13" d="M436.74,532.93l-.38,0-.11-2.06-.69,0,0-.4,1.75-.1,0,.4-.68,0Z"/><path class="cls-13" d="M439.16,532.2h0l-.73-1.12.09,1.77-.37,0-.13-2.46.4,0,.72,1.13.59-1.2.4,0,.13,2.47-.38,0-.09-1.77Z"/><path class="cls-13" d="M442.6,530.54l-1.22.07,0,.64,1.08-.06,0,.39-1.08.06,0,.66,1.23-.06,0,.39-1.61.08-.13-2.46,1.6-.08Z"/><path class="cls-13" d="M444.85,530l.37,0,.13,2.47-.32,0-1.28-1.69.09,1.75-.37,0-.13-2.46.35,0,1.25,1.64Z"/><path class="cls-13" d="M447.13,532.38l-.38,0-.11-2.06-.68,0,0-.4,1.75-.09,0,.4-.68,0Z"/><path class="cls-13" d="M450.78,532.24a1.29,1.29,0,1,1,1.06-1.34A1.18,1.18,0,0,1,450.78,532.24Zm-.11-2.15a.79.79,0,0,0-.68.91.81.81,0,0,0,.78.85.8.8,0,0,0,.68-.91A.8.8,0,0,0,450.66,530.09Z"/><path class="cls-13" d="M454.16,529.94l-1.22.06,0,.67,1.09-.06,0,.39-1.09.06.05,1-.38,0-.13-2.47,1.6-.08Z"/><path class="cls-13" d="M428.41,537.6l-.4,0-.25-.58-1,.05-.19.61-.39,0,.82-2.53.35,0Zm-1.23-1.9-.32,1,.74,0Z"/><path class="cls-13" d="M430,537.57a1.16,1.16,0,0,1-1.19-1.21,1.19,1.19,0,0,1,1-1.33,1.08,1.08,0,0,1,.85.29l-.22.34a.74.74,0,0,0-1.27.67c0,.51.34.87.78.85a.8.8,0,0,0,.51-.21l0-.46-.55,0,0-.38.92,0,.05,1A1.29,1.29,0,0,1,430,537.57Z"/><path class="cls-13" d="M433.05,537.36l-.58-.83-.48,0,0,.86-.38,0-.13-2.46,1,0a.79.79,0,0,1,.37,1.51l.63.91Zm-.56-2-.55,0,0,.83.56,0a.4.4,0,0,0,.42-.44C432.94,535.43,432.77,535.3,432.49,535.31Z"/><path class="cls-13" d="M434.47,534.81l.13,2.47-.38,0-.13-2.46Z"/><path class="cls-13" d="M436.49,537.23a1.29,1.29,0,0,1-.12-2.55,1,1,0,0,1,.86.34l-.23.33a.8.8,0,0,0-.62-.27.79.79,0,0,0-.66.91.74.74,0,0,0,1.36.49l.26.27A1.07,1.07,0,0,1,436.49,537.23Z"/><path class="cls-13" d="M439.81,535.93c0,.74-.3,1.13-.87,1.16s-.94-.32-1-1l-.07-1.42.38,0,.07,1.4c0,.46.25.7.58.67s.53-.26.5-.71l-.07-1.42.38,0Z"/><path class="cls-13" d="M440.57,534.5l.38,0,.11,2.07,1.13-.05,0,.39-1.51.08Z"/><path class="cls-13" d="M443.51,536.81l-.38,0-.11-2.06-.68,0,0-.4,1.75-.09,0,.4-.68,0Z"/><path class="cls-13" d="M446.65,535.58c0,.74-.3,1.13-.87,1.16s-.94-.32-1-1l-.08-1.42h.38l.07,1.4c0,.46.24.69.58.67s.53-.26.51-.71l-.07-1.42.38,0Z"/><path class="cls-13" d="M448.92,536.53l-.57-.83-.48,0,0,.86-.38,0-.13-2.46,1,0a.79.79,0,0,1,.36,1.52l.63.9Zm-.56-2-.55,0,0,.83.56,0a.4.4,0,0,0,.42-.44A.39.39,0,0,0,448.36,534.49Z"/><path class="cls-13" d="M451.56,534.31l-1.22.07,0,.64,1.08-.06,0,.39-1.08.06,0,.66,1.23-.07,0,.39-1.61.08-.13-2.47,1.6-.08Z"/><text class="cls-14" transform="matrix(1, -0.05, 0.05, 1, 268.54, 552.54)">NET WT 2 OZ (57G)</text><path class="cls-15" d="M340.38,186.9c-1.5-2.74-1.86-7-3.38-9.74.65-3.18,1-6.55,1.58-9.81a5.05,5.05,0,0,0,.17-1c.17-.9.34-1.8.55-2.68.15-.62-.24-1.19-.51-.84,0,0,0-.05,0-.06-5.11-1.19-10.32-.39-15.38.32s-10.29-.16-15.26,1.4c-1.12,0-1.61.64-2.72.68-.59,0-.81.26-1.4.26,0-.27-.92.23-1.08.15-2.21-1-4.5-.17-6.7.27-.62.12-1.24.28-1.86.42-.55,0-1.09-.06-1.63-.07a.35.35,0,0,0-.24.09.3.3,0,0,0-.17-.09c-3.78-.2-7.62-.67-11.41-.49-.06-.16-.15-.28-.26-.27-7.88.61-15.75,1.52-23.65,1.86-8.89.39-17.86.2-26.68,1.88-.21-.57-.71-.21-.59.54a48.9,48.9,0,0,0,1.61,6.58,53.47,53.47,0,0,0,1.78,5.43,23.92,23.92,0,0,0-2.28,5.3c-.57,1.65-1.89,4.42-1.75,6.55,0,.2.14.43.25.33l0,0c-.05.4.08.93.36.9,6.92-.59,13.82-1.86,20.73-2.72.06.11.13.19.23.17,4.57-1.17,9.23.72,13.82,0,4.89-.78,9.28-2.87,14.28-2,.11,0,.19-.07.25-.18a.45.45,0,0,0,.29.08,54.24,54.24,0,0,1,6.28-.43c2.13.09,4.26.12,6.38.09,3.68.23,7.35-.54,11-.63,1.95,0,4.17.36,6.11-.52,3.1,1.58,6.21,1.21,9.33.67,1.73-.3,3.47-.48,5.21-.64,3.13.74,6.34,1.28,9.38.43,2.24.37,4.51.1,6.75.71.49.13.76-.7.7-1.41A2,2,0,0,0,340.38,186.9Z"/><path class="cls-1" d="M252.87,186.23l0,.43-.49.11-.55,0h-.33l-.67.09h-.37l-.41-.15-.37-.25-.12-.31-.18-.33-.35-.26-.39-.17-.39.07-.32,0-1.73.11-.32,0-.73.11-.34,0-.36.21-.32.35-.29.6-.31.34-.4.15-1,.08h-.35l-.69.07-.36-.08-.11-.44.09-.36.31-.72.07-.32.18-.25.22-.72.29-.58.1-.36.16-.27.08-.39,1.59-3.87.08-.32.18-.34L244,178l.18-.28.62-1.66.14-.25.1-.36.14-.31.3-.32.55-.23.59.15.32.3.37.6.12.31.21.31.12.35,1.3,2.38.14.37.41.63.12.28.17.26.13.38.2.33.19.25.76,1.56.39.62.28.64.53.89.3.64Zm-11.54.3v-.09l.17,0,0-.14.16-.08.2.06.12-.09,0,0-.14,0,.06-.15.1-.08.1-.15v-.09l0-.11,0-.11.12-.1,0-.07h-.07l-.16-.06,0-.05.07,0,.08,0,.08-.1-.05-.06h-.07l-.08,0-.07,0-.16,0,0,.06,0,.12h-.07l0,0-.12.06-.05.07,0,.09.18.08.06.07,0,.09-.09,0h-.1l-.05.07v.07h-.2l-.07,0-.08.06,0,.11,0,0h.09l0,.15-.14.08,0,.19,0,.1,0,.11-.11,0,0-.11H241v.09l.09.06.11.09.09,0,.15-.09Zm0,.46h-.07v0h.07Zm.31-1-.06-.07,0-.11h.09l.11,0-.05.08Zm.73.38-.17-.08-.07-.08-.11,0,0,0,0,.18,0,.11-.11,0-.14,0v.09l.06.09,0,.08,0,.05-.07.05-.14,0,.06.12.09.08V187l.11,0,.17.12h.19l.14,0v-.18l-.15-.1-.08.14-.11-.08.08-.13,0-.1.09,0,.07.05v-.11l0-.08Zm-.47-.52-.11,0,.11,0Zm0,.88H242l-.05,0Zm-.1-2.15,0,.08,0,.13.05.06H242l.15-.06,0,0H242l-.11-.1Zm.2,0,.07.08h.07l.09,0-.11,0Zm.19-.4.12,0V184l-.06.09Zm8.93,1.45-.09-.33-.46-1-.37-.56-1.84-3.5-.2-.5-1.63-3-.23-.34h-.25l-.18.36-.24.68-.16.29-.1.41-.29.6-.11.36-.42,1-.1.36-.3.62-.11.32-.16.33-.08.38-.16.27-.14.31-.61,1.73-.15.27-.4,1,0,.29.23.06.58-1.25.28-.31.43-.15h.67l.32-.07.37,0,2,0,1.93-.22.36,0,.39.15.33.26.45.81.26.29Zm-8.87-1.22,0,0h.05l0,0Zm.14,0,0,.09,0,.11,0-.11v-.14Zm1.93,1.07-.15-.11-.13.13h-.16l-.15-.1,0,.08.06.12v.09l-.1,0h-.25l-.07,0h-.18v.09l-.07,0-.06.17,0,.1,0,.05h-.18l-.06.06,0,.09,0,.11-.15.13.06.16h.14v.09l-.07,0h-.12v.07l.18,0,.09,0,0,.16.06.07,0-.07,0-.07H243l.09,0,.1,0,.05-.06,0-.19,0-.09.07-.09h.1l0,0v-.34l0-.08.09.07,0,.16.09,0,0-.15v-.11h.09l.07,0,0-.11.18-.06.08-.11.13-.11Zm-1.92-2.51,0,.07.06,0h.05l0,0,0-.05Zm.09,1.05,0,0h0v0Zm.1-.5-.1.11v.09l.07,0v0l.09,0,.07,0,.08-.11.1,0,.09-.06-.21,0Zm.77,2.36,0,.09,0,.17-.07.09-.1.15-.08.08-.19.06-.06-.12.19-.08,0-.07.08-.2,0-.09,0-.07.09,0Zm-.45-3.95H243v0l0,0Zm0,.4,0,.1.18,0,0-.09Zm.31,3.45h-.05v0Zm.18-.36v.1l.11,0v-.09Zm.13-.17.09,0h.1l.15-.13V185l-.06-.05-.12-.06-.1.08-.11,0-.1.13Zm-.13-3.65,0,0h0Zm3.2-3.78,2.88,5.44v.35l-.25.18L245,184l-.69,0-.35,0-.27-.14-.09-.3,1.23-3.1.14-.26,1-2.67.24-.19.25.13ZM243.75,185l0,0,0-.05Zm-.14-3.93,0,0,.05.05h0l0,0,0-.05Zm.81,3.82h-.09l-.05.07-.1,0,0-.1-.11-.11-.09.07.11.13.11,0-.08.08h.07l.12,0,.09,0Zm-.12-1.55,0-.1-.09,0,0,.1Zm-.3-3.94,0,0v-.07l0,0Zm.59,4.23h-.09l-.06-.08h-.12l.08.09h.2Zm-.26-.53,0,0,0,0v0Zm1.09,1.76.08-.06h.11l-.07-.06-.18-.06-.11,0,0,.09,0,.19-.12.15L245,185l-.09,0-.11-.06-.16.06-.07.09,0,.08-.08.08,0,0,.16,0,.07-.06,0-.11h.13l.06.16.07.06.07,0,.16,0v-.09l.06-.2,0-.09Zm-.8,0,.07-.06,0,0-.07,0Zm-.05-2.52h.09l.06.07,0,.11.07,0,.09,0,.14,0,0-.1-.09.06-.14,0-.08-.08-.07-.07-.11,0Zm-.14-3.52.06.07h.09l-.06-.08Zm0,.46,0,.1v-.07Zm.66,3.94H245l0,0v0l-.1,0-.05,0-.13.15.12.17h.07l.15-.09,0-.19,0-.09h.09Zm-.47-1.16.11.08.08.08.07-.07-.11,0-.07-.08-.06-.08Zm.12.95v.07l.08,0V183Zm-.23-4.9,0,.07.05,0,0-.07Zm.25,3.34h.07v-.05h-.07Zm.19,1.16-.12,0,.08.09.07,0Zm-.13-.86v.07h.07v-.07Zm-.07-4.2,0,.05.11.07,0-.13,0-.09-.07-.06-.05.09.06.07-.06,0h-.12Zm.32,5.53.16,0V183h-.16Zm-.31-6,.09.06.06.07,0-.13h-.2Zm.31,5.67.05,0,.11,0-.06-.07Zm.24.77,0,0v.06h.05Zm-.11-3,0,0v0Zm.18.29v0l.05,0v-.05l-.13,0-.07.06h.07Zm.47,4.34,0-.12-.05-.07,0,.06v.09l-.1,0-.06,0v0l-.07.09.05.07.12-.08.09-.08Zm-.45-3.63,0-.1-.07,0,0,.09Zm-.29-4.35.13,0,.07-.13,0-.09.07-.1.08-.15,0,0,0,.05-.06.09-.08,0,0,.07-.07.09Zm0-.67.08.08,0-.09,0-.09.05-.05,0-.09h-.12l-.06.14Zm2.16,6.19.26-.16.05-.32-.93-1.89-.25-.13-.19.17-.72,1.95,0,.33.29.11.41-.05.35,0Zm-1.87-2.3h.05l0-.09,0,0Zm.26,3.2,0-.07h-.05v0Zm-.17-3.73,0,.12.09,0h.18l0-.14h-.26Zm-.19-4,.06.07.12.16,0,.07.08.08.08-.11,0-.08,0-.08h.11l.07,0,.12-.06.12,0-.07-.1,0-.11.07-.09.1-.06.09,0,.11,0h.2v-.05l0-.07v-.08l-.13-.06-.17.15h-.06l.08-.07-.11-.06,0,.12,0,.07-.07,0,0-.08-.09-.07-.11,0h-.15l-.09.06,0,.09,0,.18-.16.1.06.16,0,.09.19,0,.11-.06.07,0,.11,0-.1.06-.08,0-.09,0-.12,0-.13-.06-.06-.08Zm.3,4.5h-.05l0,0,0,0Zm-.14-3.88,0,.07h.07v-.05Zm.81,8.65,0-.14-.11,0H246l.07.1.08,0Zm-.1-1.87-.09.06,0,.06,0,.07h.09l.07-.06Zm-.38-4,.06.15H246l0-.12-.06-.05Zm0-4,0,.18v.09h0l0-.09-.08-.16Zm0,1-.08.07h.1l.05-.06Zm.25,3.52,0,0-.05.06H246l.06-.09v-.06Zm-.18-3.68,0,0,0,.05h0Zm.2,3.93,0,0,0,0Zm0-1.38,0,.09.12,0,.06,0,0,.1.07,0,0-.1-.13,0Zm.64-3.11h-.19l-.18,0,0,.1.16,0,0,.19-.16.06,0-.1-.07-.05-.12.11-.09.05-.12,0L246,176h.09l.09-.06h.09l.11,0h.07l.06.07.11.15.08-.06h.11l.09,0v.09l-.09.18v.11l.06.06.09,0h.16l0,.07,0,.14-.06.2,0,.1.14.06h.11l.07.05.09,0h.11l.08.07,0,.11,0,.06-.1,0v0l0,0-.1,0,0,0,0,0,.1,0,.1,0h.13l.09,0,.07,0v-.18l-.08,0-.11-.07.07-.07,0,0h-.14l-.16-.08-.08-.07,0-.09.08,0h.14l0,0-.07-.07-.08-.08,0-.09-.11-.12v-.16l0-.09-.07,0-.11-.17-.09-.07-.07,0h-.18l-.13,0,0-.09h.11l.09,0,0-.14v-.1l-.15-.13Zm-.46,4.06-.07,0,0,0,.07,0Zm.34,5.47,0,0v0l0,0Zm-.2-6.58,0,.05h0v-.05Zm.41,1.07-.19-.1-.12.06.12,0,.06,0,0,.11-.11.12.13.1h.11l.15-.1.05,0-.08-.17Zm-.05-.37V179l-.06,0-.16,0,0,.19,0,.18.13.06.1,0Zm-.08.57.12,0,.07,0-.12.11-.11,0Zm.28,5,0-.07,0,.07,0,0Zm.07-4.57h-.14v.09l.08-.06.15.06.11,0,0-.11.09,0h-.07l-.15.08Zm.13-.17.07,0v-.08l-.07,0Zm-.07-3.55-.11,0v-.09l.07,0Zm.48,8.45,0-.05h0l0,.05Zm.34.1.05-.05.07,0h-.23l-.1.08-.17,0,.18.08.1-.06.14,0,.06,0-.06-.05Zm-.49-4.42,0-.07,0,.09.08,0h.14l0,0h-.09Zm.28,2.58,0-.07-.09,0v.09l.11,0Zm.1-.18,0,0v0h0Zm0-1.34,0,.16h.14l0-.14Zm.19-3.56-.1-.17-.11,0-.09,0,.08,0,.07.09.06.07,0,.08-.07,0v.09l.13.06.09.08.06-.12,0-.07-.11-.05Zm-.09,3.15,0,0v0l0,0Zm.5,1.67,0-.09,0,0V183Zm0,.41,0,0,0,0,0,0Zm-.14-4.55-.05.07,0,.13v0l.14-.11h.09l.16.06.06-.13-.15,0Zm.61,6.31-.07-.09-.12,0h-.06l0,0,.11.06Zm-.57-6.49h.11v-.07l-.07,0Zm.46,4.57,0,.07.05,0,0-.05Zm-.06-4h-.12l0,.11h.13Zm.15,1.07.05,0,0,0h-.07Zm.45,5h0l0,0,0,0Zm-.15-5.29,0,.05,0,0v0Zm.48,5.52-.07,0h-.05l0,.05Zm-.32-4.59.09.08V181l0-.09-.07,0Zm.42,4-.09-.07-.07.06h.05l.08.08Zm0,.27h-.11v.12l.13,0Zm-.31-3.76v.07l.05,0v0Zm.46.54.08,0v-.09l-.09,0Zm.08.24v.07l.11,0v-.07Zm.24-.19h.05v0l-.05,0Zm.13.5.05,0,.07,0-.06,0Zm.23.69.05.07h.07l-.06-.07Zm.15.29-.05,0,.06,0h0Zm0-.09h0l0,0h-.05Zm0,.28,0,0,0,0,0,0Z"/><path class="cls-1" d="M261.33,174.41l-.17.45-1,1.93-.2.26-2,3.8-.15.46-.08.52.07,1,0,.32,0,.35.05.35.06,2-.12.38-.34.21H257l-.49.06H256l-.31.05h-.35l-.38-.12-.16-.38,0-.67-.05-.33,0-1.36-.05-.35-.06-1.39-.12-.47-.2-.48L252.77,179l-.16-.31-.45-.54-.79-1.21-.21-.24-.83-1.21-.2-.4,0-.39.34-.19h.81l.89-.12.3.05.37,0,.41.14.39.31.91,1.51.21.29.58,1,.21.27.21.33H256l.22-.31.26-.68.16-.31.16-.38.36-.59.18-.54.42-.78.3-.32.46-.2h.3l.69-.06.35,0,.37-.06.69,0,.32.05Zm-10.45,1.14v.09l.18.06.26-.08.11,0-.25-.11-.27-.06-.09,0Zm0-.28.12-.06.1,0,.13.13.11-.17-.16-.1-.11-.13-.2.15Zm2.14,3.57.13,0,.37-.05.28,0-.14-.22-.28,0,0,0,.12-.08.12-.1-.24-.09-.06-.17.11,0V178h-.11l-.11-.07v-.28l-.27,0,0-.14-.09,0,.06-.14-.13,0-.18-.06-.07-.39-.24.09-.09,0,0,.11-.09,0,.06-.23,0-.23-.07-.23h-.17l-.21,0,.15-.19.23.07.07-.07-.06-.12-.51,0-.25-.09-.18.2.08.24.29,0,.16.47.29.16,0,.06.14.06.06,0-.08.15,0,.1-.05.07.16.17.21.38.26-.17.07,0,.13,0,0,.09-.21.06v.27l.28.05.05.29.14.08v.1l0,.05ZM251.4,176l.06.1-.05,0-.08-.07Zm.13-.2.16,0v-.14l-.12,0Zm.12.26-.06-.07h.11Zm-.06-1.07,0,.1.08-.1,0-.07Zm.2,1.61h.14v.11l-.14,0Zm0-1.38,0,.18.19,0,0-.18Zm.1.24v.14H252v-.13Zm.28.94.07,0,0-.07h-.05Zm.11,1,.07.05v.05h-.07Zm-.1-2.1.11.09.17,0,.07-.06.2-.15.31.07,0-.11-.13-.06-.16-.22-.23,0-.28.05.23.06.2,0,.06.05-.13.08-.13-.06-.1.15.11.08v0l-.07,0-.16-.06Zm7.1,0-.23,0-.35.46-.58,1-.21.28-.11.33-.16.34-.37.57-.12.31-.2.26-.14.38-.34.61-.22.24-.2.2-.29-.18-.21-.24-.18-.31-.82-1.1-.18-.33-.59-.8-.19-.29-.23-.29-.16-.33-.68-.81-.3,0,.12.27,1.62,2.37.21.24.18.31.24.25.37.63.45.51.18.34.18.43.23,1.56,0,.51.06.69,0,.31.06.37,0,.51.09.35.19,0,.09-.29v-.37l0-.37,0-.29-.19-2.5.21-1,.21-.27.26-.44.23-.55.2-.27.3-.64.2-.28.66-1.29.37-.62.32-.62Zm-6.61,2.29,0,.19-.12,0-.06-.09Zm.53.92-.07.09h-.05v-.11l.07-.06Zm.51,1.28.33,0,.15-.19-.21,0-.14,0-.13-.33.19-.17h.05l-.15-.15-.33.13-.15-.12v-.05l-.14.06,0,.21.27,0,.08.26Zm-.47-1.49-.06,0v-.09l.07.07Zm.06-2.42.1.17,0,.32.3.07.09.36.23.11.19.15.11-.29-.18-.15-.3,0,.1-.15.07,0,0-.05-.18-.12-.3,0V176l.07-.07.17-.08,0-.09-.2,0h-.09l-.15,0Zm0-.27.14,0v-.16l-.1.08Zm1,4.52-.06-.05-.15.06-.1-.1,0,.07.08.08h.18Zm-.4-4,0,.09,0-.07Zm.24.75-.11-.06.09,0Zm.16,3.15.24-.1v-.16l-.12.08-.15.06Zm3.21,2.44-.05,0-.07.06-.07-.28,0-.42-.05-.3v-.14l-.09-.06-.14.07-.1-.11.07-.09,0-.13-.13-.06-.11.25-.13.18h0l-.05.06v.28l0,.3.14,0,.1.19v.16l-.16.06-.09.18.15.2.06.19.14,0,.06.12h-.23l-.1.13,0,.28-.11.18.1.22-.07.3.2.15-.17.22.07.3-.07.37-.23.24,0,.09-.33,0-.1.15-.11-.07v-.11l0-.16-.25-.34.17-.42-.06-.41,0-.39-.24-.16.19,0,0-.14-.18,0,.17-.12-.05-.31.06-.41-.21-.31.05-.31-.25-.07-.07,0-.08-.21.28,0,.06-.2v-.27l-.27-.12-.12-.29,0-.23,0-.11,0,0,0,0v.1l-.13-.08-.06-.38-.29.12h-.14l0-.07.07-.05.14-.06-.05-.11-.15.12-.1.2.3.09.07.24.18.13.11.08V181h-.12l-.12,0v.05l.25.11,0,.19h-.16l0,.11.11,0,.12-.1.08.17-.16.2-.06.18,0,.3,0,.53.22.2,0,.09-.16,0,0,.21-.08.21.1.23.15.06-.14,0,0,.18.16,0-.06.2,0,.12.18,0v.05l-.19.06-.08.35v.21l0,0,.07,0v.51l0,.23.07.24.09,0v-.14l.22.06.07.24.19-.06,0,0,.09,0V186h.11l.17.15.19-.13-.08-.15h-.16l.24-.14.36-.11.32.09.43.1.15-.21h-.09l0-.1.09-.28V185l0-.28,0-.46-.25,0,0-.09.26-.07.07-.4-.18-.45.11-.25-.09-.1.13-.27Zm-3.29-5.23h-.05l0,.05.05,0,0,0Zm.3,3.57,0-.09-.11,0v.13Zm-.08-3.07-.11-.12,0,.18.13.12Zm.23,0,.06.14,0,.12.18.09,0-.12-.18-.06h.11v-.19l-.14-.08Zm0-.27h.11l0-.11h-.11Zm.53,7.62-.1.06,0-.09.07-.09Zm.08-2.6-.13.19-.16,0,.12-.13Zm-.18-.34-.12-.12h.14Zm-.05.25.09,0-.1,0Zm.31.85.05,0-.05,0h-.09Zm-.15-1.67,0-.12h.12l0,0Zm-.12-3.16.13,0,0-.11h-.14Zm.18.25,0,.05,0,.05,0-.07Zm.61,7.25,0,0-.1.13-.14,0,0-.19Zm0-.18-.18.06v-.1Zm-.31-6.94h.11l0,.14,0,.07,0,.1,0,.16.09,0,.08-.13L256,179l-.21-.33h-.27Zm.28.25-.14,0v-.06l.12,0h.11Zm.21.24h-.09v.1l.12,0Zm0-.74,0,.07.07,0,0-.07Zm.62,7.49-.16,0v.11h.12Zm-.36-7.54.14,0,.07.05v.12l.1,0,0-.1-.14,0-.11-.06Zm.64,7.45-.06-.08-.07-.05.06.07v.11l.06,0Zm-.24-4.39,0-.07,0,0,.07.07Zm.05-.3,0-.05,0,0,0,.05Zm.58,4.74L257,186l-.06.21h.28Zm-.32-4.19,0,.1-.11,0,0-.09Zm-.25-3.29.11,0v-.09h-.11Zm.32,2.24.13.06.07.21.18-.06,0-.17-.06-.18-.14,0-.17.08,0,0Zm.13,3.74.11,0,0,.07h-.09ZM256.8,178l.14,0,0-.14h-.16Zm.6,7.39-.07-.06.09,0Zm.26-4.89-.13-.15-.06-.16h.16l-.06-.1h-.3l0,.21.19.31h.14Zm-.4-3.44,0,0,.08,0,0-.06,0,0-.08,0Zm.49,2.48-.18-.08,0,.08-.09,0,.08.14-.08.1,0,.07.19-.07Zm.48-.31h-.05l-.05.06.09,0Zm-.18-3.61.07,0h.05l0,0Zm.25,3.27-.05,0V179l.05,0Zm.4-1,0-.09-.07.06V178Zm.09-.38,0-.14-.11,0,.06.1Zm.24.27,0,0h-.07l.06.05Zm.18-.52-.09,0h0l.06,0Zm.52-.87-.1,0v.09l.11,0Z"/><path class="cls-1" d="M274,179.41l0,1.24,0,.39-.09.29,0,.36-.11.34-.62,1.25-.21.33-1.17,1.25-1.53.79-.66.25-1.56.24h-1.06l-1.52-.36-.34-.12-1.24-.57-.24-.26-.52-.45-.89-1.08L262,183l-.13-.36-.3-.59-.25-1.1,0-2,.1-.77.28-1,.14-.31.55-.92.45-.55.54-.42.23-.22.87-.61.66-.21.31-.16.35-.13.35-.09,1.23-.14.83,0,2.34.59.93.52.8.65.24.31.23.2.24.29.14.31.35.56.11.4.16.36.18.65Zm-12.58,0h.18l.16.11,0,.09.08.07.11,0-.12.13-.09,0,0,.09.11,0,.13-.22-.13-.15,0-.11-.11-.1,0-.14h-.13Zm0,.35.06.07,0-.05.07-.08v-.09Zm.48.7,0,0-.06-.12-.11-.06-.07,0-.1.08,0,.11h.12l0-.05.14,0,.07,0h0Zm-.28.69,0-.08-.08-.12,0,.07v.09Zm.14.61,0-.14h-.09l0,.09Zm-.15-3.13.14,0,0-.12-.07-.08Zm.65,3.76v-.09l-.21.1Zm-.46-4.76.12-.08,0-.21-.14,0Zm.2.1,0,0v0l0,0-.05.09.09,0Zm0,.33h-.16l0,.12.15,0Zm.71,4.52-.06-.1-.09,0v-.07l0-.07v0l-.05-.05,0-.05,0-.05,0,0-.05.07.06.07-.15.13-.16.06-.1.08v.05l.35-.09.06.09Zm-.57-3.2h-.07l-.07,0v0l.09,0Zm0,1.09,0-.09h-.07v.19Zm.12.63,0,.07,0,.09,0,.05.08-.12v-.11l-.11-.17h-.09Zm.15,2,0-.1,0-.09-.09-.07V183l0,.1Zm-.35-6.1.16.07.13-.12-.06-.15.08-.09-.06-.12-.05,0,.12-.15-.06,0h-.05v.11l0,.09.1.15-.06.08,0,.12-.1.08,0-.07Zm.4.58-.07.07v.09l.12-.11v-.09l-.11-.06-.25-.07.09,0,.05,0h-.08l-.07,0v.07l.09,0,.09,0-.06,0-.07.07h.09l.1-.08Zm-.1.5,0,.09-.14.13.09,0,.05-.09.08-.06v-.05Zm7.36,6.18.67-.3.29-.18.87-.88.29-.44.17-.36.18-.31.12-.34.24-1.45-.1-1.12-.07-.31,0-.33-.14-.31-.27-.76-.39-.58-.47-.57-1.18-.82-.34-.14-.36-.08-.32-.12-.33,0-.4-.08-.9,0-.86.1-1,.37-.94.5-.29.24-.52.56-.38.53-.35.65-.14.34-.08.38,0,.3-.09.38,0,.44.22,1.79.4,1,.15.25.21.29.55.6.81.63.31.18,1,.39.89.07h1.25l.37,0,.31-.14.35-.05ZM262.58,177l.21,0,.1-.06-.1,0Zm0-.44.16,0,0-.25-.12.07,0,.09Zm8,6.83-.25.25-.95.46-.33.07-.31.1-.89.1-1.22-.07-.31-.09-.68-.16-.31-.14-.57-.4-.54-.46-.4-.58-.21-.22-.28-.69-.2-.7-.05-.33,0-1,.21-1.36.16-.34.1-.38.16-.32,1-1,.56-.42.29-.14.35-.07.64-.23.9-.1.49,0h.37l.63.09,1,.38.57.38.55.43.31.44.57,1.06.11.33.16,1.26v.83l-.1.69-.12.4-.23.58-.21.31-.16.28-.19.27-.26.3Zm-7.14.15-.12.06.06.14v-.11l0-.08Zm-.26-7.62.09.08.07,0-.06-.12Zm.62,8,.05,0-.07-.06-.08.11v.07Zm.15.4-.09,0,0,0,0,0,.08.08Zm-.07-5.22-.08,0-.05,0-.13-.08,0,.05-.07.11,0,0Zm-.29-.78.11,0,.07-.07v-.12l-.07,0,0,.17-.05,0Zm.18.44-.11,0,0,.11h.11Zm.39,5.44-.08-.15,0,.07.06.08Zm0-6,0,0-.12.06-.07.06-.06.18.09,0,0-.06.07-.09Zm.14-.45-.09.06H264l0,.11.09,0,.21,0Zm5,4.88.31-.16.52-.45.2-.33.14-.27.18-.28.12-.73.06-.89-.11-.76-.14-.3-.13-.35-.16-.31-.44-.57-.57-.37-1-.35h-.84l-.81.11-.37.11-.31.18-.49.38-.25.24-.21.29-.14.31-.2.26-.09.32-.09.66v.53l.13.88.39,1,.24.24.19.23.57.45.62.28.32,0,.36.1,1-.09.33-.11.31-.05Zm-4.77-5,0,.09h.07l.07-.06h-.09l0,0,0-.05Zm.08-.36.15.1,0-.05,0-.05Zm2.44,8.1h0l0-.1-.12,0,.07,0Zm.21,0-.09,0-.09,0,.11,0Zm.62.39-.11-.08h-.07l0,.09Zm.08-.4h-.16v.1h.16Zm.43.12h-.12l0,.07.09,0,0,0h0l.05-.06Zm0-1.64,0-.07h-.11v.09Zm.9,1.34-.11-.15,0,.07-.1.08H269l0,0-.13.15-.13-.06-.09,0-.12.09.07,0,.14-.06.07,0,.12-.06,0-.11.18,0,.06-.09Zm-.65-9,.05-.06,0-.09Zm.63,7,.09-.05.09,0h.21l-.11-.08-.09,0-.11,0-.07,0,0,.07-.08.16.08.15v.16l.07,0,.12-.06h.05l-.15-.15Zm.53,2-.08-.15-.14.06.06.12-.06.05Zm0-.49-.09-.07,0,.06,0,0h0l0,.05Zm-.07,0,.07,0-.07,0h-.06v0Zm.23-1.59-.1,0,0,.14-.16,0,0,.07.16-.06Zm.31,1.72,0-.06-.07-.07H270l0,.27-.1,0v.12h.14l0-.07.09.07.1-.06-.06-.1,0-.06Zm-.19-2.11.1-.14-.11-.06H270l0,.09,0,.09,0,.14.16,0Zm0,2.19h.18l0,.07-.1.06-.05,0Zm.44-2.25.07-.05.09,0,.07.09h.09l-.16-.08-.07-.06,0-.18-.07,0,0-.05,0-.09-.06-.07,0,.09-.17.19h-.11l0,.09.09,0,.12,0,.06,0-.08.11Zm.48,2,0-.12h0l-.15-.1-.16,0-.07.06-.11.15.09,0,.08-.09,0,.1.11.1-.05,0,.25,0,0-.16Zm-.28.37-.07,0-.09.06.09,0Zm.24-.49,0,.12-.17.06-.12,0,0-.07.15-.19.11,0Zm.08-.2.12-.06-.09-.12-.19,0,0,.18h.1Zm-.1-1.83-.06-.12-.09,0,0,.12.05.07Zm0-.48-.1.08H271l0,.11H271v.14l.18,0,.08-.09-.1.06,0-.17L271,182Zm0-.78.11.13.07,0v-.2l-.1-.12-.08.1ZM272,184l-.09,0-.11,0,0-.09-.06-.08-.32,0,0-.09.16,0,0-.1-.07-.07-.12.13-.15.06.11.17-.19,0v.11l.16,0,0,.07h.06l.1-.09.12,0,.07-.07.06.07-.08.18.08,0,.1-.11h.23Zm-.65.7h-.09l0,0,0,0-.09,0,0-.12h-.11l0,.11.08.08,0,.09h.14Zm-.21-3.08-.08.09.13,0h.14l0,0,.05,0Zm.1-.48h.12V181l0-.1.17.12-.1-.14h-.07l-.17.1Zm.32-1.24.11.1.1-.08,0-.07,0,0Zm.63,3.41-.19,0-.12.13.09.1-.07.07h-.11v.07l.14,0,0-.13v-.16l.09.08,0,.34.08.12h.05l0-.43Zm.48-.22,0,0v-.09h-.09l-.12.08-.32,0v.12l.21,0,.1-.09.11.15,0-.07Zm.42-.41h-.07l-.07.06-.11-.07-.08-.08.13-.2-.08-.05-.31.12h-.12l-.07.09h.19l.13.08.07.21H273l.06.06.06-.09Zm-.44-.59-.13,0,0,.13v0l-.06.09.22-.08.06,0v-.07l0-.07Zm-.41-5.46.06.05,0-.09-.07-.07Zm.43,5.23,0,.07.39,0,.07-.09-.17-.13-.12.08-.05.07Zm.46.34.13-.12,0-.09-.12.08-.06.09-.15-.06h-.11l.08,0,.16,0,.15.1v-.07ZM273,181l.12-.08-.12,0Zm.1.26.07.06v-.16Zm-.23-4.49.06,0,0,0,0,0Zm.55,4.89.1-.11-.1-.23h-.07l-.09.15-.11,0v.06l.25.12,0,.12.08.05v-.09Zm-.54-5h0v0Zm.28,3.82.06-.15-.07-.08v.07l0,.15Zm-.08-1.06.14,0,0-.09Zm.45,1.71-.11-.12-.19,0,.07.1h.07Zm.13-.52-.09,0-.07,0,0,.09-.12.13.11.08.2-.28Z"/><path class="cls-1" d="M285.53,180.72l0,1.43-.12.34-.09.34-.16.36-.44.68-.67.6-.31.18-1,.33-.31.07-1.81.19-.36,0-2.55.17-.53,0-.58.08-.34-.19-.18-.35-.06-.33-.18-3.86-.08-.53-.12-3.37-.09-.74,0-1,0-.32v-.37l-.06-.32,0-.39.16-.38.38-.2,2.14-.08.31-.09.69.05.31-.09,1.82,0,.7.12.31.09.35.14.31.16.26.18.27.16.28.23.63.78.14.36.18.63.07.55v.6l-.18.65-.3.7-.1.34.2.4.3.23.24.25.36.71Zm-9.14,3.07-.05,0-.05,0h.09Zm0-.2.13.08.12-.11.07,0-.09-.06h-.16Zm0-.3,0,0,.07,0,0,0,0,0-.07,0Zm-.39-7.51.07,0,0,0h0Zm.32,5.83,0,0,.07,0,0,0Zm.15.57.09,0,.15,0,0-.05h-.16l-.11,0-.05,0,.07-.07.12,0,0-.07h-.14l-.07,0v.09Zm.16,2.52,0-.1-.08.08v.1l0,.12,0-.12Zm-.21-2.29,0,.06v.07l0,0Zm.22,1.74-.14,0v.16l.13,0Zm-.48-7.13,0,.05.09,0,0-.09Zm.28,4.74,0,0h.05v0Zm-.08-2.24v0l0,0v0Zm.46,2.87-.05,0v.2l0,.09-.09,0-.1.1v.07l0,.11.06.1,0,.07.07-.07.1-.06.07-.06v-.11l0-.19v-.09l0-.15.05-.07,0-.09-.08.06Zm-.37-1.59,0,.09.17.1,0-.13-.11-.12Zm.15,2.46,0,.07h.09l0-.1Zm.07.54.11.06.12-.08-.06-.09-.1.08h-.11Zm-.23-3.74h0l0,0,.09,0-.06,0Zm-.31-6.36,0,.09h.11l0-.08Zm.21,3.71,0,0,.07-.06,0,0Zm.37,4.11v-.11l-.05,0-.07,0v.16Zm-.39-7.06-.05,0,0,0,0,0Zm.13,1.39-.08,0V176h.09Zm.79,9.07-.08-.14-.12-.15-.07,0-.15-.06,0,.14,0,.12.11.12h.23Zm-.64-5.3v.05l0,0v-.06Zm-.22-5.6,0,0h.09l-.06-.1Zm.59,10,0,.09.11,0,0-.11Zm.52.43-.07,0-.09,0h-.18v-.05l.1,0,.16-.08,0-.15-.11,0v.12h-.16l-.07,0-.07,0,0,.09.06.09.22.13h.09l.09,0Zm-.45-1.14,0-.12h-.09v.09Zm-.32-5.07-.05,0,0,.05,0,0Zm-.07-2.56h-.09v.11l.09,0Zm.23,6.19.07,0v-.07l-.07,0Zm.1,1.12,0,0h0v0Zm-.17-2.76,0,0,0,0,0,0Zm.13.45,0,0-.05,0,0,0Zm-.11-2,0,0v0l0,0Zm0,.48,0,0,0,.07,0,0Zm.17,3.33.08,0v0H277Zm-.24-8.43h0l0,0h-.05Zm7.41,7.52-.08-1.07-.11-.37-.19-.32-.17-.24-.59-.52-.34-.1-.19-.2.09-.29.27-.24.2-.3.16-.32.12-.33.11-.34-.08-1-.28-.66-.19-.31-.21-.25-.89-.53-.34-.14-.85-.06h-.51l-.67.11-.32,0-.31.07-.37,0-.81,0-.52.22-.14.38,0,.35v.37l0,.32,0,.35,0,.72.06.35,0,.37.06,1.06.07.33.22,4.63.22.33.34.15.35,0h.85l.53-.07.36,0,1.56-.1.86-.17.62-.37.29-.25.41-.55.19-.33.07-.35Zm-6.45,3.22-.06,0v.07l0,0Zm-.23-6.4v-.76l-.07-.7v-.9l-.11-1,.18-.33.32-.23.58,0,.39,0,.89-.13.91,0,.89.11.34.14.28.18.28.25.42.54.11.31.1.51,0,.5-.07.39-.3.53-.22.26-.28.28-.61.23-.47.1-1.59.08-.49.08-.34,0-.53,0-.36-.17Zm6.2,2.13.07.56v.51l-.1.38-.3.6-.27.26-.61.44-.85.19-.84.1-2.26.07-.54-.15-.18-.25,0-.71-.05-.37-.05-.61,0-.37-.12-1.23.17-.49.31-.21.35,0,.71,0,.39,0h.32l.35-.09.34.05.35,0,1.38,0,.34.18.29.11.5.5.21.27Zm-6.4-7.07,0,.11h.07l0-.09Zm1,11.06-.05-.05-.05,0Zm-.24-3.65.09,0,0,0H278Zm.11,1.06,0-.08-.08,0,0,.09Zm-.35-5.76,0,.05h.07v-.05Zm.33,5.37,0,.05h0v-.07Zm.17.89-.06,0v.09l0,0Zm-.42-6.6,0,0,0,0,0,0Zm-.12-2.43h.05v0h0Zm0,.21.08.08.15-.11.21,0v-.12l-.11-.07H278l-.08,0Zm.21,2.76,0,0,0,.05h0Zm.17,4.19,0,0,0,0h0Zm.26.62.11,0-.08-.09-.15,0,0,.09v.09l0,.14h.09v-.16Zm-.34-3.62,0,0v-.05h0Zm-.1-2.4h.12v-.07H278Zm0,.88h.05v0l0,0Zm.24,4.3.06.15.16,0,.08-.06,0-.05-.11-.1h-.18Zm-.09-4.84,0-.09-.12,0-.09,0,.06.09h.14Zm0,2.82,0,0h0v.05Zm.07,1.55,0,.05.16,0,.07,0h-.05l0-.1.08-.18-.09-.07-.08.15Zm0-1.91h0l0,0h.05Zm.28,3.54h.05l0,0,0,0Zm-.15-3.38h.05l0,0,0-.05Zm.27.09-.16.06-.08,0,0,.07h.18v-.06l0-.06.1,0h.07l.09,0,.11,0,.07,0,.13.1h.08l0,0-.11-.08-.09,0-.11-.06,0-.07.14-.07,0-.11H279l-.06.15-.1,0h-.09Zm.18,4.63h-.1l-.07.09h.1Zm-.27-2.12,0,.08h.09l-.05,0Zm.29,3.66,0,0v0h0Zm-.5-9.39,0,.07.05-.05,0-.11Zm.35,4.71,0,0,0,0,0,0Zm-.08-2.08,0,0,0,0h0Zm.1.19-.07.06,0,0,.09,0,0-.06Zm-.28-4.33.13,0,.13-.13v-.14l-.1.06-.07.05Zm.39,6.46.15-.09.05.06h.09l.14,0,0,.12-.14.06H279l0,.14.09.07.1-.07h.18l.08,0,0-.06,0-.09v-.19l.08-.14-.13-.06-.11.1-.07.05-.1,0-.26.07Zm-.24-4.91h0Zm3.8,6.17-.13-.44-.19-.31-.3-.11-1.67-.07-.37.05-.34,0-.29.25-.14.3V182l.25.34.32.11,1.36,0,1-.14.29-.21.18-.26Zm-3.71-4.81,0,.6.22.48.38.19,1.36-.13.5-.2.25-.23.09-.52-.08-.52-.16-.27-.29-.12-1.82,0-.32.23Zm0-1.15,0-.06h0l0,0Zm0-.44h.05v0h-.05Zm.83,9.88h-.05l-.07.05h.1Zm-.52-11.33,0,.09h0v-.09Zm.43,4.72.07,0h-.07l0,0Zm.43,6.53,0,0-.05,0,0,0Zm-.26-6.36-.11,0v.11l.11,0Zm.06,1.71.07,0,0-.07h-.07Zm-.31-6.52.09.05v0l0-.05-.06,0Zm.1,1.55,0,0v-.09l0,0,.09,0,.06,0-.06,0-.09,0,0,0v.12Zm.31,4.77H280l0-.11h-.16Zm.24.13.07,0,0-.09-.09,0Zm.13-1.86h-.06v.05h.05Zm-.28-4.68.09.06v-.12l-.09-.07Zm.1,1.75h.09l.06-.09H280Zm.62,8.06-.11,0-.07,0,.08,0Zm-.11-3.51,0,0,.07,0,0,0-.07.07.08.07.07,0,.09,0-.08-.1-.11-.07h-.09Zm-.23-6,0,0,0,0v.05Zm.53,4.24h-.05l0,.06-.1.06,0,0-.07.08v.07l.05,0,.12-.12,0-.12Zm-.51-4.71,0,0,.07,0,0,0Zm.49,5-.07,0v.09l.07,0Zm.42,4.71h-.09l0,.07h.06Zm-.6-9.47.05,0v0l0,0Zm.76,11.16h-.07l0,.05,0,0Zm-.33-6.62-.09,0v.07l.09,0Zm.49,6.33h-.1l0,.09h.1Zm-.37-4.55.07,0,0-.07-.05,0Zm.34-1.75-.18-.11-.09,0,0,.07,0,.2,0,.11v.07h0v-.09l.07-.06.08,0h.16Zm0,2,.05,0h0l0,0Zm.4,4.62h-.06v0l0,0Zm-.31-9h0l0,0,0,0Zm.3,2.23.05.07,0-.11h-.07Zm.23,2.21h.1l0-.12h-.07Zm-.14-3.07,0,.05h.19l.05-.06-.07,0-.1.06Zm.13.43H282v.07h.07Zm.6,7.07-.12,0,0,.09.1,0Zm-.43-7.15,0,.16.13,0v-.13l-.06,0Zm.35,2.82h-.05l0,0h0Zm0,.24.12,0v-.11l-.12.06Zm.15.49h0v0h.05Zm.15,1.12,0-.09-.09,0,0,.08Zm-.06-1.5h0l0-.06,0,0-.05,0-.05,0Zm.29,4h0l0,.07,0,0Zm-.14-2.89h.16l-.06-.12h-.05l-.08,0h0Zm0-1H283l.08,0,0,0Zm0,.18h0l0,0,0,0Zm.25,1h.05l-.06,0-.18.06v.12l.12-.06Zm.1-.34h-.11v.06l.09.05Zm.1,2.51,0,0,0,0,0,0Zm.24.09,0,0v0l0,0Zm-.29-5.51v.07l.07,0v-.07Zm.36-.53h.07v-.07h-.07Zm.22,1.67h0v0h0Zm.36,3.43V183l.05,0,0,0-.17.06.08.12Zm-.14-.3.09,0v-.1l-.09,0Zm-.09-3,.09.06h.12l.09,0v-.12l-.07,0,0,.11-.09-.08Zm.34,3.72-.07,0v.09l.07,0Zm.09-.7,0-.05,0,.05v.09Zm-.08-2.45.17-.06h.07l0,0,0,.09v.16l0,.11-.07,0h0l0,0,0,0V181l.14,0,0-.07.07-.11.1-.09v-.27l-.11-.08-.06-.07,0-.14v-.07l-.06,0h-.18l-.19,0,0,.16Zm.08.84h0l0-.05h0Zm.3,1.54,0-.1h-.16l0,.1Zm-.06-1.53-.08.11v.09l.09,0,0-.13.05,0Zm.35,1-.06,0-.14.06v-.07l-.06-.15-.05.06,0,.12-.07,0,0,.06v.21l.16,0h.09l0-.08.11,0Zm-.27-1.4-.08-.17.08-.07h.12l-.06.12v.09Z"/><path class="cls-1" d="M298.41,183.72l0,.42-.49.12-.54,0H297l-.66.09H296l-.42-.15-.37-.25-.12-.31-.18-.33-.35-.26-.4-.17-.39.07-.32,0-1.73.11-.32,0-.74.11-.34,0-.36.21-.32.36-.29.6-.32.33-.39.15-1,.09h-.36l-.68.07-.36-.08-.11-.44.09-.36.31-.72.07-.32.18-.26L287,182l.29-.58.1-.36.16-.27.09-.39,1.59-3.87.09-.32.18-.34.07-.36.18-.28.62-1.66.15-.25.1-.36.14-.31.3-.32.56-.23.59.14.32.3.37.6.13.31.21.31.13.35,1.3,2.38.14.36.41.63.13.28.17.25.13.38.19.32.19.25.76,1.57.39.62.28.64.53.89.3.64Zm-11.54.3v-.09l.17,0,0-.14.16-.08.19.06.12-.09,0,0-.14,0,.06-.14.1-.08.1-.15v-.09l0-.11,0-.11.12-.09,0-.07h-.07l-.17-.06,0-.05.07,0,.08,0,.08-.09-.05-.07h-.07l-.09,0-.07,0-.16,0,0,.05,0,.12h-.07l0,0-.12.06,0,.07,0,.09.18.08.05.06,0,.09-.09,0h-.1l-.05.07v.07H287l-.07,0-.08.06,0,.11h.07l0,.16-.14.08,0,.19,0,.1,0,.11-.11,0,0-.1-.05,0v.09l.09.07.11.09.09,0,.15-.1Zm0,.46h-.07v0h.07Zm.31-1-.06-.07,0-.11h.09l.11,0,0,.07Zm.72.39-.17-.08-.07-.08-.11,0,0,0,0,.18,0,.11-.1,0-.14,0v.09l.06.09,0,.09,0,.05-.07.06-.14,0,.06.12.09.08v-.14l.11,0,.16.11h.19l.14,0v-.18l-.15-.1-.08.15-.11-.09.08-.13,0-.1.09,0,.07,0,0-.11,0-.07Zm-.47-.52-.11-.05.1,0Zm0,.88h.09l-.05,0Zm-.1-2.15,0,.08,0,.12.06.07h.11l.15-.06,0,0h-.14l-.11-.1Zm.19,0,.07.09h.07l.08,0-.11,0Zm.19-.4.12,0v-.12l-.07.09Zm8.93,1.45-.09-.34-.46-1-.36-.56-1.84-3.5-.21-.5-1.63-3-.23-.34h-.25l-.17.36-.25.69-.16.29-.1.41-.29.6-.1.36-.42,1-.1.36-.3.61-.11.32-.16.33-.08.38-.16.27-.14.31-.61,1.73-.14.27-.4,1,0,.28.23.06.59-1.25L289,182l.43-.15h.67l.31-.07.37,0,2,0,1.93-.21.36,0,.4.15.33.26.45.8.26.29Zm-8.87-1.22,0,0h.05v0Zm.14,0,0,.09,0,.1,0-.11v-.12l0,0Zm1.93,1.07-.15-.11-.14.13h-.16l-.15-.1,0,.07.06.12v.09l-.1,0h-.25l-.07,0h-.18v.09l-.06,0-.06.16,0,.1-.05.06h-.18l-.07.06,0,.09,0,.11-.16.13.06.15h.14v.09l-.07,0h-.12v.07l.18,0,.09,0,0,.16.06.07,0-.07.05-.07h.11l.08,0,.1,0,0-.06,0-.19,0-.09.07-.09h.1l0,0v-.34l0-.08.09.07,0,.16.09,0,0-.16v-.11h.08l.08,0,0-.1.17-.06.08-.11.13-.11Zm-1.92-2.51,0,.07.06,0h0l0,0,0-.05Zm.09,1.06,0,0h0v0Zm.1-.5-.1.11v.09l.07,0v0l.09,0,.07,0,.08-.11.1,0,.09-.05-.21,0Zm.76,2.36,0,.09,0,.18-.06.09-.1.15-.09.08-.19.06-.06-.12.19-.08,0-.07.08-.2,0-.09,0-.07.09,0Zm-.45-4h.05v-.05l0,0Zm0,.41,0,.1.18,0,0-.09Zm.31,3.44h-.05l0,0Zm.18-.36V183l.11,0v-.09Zm.13-.16.09,0h.11l.15-.13v-.07l-.05-.05-.13-.06-.1.08-.11-.05-.1.13ZM289,179l0,0,.05,0,0,0Zm3.2-3.78,2.88,5.44v.36l-.26.17-4.25.23-.69,0-.35,0-.27-.14-.09-.29,1.22-3.1.15-.26,1-2.67.24-.19.26.13Zm-2.87,7.22h0v-.05Zm-.15-3.93,0,0,.05,0h0l0-.05Zm.81,3.82h-.09l0,.08-.1,0,0-.1-.11-.12-.09.08.11.14.11,0-.08.07h.08l.12,0,.08,0Zm-.12-1.55,0-.11-.09,0,0,.11Zm-.31-3.94,0,0v-.07l-.05,0Zm.58,4.22H290L290,181h-.12l.07.08h.2Zm-.26-.53,0,0,0,0v0Zm1.09,1.76.08-.06h.11l-.07-.07-.18-.06-.1,0,0,.09,0,.19-.12.15-.08-.14-.09,0-.11-.07-.16.06-.06.09,0,.07-.09.08,0,0,.16,0,.07-.06,0-.11h.12l.06.15.07.07.07,0,.16,0v-.09l.06-.19,0-.09Zm-.8,0,.07-.05,0,0-.07,0Zm0-2.52h.09l.06.07,0,.11.07,0,.09,0,.14,0,0-.11-.08.06-.14,0-.08-.08-.07-.07-.1,0Zm-.14-3.53.06.07h.09l-.06-.09Zm0,.46,0,.11,0-.07Zm.66,3.94h-.09l0,0v0l-.1,0-.05,0-.13.15.11.17.07,0,.15-.1,0-.19,0-.09h.09Zm-.47-1.16.11.08.07.09.07-.08-.11,0-.08-.08-.06-.09Zm.12.95,0,.07.09,0v-.05Zm-.23-4.9,0,.07.05,0,0-.07Zm.25,3.34h.07v-.05h-.07Zm.19,1.15-.13,0,.08.09.07,0Zm-.14-.86v.07h.07v-.07Zm-.08-4.2,0,.05.11.07,0-.13,0-.09-.08-.07,0,.09.06.07-.05,0h-.13Zm.33,5.53.16,0v-.07h-.16Zm-.31-6,.09.06.06.07,0-.13h-.2Zm.31,5.67.06,0,.11,0-.06-.07Zm.24.76h0v.05h.05Zm-.11-3,0,0v0Zm.17.29v0l.05,0v-.05l-.13,0-.07.06h.07Zm.46,4.34,0-.12-.06-.07,0,.06v.09l-.11,0-.05,0v0l-.07.09.06.06.12-.07.08-.07Zm-.44-3.64,0-.11-.07,0,0,.09Zm-.29-4.35.13,0,.06-.13,0-.09.06-.09.08-.14,0-.05,0,.06-.07.09-.08,0-.05.07-.06.09Zm0-.67.07.09,0-.09,0-.09,0-.06,0-.09h-.12l-.06.14Zm2.16,6.19.26-.15.05-.32-.93-1.89-.25-.13-.19.17-.72,1.95,0,.34.29.1.4-.06.36,0Zm-1.88-2.3H291l0-.09,0,0Zm.27,3.2,0-.07h-.05v0Zm-.17-3.74,0,.13.09,0h.18l0-.14H291Zm-.18-4,.06.07.11.15,0,.07.08.09.08-.11,0-.09.05-.08h.1l.07,0,.12-.06.12,0-.08-.1,0-.1.06-.09.1-.06.08,0,.11,0h.2v-.05l0-.07v-.09l-.13-.07-.17.15h-.05l.08-.08-.11-.06,0,.13v.07l-.07-.05,0-.08-.09-.06-.11,0h-.16l-.09.06,0,.09,0,.18-.16.1.06.15,0,.09.19,0,.1-.06.07,0,.11,0-.1.06-.08,0-.09,0-.12,0-.12-.06-.06-.08Zm.3,4.51h-.05l0,0,0,0ZM291,174l0,.07.07,0,0-.06Zm.81,8.65,0-.14-.11,0h-.16l.08.1.07,0Zm-.1-1.87-.09.06,0,.05,0,.07h.09l.07-.05Zm-.38-4,.06.16h.16l0-.12-.06,0Zm0-4,0,.18v.09h0l0-.09-.08-.16Zm0,1-.08.07h.11l.05-.06Zm.25,3.52-.05,0,0,.05h.07l.06-.09v0Zm-.19-3.68,0,0,0,.06,0,0Zm.2,3.93,0,0,0,0Zm0-1.38,0,.09.12,0,.06,0,0,.1.07,0,0-.1-.12,0Zm.64-3.11h-.19l-.18,0,0,.11.16,0,0,.19-.15.06,0-.11-.08-.05-.11.11-.09.06-.12,0-.05.06.09,0,.08-.06h.09l.11,0H292l.06.07.11.15.09-.06h.11l.08,0v.09l-.1.18v.1l.06.07.09,0h.16l0,.07,0,.14-.06.2,0,.1.15.06h.11l.07,0,.09,0h.11l.07.07,0,.11,0,.06-.1,0v0l0,0-.11,0,0,0,0,0,.1,0,.11,0h.12l.09,0,.07,0v-.18l-.08-.05-.11-.06.07-.08,0,0h-.14l-.17-.08-.08-.07,0-.09.07,0h.14l0,0-.07-.06-.07-.08,0-.09-.11-.12v-.16l0-.09-.07,0-.11-.17-.09-.06-.07,0h-.17l-.13,0,0-.09h.1l.09,0,0-.15v-.11l-.15-.13Zm-.47,4.05h-.07l0,0,.07,0Zm.34,5.48,0,0,0,0h0Zm-.2-6.58,0,.05h0V176Zm.41,1.07-.18-.1L292,177l.13,0,.05,0,0,.11-.12.13.13.1h.1l.15-.1,0,0-.08-.17Zm-.06-.37v-.23l-.06,0-.16,0,0,.19,0,.18.13.06.1,0Zm-.07.57.12,0,.07,0-.12.11-.11,0Zm.28,5,0-.07v.07l0,0Zm.07-4.57h-.14v.09l.09-.06.14.06.1,0,0-.11.09,0h-.07l-.15.08Zm.13-.17.07,0v-.09l-.07,0Zm-.08-3.55-.1,0v-.09l.07,0Zm.49,8.45,0,0h0v.05Zm.34.11,0-.06.07,0h-.23l-.1.08-.17,0,.18.08.11-.05.14,0,.05,0-.05,0Zm-.49-4.43,0-.07,0,.09.07,0h.14l0,0H293Zm.28,2.58,0-.07-.09,0v.09l.11,0Zm.1-.18,0,0v0h0Zm0-1.34,0,.16h.14l0-.14Zm.19-3.56-.1-.17h-.1l-.09,0,.07,0,.08.09.05.07,0,.09-.07,0v.09l.13.06.09.08.06-.12,0-.07-.11,0Zm-.09,3.15,0,0v0l0,0Zm.5,1.67,0-.09,0,0v.13Zm0,.4,0,0,0,0,0,0Zm-.15-4.55,0,.07,0,.13v0l.13-.11h.09l.16.06.06-.13-.14,0Zm.62,6.31-.08-.08-.12,0h0l.11.07Zm-.57-6.49h.11v-.07l-.08,0Zm.46,4.57,0,.07.05,0,0-.05Zm-.06-4h-.13l0,.1h.12Zm.15,1.07h.05l0,0h-.07Zm.45,5,0,0,0,0h0Zm-.15-5.29,0,.05,0,0v0Zm.48,5.52H295l0,.05Zm-.32-4.59.1.08v-.09l0-.09h-.07Zm.42,4-.09-.07-.07.06h.06l.07.08Zm0,.26h-.11v.13l.12,0ZM295,179v.07l.05,0V179Zm.46.54.08,0v-.09l-.08,0Zm.08.24v.07l.1,0v-.07Zm.24-.19h.05v0l-.05,0Zm.13.5.05,0,.07,0-.05,0Zm.23.69.06.07h.07l-.06-.07Zm.16.29,0,0,.05,0v0Zm0-.09h0l0,0h-.06Zm0,.28h0l0,0,0,0Z"/><path class="cls-1" d="M299.38,179.3l-.37,0-.33-.19-.18-.33-.08-1.5.14-.34.36-.23.33-.06h.35l2-.14.34.05,1.78-.11.36.17.14.38.11,1.42-.19.38-.52.21-1,.07-.35,0-1.2.06-.3.07h-.71l-.33.09Zm.39-.41h.14l.13,0,.08-.06.18-.2.19-.1-.14,0-.11,0-.14,0H300l-.13-.15-.21.08,0,.18.14.06H300v.11h-.16l-.12.08-.1.09-.09-.08-.19-.15.17-.2v-.14l.07-.15v0l-.05-.07-.13-.13,0-.09-.08-.15h-.13l-.16,0-.12,0v-.1H299l.37,0,.23.06,0-.29.27.06v-.21l-.29-.13h-.12l-.08.08.09,0v.12h-.14l-.18,0-.24,0-.12.1,0,.25,0,.12.28,0,0,.05L299,178l0,.06h-.07l0,.05.13,0,.16.08,0,.08-.08.08-.1.16-.07,0-.09-.1v-.13l0,.16v.12l.06.09.15.06.11.06-.09.08-.05,0,.08,0,.15-.11.12.19.16-.08.15.13Zm-.61-.81.1-.06h.12l.09.07h-.32Zm0,.34h.06v.07h-.05Zm.32-.26.05,0h-.05Zm2.08-.08,1.08,0,.36-.16v-.18l-1.29-.07-.88.1-.74,0-.37.11v.23l.37.05h.73Zm-1.44-.75h.09l-.08-.07-.1,0,0,.11Zm.78,1.57.1,0h.13l.2.1h.11l.21-.1.31,0,0-.13,0-.12h.11l.08.19.1.12.05-.06-.06-.15.07,0h.28l.16.16.14,0,.09,0,.12-.06.1,0v-.16h-.48l0-.16-.14.11-.13.08-.1-.12.12-.1.1-.07-.1,0-.14,0-.11,0-.12,0-.08.11-.14,0-.15-.17-.07-.05h-.14l-.22.14-.1.07-.1,0-.11.06-.1,0h-.12l-.35,0-.08.2.14,0,.08-.16.11,0,0,.19Zm-.28-1.49,0,0-.05,0,0,0Zm.07-.41v-.09l-.07,0,0,.05Zm.17,1.58,0-.09-.07,0,0,.11Zm-.1-1.43,0,0,0-.07v.05Zm.34-.21-.06-.07-.09,0,.06.05Zm.13.22h-.12l.09,0h.16Zm0,1.52h.09l0,.09h-.07Zm.32-1.5,0,0v.05l0,0Zm.07,1.53v-.05h.06l0,.07ZM302,177l0-.05V177h0Zm1.78.52,0-.19v-.05h.11l.05-.06h-.07l-.09,0-.12.08-.08-.12.14-.06,0-.15-.13-.08,0,.13-.16,0h-.12l-.28.07-.12,0,0-.07.07,0,.11,0,0-.11-.18,0,0,.14-.17,0-.09,0,0-.1.1-.08-.09-.07,0,.09-.05.06-.13-.1-.08.13.11.06.09.13.21,0h.11v0H303l.08.19.1.06.09,0h0l.14,0,.14,0,.22.15Zm-.72.78,0,0-.05,0v0Zm.25.06v0h-.05v0Zm.17-.06,0-.16,0-.13v-.12l0-.21h-.11l-.13.15,0,.11,0,.14,0,.16.11.08,0,.05Zm.06.42v-.09h-.11v.08Zm.25-.9,0-.05,0,.07,0,0Zm.14.22h-.16l0,.05H304Zm0-.19,0,0,0,0h0Zm0,.6,0-.05,0,.05,0,0Z"/><path class="cls-1" d="M315.11,171.44l-.17.45-1,1.93-.2.26-2,3.81-.15.47-.08.52.07,1,0,.32,0,.35.06.35.06,2-.12.38-.34.21-.36,0-.49.06h-.55l-.32.05h-.35l-.38-.12-.16-.38,0-.67-.05-.34,0-1.36-.05-.35-.05-1.39-.12-.48-.2-.48L306.54,176l-.16-.3-.45-.54-.79-1.21-.21-.23-.83-1.21-.2-.4,0-.39.34-.19h.81l.89-.12.31.05.37,0,.41.14.39.31.91,1.51.21.29.58,1,.21.27.21.32h.2l.21-.31.26-.68.16-.31.15-.38.36-.58.18-.54.42-.78.3-.31.47-.21h.3l.69-.06.35,0L314,171l.69,0,.32.05Zm-10.45,1.14v.09l.18.06.26-.08.11,0-.25-.11-.27-.05-.08,0Zm0-.28.12-.06.11,0,.13.13.11-.17-.16-.1-.12-.14-.2.15Zm2.14,3.57.12,0,.37-.06.29,0-.14-.22-.28,0,0-.05.12-.08.12-.09-.23-.1-.06-.17.11,0v-.07h-.1L307,175l0-.28-.26,0,0-.14-.09,0,.06-.14-.13,0-.18-.06-.07-.39-.25.09-.09,0,0,.11-.09,0,.06-.23,0-.23-.07-.23h-.17l-.21,0,.15-.19.23.07.07-.07-.06-.12-.51,0-.26-.09-.18.21.08.24.28,0,.17.47.29.16-.05.05.14.06.06,0-.08.15,0,.1,0,.08.15.16.21.38.26-.17.07,0,.13,0,0,.09-.21.06v.26l.29.06.05.3.14.08v.11l0,.06ZM305.17,173l.06.1-.05,0-.07-.06Zm.13-.2.16,0v-.14l-.12,0Zm.12.26-.06-.07h.11Zm-.06-1.08,0,.1.08-.09,0-.07Zm.19,1.62h.14v.11l-.14,0Zm0-1.38,0,.18.19,0,0-.18Zm.1.24v.14h.12v-.13Zm.28.94.07.05,0-.07H306Zm.11,1,.07,0v.05H306Zm-.1-2.1.11.09.18,0,.07-.06.2-.16.31.07,0-.11-.13-.06-.15-.22-.23,0-.28.05.23.06.2,0,.06.05-.14.08-.13-.06-.1.15.11.08v.06l-.07,0-.16-.06Zm7.1,0-.23,0-.35.46-.58,1-.21.28-.11.32-.16.34-.38.56-.12.31-.2.26-.14.38-.34.6-.22.24-.2.2-.29-.18-.21-.23-.17-.31-.82-1.1-.18-.32-.59-.8-.19-.29-.23-.29-.16-.33-.68-.81-.3,0,.12.28,1.62,2.37.2.24.18.31.24.25.37.63.45.51.18.35.18.43.23,1.56,0,.51.06.69,0,.32.06.37,0,.51.09.35.19,0,.09-.29v-.37l0-.37,0-.28-.19-2.5.21-1,.21-.28.26-.44.24-.54.2-.28.3-.63.2-.28.65-1.29.37-.62.32-.62Zm-6.6,2.29,0,.19-.13,0-.06-.09Zm.53.92-.07.09h-.05v-.11l.07-.06Zm.51,1.28.33,0,.15-.19-.21,0-.14,0-.12-.33.18-.17h.05l-.15-.15-.33.13-.15-.12v-.05l-.14.06,0,.21.27,0,.08.26Zm-.47-1.5-.05,0v-.09l.07.07Zm.06-2.42.1.17,0,.31.3.07.09.37.24.11.18.15.11-.29-.18-.15-.3,0,.1-.15h.07l0-.05-.18-.11-.3,0V173l.07-.07.17-.08,0-.09-.2,0h-.08l-.15,0Zm0-.27.14,0v-.16l-.1.07Zm1,4.53-.05,0-.16.06-.09-.1,0,.07.08.08H308Zm-.4-4,0,.09,0-.07Zm.23.75-.11-.06.09,0ZM308,177l.24-.1v-.16l-.12.08-.16.06Zm3.21,2.44-.05,0-.06.06-.07-.28,0-.43-.05-.3v-.14l-.09-.07-.14.08-.09-.12.06-.09,0-.13-.12-.06-.11.25-.13.18h0l-.05.05v.28l0,.3.14,0,.1.19v.16l-.15.06-.1.18.15.2.06.19.14,0,.06.12h-.23l-.1.13,0,.28-.11.18.1.22-.07.3.2.15-.16.22.07.3-.07.38-.24.24,0,.09-.33,0-.1.15-.11-.06v-.1l0-.16-.25-.34.17-.41-.06-.4,0-.39-.24-.16.19,0,0-.14-.18,0,.17-.11,0-.32.06-.41-.21-.31.05-.3-.25-.08-.07,0-.08-.21.28,0,.06-.2v-.27l-.27-.12-.12-.3,0-.23,0-.11,0,0,0,0v.11l-.13-.08-.06-.39-.29.12h-.14l0-.07.07-.06.14-.06-.06-.1-.15.12-.1.2.31.09.06.24.19.13.11.08v.07h-.12l-.12,0v.05l.25.11,0,.2h-.16l0,.11.11,0,.12-.09.08.17-.16.2-.06.19,0,.29,0,.53.22.2-.05.09-.16,0,0,.21-.07.22.1.22.14.06-.14,0,0,.18.16,0-.06.2,0,.12.17,0v.05l-.19.06-.09.36v.21l.05,0h.07v.51l0,.23.06.24.09,0V183l.21.06.07.25.19-.06,0,0,.08,0V183h.11l.17.15.19-.13-.08-.15h-.16l.24-.14.36-.11.32.09.43.1.15-.2h-.09l0-.11.09-.29V182l0-.28,0-.46-.25,0,0-.08.26-.07.06-.39-.18-.45.11-.25-.09-.1.13-.27Zm-3.29-5.23h-.05l0,.05.05,0,0,0Zm.3,3.57,0-.09-.11,0v.12Zm-.08-3.07-.11-.12,0,.17.13.12Zm.23,0,.06.14,0,.13.18.09,0-.12-.18-.06h.11v-.2l-.15-.08Zm0-.27h.11l0-.11h-.1Zm.53,7.62-.1.06,0-.09.06-.09Zm.09-2.6-.13.18-.16,0,.11-.13Zm-.18-.34-.13-.12h.14Zm-.05.25h.09l-.1,0Zm.31.85.05,0-.05,0H309Zm-.15-1.67,0-.12H309l0,.05Zm-.12-3.16.12,0,0-.11h-.14Zm.17.26,0,.05,0,.05,0-.07Zm.61,7.24,0,0-.1.13-.14,0,0-.2Zm0-.18-.17.06v-.11Zm-.31-6.94h.1l0,.14,0,.07,0,.1,0,.16.09,0,.08-.13.22-.15-.21-.32h-.26Zm.28.25-.14,0v-.05l.12,0h.11Zm.21.24h-.09v.11l.12,0Zm0-.74,0,.07.07,0,0-.07Zm.63,7.49-.16,0v.1h.12Zm-.36-7.54.14,0,.07,0v.13l.1,0,0-.1-.14,0-.11-.07Zm.64,7.46-.05-.09-.07,0,.06.07v.11l.06,0Zm-.24-4.39,0-.07h0l.07.07Zm.06-.3,0-.06,0,0,0,.05ZM311,183l-.26,0-.06.22H311Zm-.32-4.19,0,.1-.11,0,0-.09Zm-.25-3.29.1,0v-.09h-.11Zm.32,2.24.13.06.06.21.17-.06,0-.17-.06-.18-.14,0-.17.08,0,0Zm.13,3.73.11,0,0,.07h-.09Zm-.33-6.37.14,0,0-.14h-.16Zm.6,7.39-.08-.07.09,0Zm.26-4.89-.13-.15-.06-.16h.16l-.06-.1H311l0,.2.2.31h.14Zm-.4-3.44h0l.09,0,0-.06,0,0-.08,0Zm.49,2.48-.18-.08,0,.07-.09,0,.08.14-.09.1,0,.07.19-.07Zm.48-.31h-.05l0,.06.09,0Zm-.18-3.61.08,0h0l0,0Zm.25,3.27-.05,0v.05l.05,0Zm.4-1,0-.09-.07.06V175Zm.09-.38,0-.14-.11,0,.06.1Zm.24.27,0,0h-.07l.06,0Zm.18-.52-.09,0h0l.05,0Zm.52-.88-.1,0v.09l.1,0Z"/><path class="cls-1" d="M328.16,176.43l0,1.24,0,.39-.09.29,0,.36-.1.34-.62,1.25-.21.33-1.16,1.25-1.53.79-.66.25-1.56.24h-1.06l-1.52-.36-.35-.12-1.23-.57-.24-.25-.52-.45-.89-1.08-.19-.31-.13-.37-.29-.58-.26-1.1,0-2,.1-.76.29-1,.14-.3.55-.92.44-.55.54-.42.24-.22.87-.62.66-.21.31-.16.35-.13.35-.09,1.23-.14.82,0,2.35.59.93.51.8.64.25.31.22.2.25.29.14.31.35.57.11.4.16.36.18.64Zm-12.58,0h.18l.16.11,0,.08.08.07.11,0-.12.13-.09,0,0,.09.11,0,.13-.22-.13-.15,0-.1-.11-.1,0-.14h-.13Zm0,.35.06.07,0-.05.06-.08v-.09Zm.48.7,0,0-.06-.12-.11-.07-.07,0-.1.08,0,.11h.12l0-.05.14,0,.07,0h0Zm-.28.69,0-.08-.08-.12,0,.07v.09Zm.14.61,0-.14h-.08l0,.08Zm-.16-3.14.14,0,0-.12-.07-.08Zm.65,3.76v-.08l-.21.1Zm-.46-4.77.12-.07,0-.22-.14,0Zm.2.1,0,0,0,0,0,0,0,.09.09,0Zm0,.33h-.16l0,.12.16,0Zm.71,4.52-.06-.11-.09,0v-.07l0-.08v0l-.06,0,.05-.06,0-.05,0,0-.05.07.06.06-.15.13-.15.06-.1.07v.05l.35-.09.06.09Zm-.56-3.2h-.07l-.07,0v0l.09,0Zm0,1.09,0-.09h-.07v.19Zm.12.63v.07l0,.09,0,.05.08-.13v-.1l-.11-.17h-.09Zm.15,2,0-.1,0-.09-.09-.07V180l0,.1Zm-.36-6.09.16.06.14-.12-.06-.15.08-.09-.06-.12-.06,0,.12-.15-.05,0h-.05v.11l0,.09.1.15-.07.08v.12l-.1.07,0-.07Zm.4.58-.07.08v.09l.12-.11v-.09l-.11-.06-.25-.08.09,0,0,0h-.07l-.07,0v.07l.09.05.09,0-.07,0-.07.07h.09l.1-.08Zm-.1.5,0,.09-.14.13.09,0,0-.09.08-.06v-.05Zm7.35,6.18.67-.3.29-.18.87-.88.29-.44.17-.36.18-.31.13-.34.24-1.45-.1-1.12-.07-.32,0-.33-.14-.31-.27-.76-.38-.58-.47-.58-1.18-.82-.34-.14-.36-.08-.32-.13-.34,0-.39-.09-.9,0-.86.1-1,.38-.94.49-.29.25-.51.56-.38.53-.35.65L317,175l-.09.38,0,.3-.08.38,0,.44.22,1.79.39,1,.16.26.21.29.55.61.81.63.31.18,1,.38.89.07h1.25l.37,0,.31-.14.35-.05ZM316.71,174l.21,0,.1-.06-.1,0Zm0-.44.16,0,0-.25-.12.08,0,.09Zm8,6.84-.25.24-.95.46-.33.07-.31.1-.9.1-1.22-.07-.31-.09-.68-.16-.31-.14-.57-.39-.54-.47-.4-.58-.2-.21-.29-.69-.2-.7-.06-.33,0-1,.21-1.36.15-.35.1-.37.16-.33,1-1,.56-.42.29-.14.35-.07.64-.23.9-.1.5,0h.37l.62.09,1,.38.57.37.55.43.31.44L326,175l.11.33.16,1.27v.83l-.11.7-.12.4-.23.58-.21.31-.16.27-.19.28-.27.3Zm-7.15.15-.12.06.06.14v-.11l.05-.07Zm-.26-7.62.09.08.07,0-.06-.12Zm.62,8,.06,0-.07-.06-.08.11v.07Zm.15.4-.09,0,0,0,0,0,.08.08Zm-.08-5.22-.07,0-.05,0-.12-.08,0,0-.06.11.05,0Zm-.29-.78.11,0,.07-.08v-.12l-.07,0,0,.16-.05,0Zm.19.45-.11,0,0,.1h.11Zm.39,5.43-.08-.15,0,.07.06.09Zm0-6,0,0-.12.06-.07.06-.06.18.09,0,.05-.06.06-.09Zm.13-.44-.08.06h-.18l0,.11.09,0,.21,0Zm5,4.88.31-.16.52-.45.19-.33.15-.27.18-.28.12-.73.06-.89-.11-.75-.14-.31-.12-.35-.16-.31-.44-.58-.57-.37-1-.35h-.85l-.81.12-.37.11-.31.17-.49.38-.25.24-.21.29-.14.31-.2.26-.09.33-.09.66v.53l.14.88.39,1,.24.24.19.24.57.45.61.28.32,0,.36.1,1-.09.33-.1.31-.05Zm-4.78-5,0,.09h.07l.07-.06h-.09l0,0,0-.05Zm.09-.36.15.1,0-.05,0-.06Zm2.44,8.1h0l0-.1-.12,0,.07,0Zm.21,0-.09,0-.09,0,.11,0Zm.62.39-.11-.08h-.07l0,.09Zm.08-.39h-.16v.11h.16Zm.43.12h-.12l0,.07.09,0,0,0h0l.05-.06Zm0-1.64,0-.07h-.11v.08Zm.9,1.34-.11-.15,0,.07-.1.08h-.11l0,0-.13.15-.12-.06-.09,0-.12.09.08.05.14-.06.07.05.12-.06,0-.11.17,0,.06-.09Zm-.65-9,.05-.05,0-.09Zm.63,7,.09-.06.09,0h.21l-.11-.08h-.09l-.11,0-.07,0,0,.07-.08.16.08.16v.16l.07,0,.12-.06h.06l-.15-.15Zm.53,2-.08-.16-.14.06.06.12-.07.05Zm0-.49-.1-.07,0,.06,0,0h0l0,0Zm-.07,0,.07,0-.07,0h0v0Zm.23-1.59-.11,0,0,.14-.16,0,0,.07.16-.06Zm.31,1.72,0-.05-.07-.07h-.18l0,.26-.11,0v.12h.14l0-.08.09.07.1-.06-.06-.1,0-.06Zm-.19-2.11.1-.15-.11-.06h-.09l0,.09,0,.09,0,.14.16,0Zm0,2.19h.18l0,.07-.1.06-.06,0Zm.44-2.25.07-.06.09,0,.08.08H325l-.17-.08-.07-.07,0-.18-.07,0,0-.05,0-.09-.06-.07,0,.09-.17.19h-.1l0,.09.08,0,.13,0,.05,0-.08.11Zm.48,2,0-.12h0l-.15-.1-.16,0-.07.06-.12.15.09,0,.08-.09,0,.11.11.1,0,0h.25l0-.16Zm-.28.37-.07,0-.09.06.09.05Zm.24-.49,0,.12-.17.07-.12,0,0-.07.15-.19.11,0Zm.08-.2.12-.06-.1-.12-.19,0,0,.17h.11Zm-.1-1.83-.06-.12-.09,0,0,.13.06.06Zm0-.48-.1.08h.18l0,.1h-.05v.14l.18,0,.08-.09-.1.06,0-.17-.08-.08Zm0-.78.11.14.07,0v-.2l-.1-.12-.08.09Zm1.13,2.75-.08,0-.11,0,0-.09-.06-.09-.31,0,0-.09.16,0,0-.11-.08-.07-.12.13-.15.06.11.17-.19,0v.11l.16,0,0,.07.05,0,.1-.1.12,0,.07-.07.06.07-.08.18.09,0,.1-.11h.23Zm-.65.71h-.09l0,0,0,0h-.09l0-.12h-.11l0,.1.07.09,0,.09h.14Zm-.2-3.08-.08.09.13,0h.14l0,0,.05,0Zm.09-.48h.13V178l0-.1.16.11-.09-.13h-.07l-.17.1Zm.32-1.24.11.1.1-.07,0-.07,0,.05Zm.63,3.41-.2,0-.12.13.1.1-.07.07H326v.07l.14,0,0-.12v-.16l.09.08,0,.34.08.12h.05l0-.42Zm.48-.22,0,0v-.09h-.09l-.12.08-.32,0v.12l.21,0,.1-.09.12.15,0-.08Zm.42-.42h-.08l-.07.06-.11-.06-.08-.08.13-.2-.07-.05-.31.13h-.12l-.07.09h.19l.13.08.06.21h.2l.05.07.07-.09Zm-.44-.59-.12,0,0,.13v0l-.07.09.23-.08.05,0v-.07l0-.07Zm-.4-5.45.05,0,0-.09-.08-.07Zm.43,5.22,0,.07.39,0,.06-.09-.17-.13-.12.08-.05.07Zm.46.35.13-.11,0-.09-.12.08-.07.09-.14-.06H327l.07,0,.16,0,.15.1v-.07ZM327.1,178l.12-.08-.13,0Zm.1.26.08.07v-.16Zm-.23-4.49.05,0,0,0,0,0Zm.55,4.9.1-.11-.1-.22-.07,0-.1.15-.1,0,0,.06.25.12,0,.12.07,0v-.09Zm-.54-5h0v0Zm.28,3.82.06-.14-.07-.08v.07l0,.14Zm-.08-1.06.14,0,0-.09Zm.45,1.7-.11-.11-.19,0,.08.11h.07Zm.13-.52-.08,0-.07,0,0,.09-.11.13.11.08.19-.27Z"/><text class="cls-16" transform="translate(358.08 338.69) rotate(-3)"><tspan class="cls-17">A</tspan><tspan x="3.92" y="0">U</tspan><tspan class="cls-18" x="8.13" y="0">T</tspan><tspan class="cls-19" x="11.58" y="0">H</tspan><tspan x="15.9" y="0">E</tspan><tspan class="cls-18" x="19.54" y="0">N</tspan><tspan x="23.92" y="0">TIC</tspan></text><text class="cls-20" transform="translate(366.41 378.38) rotate(-3)">R<tspan class="cls-21" x="3.81" y="0">ECIPE</tspan></text><text class="cls-22" transform="translate(356.11 355.07) rotate(-3)">SOUTH<tspan x="-6.8" y="15">AFRICAN</tspan></text><text class="cls-23" transform="translate(168.15 514.45) rotate(-3)">BEEF RAISED WI<tspan class="cls-24" x="52.27" y="0">T</tspan><tspan class="cls-25" x="56.03" y="0">H VEGE</tspan><tspan class="cls-26" x="79.59" y="0">T</tspan><tspan x="82.84" y="0">ARIAN DIET AND NO AD</tspan><tspan class="cls-27" x="158.2" y="0">D</tspan><tspan class="cls-25" x="162.79" y="0">ED HOR</tspan><tspan class="cls-28" x="187.35" y="0">M</tspan><tspan x="193.29" y="0">ONES OR A</tspan><tspan class="cls-29" x="228.64" y="0">N</tspan><tspan x="233.35" y="0">TIBI</tspan><tspan class="cls-30" x="245.72" y="0">O</tspan><tspan x="250.43" y="0">TICS.</tspan></text><text class="cls-31" transform="translate(201.68 377.48) rotate(-3)">USA</text><text class="cls-32" transform="translate(191.75 354.97) rotate(-3)">PROUD<tspan class="cls-33" x="19.27" y="0">L</tspan><tspan x="21.85" y="0">Y MADE</tspan></text><text class="cls-34" transform="translate(197.21 377.26) rotate(-93.15)">IN <tspan class="cls-35" x="7.38" y="0">T</tspan><tspan class="cls-36" x="10.54" y="0">H</tspan><tspan x="14.51" y="0">E</tspan></text><path class="cls-37" d="M302.83,395.42a7.09,7.09,0,0,1-1.12,0l-.48-.06a34.58,34.58,0,0,1-5.65-1.2l-.53.08h0a33.53,33.53,0,0,1-5.34,1.73l-.33.08c-.29.05-.53.09-.77.11a7.69,7.69,0,0,1-4.75-1.16l-.39-.27a33.29,33.29,0,0,1-4.37-3.72h-.16a33.68,33.68,0,0,1-5.57-1L273,390a7.63,7.63,0,0,1-4.38-3.46c-.09-.17-.18-.33-.25-.49a33.09,33.09,0,0,1-2.14-5.28l-.14-.09a33.85,33.85,0,0,1-4.48-3.42l-.24-.23a7.54,7.54,0,0,1-1.63-2.37,7.65,7.65,0,0,1-.64-2.73c0-.2,0-.38,0-.55a33.07,33.07,0,0,1,.56-5.66l-.08-.14a34.62,34.62,0,0,1-2.38-5.12l-.1-.29a7.62,7.62,0,0,1-.35-2.86,7.48,7.48,0,0,1,.71-2.72,4.77,4.77,0,0,1,.25-.48,33.27,33.27,0,0,1,3.12-4.76v-.16a33.44,33.44,0,0,1,.27-5.64l0-.28a7.68,7.68,0,0,1,2.9-4.8l.47-.32a34.08,34.08,0,0,1,5-2.76l.07-.14a33.63,33.63,0,0,1,2.83-4.86l.18-.26a7.68,7.68,0,0,1,4.8-2.9c.14,0,.3,0,.52-.07l1-.09a32.86,32.86,0,0,1,4.78-.06l.13-.1a34.26,34.26,0,0,1,4.8-3l.25-.13a7.53,7.53,0,0,1,2.56-.68l.24,0a7.36,7.36,0,0,1,2.83.38l.45.17a34,34,0,0,1,5.12,2.51l.17,0c.85-.14,1.71-.25,2.56-.32,1-.09,2.05-.12,3.07-.12h.25a7.62,7.62,0,0,1,5.13,2.27c.13.13.27.28.4.44a34.41,34.41,0,0,1,3.34,4.58l.15,0a33.46,33.46,0,0,1,5.19,2.23l.24.13a7.7,7.7,0,0,1,3.49,4.4c.06.19.1.37.14.56a33.59,33.59,0,0,1,.85,5.62l.12.12a34.22,34.22,0,0,1,3.57,4.4l.14.21a7.65,7.65,0,0,1,1.06,2.75,7.55,7.55,0,0,1,0,2.83c0,.15-.07.3-.09.4a34.29,34.29,0,0,1-1.89,5.46l0,.16a33.63,33.63,0,0,1,1.13,5.54l0,.26a7.62,7.62,0,0,1-1.66,5.39,5.63,5.63,0,0,1-.38.43,33.89,33.89,0,0,1-4.12,3.87l0,.16a34.42,34.42,0,0,1-1.57,5.43l-.11.27a7.61,7.61,0,0,1-4,4l-.46.18a34.56,34.56,0,0,1-5.49,1.54l-.11.13a33.79,33.79,0,0,1-3.92,4.09l-.2.18a7.6,7.6,0,0,1-2.59,1.39,8.09,8.09,0,0,1-1.63.32Z"/><path class="cls-13" d="M290.52,327.31l-.17.09a29.2,29.2,0,0,0-4.21,2.63l-.22.16-.16.13a4.08,4.08,0,0,1-.46.24l-.18.08-.34.13a4.1,4.1,0,0,1-1.27.16h0a28.82,28.82,0,0,0-5.2.13l-.25,0a3.7,3.7,0,0,0-2.25,1.35l-.11.16a29.64,29.64,0,0,0-2.51,4.29l-.12.25-.08.18a4,4,0,0,1-.28.43l-.16.19-.21.24a4.16,4.16,0,0,1-1,.73h0l0,0a29.44,29.44,0,0,0-4.54,2.52l-.21.14a3.69,3.69,0,0,0-.89,1,3.49,3.49,0,0,0-.48,1.25l0,.19a29.62,29.62,0,0,0-.24,5v.47a4.22,4.22,0,0,1-.05.51c0,.07,0,.15-.06.23s0,.21-.08.32a3.92,3.92,0,0,1-.59,1.13v0l0,0a29.64,29.64,0,0,0-2.85,4.35,2,2,0,0,0-.12.22,3.47,3.47,0,0,0-.33,1.28,3.6,3.6,0,0,0,.15,1.34l.07.18a30.82,30.82,0,0,0,2.1,4.51l.14.24.1.17a4.07,4.07,0,0,1,.19.48l.05.22c0,.11.06.21.08.33a3.91,3.91,0,0,1,0,1.28v0a29.58,29.58,0,0,0-.52,5.18,2.24,2.24,0,0,0,0,.24,3.58,3.58,0,0,0,.31,1.29,3.43,3.43,0,0,0,.75,1.12l.14.13a29.48,29.48,0,0,0,4,3l.23.15.17.11a3.36,3.36,0,0,1,.39.33l.19.2.19.22a3.76,3.76,0,0,1,.6,1.13v0a29.94,29.94,0,0,0,1.95,4.82,2.26,2.26,0,0,0,.11.22,3.71,3.71,0,0,0,2.05,1.64l.18,0a29.71,29.71,0,0,0,4.89.84l.28,0h.2a4.29,4.29,0,0,1,.5.12l.23.08.3.12a4,4,0,0,1,1.06.73h0l0,0a29.34,29.34,0,0,0,4,3.36l.2.15a3.61,3.61,0,0,0,1.24.49,3.65,3.65,0,0,0,1.34,0l.19,0a29.7,29.7,0,0,0,4.73-1.53l.26-.11.18-.08a3.59,3.59,0,0,1,1.08-.2h0v0h0l.26,0a3.88,3.88,0,0,1,1.27.13h0a30.47,30.47,0,0,0,5.08,1.09l.25,0a3.51,3.51,0,0,0,1.32-.16,3.7,3.7,0,0,0,1.19-.62l.15-.12a30.09,30.09,0,0,0,3.44-3.59l.17-.21.12-.16a3.63,3.63,0,0,1,.38-.35l.18-.13c.09-.07.18-.14.28-.2a3.86,3.86,0,0,1,1.19-.47h0a29.56,29.56,0,0,0,5-1.4l.23-.09a3.69,3.69,0,0,0,1.85-1.86l.07-.18a29.93,29.93,0,0,0,1.38-4.77l.05-.27,0-.2a3.39,3.39,0,0,1,.17-.48c0-.07.06-.13.1-.19a3.45,3.45,0,0,1,.16-.31,4,4,0,0,1,.84-1h0l0,0a29.88,29.88,0,0,0,3.79-3.56,1.45,1.45,0,0,0,.16-.19,3.67,3.67,0,0,0,.78-2.5l0-.19a29.18,29.18,0,0,0-1-4.87l-.08-.27-.06-.19a3.58,3.58,0,0,1-.08-.51c0-.09,0-.18,0-.27s0-.19,0-.29a3.9,3.9,0,0,1,.29-1.25h0v0a30.35,30.35,0,0,0,1.71-4.91c0-.08,0-.16.06-.24a3.59,3.59,0,0,0,0-1.33,3.54,3.54,0,0,0-.47-1.26l-.11-.16a30.23,30.23,0,0,0-3.13-3.86l-.19-.2-.14-.14a3.45,3.45,0,0,1-.3-.41l-.11-.2c-.05-.1-.11-.19-.16-.29a3.87,3.87,0,0,1-.32-1.24v0a29.71,29.71,0,0,0-.77-5.14,2,2,0,0,0-.06-.24,3.55,3.55,0,0,0-.61-1.17,3.49,3.49,0,0,0-1-.89l-.17-.09a29.58,29.58,0,0,0-4.57-2l-.26-.09-.19-.06a4.17,4.17,0,0,1-.46-.23l-.17-.12a3.12,3.12,0,0,1-.29-.2,4,4,0,0,1-.86-.95v0a30.3,30.3,0,0,0-3.06-4.2l-.17-.19a3.71,3.71,0,0,0-2.39-1.09h-.19a29,29,0,0,0-5,.38l-.27,0-.2,0a4.46,4.46,0,0,1-.51,0l-.22,0-.34,0a3.92,3.92,0,0,1-1.2-.44h0a30.28,30.28,0,0,0-4.67-2.29l-.23-.09a3.62,3.62,0,0,0-1.31-.17A3.57,3.57,0,0,0,290.52,327.31Z"/><path class="cls-13" d="M268.47,63.48c-2.17.47-4.42,1.67-4.17,6.12l.44,8c0,.61.06,3.16-2.2,4.21,2.47.78,2.64,3.86,2.65,4.05l.43,7.84c.23,4.26,2.61,5.52,4.78,5.63a.41.41,0,0,1,.41.4v0a.34.34,0,0,1-.37.37c-1.19-.05-5.36-.71-5.65-6l-.44-8.1a4,4,0,0,0-2.52-3.75.37.37,0,0,1-.33-.37.41.41,0,0,1,.28-.44c1.21-.49,2.21-1.82,2.09-4l-.45-8.11c-.29-5.26,3.7-6.36,5-6.59a.35.35,0,0,1,.4.32A.46.46,0,0,1,268.47,63.48Z"/><path class="cls-13" d="M290.69,61.79a.36.36,0,0,1,.37-.37c1.31.08,5.4.74,5.69,6l.45,8.1c.12,2.23,1.27,3.44,2.52,3.79a.41.41,0,0,1,.33.41.37.37,0,0,1-.29.4,4,4,0,0,0-2.09,4l.45,8.11c.29,5.3-3.77,6.41-5,6.59a.33.33,0,0,1-.4-.32v0a.41.41,0,0,1,.36-.44c2.14-.35,4.37-1.86,4.13-6.13l-.43-7.83c0-.19-.18-3.27,2.19-4.32-2.35-.8-2.61-3.32-2.64-3.94l-.44-8c-.24-4.45-2.61-5.4-4.82-5.63A.46.46,0,0,1,290.69,61.79Z"/><text class="cls-38" transform="translate(271.89 85.56) rotate(-3.15)">0</text><text class="cls-38" transform="translate(283.83 84.9) rotate(-3.15) scale(0.5)">g</text><text class="cls-39" transform="translate(271.79 95.73) rotate(-3.15)">SUGAR</text><path class="cls-13" d="M209.19,66.74c-2.17.46-4.42,1.67-4.17,6.12l.44,8c0,.61.06,3.16-2.2,4.2,2.47.79,2.64,3.86,2.65,4.05l.43,7.84c.23,4.26,2.62,5.52,4.78,5.63a.42.42,0,0,1,.41.4v0a.33.33,0,0,1-.36.37c-1.2,0-5.36-.71-5.65-6l-.45-8.11a4,4,0,0,0-2.52-3.75.38.38,0,0,1-.33-.37.42.42,0,0,1,.28-.44c1.21-.49,2.21-1.81,2.09-4l-.45-8.1c-.29-5.26,3.69-6.37,5-6.59a.35.35,0,0,1,.4.32A.46.46,0,0,1,209.19,66.74Z"/><path class="cls-13" d="M243.93,64.37a.36.36,0,0,1,.37-.37c1.31.09,5.4.74,5.68,6l.45,8.1c.12,2.23,1.27,3.44,2.52,3.79a.41.41,0,0,1,.33.4.38.38,0,0,1-.29.4,4,4,0,0,0-2.09,4l.45,8.11c.29,5.3-3.77,6.41-5,6.59a.34.34,0,0,1-.4-.32v0a.42.42,0,0,1,.36-.45c2.14-.35,4.37-1.86,4.13-6.12l-.43-7.84c0-.19-.18-3.27,2.19-4.32-2.36-.79-2.61-3.32-2.64-3.94l-.44-8c-.25-4.45-2.61-5.4-4.82-5.63A.46.46,0,0,1,243.93,64.37Z"/><text class="cls-38" transform="translate(211.34 88.89) rotate(-3.15)">180</text><text class="cls-39" transform="translate(214.25 98.9) rotate(-3.15)">CA<tspan class="cls-40" x="8.02" y="0">L</tspan><tspan x="10.8" y="0">ORIES</tspan></text><path class="cls-13" d="M314.87,60.92c-2.17.47-4.42,1.67-4.17,6.12l.44,8c0,.61.06,3.16-2.2,4.21,2.47.79,2.64,3.86,2.65,4.05l.43,7.83c.23,4.27,2.62,5.52,4.78,5.63a.42.42,0,0,1,.41.41v0a.33.33,0,0,1-.37.37c-1.19,0-5.35-.7-5.65-6l-.45-8.1a4,4,0,0,0-2.52-3.75.38.38,0,0,1-.33-.36.42.42,0,0,1,.28-.44c1.21-.49,2.21-1.82,2.09-4l-.45-8.11c-.29-5.26,3.7-6.37,5-6.59a.35.35,0,0,1,.4.32A.46.46,0,0,1,314.87,60.92Z"/><path class="cls-13" d="M345.61,58.76a.36.36,0,0,1,.37-.37c1.31.08,5.4.74,5.69,6l.44,8.1c.13,2.23,1.27,3.44,2.52,3.79a.41.41,0,0,1,.33.41.37.37,0,0,1-.29.4,4,4,0,0,0-2.09,4l.45,8.1c.29,5.3-3.77,6.41-5,6.59a.34.34,0,0,1-.4-.33v0A.42.42,0,0,1,348,95c2.14-.35,4.37-1.86,4.13-6.12L351.73,81c0-.2-.18-3.27,2.19-4.32-2.35-.79-2.61-3.32-2.64-3.94l-.44-8c-.25-4.46-2.61-5.41-4.82-5.63A.46.46,0,0,1,345.61,58.76Z"/><text class="cls-38" transform="translate(318.13 83.01) rotate(-3.15)">31</text><text class="cls-38" transform="translate(338.68 81.88) rotate(-3.15) scale(0.5)">g</text><text class="cls-39" transform="translate(319.64 93.1) rotate(-3.15)">PR<tspan class="cls-41" x="7.45" y="0">O</tspan><tspan x="11.69" y="0">TEIN</tspan></text><text class="cls-42" transform="translate(359.03 78.19) rotate(-3.15)">PER <tspan class="cls-43" x="9.75" y="0">P</tspan><tspan class="cls-44" x="12.2" y="0">A</tspan><tspan class="cls-45" x="15.07" y="0">CK</tspan><tspan class="cls-44" x="21.27" y="0">A</tspan><tspan x="24.15" y="0">GE</tspan></text><text class="cls-46" transform="translate(256.87 519.49) rotate(-3.15)">*N<tspan class="cls-47" x="7.82" y="0">O</tspan><tspan class="cls-48" x="12.53" y="0">T A </tspan><tspan class="cls-49" x="24.87" y="0">LO</tspan><tspan class="cls-48" x="32.85" y="0">W CA</tspan><tspan class="cls-49" x="50.51" y="0">L</tspan><tspan x="53.73" y="0">ORIE </tspan><tspan class="cls-50" x="71.08" y="0">F</tspan><tspan x="74.85" y="0">OOD</tspan></text><text class="cls-51" transform="translate(267.99 359.1) rotate(-3)">SUGAR<tspan x="4.4" y="19">FREE</tspan></text><path class="cls-1" d="M317.28,361.77c.09.15.13.35.2.49s0,0,0,.05a7.32,7.32,0,0,0-.89.48c.18.24.33.52.5.79,0,0,0,0,0,0a.76.76,0,0,1-.21.21l-.12.09a.34.34,0,0,1-.13.07s-.14-.12-.18-.16l-.09-.07-.43-.48a.11.11,0,0,0,0,0s0,0,0,0a4.24,4.24,0,0,0-.56.72c-.07,0-.09,0-.16,0s-.11,0-.14-.1,0,0,0,0a1.24,1.24,0,0,0-.12-.09s0,0,0,0l0-.07.13-.22a3.93,3.93,0,0,0,.2-.49.28.28,0,0,0,.05-.17s-.13-.07-.17-.08l-.18-.05a3.19,3.19,0,0,0-.48-.2h-.1l0-.07a2.35,2.35,0,0,1,.12-.38s0-.05,0-.09a.22.22,0,0,0,0-.1c.15,0,.3.07.47.08a.55.55,0,0,1,.16,0l.44.11a3.68,3.68,0,0,1,0-.45c0-.21,0-.4,0-.61a.59.59,0,0,1,.33,0,.51.51,0,0,1,.23,0,8.76,8.76,0,0,1,.16,1c.18,0,.32-.1.49-.14l.46-.12Z"/></svg>