<svg xmlns="http://www.w3.org/2000/svg" viewBox="0 0 4032.14 383.6"><defs><style>.cls-1{fill:#ef3940;}</style></defs><title>Asset 1</title><g id="Layer_2" data-name="Layer 2"><g id="Layer_1-2" data-name="Layer 1"><path class="cls-1" d="M1179.63,44.53c-1.71-.74-2.55.61,0,0Z"/><path class="cls-1" d="M2502.51,15.22a8.19,8.19,0,0,0,1.29-.09c.94-4,1.82-7.46,2.66-10.08Z"/><path class="cls-1" d="M2715.3,40.19c.5.44.84.67,1.3,1.07C2716.48,38.86,2716.74,36.46,2715.3,40.19Z"/><path class="cls-1" d="M2012.21,52.54a3.33,3.33,0,0,0-3.61,2A8.61,8.61,0,0,1,2012.21,52.54Z"/><path class="cls-1" d="M789.7,65.85s.53-.19.93-.35a24.73,24.73,0,0,1-2.29-2.42Z"/><path class="cls-1" d="M794,59c4.7,2.95-1.29,5.66-3.35,6.49,5.18,5.44,10.37,5.85,15.62,3.36C806.22,62.68,796.3,63.61,794,59Z"/><path class="cls-1" d="M82.35,83l2.13-2.49A9.07,9.07,0,0,0,82.35,83Z"/><path class="cls-1" d="M2033.1,355.69c-1,.56-2.23.84-3.2,1.47A3.09,3.09,0,0,0,2033.1,355.69Z"/><path class="cls-1" d="M194,89.12l1.22-9.79A32.12,32.12,0,0,0,194,89.12Z"/><path class="cls-1" d="M2506.47,5.05,2508,1.23A20.88,20.88,0,0,0,2506.47,5.05Z"/><path class="cls-1" d="M2911.89,46.53a32.43,32.43,0,0,0,1,7.45,1.76,1.76,0,0,1,.56.07Z"/><path class="cls-1" d="M3902.89,202.33a26.38,26.38,0,0,0-.53-3.82l-4,7A7.71,7.71,0,0,0,3902.89,202.33Z"/><path class="cls-1" d="M3181.58,89a19.52,19.52,0,0,0,.92-3.41c-4.61-3.28-16.77-4-32.33-3.62l-1,12Z"/><path class="cls-1" d="M3476.5,369.42l-28.75-24.2c92.27-11.13,135.32,13.12,214.3-6.39l-4.37,5.24c11.5,5.6,18-48.74,145,17.63v2.42c4.41-.42,4.38-5.25,13.18,1.19l-22-14.82c13.15-6.08,24.65-17.64,42.18-19.28,3.72,2.68,5,7.65,5.36,11.52l43-4,13.18,15.63c13.15-8.48,7.16-41.46,42.32-23.09-13.26-22.89,17.45-13.73,13.11-25.38,1.77,2.83,5.81,7.06,9,11,20.91-2.66,60.3-9.07,70-20.82,0,0-81.83-48.19-103.84-72.66,29.44,6.22,7.76-2.8,2-10.5l-2,5.7c-17.64-5.59-17.64-20-26.46-24a26.11,26.11,0,0,0,.51,4l1.13-1.93a6.22,6.22,0,0,1-.6,5.76c.21,3.09-.6,5.52-5.4,4.66l.92-1.51c-7.37,2.1-20.09-.16-25.63-1.19l-.11-12.07c-13.07,23-87.89-35.06-105.44-35.82-17.63-15.22-39.51,3.76-61.53-3.85-35.09-3.89-17.55-17.61-35.17-28-22-7.57,4.45,14.07-4.37,14.88l-26.36-16.79c15.32-1.45,7-8.73,4.2-13.39-22.79-2.05-58.72-24.18-65.73-.11-30.74-11.53-30.82-21.18-44-22.37,4.42,4.39,13.18,8.38,13.26,13.24-12.31-10.63-5.89,2.62-.85,5-18.79,10.46-97.48-43.9-101.43-17.46V82.71c-4.36,19.69,2.64,38.81-10.47,49.69l-8.75-8.8-13.18,8.46c-8.84-6.4-4.49-11.64-4.49-14-21.47,9.09-51.43-1.76-77.43-4.4l27.55,53.68c-21.94-12.4-61.52-37.57-65.9-20.29l-13.18-18c-44-34.43-30.71,15-48.27,4.58L3209,113.9l22,.34c-22-10-30.78-16.38-48.31-29.19,0,.2-.19.34-.19.53a4.35,4.35,0,0,1,2.15,2.93l-3.07.48c-2.66,9.8-14.13,16.51-29.62,15.86-22-2.76-39.2,11.72-74.32-9.08l-8.76,20.09-26.37-12v-16c25.84,1,74.46-5.13,107.67-5.95l.59-7.31c-19.69,0-42.09,7.11-55.1,5.51-6.35-3.19-22.58-19.83-10.8-30.62L3072.69,65.2C3007,67,3006.54,67.76,2937.94,49.65l6,8c-13.61,4.72-27.17,9.31-31-3.7-41.19-2.64-83.85-12.72-110.6-33l-5.85,18.85c-8.7-1-21.74-29.52-26-3.13L2751.93,45c-11.89-1.44-19.17,9.33-32.71-1.49h0a.1.1,0,0,0-.07,0,31.94,31.94,0,0,1-2.55-2.22,10.15,10.15,0,0,0,.15,1.57c-26.91-8.33.27,16.89-30.54,6-9.89-13.4-10.93,23.92-25.95,19.64l-15.07-27c-27.2-15.51-31.86,11.6-71.27,11.69C2555,43.54,2545.84,20.48,2558.38,0c-17.23,24.79-7.84,16.16-30.7,28-3.52-10.19-1.08-12.35,4-21.51-20.31-11.94-12.53,9.21-27.84,8.6-4.45,19.2-9.57,49.76-14.55,51l5.93,6c-16.21,10.25-33.92,15-52.77,5.41l.71-9.65-20.06,4.89-1.26-12.35-28.64,3.83,3.93,3.33c-6.73,1.63-28.81,5.88-41.43-.57l.46-6.86c-35.63-21.4-65,6.64-106.71,8.9l5.48-14c-14.21-13.92-3.9,21.55-20.83,14.6l-.85-17.2c-14.91,22.61-19.28-4.8-29.55-13.35l4.8,22.53-19.35-4.75c-21.31-7.47-13.08-28.47-10-40.27l-14.51,17.76-2.84-19.89c-10.6,23.14-10.6-3.72-29.18,8.69-1.53-7.52,3.17-11.84-3.15-15l-30.64,28.05,18.48-12.43-2.25,29.07c-19.25,22.06-26.07-3.17-39.82,4.94l9.47-8.64c-22.44,7.06-23.63-5.31-36.29-11.75,3.93,5.4,9.93,13.43.85,17.23-6.67,1.6-3.62-10.22-9.92-13.43-1.51,19.37-17.6,29.62-32.19,20.49.18-2.76.49-5.42,1.44-7.17-3.72,3.14-5.65,8.13-12.13,3.47l3.82-21.53-12.47,20.49c-8.31-5.89-20.45,9.72-19.36-4.8l4.73-4.31-63-5.19-.88-17.22c-6.23,23.69-34.31-9-32.25,20.57-11.88-16.12-46.79,11.4-39.8-22-41.39-2.57-63.75,29.52-114.06,13.29-17.92-28.32-67-19.15-99.31-22.14C1560.77,27,1520,37.66,1455.45,46.73c-38.8-39.52-96.79,13.6-138.55-8.72l-11.44,15.7c-27.75-25-70.13,5.59-109.08-18.78-9.54,6.87-14.55,9-16.77,9.6,1.77.75,4.45,3.73,5.3,13.69-11.12-7-33.61,1.76-32-18.14l2.83-2c1.63-19.91-33.75,9.3-46.16-7.94l6.81,21.33-21.06-3.6,5.64-4.1C1009.48,91.06,968.14,23.4,882.22,66.64c11.39-23.27-16.94,12.22-18.06-13.21-21.66-32-40.14,6.9-57.91,15.43A9.64,9.64,0,0,1,805,73.53l-31.06-3c18.55-32.16-22.36,26.67-5.33-.69-81-24-186.64.45-280.38-10.64l4.11,8.27C468.59,65.85,439,75.89,421,62.68s-39.46,21-46.45,22.31c-19.77,14.24-37.76-14.07-29.27-12.62-21.14,3.95-41,33.32-70.35,20.71-10-27.26-80,26.75-80.91-4l-.32,2.59c-37.57-21.63-73,15.17-113.48-4.41A21.37,21.37,0,0,1,82.35,83L0,176.18,23.45,278.75,94.83,362,288.27,344l154.39,32.57,375.72-11L845.2,342.4c73.83,40.46,168.51-6.08,248,22.8l1.65-19.92c22.41-1.18,20.89,11.16,26.44,14.64,208.58-4.41,423.32-31,611-5.84,18.09,13.17,73.14,5.42,87.33,19.35,61-24.37,125.54-24.13,186.57-21.62l-2.31,2.19,28.75-3.84a5.23,5.23,0,0,1,.45,5.53c32.43-17.64,83.51-.19,123.22,7l-2.32,2.17c231.66,3.62,446.72-33.56,676.48-5.76,106.82,32.5,231.09-12.36,353.65,14.71C3206.64,393.63,3454.59,378.75,3476.5,369.42Z"/><path class="cls-1" d="M3841.44,342.73l-1,.1C3840.53,351.22,3842,348,3841.44,342.73Z"/><path class="cls-1" d="M3329.3,113.4c.56.06,1.09.15,1.62.21l-6.09-11.84Z"/><path class="cls-1" d="M3657.35,106.46c-14.74-2.63-15.42-.6-13.35,2.77C3649.33,109.73,3654,109.1,3657.35,106.46Z"/><path class="cls-1" d="M3961.86,326.76c7.75.66,4.79-4.34.25-9.93-7.9,1-13.39,1.51-13.39,1.51C3953.05,320.34,3957.39,324.75,3961.86,326.76Z"/><path class="cls-1" d="M3930.27,212.85l2.41-6.8C3928.12,207.71,3928.31,210.19,3930.27,212.85Z"/></g></g></svg>