<svg xmlns="http://www.w3.org/2000/svg" viewBox="0 0 422 422"><defs><style>.cls-1{fill:#ed1c24;}.cls-2{fill:#fff;}</style></defs><title>Asset 1</title><g id="Layer_2" data-name="Layer 2"><g id="Layer_1-2" data-name="Layer 1"><circle class="cls-1" cx="211" cy="211" r="211"/><path class="cls-2" d="M210.54,104.51c34.83,0,39,.13,52.72.76,12.72.58,19.63,2.71,24.22,4.49a43.2,43.2,0,0,1,24.76,24.76c1.79,4.6,3.91,11.51,4.49,24.22.63,13.76.76,17.88.76,52.72s-.13,39-.76,52.72c-.58,12.72-2.71,19.63-4.49,24.22a43.2,43.2,0,0,1-24.76,24.76c-4.6,1.79-11.51,3.91-24.22,4.49-13.75.63-17.88.76-52.72.76s-39-.13-52.72-.76c-12.72-.58-19.63-2.71-24.22-4.49a43.2,43.2,0,0,1-24.76-24.76c-1.79-4.6-3.91-11.51-4.49-24.22-.63-13.76-.76-17.88-.76-52.72s.13-39,.76-52.72c.58-12.72,2.71-19.63,4.49-24.22a43.2,43.2,0,0,1,24.76-24.76c4.6-1.79,11.51-3.91,24.22-4.49,13.76-.63,17.88-.76,52.72-.76m0-23.51c-35.43,0-39.87.15-53.79.78s-23.37,2.84-31.67,6.06A66.71,66.71,0,0,0,86.93,126c-3.23,8.3-5.43,17.78-6.06,31.67s-.78,18.36-.78,53.79.15,39.87.78,53.79,2.84,23.37,6.06,31.67a66.71,66.71,0,0,0,38.15,38.15c8.3,3.23,17.78,5.43,31.67,6.06s18.36.78,53.79.78,39.87-.15,53.79-.78,23.37-2.84,31.67-6.06a66.71,66.71,0,0,0,38.15-38.15c3.23-8.3,5.43-17.78,6.06-31.67s.78-18.36.78-53.79-.15-39.87-.78-53.79-2.84-23.37-6.06-31.67A66.71,66.71,0,0,0,296,87.85c-8.3-3.23-17.78-5.43-31.67-6.06S246,81,210.54,81Z"/><path class="cls-2" d="M210.54,144.47a67,67,0,1,0,67,67A67,67,0,0,0,210.54,144.47Zm0,110.48A43.49,43.49,0,1,1,254,211.46,43.49,43.49,0,0,1,210.54,254.95Z"/><circle class="cls-2" cx="280.18" cy="141.82" r="15.66"/></g></g></svg>