<svg xmlns="http://www.w3.org/2000/svg" viewBox="0 0 112.08 28.74"><defs><style>.cls-1{fill:#fff;fill-rule:evenodd;}.cls-2{fill:#231f20;}</style></defs><title>Asset 1</title><g id="Layer_2" data-name="Layer 2"><g id="Layer_1-2" data-name="Layer 1"><path class="cls-1" d="M111.48,25.86c-1.31-2.84-1.37-7.09-2.7-10,.87-3.12,1.48-6.47,2.26-9.67a5.05,5.05,0,0,0,.24-1c.23-.89.47-1.78.74-2.63.19-.61-.16-1.2-.45-.88,0,0,0-.06,0-.06C106.52.15,101.27.59,96.17.94S85.92.06,80.85,1.28c-1.12-.08-1.65.52-2.76.49-.59,0-.82.21-1.42.16,0-.27-.93.16-1.08.08-2.13-1.17-4.48-.48-6.7-.2-.63.08-1.26.19-1.89.29C66.46,2,65.92,2,65.38,1.91a.35.35,0,0,0-.24.07.3.3,0,0,0-.17-.1C61.21,1.42,57.42.68,53.62.6,53.57.43,53.5.31,53.39.3c-7.9.06-15.82.42-23.72.21-8.9-.23-17.83-1-26.75,0-.16-.58-.7-.26-.63.49A48.9,48.9,0,0,0,3.45,7.71a53.47,53.47,0,0,0,1.4,5.55A23.92,23.92,0,0,0,2.2,18.38C1.52,20,0,22.66,0,24.79c0,.2.11.43.23.35l0,0c-.08.4,0,.93.3.92,6.95-.11,13.92-.9,20.87-1.27,0,.12.12.2.22.18,4.64-.85,9.16,1.36,13.79,1,4.93-.44,9.45-2.22,14.39-1,.11,0,.19-.05.26-.17a.45.45,0,0,0,.29.1,54.24,54.24,0,0,1,6.29,0c2.12.24,4.24.42,6.36.53,3.65.49,7.37,0,11,.13,1.95.09,4.13.65,6.13-.1,3,1.79,6.11,1.64,9.26,1.32,1.74-.18,3.49-.24,5.24-.27,3.08,1,6.23,1.72,9.33,1.08,2.2.53,4.5.42,6.68,1.18.48.17.81-.65.8-1.36A2,2,0,0,0,111.48,25.86Z"/><path class="cls-2" d="M24.23,19.09l-.06.42-.5.08h-.55l-.33,0-.67,0-.37,0-.4-.18L21,19.11l-.1-.31-.15-.34-.33-.29L20,18l-.39,0-.32,0H17.6l-.32-.06-.74.06-.33-.06-.37.19-.34.33-.33.58-.34.31-.41.12-1,0-.35,0-.69,0L12,19.33,12,18.89l.11-.35.36-.7.09-.32.2-.24.27-.7.32-.56.13-.35.18-.26.11-.39,1.86-3.75.11-.32.2-.33.1-.35.2-.26.73-1.61.16-.24.13-.35.17-.3.32-.3L18.27,7l.58.19.29.32.33.62.1.32.19.32.1.36L21,11.61l.12.38.36.66.1.29.15.27.1.39.17.34.17.27.65,1.61.34.64.24.66.46.92.26.66Zm-11.53-.5,0-.09.18,0,0-.14.16-.07.19.07.13-.08,0,0-.14,0,.07-.14.11-.07.11-.14V17.8l0-.11.05-.1.12-.09,0-.07H13.6l-.16-.07,0-.05.07,0h.09l.09-.09,0-.07h-.07l-.09,0-.07,0L13.22,17l0,.05,0,.13h-.07l0,0-.12.05-.06.07,0,.09.17.09.05.07v.09l-.09,0h-.1l-.06.07v.07l-.11,0h-.09l-.07,0-.09,0,0,.11,0,0,.09,0v.15l-.14.07,0,.2,0,.11,0,.11-.11,0,0-.11-.05,0,0,.09.09.07.11.1.09,0,.16-.08Zm-.08.45h-.07v0l.07,0ZM13,18,13,18l.06-.1.09,0,.11,0-.06.07Zm.7.43-.16-.09-.07-.09-.11-.05,0,0,0,.18,0,.11-.11,0-.14,0,0,.09.05.09,0,.09,0,.05-.07,0-.14,0,.05.13.09.09,0-.14.11,0,.16.13.09,0h.1l.14,0V19l-.14-.11-.09.14-.11-.09.09-.12,0-.1.09,0,.07.06,0-.11,0-.07Zm-.44-.55-.1-.05.11,0Zm0,.88h.09l-.06,0Zm0-2.15,0,.08,0,.13.05.07.11,0,.16-.05,0-.05-.14,0-.11-.1Zm.2,0,.07.09.07,0,.09,0-.1-.06Zm.21-.39.13,0,0-.12-.07.09Zm8.81,2.07L22.47,18l-.39-1-.33-.59-1.59-3.62L20,12.27,18.57,9.18l-.2-.35h-.25l-.2.35-.29.67-.18.28-.13.4-.33.58-.13.35-.49,1-.13.35-.34.59-.13.32-.18.32-.11.37-.18.26-.16.3-.73,1.68-.17.26-.47,1-.06.28.23.07L14.61,17l.3-.29.44-.12.67,0,.32,0h.37l2,.12,1.94-.08.35.06.38.18.31.29.39.84.24.31ZM13.77,16.5l0,0h.05l0,0Zm.14,0,0,.09,0,.11,0-.11v-.12l0,0Zm1.85,1.21-.14-.12-.14.12h-.16l-.14-.11-.05.07.05.12v.09l-.11,0-.17,0h-.07l-.07,0-.18,0v.09l-.07,0-.07.16,0,.1-.05,0-.07,0-.11,0-.07.05-.05.09,0,.1-.16.12.05.16h.14l0,.09-.07,0h-.12v.07l.18.05.09,0-.06.16.05.07,0-.07.05-.07h.11l.09,0h.1l.05-.05,0-.19,0-.09.07-.09h.13v-.13l0-.09v-.12l0-.07.09.07,0,.16.09,0,0-.16,0-.11h.09l.07.05,0-.1.18,0,.09-.11.14-.11ZM14,15.06v.07l.05,0h.05l0,0,0-.05Zm0,1.06,0,0h0v0Zm.13-.49-.11.1v.09l.07,0v0l.09,0,.07,0,.09-.1h.1l.09-.05-.21,0Zm.6,2.41v.09l0,.17-.08.09-.11.14-.09.07-.2.05,0-.13.2-.07.05-.07.09-.19,0-.09,0-.07.09,0Zm-.17-4,.05,0,0,0,0,0Zm0,.4,0,.11.18,0,0-.09Zm.07,3.46h-.05l0,0Zm.2-.35,0,.1.1,0v-.09Zm.14-.16.09,0h.1l.16-.12,0-.07-.05-.06-.12-.07-.11.07L15,17.15l-.11.12Zm.13-3.65,0,0,.05,0h0Zm3.45-3.55,2.49,5.63,0,.35-.27.16-4.25-.06-.68-.06h-.35l-.26-.16-.07-.3,1.44-3,.16-.25L18,9.93l.25-.17.24.15Zm-3.37,7,0,0,0,0Zm.13-3.93,0,.05.05.05h0l0,0,0-.05Zm.54,3.87h-.09l-.06.07-.11,0v-.11l-.1-.12-.09.07.1.14.1,0-.09.07h.07l.12,0,.09,0Zm0-1.55v-.1l-.09,0,0,.11Zm0-4h0l0-.07-.05,0Zm.29,4.26-.09,0L16,15.81h-.13l.07.09.11,0Zm-.22-.55,0,0,0,0v0Zm1,1.83.09-.05h.11L17,17.08,16.84,17l-.11,0-.06.09,0,.2-.13.14-.07-.14-.09,0-.1-.07-.16.05-.08.09-.05.07-.09.07,0,0h.16l.07-.05.05-.11h.13l.05.16.07.07.07,0h.16v-.09l.07-.19,0-.09Zm-.79-.06.07-.05,0,0h-.07Zm.12-2.52h.09l.05.07,0,.11.07,0,.09,0,.14,0,0-.11-.09.05-.14-.06-.07-.09-.07-.07-.11,0Zm.11-3.53.05.07.09,0-.05-.09Zm0,.46,0,.11,0-.07Zm.38,4h-.09l0,0v0l-.11,0-.05,0-.14.14.1.18.07,0,.16-.08,0-.2,0-.09.09,0Zm-.39-1.19.1.09.07.09.07-.07-.11-.05-.07-.09-.05-.09Zm.06,1,0,.07.09,0v-.05Zm.11-4.9,0,.07.06,0,0-.07Zm0,3.35.07,0V13.7H16.5Zm.1,1.17h-.12l.07.09.07,0ZM16.53,14v.07h.07V14Zm.22-4.2,0,.05.11.07.05-.12L17,9.75l-.07-.07-.06.09.06.07-.06,0-.09,0Zm-.06,5.54h.16l0-.07h-.16Zm.1-6,.09.07.05.08L17,9.44H16.9Zm-.08,5.68.05,0,.11,0-.05-.07Zm.18.78,0,0,0,.05h.05Zm.1-3,.05,0v0Zm.16.3v0l.05,0v-.05l-.12-.06-.07.05h.07Zm.16,4.36,0-.12,0-.07,0,.05,0,.09-.11,0-.05,0v0l-.07.09,0,.07.13-.07.09-.07Zm-.19-3.65v-.1l-.07,0,0,.09Zm0-4.36.12,0,.07-.13,0-.08.07-.09.09-.14,0-.05,0,.05-.07.09-.09,0-.05.07-.07.09Zm0-.67.07.09.05-.09,0-.09.06,0,.05-.09h-.12l-.07.14Zm1.72,6.32.27-.14.07-.32-.8-2-.24-.15-.2.16-.85,1.89V15l.28.13.41,0,.35.07Zm-1.71-2.42.05,0,0-.09,0,0Zm0,3.21,0-.07h-.05v0Zm.09-3.74v.12l.09,0h.18l0-.14h-.1Zm.09-4,.05.07.1.16,0,.07.07.09.09-.11,0-.09.05-.07h.11l.07,0,.13,0,.12,0-.07-.11,0-.11.07-.09.11-.05.09,0,.11,0h.09l.11,0V7.8l0-.07V7.65l-.12-.07-.18.14-.05,0,.09-.07-.11-.07,0,.12,0,.07-.07-.05,0-.08-.08-.07L18,7.5h-.15l-.09.05-.06.09,0,.17-.16.09.05.16,0,.09.19,0,.11-.05.07.05.11,0L18,8.2l-.09,0-.09,0h-.12l-.12-.07-.05-.09Zm0,4.51h-.05l0,0,0,0Zm.13-3.88,0,.07.07,0,0-.05Zm.21,8.68,0-.14-.11,0h-.16l.07.11.07.05Zm0-1.87-.09,0-.05.05-.05.07h.09l.07-.05Zm-.1-4,0,.16.16,0,0-.12-.05-.05Zm.25-3.95,0,.18,0,.09h0l0-.09-.07-.16Zm0,1-.09.07.1,0,.06-.05Zm0,3.53-.05,0-.05.05.07,0,.07-.08v-.06ZM18,8.5l0,0,0,.05,0,0Zm-.08,3.93,0,0,0,0ZM18,11.06l0,.09.12,0,.06,0,0,.1.07,0,0-.11-.12,0ZM18.84,8h-.19l-.18,0,0,.1.16.06v.19l-.16,0,0-.1-.07-.06-.12.1-.09,0-.12,0-.06.06.09,0,.09-.05h.09l.1,0,.07,0,.05.07.1.16.09-.05H19l0,.09-.11.18V9l.05.07.09,0,.16,0,0,.07,0,.14-.08.19,0,.11.14.07.11,0,.07.06.09,0,.11,0,.07.07,0,.11-.05.05h-.1v0l0,0-.11,0,0,0,0,0,.1,0,.11,0h.13l.09,0,.07,0,0-.17-.07-.05-.1-.07.07-.07,0,0-.14,0-.16-.09-.07-.07,0-.09.07,0h.14l0,0-.07-.07-.07-.09,0-.09-.1-.13,0-.16,0-.09-.07-.05-.1-.18-.09-.07-.07,0H18.9l-.12-.06,0-.09h.11l.09.05.06-.14v-.1L18.93,8Zm-.75,4L18,12,18,12l.07,0Zm0,5.48,0,0,0,0,0,0Zm.26-6.58V11h0v-.05Zm.34,1.1-.18-.11-.12.05.12,0,.05,0-.05.11-.12.12.12.11h.11l.16-.09.06,0-.07-.18Zm0-.37v-.09l0-.15-.05-.05-.16,0,0,.19,0,.18.12.07.11,0Zm-.12.56.12,0,.07,0-.12.1-.11,0Zm-.07,5v-.07l0,.07,0,0Zm.38-4.56h-.14v.09l.09-.05.14.07.11,0,.05-.1.09,0h-.07l-.16.07Zm.15-.16.07,0,0-.08-.07,0ZM19.13,9,19,9l0-.09h.07ZM19,17.46l0-.05h0l0,.05Zm.33.13.05-.05.07,0-.07,0h-.16l-.11.07H19l.17.09.11-.05.14.05.05,0-.05-.06Zm-.18-4.45,0-.07,0,.09.07.05.09,0h.05l0,0h-.09Zm.1,2.59,0-.07-.09-.06v.09l.11.05Zm.11-.17,0,0v0h0Zm.09-1.34,0,.16.13,0v-.14Zm.44-3.54-.09-.18-.11,0-.09,0,.07.05.07.09.05.08,0,.09-.07,0v.09l.12.07.09.09.07-.12,0-.07-.1-.06Zm-.31,3.13,0,0v0l0,0Zm.38,1.7,0-.09,0,0,0,0Zm0,.41,0,0,0,0,0,0Zm.17-4.55-.06.07,0,.13v0l.14-.1h.09l.16.08.07-.12-.14-.05Zm.17,6.34-.07-.09-.12,0h-.06l0,0,.11.07ZM20.2,11.2h.11v-.07l-.07,0Zm.14,4.59,0,.07.06,0,0-.05Zm.22-4h-.12v.11l.13,0Zm.07,1.08.05,0,0,0h-.07Zm.1,5,0,0,0,0,0,0ZM21,12.65l0,.06,0,0v0Zm.1,5.54-.07,0-.05,0,0,.06Zm0-4.6.09.09v-.09l.05-.09-.07,0Zm.13,4-.09-.07-.07.05h.05l.07.09Zm0,.27h-.11L21,18l.13,0Zm-.05-3.78v.07l.05,0v0Zm.42.57.09,0v-.09h-.09Zm.06.25V15l.1,0V15Zm.25-.17h.05v0l-.05,0Zm.1.51.05,0,.07,0-.05,0Zm.19.71,0,.07h.07L22.2,16Zm.13.3-.05,0,.05,0h0Zm.06-.09h0l0,0h-.05Zm0,.28,0,0,0,0,0,0Z"/><path class="cls-2" d="M33.5,7.89l-.2.43-1.16,1.85-.21.25-2.29,3.65-.18.45-.11.51v1l-.06.32v.35l0,.35-.08,2-.15.37-.36.19-.35,0-.49,0-.55,0-.32,0-.35,0-.37-.15-.13-.39,0-.67,0-.34.05-1.36,0-.35,0-1.39-.08-.48L26,14l-1.33-2.17-.14-.32L24.09,11l-.71-1.26-.19-.25-.74-1.26-.17-.41.06-.39.36-.17.81.07.9-.06.3.07h.37l.4.17.37.34.81,1.57.19.3.51,1,.19.28.19.34h.19l.24-.3.31-.66.18-.3.18-.37.4-.56.22-.52.47-.75.32-.3.48-.17.3,0h.69l.35.06.37,0,.69,0,.32.08ZM23,8.29l0,.09.18.07.26-.06.11,0-.24-.12L23,8.17l-.09,0ZM23,8,23.16,8l.1,0,.12.14L23.51,8l-.16-.11-.1-.14L23,7.85Zm1.89,3.71.13,0,.37,0,.28,0-.12-.23-.28,0,0-.05.13-.07.13-.09-.23-.11L25.23,11l.11.05,0-.07-.11,0-.1-.07v-.28l-.26,0,0-.14-.09-.06.07-.14-.13,0-.17-.07,0-.39-.25.07-.09-.05-.05.1-.09-.05.07-.23,0-.23,0-.23h-.18L23.69,9l.16-.18.23.09.07-.07-.05-.12-.51-.08-.25-.11-.2.19.07.25L23.5,9l.13.48.28.18-.05.05.14.07.05.05L24,10l0,.1-.06.07.14.18.18.39.27-.16.07.05.13,0,0,.09-.21,0v.27l.28.07,0,.3.14.09,0,.1,0,.05Zm-1.44-3,.05.11-.05,0-.07-.07Zm.14-.19.16,0V8.37l-.13,0Zm.1.27-.05-.07h.11Zm0-1.07,0,.11.09-.09,0-.07Zm.08,1.62H24l0,.1-.14,0ZM23.9,8l-.05.17H24L24.1,8Zm.09.25v.14l.12,0V8.27Zm.22,1,.07.05,0-.07h-.05Zm0,1,.07.06,0,.05h-.07Zm0-2.1.1.09h.18l.07-.05L24.85,8l.3.09.06-.1-.12-.07-.14-.23-.23,0-.28,0,.23.07.19.06.05.06-.14.07-.12-.07L24.54,8l.1.09,0,0-.07,0L24.4,8.1Zm7.08.48-.23,0L30.77,9l-.65,1-.23.26-.13.32-.18.33-.41.54-.15.3L28.8,12l-.16.37-.38.58L28,13.2l-.21.19-.28-.2-.19-.25-.16-.32-.74-1.16-.15-.34-.54-.83-.17-.3-.21-.3-.14-.34-.62-.86-.3,0,.1.28,1.45,2.47.19.25.16.32.22.27.33.65.42.54.15.35.15.44.12,1.57-.06.51v.69l0,.31,0,.38v.51l.07.35h.19l.11-.28,0-.37v-.37l0-.28,0-2.51.28-.95.23-.26.29-.42.27-.53.21-.26.34-.61.22-.26.74-1.24L31,9.47l.36-.59Zm-6.75,1.83,0,.2-.12,0-.05-.09Zm.47,1-.07.09-.05,0v-.11l.07-.05Zm.42,1.31h.33l.16-.18-.21,0h-.14l-.1-.34.2-.15h.05l-.14-.16-.33.1-.14-.13v-.05l-.14,0v.21l.27,0,.07.26Zm-.36-1.52-.05,0,0-.09.07.07Zm.23-2.41.08.17v.32l.3.09.07.37.22.13.18.16.13-.28-.17-.16-.3-.06L26,9.36l.07,0,0-.05-.17-.13-.3,0,0-.25.07-.07.18-.06.05-.09-.19-.06h-.09l-.14,0Zm0-.27h.14V8.31l-.11.07Zm.64,4.58L26,13l-.16.05L25.75,13l0,.07.07.09.18,0Zm-.12-4,0,.09L26,9Zm.18.76L26,9.71l.09,0Zm-.06,3.16.25-.08,0-.16-.13.07-.16.05Zm3,2.66H29l-.07.05,0-.29L29,15l0-.3,0-.14-.09-.07-.14.06-.09-.12.07-.08,0-.13-.12-.07-.13.25-.14.17h0l-.06.05,0,.28-.06.3.14.05.09.19v.16l-.16.05-.11.17.14.21,0,.2.14,0,.05.12-.23,0-.11.12,0,.28-.12.18.08.23-.09.3.19.16-.18.21,0,.3-.09.37-.25.23-.06.08h-.34l-.11.14-.1-.07,0-.11,0-.16-.23-.35.2-.4,0-.41L27.3,17l-.22-.18.19,0,0-.14-.18-.05.18-.11,0-.32.09-.4-.19-.32.07-.3L27,15.07l-.07,0-.07-.21.28.06.07-.2,0-.26-.26-.14-.1-.3,0-.23,0-.1,0,0,0,0v.11l-.12-.09,0-.39-.3.1h-.14l0-.07.07,0,.14-.05,0-.11-.16.11-.11.19.3.11,0,.24.17.15.1.09,0,.07-.12,0-.12,0v.05l.24.13-.05.19-.16,0-.05.1.1,0,.13-.09.07.18-.18.19-.07.17v.83l.21.21-.06.09-.16,0,0,.21-.09.21.08.23.14.07-.14,0,0,.18.16.06-.07.19v.12l.18,0v.05l-.2.05-.11.35v.21l.05,0,.07,0v.09l0,.2v.46l.05.25.09,0,0-.14.21.07,0,.25.19,0,0,0,.09,0v-.13l.11,0,.16.16.2-.12L27.61,19h-.16l.25-.12.37-.08.32.11.42.13L29,18.8l-.09,0,0-.11L29,18.4l0-.23v-.74l-.24-.06v-.09l.26,0,.09-.39-.15-.46.13-.25L28.93,16l.15-.26Zm-2.92-5.44-.05,0,0,.05.05,0,0,0Zm.05,3.58,0-.09-.1,0v.13Zm.13-3.06-.1-.13,0,.18.12.13Zm.23,0,.05.14,0,.12.18.1.05-.12-.17-.08.11,0v-.19l-.14-.09Zm0-.27.11,0,.06-.1h-.11Zm0,7.64-.11.05.05-.09.07-.09Zm.27-2.59-.14.18-.16,0,.12-.12Zm-.16-.35L26.59,15l.14,0Zm-.07.24.09,0-.11,0Zm.25.87.05,0-.05,0-.09,0Zm0-1.67V14.4H27v.05Zm.1-3.16.13,0,0-.11-.14,0Zm.16.27,0,.05,0,.05,0-.07Zm.1,7.27,0,.05-.11.12-.14,0,0-.19Zm0-.18-.18.05v-.1Zm.17-6.95.11,0,0,.14,0,.07,0,.11,0,.16.09,0,.09-.12.23-.14-.19-.34-.26,0Zm.26.27-.14,0,0-.06.13,0h.11Zm.19.25-.09,0,0,.1h.13Zm0-.74,0,.07.07,0,0-.07Zm.1,7.51-.16,0v.11h.12Zm.16-7.54.14,0,.07.06v.12l.11,0,0-.11-.14,0-.11-.07ZM28.24,19l-.05-.09-.07-.06.05.07V19l.05,0Zm.06-4.39,0-.07h0l.07.07Zm.08-.3,0,0,0,0,0,.05Zm.25,4.77-.26,0-.07.21.28,0Zm0-4.2,0,.1-.11,0v-.09Zm0-3.3.11,0v-.09h-.11Zm.16,2.26.12.07.05.22.18-.05,0-.18L29,13.72l-.14,0-.18.07,0,0Zm-.13,3.74.1,0,0,.07-.09,0Zm.11-6.39.14,0,.05-.14h-.16Zm.08,7.41-.07-.07.09,0Zm.6-4.86-.12-.16,0-.16h.16l-.05-.1-.3,0,0,.21.17.32h.14Zm-.16-3.46,0,0,.09,0,0-.05,0,0-.09,0Zm.32,2.51-.18-.09,0,.07-.09,0,.07.14-.09.09,0,.07.2-.05Zm.5-.28H30l-.06.05.09,0Zm.07-3.61.07,0h.05l0,0Zm0,3.28-.05,0v.05l.05,0Zm.47-1,0-.09-.07.05,0,.06Zm.11-.37,0-.14-.11,0,.05.11Zm.22.28,0,0h-.07l.05.06Zm.22-.51-.09,0h0l.05,0Zm.58-.84-.1,0V9.9l.11,0Z"/><path class="cls-2" d="M45.83,13.76,45.72,15l-.07.39-.11.28-.06.35-.13.33-.7,1.21-.24.31L43.16,19l-1.58.68-.68.2L39.33,20,38.28,20l-1.49-.46-.33-.15-1.19-.65L35,18.45,34.55,18l-.82-1.14-.17-.32-.1-.37-.26-.61L33,14.42l.1-2,.15-.76.35-1,.16-.3.61-.87L34.89,9l.57-.38.25-.21.91-.55.68-.16.32-.13.35-.1.35-.07,1.23-.05.83,0,2.3.76.89.58.75.7.22.32.21.21.22.3.12.32.31.59.08.41.14.37.13.66Zm-12.55-.87.18,0,.16.13,0,.09.07.07.1.06-.12.12-.09,0,0,.09.1.06.15-.21-.12-.16,0-.11-.1-.11,0-.14-.13,0Zm0,.35.05.07,0-.05.07-.07V13.1Zm.43.73,0,0-.05-.13-.1-.07-.07,0-.11.07L33.3,14h.12l0-.05.14,0,.07,0h0Zm-.33.67,0-.07-.07-.12,0,.07,0,.09Zm.1.62,0-.14h-.09l0,.09Zm.07-3.14.14.06,0-.13L33.59,12Zm.38,3.8v-.09l-.21.09Zm-.13-4.78.13-.07.06-.21-.14,0Zm.19.11,0,0,0,0-.05,0-.06.08H34Zm0,.33h-.16l0,.12.16,0Zm.39,4.56L34.36,16,34.27,16V15.9l.05-.07v0l-.05-.06.05-.05v-.05l0,0-.06.07.05.07-.16.12L34,16l-.11.07v.05l.35-.07.05.09Zm-.34-3.23H34l-.07,0v0l.09,0ZM34,14l0-.09-.07,0,0,.19Zm.08.64,0,.07-.05.08,0,.05.09-.12,0-.11-.1-.18h-.09Zm0,2,0-.11,0-.09-.08-.07v.12l0,.1Zm.07-6.11.16.08.14-.11,0-.16.09-.09-.05-.12-.05,0,.13-.14-.05,0h-.05l0,.1,0,.09.09.16-.07.07,0,.12-.1.07,0-.07Zm.36.61-.07.07v.09l.12-.1v-.09l-.1-.07L34.19,11l.09,0,.06,0h-.08l-.07,0V11l.09.05.08,0-.07,0-.08.07h.09l.11-.07Zm-.13.49,0,.09-.15.12.09,0,.06-.09.09,0v-.05Zm6.91,6.68.69-.26.3-.16.93-.81.32-.42.2-.35.2-.29.14-.33.34-1.43,0-1.13,0-.32V12.5l-.12-.32L44,11.41l-.34-.61-.43-.61-1.12-.9-.33-.16L41.4,9l-.31-.14-.33,0-.39-.11-.9-.1-.86,0-1,.3-1,.43-.3.22-.56.52-.41.5-.4.63-.17.33-.11.37,0,.3-.11.37-.06.44.1,1.8.32,1,.14.27.19.3.5.64.76.68.3.2,1,.46.88.14,1.25.07.37,0,.32-.12.35,0Zm-6.7-7.77.21,0,.11-.05-.11,0Zm0-.44.16,0,0-.25-.12.07,0,.09Zm7.53,7.37-.27.23-1,.39-.34,0-.32.08-.9,0-1.22-.16-.3-.11-.67-.2-.3-.16-.54-.44-.5-.5-.36-.6-.19-.23L35,15.17l-.15-.71,0-.33,0-1,.3-1.34.18-.33.13-.37.18-.31,1.05-.92.59-.38.3-.12.35,0,.66-.18.9,0L40,9.1l.37,0,.62.13,1,.45.54.41.52.47.28.46.5,1.1.08.34L44,13.77l0,.83-.15.68-.15.39-.27.56-.24.3-.18.26-.21.26-.28.28ZM35,17.15l-.13,0,.05.15v-.11l.05-.07Zm.27-7.62.09.09.07,0-.05-.12Zm.06,8,.05,0-.07-.07-.09.11v.07Zm.12.41-.09-.05-.05,0,0,0,.07.09Zm.29-5.21-.07-.05-.05,0-.12-.09,0,.05-.07.1.05,0ZM35.5,12l.11,0,.07-.07v-.12l-.07,0-.05.16-.05,0Zm.15.46-.11-.05,0,.11.11,0Zm0,5.45-.07-.16,0,.07.05.09Zm.37-6,0,0-.12.05-.07.05-.07.18.09,0,.05-.05.07-.09Zm.17-.43-.09.05-.18,0,0,.11.09,0,.21,0Zm4.65,5.22.32-.14.55-.42.22-.31.16-.26.2-.26.17-.72.12-.88-.06-.76-.12-.31-.1-.35-.14-.32-.4-.6-.54-.41-.93-.42-.84-.06-.81.05-.37.09L38,10.7l-.52.35-.27.23-.23.28-.16.3-.22.24-.11.32-.13.65,0,.53.07.88.32,1,.22.25.17.25.54.48.6.33.32,0,.35.13,1,0,.34-.08.32,0Zm-4.42-5.29,0,.09h.07l.07-.05h-.09l0,0,0-.05Zm.11-.35.14.11,0-.06,0-.05Zm1.87,8.25h0l0-.1-.12,0,.07.05Zm.21,0-.09,0-.09,0,.11.05Zm.59.43-.1-.09H39l0,.09Zm.11-.39h-.16v.1h.16Zm.42.15h-.12l0,.07.09.05,0,0h0l.05-.05Zm.13-1.63,0-.07h-.11v.09Zm.81,1.4-.1-.16,0,.07-.11.07H40.4l0,0-.14.14-.12-.07-.09,0-.12.09.07.05.14-.05.07.05.12,0,0-.11h.18l.07-.08Zm0-9,.05-.05.05-.09Zm.14,7,.09,0,.09,0h.21l-.11-.09-.08,0-.11-.05-.07-.05v.07l-.09.16.07.16,0,.16.07,0,.12-.05H41l-.14-.16Zm.39,2-.07-.16-.14,0,.05.13-.07,0Zm0-.49-.09-.07,0,.05,0,0,0,0,0,.06Zm-.07,0,.07,0-.07,0,0,0h0v0Zm.34-1.57-.11,0,0,.14-.16,0,0,.07.16,0Zm.19,1.73,0-.05-.07-.07h-.18l0,.26-.1,0v.12h.14l.05-.07.09.07.1-.05,0-.11.05-.05Zm0-2.12.11-.14-.1-.07-.09,0,0,.09,0,.09,0,.14.16.05ZM41.5,19h.18l-.05.07-.11.05-.05-.05Zm.6-2.22.07,0,.09,0,.07.09h.09l-.16-.09-.07-.07,0-.17-.07-.05,0-.05.05-.09-.05-.07,0,.09-.18.18h-.11l0,.09.09,0,.12,0,.05.05-.09.1Zm.34,2,0-.13h0l-.14-.11-.16,0-.07.05-.12.14.09,0,.09-.09,0,.11.1.11-.06,0h.25l.05-.16Zm-.31.35-.07-.05-.09,0,.09.05Zm.27-.47,0,.12-.18.05-.13,0v-.07l.16-.18.11,0Zm.09-.19.12-.05-.09-.13h-.19l0,.18.1,0Zm0-1.83-.05-.13-.09,0,0,.13,0,.07Zm0-.48-.11.07.17,0,0,.11-.05,0,0,.14h.18l.09-.09-.11.05,0-.17-.07-.09Zm0-.78.1.14.07,0,0-.19-.09-.13-.09.09Zm.93,2.82-.09,0-.1,0,0-.09L43.26,18h-.32l0-.09h.16l0-.1L43,17.76l-.13.12-.16.05.1.18-.19,0,0,.11.16.06,0,.07.05,0,.11-.09.13,0,.07-.07.05.07-.09.18.08,0,.11-.11h.23Zm-.7.66h-.09l0-.05,0,0-.09,0,0-.12-.11,0,0,.11.07.09,0,.09h.14Zm0-3.08-.09.09.12,0H43l0,0,.05,0Zm.13-.48h.12v-.18l.06-.09.16.13L43.22,15l-.07,0-.18.09Zm.41-1.21.1.11.11-.07,0-.07,0,0Zm.39,3.45-.19-.05-.13.12.09.11-.07.07h-.11v.07l.14,0,.05-.12v-.16l.09.09V18l.07.12h.05v-.43Zm.5-.19,0,0V17.3l-.09,0-.12.07h-.32v.12l.21,0,.11-.09.1.16.05-.07Zm.45-.38-.07,0-.07.05-.11-.07-.07-.09.15-.19-.07-.06-.32.1H44l-.07.09h.19l.12.09.05.22.19,0,.05.07.07-.09Zm-.4-.62-.12-.06,0,.12,0,0-.07.09.23-.07.05.05,0-.07.05-.07Zm0-5.47.05.05,0-.09-.07-.07Zm.07,5.24v.07h.39l.07-.09L44.66,16l-.12.07-.06.07Zm.43.37.14-.11,0-.09-.12.07-.07.09-.14-.07h-.11l.07.05.15.05.14.11v-.07Zm-.12-1.23.12-.07-.12-.05Zm.09.27.07.07,0-.16Zm.08-4.5.05,0,0,0,0,0ZM45,16l.11-.1-.09-.23-.07,0-.1.14h-.11l0,.06L45,16l0,.13.07.06v-.09Zm-.19-5h0v0Zm0,3.83.07-.14-.07-.09v.07l-.06.14Zm0-1.06H45l.06-.09Zm.33,1.74-.1-.12-.19,0,.07.11.07,0Zm.16-.51-.09,0-.07,0,0,.09L45,15.2l.11.09.22-.26Z"/><path class="cls-2" d="M57.2,15.87l-.06,1.43-.15.33-.11.33-.18.35-.48.65-.71.55-.32.16-1,.27-.32,0L52.06,20,51.71,20H49.15l-.53-.06L48,20l-.33-.22-.15-.36,0-.33.09-3.86,0-.53.12-3.37,0-.74.05-1V9.2l0-.37,0-.32V8.13l.18-.37.39-.17,2.14.07.31-.06.69.1.32-.07,1.82.08.68.17.3.11.34.16.3.18.24.2.26.18.26.25.57.82.12.37.13.64,0,.55,0,.6-.22.63-.35.68-.13.33.17.41.28.25.23.26.31.73Zm-9.33,2.42,0,0-.06,0,.09,0Zm0-.2.12.09.13-.1.07,0L48.12,18,48,18Zm0-.3.05,0,.07,0,0,0,0,0-.07,0ZM48,10.28l.07,0v0h0ZM48,16.12l0,.05.07,0,0-.05Zm.11.58.09,0,.15,0,0-.05h-.16l-.11,0-.05,0,.07-.07.13,0,0-.07h-.14l-.07,0,0,.09Zm0,2.52,0-.11-.09.07v.1l0,.13,0-.12ZM48,16.93,48,17v.07l0,0Zm.1,1.75H48v.16l.13,0Zm0-7.14,0,.05.09,0,0-.09Zm-.05,4.74,0,0h.05v0ZM48.13,14l0,0,0,0,0,0Zm.26,2.9-.06,0v.2l-.05.09-.09-.06-.11.09v.07l0,.11.05.11,0,.07.08-.07.1-.05.07-.05,0-.11,0-.19,0-.09.05-.14.06-.07,0-.09-.09.05Zm-.26-1.61,0,.09.16.11.05-.12-.1-.12Zm0,2.47,0,.07h.09v-.1Zm0,.55.1.07.13-.07-.05-.09-.11.07h-.05l-.05,0Zm0-3.74h0l0,0,.09,0-.06,0Zm.13-6.36,0,.09h.11l0-.09ZM48.25,12l.05,0,.07-.05,0,0Zm.08,4.13,0-.11,0,0-.07,0v.16ZM48.43,9h-.05l0,.05h.05Zm0,1.39-.08,0,0,.07.09,0Zm.15,9.11-.07-.14-.11-.16-.06-.05-.14-.07,0,.14,0,.12.1.12h.09l.1,0Zm-.27-5.33,0,.05,0,0,0-.05Zm.17-5.6,0,0,.09,0-.05-.11Zm-.11,10,0,.09.11,0,0-.1Zm.49.46L48.81,19l-.09,0h-.18V19l.11,0,.16-.07v-.15h-.11v.12h-.16l-.07,0-.07,0,0,.09,0,.09.21.14h.09l.09,0Zm-.37-1.17,0-.12-.09,0,0,.09Zm0-5.08-.05,0,0,.05,0,0Zm.11-2.56-.09,0,0,.1.09,0Zm-.2,6.19.07,0v-.07l-.07,0Zm0,1.13,0,0h0l0,0Zm0-2.77,0,0,0,0,0,0Zm.1.46,0-.05h-.05l0,0Zm0-2,0,0,0,0h0Zm0,.48,0,0,0,.07,0,0Zm-.06,3.33.09,0v0h-.07Zm.35-8.43h0l0,0h-.05Zm6.87,8V15.62l-.08-.37-.17-.33-.16-.25-.56-.56L54.5,14l-.17-.21.11-.28.29-.23.22-.28.18-.31.15-.32.13-.33V11l-.24-.68L55,10l-.19-.27-.85-.59L53.6,9l-.85-.12-.51,0-.67.07-.32-.06-.32,0-.37-.06h-.81L49.22,9l-.16.37,0,.35,0,.37,0,.32,0,.35v.72l0,.36,0,.37,0,1.06,0,.34-.11,4.63.19.34.33.18h.35l.85.07.53,0,.36,0H53.1l.87-.11.64-.33.3-.23.45-.52.22-.32.09-.35Zm-6.66,2.76-.06,0,0,.07,0,0Zm.21-6.4.07-.76,0-.7,0-.37,0-.53,0-1,.2-.32L50,9.2l.58,0,.39.05.9-.07.91,0,.88.17.33.16.26.2.26.27.38.57.08.32.06.51-.06.49-.1.39-.34.51-.23.24-.3.26-.62.18-.48.06-1.59,0-.49.05-.33,0h-.53l-.35-.2Zm6,2.56,0,.57,0,.51-.13.37-.34.58-.29.24-.64.4-.86.13-.85,0L50,18.36l-.53-.19-.16-.26,0-.71,0-.37v-.62l.06-.37,0-1.23.2-.48.32-.19h.35l.71.07h.39l.32,0,.35-.07.33.08h.35l1.37.14.33.2.28.13.47.53.19.28ZM49.5,8.12l0,.11h.07l0-.09Zm.21,11.1-.05-.06-.05,0Zm0-3.65.09,0,0,0h-.05Zm0,1.06.05-.07-.09,0,0,.08Zm0-5.77,0,.05h.07v-.05Zm0,5.38,0,.05,0,0v-.07Zm.11.9-.05-.05,0,.09,0,.05Zm0-6.61,0,0,0,0,0,0ZM50,8.09H50v0h0Zm0,.22.07.09.16-.1.21.06,0-.12-.1-.07-.11,0-.09,0Zm0,2.77,0,0,0,.05h0Zm-.12,4.19,0,0,0,0,0,0Zm.22.64.11,0-.07-.09-.16,0-.06.09,0,.09,0,.14H50L50,16ZM50,12.27l0,0v-.05h0Zm.07-2.4.12,0,0-.07-.12,0Zm0,.88.05,0v0l0,0ZM50,15.06l.05.16.16,0,.09-.05,0-.05L50.21,15H50Zm.25-4.83.06-.09-.12,0-.09,0,.05.09h.14ZM50.1,13l0,0h0v.05Zm0,1.55,0,.05.16,0,.07,0h-.05l0-.1.09-.18-.09-.08-.09.14Zm.1-1.9h0l0,0h.05Zm0,3.55h.05l0,0,0,0Zm.09-3.39h.05l.05,0,0-.05Zm.26.11-.16,0-.09,0,0,.07.18,0,0-.05,0-.06.1,0,.07,0,.09,0,.1.05.07,0,.12.11h.08l0,0-.1-.09-.09-.05L50.84,13l0-.07L51,12.9l.05-.1-.16,0-.07.14-.11,0h-.19ZM50.4,17.6l-.1,0-.07.09h.1Zm-.12-2.13,0,.08.09,0-.05-.05Zm0,3.67,0,0v0l0,0Zm.16-9.4v.07l.06-.05,0-.11Zm0,4.73,0,0h0l0,0Zm.07-2.08,0,0,0,0,0,0Zm.09.2-.08.05,0,0,.09.05.05-.05Zm0-4.34.13,0,.14-.12V8l-.11,0-.07.05Zm-.06,6.47.16-.08.05.07h.09l.14,0,0,.12-.14,0-.16,0-.05.14.09.07.11-.07h.18l.09,0,.05-.05,0-.09v-.19l.09-.14-.13-.07-.12.09-.07,0-.11,0-.26.05Zm.11-4.92,0,0h0l0,0Zm3.36,6.42-.1-.44-.17-.32-.3-.13-1.66-.18-.37,0-.33-.06-.3.23-.16.29-.07,1.06.22.36.31.13,1.36.06,1-.08.3-.19.2-.25Zm-3.36-5.06v.6l.19.5.37.22,1.36,0,.51-.17.27-.21.13-.51,0-.53-.14-.28-.28-.14-1.81-.15-.34.2Zm.1-1.15,0-.06h0l0,0Zm0-.44h.05v0h-.05ZM51,19.48h-.05l-.07,0H51Zm.28-11.34,0,.09h0V8.14Zm.1,4.74h.07l-.07,0,0,0Zm0,6.55,0,0-.05,0,0,0Zm.18-6.36H51.4l0,.11h.11Zm-.06,1.71h.07l0-.07h-.07Zm.15-6.53.09.06v0l0-.06-.05-.05Zm0,1.55,0,0V9.68l0,0,.09,0,.06,0-.06,0-.09,0,0,0,0,.09Zm0,4.78h.14l0-.1-.16,0Zm.23.15.07.05,0-.09-.09,0Zm.26-1.85-.05,0v.05l.05,0Zm0-4.69.09.07V8.14l-.09-.07Zm0,1.75.09,0,.07-.08-.12,0ZM52.14,18H52l-.07,0,.09,0Zm.14-3.51,0,0,.07,0,0,0-.07.07.07.07.07,0,.09,0-.07-.11-.1-.07-.07,0Zm.19-6,0,0,0,0,0,0Zm.24,4.27h-.05l-.05.05-.11.05,0,0-.08.07,0,.07.05,0,.13-.11.05-.12ZM52.54,8l0,0h.07l0,0Zm.14,5H52.6l0,.09.07,0Zm.09,4.73-.09,0v.07l.05,0Zm.07-9.49.05,0v0l-.05,0Zm0,11.18h-.07l0,.06,0,0Zm.13-6.63-.09,0v.07l.09,0Zm0,6.35h-.1l0,.09H53Zm-.06-4.56.07.05,0-.07-.05,0Zm.46-1.73-.17-.13-.09,0-.05.07L53,13l0,.1v.07l0,0v-.09L53.1,13l.09,0,.16,0Zm-.18,2,.05,0h0l0,0Zm.07,4.64-.05,0v0l0,0Zm.33-9h0l0,0,0,0Zm.14,2.24,0,.07,0-.1-.07,0Zm.07,2.22h.1l0-.13h-.07Zm.08-3.07,0,.05h.19l.05-.05-.07,0-.1.05Zm.1.44-.07,0v.07H54Zm.11,7.09-.13,0,0,.09.11,0Zm.07-7.16,0,.16.12,0v-.13l-.05-.05ZM54.34,15h-.05l0,0h0Zm0,.24.13,0,0-.11-.12.05Zm.12.5h0v0h.05Zm.07,1.13,0-.09-.09,0,0,.09Zm0-1.5h0l0-.05,0,0-.05,0-.05,0Zm0,4h0l0,.07,0,0Zm.06-2.89.16,0-.05-.13-.05,0-.09,0h0Zm.07-1h-.08l.07.05h0Zm0,.18h0l0,0,0,0Zm.18,1,.05,0-.05-.05-.18,0,0,.12.12-.05Zm.13-.34-.11,0,0,.05.09.06ZM55,18.91l0,0,0,0,0,.05Zm.23.11,0,0v0l0,.05Zm.1-5.52v.07l.07,0v-.07Zm.4-.51.07,0,0-.07-.07,0Zm.1,1.68,0,0v0l0,0Zm.12,3.44,0-.05L56,18l0,0-.18,0,.07.12Zm-.12-.3.09,0v-.1l-.09,0Zm.12-3,.08.07h.12l.09,0,0-.12-.07,0-.05.11L56,14.79ZM56,18.57h-.07v.09l.07,0Zm.13-.69,0-.05,0,.05V18Zm.09-2.45.17-.05.07,0,0,0v.09l0,.16,0,.11-.07,0,0,0,0,0,0,0,0,.12v.09l.14.06,0-.07.07-.1.1-.08,0-.07v-.19l-.1-.09-.05-.07,0-.14,0-.07-.05-.05h-.18l-.2,0,0,.16Zm0,.85h0l0-.05h0Zm.19,1.55,0-.1-.16,0,0,.1Zm0-1.53-.09.11,0,.09.09,0,0-.13h.05Zm.29,1-.05-.05-.14.05,0-.07,0-.16-.06.05,0,.12-.07,0-.05.05v.09l0,.12h.25l.05-.07h.11Zm-.18-1.41-.07-.18.09-.07.12,0-.07.12,0,.09Z"/><path class="cls-2" d="M69.84,19.76l-.06.42-.5.08h-.55l-.33,0-.67,0-.37,0-.4-.18-.35-.27-.1-.32-.16-.34L66,18.84l-.38-.2-.39,0-.32,0H63.21l-.32-.06-.74.06-.33-.06-.37.19-.34.33-.33.58-.34.31-.4.12-1,0-.35,0-.69,0L57.65,20l-.08-.44.11-.35.36-.7.09-.32.2-.24.28-.7.32-.56.13-.35.18-.26.11-.39,1.85-3.75.11-.32.2-.33.09-.35.2-.27.73-1.61.16-.24.13-.35L63,8.18l.32-.3.57-.19.58.19.3.32.32.62.1.32.18.32.1.35,1.13,2.47.12.37.36.66.11.29.15.27.1.39.17.34.17.27.65,1.61.35.64.24.66.46.92.25.66Zm-11.53-.5,0-.09.18,0,0-.14.16-.07.19.07.13-.08,0,0-.14,0,.07-.14L59,18.7l.11-.14v-.09l0-.11.05-.11.12-.08,0-.07-.07,0L59,18,59,18l.07,0,.09,0,.09-.09,0-.07h-.07l-.09,0-.07,0-.16-.05,0,.05,0,.12h-.07l0,0-.12,0-.05.07,0,.09.18.09,0,.07,0,.09-.09,0h-.1l-.06.07v.07l-.11,0h-.09l-.07,0-.09.05,0,.11h0l.09,0,0,.16-.15.07,0,.2,0,.11,0,.1-.11,0,0-.11-.05,0,0,.09.09.08.11.1h.09l.16-.08Zm-.07.46h-.07v0l.07,0Zm.38-1-.05-.07.06-.1.09,0,.1,0-.05.07Zm.69.44-.16-.09L59.09,19l-.1-.06,0,0,0,.18,0,.1-.11,0-.14,0,0,.08,0,.09,0,.09v.05l-.07.05-.14,0,.05.13.08.09,0-.14.11,0,.15.13.09,0h.1l.14,0v-.18l-.14-.11-.09.14L59,19.6l.09-.12,0-.1.09,0,.07.05,0-.11,0-.07Zm-.43-.55-.1-.06.1,0Zm0,.88H59l-.05,0Zm.05-2.15,0,.08,0,.12.05.07.11,0,.16-.05,0-.05-.14,0L59,17.4Zm.19,0,.07.09.07,0,.09,0-.11-.05Zm.21-.39.12,0,0-.12-.07.09ZM68.14,19l-.06-.34-.39-1-.32-.59-1.59-3.62-.17-.51L64.18,9.85,64,9.49h-.25l-.2.35-.3.67-.18.28-.13.41-.33.57-.13.35-.49,1-.13.35-.34.59-.13.31-.18.32-.11.37-.18.26-.16.3L60,17.29l-.16.26-.47,1-.06.28.23.07.67-1.21.31-.29L61,17.3l.67,0L62,17.3h.37l2,.12,1.94-.08.35.06.38.18.31.29.39.83.24.31Zm-8.76-1.84,0,0h.05v0Zm.14,0,0,.09,0,.1,0-.11v-.12l0,0Zm1.85,1.21-.14-.12-.15.12h-.16l-.14-.11-.05.07.05.12v.09l-.11,0-.18,0h-.07l-.07,0-.18,0v.09l-.07,0-.08.16,0,.11-.06.05-.07,0-.11,0-.07.05-.05.09,0,.11-.16.12.05.16h.14l0,.09-.07,0h-.12v.07l.18.05.09,0-.06.16.05.07,0-.07.06-.07h.11l.09,0,.11,0,.05-.05,0-.19,0-.09.07-.09h.1l0,0v-.12l0-.09V19l0-.07.09.07,0,.16h.09l0-.16,0-.11h.09l.07.05,0-.1.18,0,.09-.1.14-.1Zm-1.74-2.64,0,.07.05,0h0l0,0v-.05Zm0,1.06,0,0h0v0Zm.13-.49-.11.1v.09l.07,0v0l.09,0,.07,0,.09-.1.11,0,.09,0-.21,0Zm.6,2.41,0,.09,0,.17-.07.09-.11.14-.09.07-.19.05-.05-.12.2-.07L60.1,19l.09-.19,0-.09,0-.07.09,0Zm-.17-4,.05,0,0-.05,0,0Zm0,.41,0,.1h.18l0-.09Zm.07,3.46h-.05l0,0Zm.2-.35,0,.11.11,0V18.3Zm.14-.16.09,0h.11L61,18l0-.07-.05-.06-.12-.07-.11.07-.1-.06-.11.12Zm.12-3.65,0,0,.05,0,0,0Zm3.46-3.55,2.49,5.63,0,.35-.27.16L62.15,17l-.69-.06h-.35l-.26-.16-.07-.3,1.44-3,.17-.25,1.22-2.59.25-.17.25.15Zm-3.37,7,0,0,0-.05ZM61,14,61,14l.05.05h0l0,0L61,14Zm.54,3.87h-.09l-.05.07-.1,0,0-.11-.1-.13-.09.07.1.14.11,0-.09.07h.08l.12,0,.09,0Zm0-1.55,0-.11-.09,0,0,.11Zm0-4,0,0,0-.07-.05,0Zm.29,4.25-.09,0-.05-.09h-.12l.07.09.11,0ZM61.53,16l0,0,0,0v0Zm1,1.83.09,0h.11l-.07-.07-.18-.07-.11,0-.05.09,0,.2-.13.14L62.12,18,62,18l-.1-.07-.16.05-.07.09-.05.07-.09.07,0,0,.16,0,.07-.05.06-.1H62l.05.16.07.07.07,0,.16,0v-.09l.08-.19,0-.09Zm-.79-.06.07,0,0,0-.07,0Zm.13-2.52h.09l.05.07,0,.11.07,0,.09,0,.14,0,0-.11-.09.05L62,15.36l-.07-.09-.07-.07-.1,0Zm.1-3.53.05.07.09,0L62,11.76Zm0,.46,0,.11,0-.07Zm.39,4h-.09l0,0v0l-.11,0-.05,0-.14.14.1.18.07,0,.16-.09,0-.2,0-.09.09,0ZM61.92,15l.1.09.07.09.07-.07-.1-.05L62,15l-.05-.09ZM62,16,62,16,62,16v-.05Zm.11-4.9,0,.07.05,0,0-.07Zm0,3.35.07,0v-.05H62.1Zm.11,1.17-.13,0,.07.09.07,0Zm-.08-.87v.07h.07v-.07Zm.22-4.19,0,.05.1.07.06-.12.06-.09-.07-.07-.06.09.05.07-.05,0-.09,0ZM62.29,16h.16l0-.07h-.16Zm.1-6,.09.07.05.07.06-.12H62.5Zm-.08,5.68.05,0,.1,0-.05-.07Zm.18.78,0,0,0,.05h.05Zm.1-3,.05,0v0Zm.15.3v0l.05,0v-.05l-.12-.06-.07.05h.07Zm.16,4.36,0-.12L62.83,18l0,.06,0,.09-.11,0-.05,0v0l-.07.09.05.07.13-.06.09-.07Zm-.19-3.66,0-.11-.07,0,0,.09Zm0-4.36.12,0,.07-.12L63,10,63,9.9l.09-.14,0-.06,0,.06L63,9.85l-.09,0-.06.07-.07.09Zm0-.67.07.09.06-.09,0-.08L63,9.36,63,9.27h-.13l-.07.14Zm1.72,6.32.27-.13.08-.32-.8-2-.25-.15-.2.16-.85,1.89v.34l.28.12.41,0,.35.07Zm-1.71-2.42.06,0,0-.09,0,0Zm0,3.21,0-.07h-.05v0Zm.09-3.74,0,.13L63,13h.18l0-.15h-.1Zm.1-4,.05.07.1.16,0,.07.07.09.09-.11,0-.09L63.38,9h.1l.07,0,.13,0,.12,0-.07-.11,0-.11.07-.09.11-.05.09,0,.11,0h.09l.1,0V8.47l0-.07V8.32l-.12-.07L64,8.38l-.05,0L64,8.29l-.11-.07,0,.12,0,.07-.07-.06,0-.09-.09-.07-.1,0h-.16l-.09.05-.05.09,0,.18-.16.09.05.16,0,.09.19,0,.11-.05.07.05.1,0-.11.05-.09,0-.09,0h-.12l-.12-.07-.05-.09Zm0,4.52h-.05l0,0,0,0Zm.13-3.88,0,.07.07,0,0-.05Zm.2,8.68,0-.14-.1,0H63l.07.11.07.05Zm0-1.87-.09.05-.05,0-.05.07h.09l.07,0Zm-.1-4,0,.16.16,0,0-.13-.05-.05Zm.25-4,0,.18,0,.09h0l0-.09-.07-.16Zm0,1-.08.07.1,0,.05-.05Zm0,3.53-.05,0-.05.05.07,0,.07-.09v0Zm.07-3.69,0,0,0,.06,0,0Zm-.07,3.93,0,0,0,0Zm.11-1.37,0,.09.12,0,.06,0v.1l.07,0,0-.11-.12,0Zm.86-3.06h-.19l-.18,0,0,.11.15.05,0,.19L64.11,9l0-.1-.07-.06L63.95,9,63.86,9l-.12,0-.05.05.09,0,.09-.05h.09l.11,0,.07,0,.05.07.1.16.09-.05h.11l.08,0,0,.09-.11.17v.1l.05.07.08,0,.16,0,0,.07,0,.14-.08.19,0,.11.14.07.1,0,.07.05.09,0,.11,0,.07.07,0,.11-.05.05h-.11v0l0,0-.11,0,0,0,0,0,.11,0,.11,0h.12l.09,0,.07,0,0-.18-.07-.06-.1-.07.07-.07,0,0-.14,0-.16-.09L65,10.21l0-.08.07,0h.14l0,0-.07-.07L65.17,10l0-.09L65,9.77l0-.16,0-.09-.07-.05-.1-.18-.09-.07-.07,0h-.17l-.12-.05,0-.09h.1l.09.06L64.67,9V8.85l-.14-.14Zm-.75,4-.07,0,0,.05.07,0Zm0,5.49,0,0,0,0,0,0Zm.26-6.58v.05h0v-.06Zm.33,1.1-.18-.11-.12.05.12,0,.05,0-.06.11-.13.12.12.11h.1l.16-.09.05,0-.07-.17Zm0-.37v-.09l0-.14L64.19,12H64l0,.19,0,.18.12.07.1,0Zm-.11.56.12,0,.07,0-.12.1-.11,0Zm-.08,5,0-.07,0,.07,0,0Zm.39-4.56h-.14v.09l.09-.05.14.07.11,0,.05-.11.09,0h-.07l-.16.07Zm.14-.16.07,0,0-.09-.07,0Zm.17-3.54h-.1l0-.09.07,0Zm-.1,8.46,0,0h0l0,0Zm.33.13.05-.05.07,0-.07,0h-.16l-.11.07h-.17l.17.09.11,0,.14.05.05,0L65,18.31Zm-.18-4.45,0-.07,0,.09.07.05h.14l0,0H64.8Zm.1,2.6,0-.07-.09-.05v.09l.1.05Zm.11-.17,0,0v0h0Zm.09-1.34V15l.14,0v-.14Zm.44-3.54-.09-.18-.1,0-.09,0,.07.05.07.09,0,.07,0,.09-.07,0v.09l.12.07.09.09.07-.12,0-.07-.1-.05Zm-.31,3.13,0,0v0l0,0Zm.38,1.7,0-.09,0,0,0,.06Zm0,.4,0,0,0,0,0,0ZM65.75,12l-.05.07,0,.12v0l.14-.1.09,0,.16.07.07-.12L66,12.06Zm.18,6.33-.07-.09h-.18l0,0,.1.07Zm-.12-6.51h.11V11.8l-.07,0ZM66,16.45l0,.07.05,0,0-.05Zm.22-4H66l0,.11.12,0Zm.07,1.08.05,0,0,0h-.07Zm.1,5,0,0,0,0,0,0Zm.22-5.29,0,.05,0,0v0Zm.09,5.54-.07,0-.05,0,0,.05Zm0-4.6.09.09v-.09l.05-.09-.07,0Zm.14,4-.09-.07-.07.05h.06l.06.09Zm0,.26h-.11l0,.13.12,0Zm-.05-3.77v.07l.05,0v-.05Zm.42.57.09,0v-.09l-.08,0Zm.06.25v.07l.1,0v-.07Zm.25-.17h.05v0l-.05,0Zm.1.51.05,0,.07,0-.05,0Zm.18.71.05.07h.07l-.05-.07Zm.14.3-.05,0,.05,0,0,0Zm.05-.09h0l0,0h-.06Zm0,.28,0,0,0,0,0,0Z"/><path class="cls-2" d="M71.11,15.42h-.37l-.31-.22-.15-.34,0-1.5.16-.33.38-.2.33,0,.35,0h2l.33.07h1.78l.35.19.12.39v1.43l-.22.37-.53.17h-1L74,15.43l-1.2,0-.3.05-.71-.06-.33.07Zm.42-.38h.14l.12,0,.09-.05.19-.19.2-.08-.14,0L72,14.66l-.14,0-.05,0-.12-.16-.21.07,0,.18.14.07h.13l0,.11-.16,0-.12.07-.11.09L71.3,15l-.17-.16.18-.19,0-.14.08-.14v0l0-.07-.12-.14,0-.09-.07-.16-.13,0-.16,0-.12-.05v-.1h.12l.37.06.23.07,0-.29.26.07v-.21l-.28-.15-.12,0-.09.07.09.06v.12l-.14,0-.18,0-.24,0-.13.09-.06.24,0,.13h.28l0,.05-.08.16-.05.05h-.07l0,.05.12.05.16.09-.05.07-.09.07-.11.15-.07-.05-.09-.11,0-.13-.05.16v.12l.05.09.14.07.11.07-.09.07-.05,0,.07,0,.16-.1.1.19.16-.07.14.14ZM71,14.18l.1-.05h.12l.09.07H71.1Zm0,.34.05,0v.07H71Zm.34-.24.05,0h-.05Zm2.08.06,1.08.05.37-.14,0-.18-1.29-.16-.88,0-.74,0-.37.08v.23l.37.08.72.06ZM72,13.49h.09L72,13.42l-.1,0,0,.1Zm.67,1.62.11,0,.13,0,.19.11h.11l.21-.08h.31L73.8,15l0-.12.11,0,.07.2.09.12.05-.05L74.1,15l.07,0h.28l.14.17.14,0,.09,0,.13-.05.1,0v-.16h-.27l-.21,0,0-.16-.14.1-.14.07-.09-.12.13-.09.11-.07H74.3l-.14,0-.11,0-.12,0-.09.11-.14,0-.14-.18-.07-.06h-.14l-.23.12-.11.07-.1,0-.11.05h-.23l-.35-.06-.09.19.14.05.09-.15.11,0,0,.19Zm-.17-1.5,0,0-.05,0,0,0Zm.1-.4v-.09l-.08,0,0,.05Zm.06,1.59,0-.09h-.07l-.06.11Zm0-1.43,0,0,0-.07,0,.07Zm.36-.19L73,13.1l-.09,0,.06.06Zm.12.23-.12,0,.09.05.16,0Zm-.07,1.52h.09l0,.09h-.07Zm.43-1.47,0,0v.05l0,0Zm0,1.53v-.05h.06V15Zm.47-1.67,0-.05v.08l0,0Zm1.74.64,0-.2V13.7l.1,0,.06-.05-.07,0-.09,0-.13.07-.07-.12.14-.05.05-.14-.12-.09-.05.12h-.28l-.28.05-.12,0,0-.07.07,0,.11,0,0-.1-.18,0,0,.14-.18,0-.09,0,0-.1.11-.07-.09-.07-.05.09-.05.05-.12-.11-.09.12.11.07.09.14h.21l.11,0v0h.05l.06.19.09.07.09,0h0l.14,0,.14,0,.21.16Zm-.77.73,0,0-.06,0v0Zm.25.07v0h-.05v0Zm.18,0,.05-.16.06-.12,0-.12,0-.21-.11,0-.14.14,0,.1,0,.14,0,.16.11.09,0,.05Zm0,.42,0-.09h-.11v.08Zm.31-.88,0-.05,0,.07,0,0Zm.12.23h-.16l0,.05.16,0Zm0-.19,0,0,0,0,0,0Zm0,.6,0-.06,0,.05,0,0Z"/><path class="cls-2" d="M87.35,8.67l-.2.44L86,11l-.22.24-2.29,3.66-.19.45-.11.51v1l-.06.32v.35l0,.35-.09,2-.14.37-.36.19-.35,0-.49,0-.54,0-.32,0-.35,0-.37-.15L80,19.89l0-.67,0-.34.05-1.36,0-.35,0-1.39L80,15.3l-.17-.49-1.33-2.18-.14-.32-.41-.57-.7-1.27L77,10.23,76.3,9l-.17-.41.06-.38L76.55,8l.81.06.9-.05.3.07h.37l.4.17.37.34.81,1.57.19.3.51,1,.19.28.19.34h.2l.23-.3.31-.66.18-.3.18-.37.4-.56.22-.53.47-.75.32-.29.48-.17.3,0h.69l.35.06.37,0,.69,0,.32.07Zm-10.5.41,0,.09.18.07.26-.06.11,0L77.13,9,76.87,9l-.09,0Zm0-.28L77,8.75l.11,0,.12.14.12-.16-.16-.11L77.1,8.5l-.21.14Zm1.89,3.71.13,0,.37,0,.28,0-.12-.23-.28,0,0-.06.12-.07.13-.08-.23-.11-.05-.17.11.05,0-.06-.1,0L79,11.64v-.28l-.26,0,0-.14-.09-.05.07-.14-.12,0-.18-.08,0-.39-.25.07-.08-.05-.06.1-.09-.06.07-.22,0-.23-.05-.23h-.17l-.21-.05.16-.17.22.09L78,9.65,78,9.52l-.51-.08-.25-.11-.2.19.07.24.28.06.14.48.28.18-.05.05.14.07.06.05-.09.14,0,.11-.05.07.14.17.18.39.27-.15.07.05.12,0,0,.09-.21,0v.26l.28.07,0,.3.14.09,0,.11,0,.05Zm-1.44-3,.05.11h-.06l-.07-.07Zm.15-.19.16,0V9.16l-.13,0Zm.1.27-.05-.07h.11Zm0-1.08,0,.11.09-.09,0-.07Zm.08,1.63h.14l0,.11-.14,0Zm.08-1.38L77.7,9h.19l.05-.18Zm.08.25v.14l.12,0V9.06Zm.22,1,.07.06,0-.07h-.05Zm0,1,.07.05,0,0h-.07Zm0-2.1.1.1.18,0,.07-.05.21-.14.3.09.06-.11-.12-.07-.14-.23-.23,0-.28,0,.23.07.19.05.05.05-.14.07-.12-.07-.11.14.1.09,0,.05L78.4,9l-.16-.07Zm7.08.48L85,9.4l-.38.43-.65,1-.23.26-.13.32-.18.33-.41.54-.15.3-.21.25-.16.36-.38.58-.23.23-.21.19-.28-.2-.19-.25L81,13.41l-.74-1.16-.15-.34-.53-.84-.17-.3-.21-.31-.14-.34-.62-.86h-.3l.1.29,1.45,2.48.19.25.16.32.23.27.32.66.42.54.15.36.15.44.12,1.57-.06.51v.69l0,.31,0,.37v.51l.07.35h.19l.11-.28,0-.37v-.37l0-.28v-2.5l.28-.95.23-.26.29-.42.27-.53.21-.26.34-.61.22-.26.74-1.24.41-.59.36-.59ZM78.48,11.2l0,.2-.12,0-.05-.09Zm.46,1-.07.09,0,0v-.11l.07-.05Zm.42,1.31h.33l.16-.18h-.21l-.14,0-.1-.34.2-.16h.05l-.14-.16-.34.1L79,12.66v-.05l-.15.05,0,.21.26,0,.07.26ZM79,12l-.05,0,0-.09.07.07Zm.23-2.41.08.18V10l.3.09.06.37.23.12.17.16.13-.28L80,10.35l-.3-.06.11-.14.07,0,0-.05L79.69,10l-.3,0,0-.25.07-.07.18-.07.05-.09-.2-.06h-.08l-.14,0Zm0-.27h.14V9.1l-.11.07Zm.64,4.58-.05-.05-.16,0-.09-.11,0,.07.07.09.18,0Zm-.11-4,0,.09,0-.07Zm.18.76-.11-.07.09,0Zm-.06,3.16.25-.08,0-.16-.12.07-.16,0Zm3,2.66h-.06l-.07.05,0-.28.08-.42,0-.3,0-.14-.08-.08-.15.07-.09-.13.07-.09,0-.13-.12-.07-.13.25-.14.17h0l-.05,0,0,.28-.06.3.14.05.09.2v.16l-.16,0-.11.17.14.21.05.19.14,0,.05.13-.23,0-.11.12,0,.28-.13.17.08.23-.09.3.19.16-.18.21,0,.3-.09.37-.25.22-.06.09H81.3l-.11.14-.1-.07,0-.1,0-.16L80.92,19l.2-.4,0-.41.06-.39-.22-.18.19,0,0-.14-.17-.05.18-.1,0-.32.09-.41L81,16.25l.07-.3-.25-.09-.07,0-.07-.21.28.06.07-.19,0-.27-.27-.14-.1-.3,0-.23,0-.11,0,0,0,0v.11l-.12-.09,0-.39-.3.1H80l0-.07.07-.05.14,0-.05-.11L80,14l-.11.19.3.11,0,.25.18.14.1.09,0,.07-.12,0-.12,0v.05l.25.13-.06.19-.16,0-.05.11.11,0,.12-.09.07.17-.18.19-.07.18v.83l.21.21-.06.09-.16,0v.21l-.09.21.09.23.14.07-.14,0,0,.18.16.06-.07.19,0,.12.17,0v.05l-.19.05-.11.35v.21l.05,0,.07,0V19l0,.19v.23l0,.23,0,.25.09,0,0-.14.21.07.05.25.19-.05,0,0,.09,0v-.12l.11,0,.16.16.2-.12-.07-.16H81.3l.25-.12.37-.08.31.11.43.13.16-.19-.09,0,0-.11.11-.28,0-.23v-.74l-.25-.06,0-.08.27-.05.09-.39-.15-.46.12-.25-.09-.11.15-.26ZM80,10.94l-.05,0L80,11,80,11l0,0Zm.05,3.59,0-.09-.1,0v.12Zm.13-3.07-.1-.12,0,.18.12.13Zm.23,0,.05.14,0,.12.17.11.06-.12-.17-.07.11,0v-.2l-.14-.09Zm0-.26.11,0,.05-.1h-.1Zm0,7.64-.11.05.06-.09.07-.09Zm.27-2.59-.15.17-.16,0,.12-.12Zm-.16-.36-.12-.13.14,0Zm-.07.24.09,0-.1,0Zm.25.87.05,0-.05,0-.09,0Zm0-1.67v-.12h.12v.05Zm.1-3.16.12,0L81,12l-.14,0Zm.15.27,0,.05,0,.05,0-.07Zm.11,7.27,0,.05-.11.12-.14,0,0-.19Zm0-.18-.18,0v-.11Zm.17-6.95.1,0,0,.14,0,.07,0,.11,0,.16.09,0L81.5,13l.23-.14-.19-.34-.26,0Zm.26.27-.14,0,0-.05.13,0h.11Zm.19.25-.08,0,0,.1h.12Zm0-.74,0,.07.07,0v-.07Zm.1,7.52-.16,0V20h.12ZM82,12.31l.14,0,.07.05v.13l.1,0,0-.1-.14,0-.1-.07Zm.12,7.48,0-.09L82,19.65l.05.07v.11l.05,0Zm.07-4.39,0-.07h0l.07.07Zm.08-.3,0-.05,0,0,0,0Zm.25,4.77-.26,0-.08.21.28,0Zm0-4.2,0,.11-.1,0,0-.09Zm0-3.3.11,0v-.09h-.11Zm.16,2.26.12.07,0,.21.18,0,0-.18,0-.18-.14,0-.18.07,0,0Zm-.13,3.73.1,0,0,.07-.09,0ZM82.58,12h.14l.05-.14h-.16Zm.08,7.41-.07-.07h.09Zm.6-4.86-.12-.16-.05-.16h.16l-.05-.11-.3,0,0,.21.17.32h.14Zm-.16-3.46,0,0,.09,0,0-.05,0,0-.09,0Zm.32,2.51-.17-.09,0,.07-.09,0,.07.14-.09.09,0,.07.19-.05Zm.5-.27h-.05l-.05.05.09,0ZM84,9.7l.07,0h0l0,0ZM84,13,84,13v.05l.05,0Zm.47-1,0-.09-.07.05,0,.05Zm.11-.37,0-.14-.11,0,.05.1Zm.22.28,0,0h-.07l.05.05Zm.22-.5-.09,0h0l.05,0Zm.58-.84-.1,0v.09l.1,0Z"/><path class="cls-2" d="M100,14.56l-.1,1.23-.08.39-.11.28-.06.36-.13.33-.71,1.21-.23.31-1.25,1.17-1.58.68-.67.2-1.57.13-1.06-.07L91,20.31l-.34-.14-1.19-.65-.22-.27-.49-.48-.81-1.14-.17-.32-.1-.37-.25-.6-.18-1.11.1-2,.15-.76.35-1,.16-.29.62-.88.48-.52.57-.38.25-.21.91-.56.67-.17.32-.13.35-.1.35-.07,1.24-.05.82,0,2.3.76.89.58.75.7.22.32.21.21.22.3.12.32.31.59.08.41.14.37.13.65Zm-12.55-.87.18,0,.15.13,0,.08.07.07L88,14l-.12.12-.09,0,0,.09.1.05.15-.21-.12-.16,0-.11-.1-.1,0-.14-.12,0Zm0,.35.05.07v-.05L87.6,14V13.9Zm.43.73,0,0-.05-.12-.11-.08-.07,0-.11.07-.05.1h.12l0-.05.14,0,.07,0h0Zm-.33.66,0-.07-.07-.12,0,.07,0,.09Zm.1.62,0-.14h-.09l0,.09Zm.06-3.14.14.05,0-.12-.07-.09Zm.39,3.8v-.09l-.22.08ZM88,11.92l.12-.06.06-.21-.14,0Zm.19.11,0,0,0,0-.05,0-.05.09.09,0Zm0,.34h-.16l0,.12.16,0Zm.39,4.56,0-.11-.09-.05V16.7l.05-.07v0l-.05-.05.05-.05,0-.05,0,0-.06.07.05.07-.16.12-.16.05-.1.07v.05l.35-.07.05.09Zm-.34-3.23h-.07l-.07,0v0l.09,0Zm-.1,1.09,0-.09-.07,0,0,.19Zm.08.64,0,.07-.05.09,0,.06.09-.12,0-.1-.1-.18h-.09Zm0,2,0-.11v-.09l-.09-.07v.13l0,.1Zm.07-6.1.16.08.14-.11,0-.16.09-.09,0-.12-.05,0,.13-.14-.05-.05h-.05l0,.11,0,.09.09.16-.07.07,0,.12-.11.07,0-.07Zm.36.61-.07.07v.09l.12-.11v-.09l-.1-.07-.25-.09.09,0,.05,0h-.07l-.07,0v.07l.09.06.09,0-.07,0-.07.07h.09l.11-.07Zm-.13.49,0,.09-.14.12.09,0,.06-.09.09-.05v-.05Zm6.9,6.68.69-.25.3-.15.93-.82.32-.41.2-.35.2-.3.15-.33.34-1.43,0-1.13,0-.32V13.3L98.39,13l-.22-.78-.34-.6L97.4,11l-1.12-.9L96,9.93l-.35-.11-.31-.15-.33,0-.39-.11-.9-.1-.87,0-1,.31-1,.42-.3.23-.55.52-.42.5-.39.63L89,12.4l-.11.37,0,.3-.11.37-.06.44.09,1.8.32,1,.14.27.19.31.5.64.77.68.3.2,1,.45.88.14,1.25.08.37,0,.32-.12.35,0Zm-6.69-7.77.21,0,.1-.06-.1,0Zm0-.44.16,0,0-.25-.13.07,0,.08Zm7.53,7.38-.27.22-1,.39-.34.05-.32.08-.9,0-1.21-.16-.3-.11-.67-.21-.3-.16L90.52,18l-.5-.5-.36-.61-.19-.23L89.23,16l-.15-.71,0-.34,0-1,.3-1.34.18-.34.13-.36.18-.31,1.06-.92.58-.38.3-.12.35,0,.66-.19.9,0,.49.06.37,0,.62.14,1,.45.54.41.52.47.28.46L98,13l.09.33.07,1.27,0,.83-.15.69-.15.39-.27.56-.23.3-.18.26-.21.26-.29.28Zm-7.14-.35-.12,0,.05.14V18l.06-.07Zm.27-7.62.09.09.07,0-.05-.12Zm.06,8,.05,0-.07-.07-.09.1v.07Zm.12.41-.09-.05-.05,0,0,0,.07.09Zm.29-5.22-.07-.05-.05,0-.12-.09v.05l-.07.1.05,0Zm-.24-.8.11,0,.07-.07v-.12l-.07,0-.06.15-.05,0Zm.15.47-.11-.06v.11l.11,0Zm0,5.45-.07-.16-.05.07.05.09Zm.37-6,0,0-.12,0-.07.05-.08.18.09,0,.05-.05.07-.08Zm.16-.43-.09.05-.18,0,0,.11.09,0,.22,0ZM95,17.45l.32-.13.55-.42.21-.31.16-.26.19-.26.17-.72.12-.88-.06-.76-.12-.32-.1-.35-.14-.32L96,12.1l-.54-.41-.93-.42-.84-.07-.81.06-.37.08-.32.15-.51.35-.27.23-.23.27-.16.3-.22.24-.11.32-.13.65,0,.53.08.89.32,1,.23.25.17.25.54.48.59.33.32,0,.35.12,1,0,.33-.08.32,0Zm-4.42-5.29,0,.09h.07l.07-.05h-.09l0,0,0-.05Zm.11-.35.14.11,0-.05,0-.05Zm1.87,8.25h0l0-.11-.12,0,.07.05Zm.21,0-.09,0-.09,0,.1.06Zm.59.43-.1-.09h-.07l0,.09Zm.11-.39h-.16v.11h.16Zm.42.15h-.13l0,.07.09.06,0,0h0l.06-.05Zm.13-1.64,0-.07H94v.08Zm.81,1.4-.1-.16,0,.07-.11.07H94.6l0,0-.14.14-.12-.07-.09,0-.12.09.07.06.14-.05.07.06.13-.05,0-.1.18,0,.07-.09Zm0-9,.05-.05L95,10.9Zm.14,7,.09-.06.09,0h.21l-.1-.09-.09,0-.11-.05L95,17.85l0,.07-.09.16.07.16,0,.16.07,0,.12-.06h.06l-.14-.16Zm.39,2-.07-.16-.14.05,0,.13-.07,0Zm0-.49-.09-.08,0,.05,0,0,0,0,0,.05Zm-.07,0,.07,0-.07,0,0,0v0ZM95.67,18l-.11,0,0,.14-.16,0,0,.07.16,0Zm.19,1.73.05,0-.06-.07h-.18l0,.26-.11,0V20h.14l.05-.07.09.07.1-.05-.05-.11.05-.05Zm0-2.12.11-.14-.11-.07-.09,0,0,.09,0,.09,0,.14.16.05ZM95.7,19.8h.18l-.05.07-.11.05-.05-.05Zm.59-2.22.07-.05.09,0,.07.09h.09l-.16-.09-.07-.07,0-.18-.07-.05,0-.05.05-.09-.05-.07,0,.09-.18.17H96l0,.09.08,0,.13,0,0,0-.09.1Zm.34,2,0-.12h0l-.14-.11h-.16l-.07.05-.13.14.09,0,.09-.09,0,.11.1.11-.05,0h.25l.06-.16Zm-.31.35-.07-.05-.09,0,.09.06Zm.27-.47,0,.12-.18.05-.13,0v-.07l.16-.18.11,0Zm.09-.2.12,0-.09-.12-.19,0v.17l.11,0Zm0-1.83,0-.13h-.09v.13l.06.07Zm0-.47-.11.07.18,0v.11H96.8l0,.14.18,0,.09-.09-.11.05v-.17L96.85,17Zm0-.78.1.15.08,0,0-.19L96.9,16l-.09.09ZM97.72,19l-.09,0-.11,0v-.09l-.05-.09h-.32l0-.09.16,0v-.11l-.07-.07-.13.12-.16,0,.1.18-.2,0,0,.11.16.06,0,.07,0,0,.11-.09.12,0,.08-.07.05.07-.09.18.09,0,.1-.11h.23Zm-.7.66h-.09l0-.05,0,0-.09,0,0-.12-.11,0,0,.1.07.09,0,.09H97Zm0-3.09-.09.08.12,0h.14l0,0,.05,0Zm.13-.47h.13v-.17l.05-.09.15.12-.08-.14-.07,0-.18.09Zm.41-1.21.1.11.11-.07,0-.07,0,.05ZM98,18.35l-.19-.06-.13.12.09.11-.07.07h-.11v.07l.14,0,.05-.12v-.16l.09.09v.34l.07.12H98v-.42Zm.5-.18h0V18.1l-.09,0-.13.07H97.9v.12l.21,0,.11-.09.11.16.05-.07Zm.45-.39-.07,0-.07.05-.11-.07-.07-.09.15-.19-.07-.06-.32.11h-.12l-.07.09h.19l.12.09,0,.21.2,0,0,.07.07-.09Zm-.4-.62-.12-.06,0,.12,0,0-.07.09.23-.07.05.05,0-.07.05-.07Zm0-5.47.05.05,0-.09-.07-.08Zm.06,5.23,0,.07H99l.07-.09-.16-.14-.12.07-.06.07Zm.43.38.14-.11,0-.09-.12.07-.07.09-.14-.07h-.11l.07.05.16.06.14.11v-.07Zm-.12-1.24L99,16,98.86,16Zm.08.27.07.07,0-.16Zm.08-4.5.05,0,0,0v0Zm.21,4.92.11-.1-.08-.23-.07,0-.11.14-.11,0,0,.06.24.14,0,.13.07.05v-.09Zm-.19-5h0v0Zm0,3.83.07-.14-.07-.09v.07L99,15.6Zm0-1.06.14,0,.06-.09Zm.33,1.73-.1-.12-.19,0,.07.11.07,0Zm.16-.51-.09,0-.07,0,0,.09-.12.12.11.09.21-.26Z"/></g></g></svg>