<?xml version="1.0" encoding="utf-8"?>
<!-- Generator: Adobe Illustrator 16.0.0, SVG Export Plug-In . SVG Version: 6.00 Build 0)  -->
<!DOCTYPE svg PUBLIC "-//W3C//DTD SVG 1.1//EN" "http://www.w3.org/Graphics/SVG/1.1/DTD/svg11.dtd">
<svg version="1.1" id="Layer_1" xmlns="http://www.w3.org/2000/svg" xmlns:xlink="http://www.w3.org/1999/xlink" x="0px" y="0px"
	 width="72px" height="72px" viewBox="0 0 72 72" enable-background="new 0 0 72 72" xml:space="preserve">
<g>
	<path d="M50.405,29.075c-4.98,0-9.945-1.811-14.816-3.588c-8.512-3.104-16.547-6.037-24.621-0.045
		c-0.375,0.279-0.91,0.199-1.188-0.178c-0.279-0.377-0.201-0.908,0.176-1.188c8.811-6.533,17.658-3.307,26.215-0.186
		c8.494,3.098,16.52,6.027,24.496-0.068c0.373-0.285,0.906-0.215,1.191,0.158c0.283,0.373,0.213,0.906-0.16,1.191
		C57.948,28.04,54.171,29.075,50.405,29.075z"/>
	<path d="M50.403,40.122c-4.98,0-9.945-1.811-14.814-3.586c-8.512-3.107-16.549-6.035-24.621-0.045
		c-0.375,0.279-0.91,0.199-1.188-0.178c-0.279-0.377-0.201-0.908,0.176-1.188c8.809-6.533,17.656-3.307,26.215-0.188
		c8.492,3.098,16.52,6.027,24.49-0.068c0.375-0.287,0.906-0.215,1.189,0.158c0.285,0.373,0.215,0.906-0.158,1.191
		C57.942,39.086,54.169,40.122,50.403,40.122z"/>
	<path d="M50.403,51.958c-4.982,0-9.945-1.811-14.816-3.588c-8.51-3.104-16.545-6.035-24.623-0.043
		c-0.369,0.277-0.9,0.201-1.18-0.176c-0.277-0.373-0.199-0.9,0.176-1.178c8.809-6.533,17.652-3.307,26.205-0.188
		c8.498,3.1,16.523,6.029,24.504-0.07c0.367-0.279,0.898-0.213,1.182,0.158c0.283,0.369,0.213,0.898-0.158,1.182
		C57.942,50.922,54.167,51.958,50.403,51.958z"/>
</g>
</svg>
