<svg id="Layer_1" data-name="Layer 1" xmlns="http://www.w3.org/2000/svg" viewBox="0 0 600 600"><defs><style>.cls-1,.cls-51{fill:#231f20;}.cls-2{fill:#3f3b3c;}.cls-3{font-size:21.6px;}.cls-3,.cls-31,.cls-4,.cls-5,.cls-6{fill:#72bf44;}.cls-16,.cls-19,.cls-3,.cls-31,.cls-42,.cls-46,.cls-6{font-family:HalisR-Medium, Halis R;}.cls-5{font-size:100.61px;}.cls-5,.cls-51{font-family:FestivoLC-BasicRLine, Festivo LC;}.cls-6{font-size:17px;letter-spacing:0.05em;}.cls-7{letter-spacing:0.04em;}.cls-8{fill:#a6a8ab;}.cls-23,.cls-8{fill-rule:evenodd;}.cls-9{font-size:11.09px;font-family:FestivoLC-Basic, Festivo LC;letter-spacing:-0.02em;}.cls-13,.cls-14,.cls-15,.cls-16,.cls-19,.cls-23,.cls-24,.cls-28,.cls-30,.cls-39,.cls-40,.cls-42,.cls-46,.cls-9{fill:#fff;}.cls-10{letter-spacing:-0.08em;}.cls-11{letter-spacing:0.04em;}.cls-12{font-family:FestivoLC-Mini, Festivo LC;letter-spacing:-0.02em;}.cls-14{font-size:12px;font-family:Futura-CondensedLight, Futura;}.cls-15{font-size:26.52px;font-family:FestivoLC-Wood, Festivo LC;}.cls-16{font-size:5.56px;}.cls-17{letter-spacing:-0.04em;}.cls-18{letter-spacing:-0.05em;}.cls-19{font-size:4.3px;}.cls-20{letter-spacing:-0.1em;}.cls-21{letter-spacing:-0.04em;}.cls-22{letter-spacing:0em;}.cls-24,.cls-28,.cls-31{font-size:5.72px;}.cls-24,.cls-28{font-family:HalisR-Bold, Halis R;font-weight:700;}.cls-25{letter-spacing:-0.04em;}.cls-26,.cls-28{letter-spacing:-0.01em;}.cls-27{letter-spacing:-0.02em;}.cls-29{letter-spacing:0em;}.cls-30{font-size:17.14px;letter-spacing:-0.02em;}.cls-30,.cls-39{font-family:FestivoLC-Inline, Festivo LC;}.cls-31{letter-spacing:0.06em;}.cls-32{letter-spacing:0.05em;}.cls-33{letter-spacing:0.06em;}.cls-34{letter-spacing:-0.04em;}.cls-35{letter-spacing:0.05em;}.cls-36{letter-spacing:0.03em;}.cls-37{letter-spacing:0.05em;}.cls-38{letter-spacing:0.01em;}.cls-39{font-size:26.44px;}.cls-40{font-size:7px;font-family:Futura-Condensed, Futura;letter-spacing:0.11em;}.cls-41{letter-spacing:0.04em;}.cls-42{font-size:5.29px;}.cls-43{letter-spacing:-0.01em;}.cls-44{letter-spacing:-0.02em;}.cls-45{fill:none;stroke:#72bf44;stroke-miterlimit:10;stroke-width:0.91px;}.cls-46{font-size:5.72px;letter-spacing:0.06em;}.cls-47{letter-spacing:0.01em;}.cls-48{letter-spacing:0.06em;}.cls-49{letter-spacing:0.02em;}.cls-50{letter-spacing:0.03em;}.cls-51{font-size:21px;}</style></defs><title>biltong-traditional-dried-beef-slices-packaging</title><rect class="cls-1" x="134.63" y="43.57" width="318.49" height="512.85" rx="3.65" ry="3.65" transform="translate(-16.09 16.65) rotate(-3.16)"/><path class="cls-2" d="M471.89,541.39c.06,2.45.9,1.52,1.08,1.88C472.54,539.19,471.66,541.5,471.89,541.39Z"/><polygon class="cls-2" points="467.64 501.19 468.05 501.89 466.83 495.99 467.64 501.19"/><path class="cls-2" d="M465.58,463.5c-1.31,3.65,1,13.64.83,20.39l-.28,1.13,1.38,3C466.87,479.83,465.47,469.27,465.58,463.5Z"/><path class="cls-2" d="M467.73,443.22c-.52,1.27-.75-4.32.07,4.7,0-.46.07-.59.1-.86C467.86,446.25,467.8,445.13,467.73,443.22Z"/><path class="cls-2" d="M467.91,447.06c.26,4,.35-2.62,0,0Z"/><path class="cls-2" d="M466.56,428.75l.81,5.2c.29-1.11.11-5.77.46-4.05C467.24,424.54,467,425.67,466.56,428.75Z"/><path class="cls-2" d="M465.18,423.85l.37,2.7A4.82,4.82,0,0,0,465.18,423.85Z"/><path class="cls-2" d="M466.34,432.27l-.79-5.72c-.2.77-.69.88.31,2.63C465.39,428.73,465.89,429.84,466.34,432.27Z"/><path class="cls-2" d="M466.29,435.54c-.17,3-.16,6.75-1,1.53C466.07,447.06,467.05,445.53,466.29,435.54Z"/><path class="cls-2" d="M463.91,461.66l-.22,3.95.69,3.36C464,467.29,464.37,461.39,463.91,461.66Z"/><path class="cls-2" d="M465.54,396.13c-.34-.31-.76,1.81-1.15,2.22l.58,3.84C465.08,400.2,465.08,396.42,465.54,396.13Z"/><path class="cls-2" d="M464.39,398.35l-.87-5.75C463.74,397.77,464.05,398.7,464.39,398.35Z"/><polygon class="cls-2" points="463.45 423.01 465.14 432.44 463.33 421.18 463.45 423.01"/><polygon class="cls-2" points="464.36 374.06 465.28 377.3 463.83 371.52 464.36 374.06"/><path class="cls-2" d="M463.42,359.43c.75,2.39.86-3.38,1.38-.84a79.59,79.59,0,0,0-1.69-10.37A56.69,56.69,0,0,1,463.42,359.43Z"/><path class="cls-2" d="M462.13,343.13c.24,1.61.6,3.28,1,5.1A44.18,44.18,0,0,0,462.13,343.13Z"/><path class="cls-2" d="M463.13,382.75c.17-.46.63-1.35.67-4.6l-.78,2.32Z"/><path class="cls-2" d="M463,380.56l0-.08-.22-4.91Z"/><path class="cls-2" d="M463.16,383.33l0-.57A.58.58,0,0,0,463.16,383.33Z"/><path class="cls-2" d="M463.43,407.82c-.69-3.37-1.63-10.42-2-3.52C462.17,406.7,462.39,402.75,463.43,407.82Z"/><path class="cls-2" d="M462.18,386.21l.13,6.15c.23-.13.52-1.26.86.41Z"/><polygon class="cls-2" points="461.73 383.22 462.18 386.21 462.13 383.93 461.73 383.22"/><path class="cls-2" d="M461.86,353.69a71.57,71.57,0,0,1-1-8.8c0,3.52.12,7.16.31,10.6C461.51,356,462.1,357.45,461.86,353.69Z"/><path class="cls-2" d="M462.33,366.75l-.08-.59C462.19,366.53,462.18,366.82,462.33,366.75Z"/><path class="cls-2" d="M459.1,312.64l-.14.53a1.25,1.25,0,0,1,.16.11Z"/><path class="cls-2" d="M461.06,356.09a20.82,20.82,0,0,0,.64,5.7c-.2-2-.38-4.06-.51-6.3C461.06,355.28,461,355.24,461.06,356.09Z"/><path class="cls-2" d="M461.21,334.15c-.11,1.38-.19,3-.24,4.6C461.17,337.39,461.47,334.63,461.21,334.15Z"/><path class="cls-2" d="M462.45,365.26l.06.39C462.66,364.78,462.57,364.89,462.45,365.26Z"/><path class="cls-2" d="M462.45,365.26c-.21-1.35-.49-2.41-.75-3.47.16,1.6.34,3.09.54,4.37A5.92,5.92,0,0,1,462.45,365.26Z"/><path class="cls-2" d="M452.76,303.19c.86.42,2,7.32,1.46,13.35,1,5.86,3.5,1.85,4.76-3.38-.38-.16-.71-.14-1.54-6.18-.34,2.15-.33,13.52-1.37,8.44-.88-8-.07-6.6.16-10.53-.86,3.38-2.09-10.14-3.53-8.3l.93,7C453.39,303.75,452.87,301.22,452.76,303.19Z"/><path class="cls-2" d="M459.52,324.72l.24,2.49a65,65,0,0,1,.66-8.69c-.64-4.13-1-5-1.29-5.24l.56,12.3Z"/><path class="cls-2" d="M460.39,338.42c-1-1.9-1.74-7.87-2.52-4.15.47,7.32,1,5.09,1.68,9.44-.88-11.81.7,3.37.74-5.2.28,2.31.45,4.4.59,6.37,0-2.13,0-4.19.08-6.14l0,.27v.06h0c-.09.52-.15.69-.11.11a1.69,1.69,0,0,1,0-.25,1.32,1.32,0,0,1-.37-.51c0-3.43.21-.55.37.51,0,0,.09.13.14.14a.23.23,0,0,0,0,0l-1.16-11.81C459.78,329.73,460,332.86,460.39,338.42Z"/><path class="cls-2" d="M459.1,398.09c.06-.37.13-.36.19-.39C459.14,396.94,459,396.65,459.1,398.09Z"/><path class="cls-2" d="M459.38,393.19a14.71,14.71,0,0,1,.64,4.35c-.14,2.44-.44,0-.73.16.34,1.67,1,5.87,1.13.55l-.17-.83c0-4.78.85-11,1-10.15A19.06,19.06,0,0,0,459.38,393.19Z"/><path class="cls-2" d="M459.63,365.48l-1-9.83-.51,5.06.46-.28C458.71,366,459.23,364.8,459.63,365.48Z"/><polygon class="cls-2" points="459.5 311.48 460.53 312.74 458.86 307.12 459.5 311.48"/><polygon class="cls-2" points="458.67 298.68 459.54 299.1 458.84 295.75 458.67 298.68"/><path class="cls-2" d="M133.72,196.82l.4,2.88C134,198.34,133.84,197.46,133.72,196.82Z"/><path class="cls-2" d="M132.62,175.84l-.44-.49C132.46,176.31,132.65,176.7,132.62,175.84Z"/><path class="cls-2" d="M386,32.8c-4.26-.55-9-1.5-8.48-.59l1.35.85A44.25,44.25,0,0,1,386,32.8Z"/><path class="cls-2" d="M170.76,50.18l1.25.21,2.8-1Z"/><path class="cls-2" d="M168,54.15l-5.6-.29C163.66,54,165.46,54.1,168,54.15Z"/><path class="cls-2" d="M141,311.32l1.12,3.33C141.86,309.36,141.52,311.71,141,311.32Z"/><path class="cls-2" d="M451.07,167.47c.16-3.66.15-6.57.05-9.12C450.84,162.77,450.24,166.35,451.07,167.47Z"/><path class="cls-2" d="M123.52,189.11c.26,1.76.49,2.51.7,2.45C124,189.74,123.72,188.72,123.52,189.11Z"/><path class="cls-2" d="M450.54,147.84c-.06.65-.07,1.28-.11,1.94.3,2.65.57,5.33.69,8.58A36,36,0,0,0,450.54,147.84Z"/><path class="cls-2" d="M312.61,550.52c.3,0,.67,0,.95.06C313.64,550.44,313.22,550.46,312.61,550.52Z"/><path class="cls-2" d="M434.15,553.1c-1.19.12-3.13.23-5,.35A46.74,46.74,0,0,0,434.15,553.1Z"/><path class="cls-2" d="M456.22,247.1c.21,2.71.13.43,0,0Z"/><path class="cls-2" d="M453.32,260.52c-.13-.57-.29-1-.51-1.06A2,2,0,0,1,453.32,260.52Z"/><path class="cls-2" d="M443.32,121.09v-.24C443.18,121.67,443.2,121.53,443.32,121.09Z"/><path class="cls-2" d="M456,251.21c.06-1,.09-2.21.08-3.49C456.07,248.29,456,249.35,456,251.21Z"/><path class="cls-2" d="M456.43,250.64l0,2.38C456.65,253.35,456.73,253,456.43,250.64Z"/><path class="cls-2" d="M456,243.32c.1,1.55.14,3,.15,4.4,0-.54.07-.76.11-.62Z"/><path class="cls-2" d="M148.49,504.34c0,.18,0,.39-.05.59C149,507.65,148.84,506.45,148.49,504.34Z"/><path class="cls-2" d="M315.77,46.25l.31-.06h-.4Z"/><path class="cls-2" d="M306,47.47a24.2,24.2,0,0,1,9.63-1.29L312.3,43.7Z"/><path class="cls-2" d="M136.76,247l.45-6.9c1.82,8.2,1.68,14.21,2.48,7.71-2.93-.81-1.77-26.63-4.69-27.42l.35-4.55c0,1.3.22,1.49.27,2.78.89-8.86-2.44-6.41-2.66-17.76,0-4,.27-6.73.76-4.06l-1.2-8.75c-.09-2.56.45-2,.53.59l-1-13.4.09.09c-.56-1.89-1.49-6.19-1.91-8.29.22-3.43.4,1.69.71.8l-1.11-7.39c.58-3.07,1.64,3,1.82,8.18,2.49-7.09-1.07-6.12-.22-21.18l.75,7c1.38-4.61.49-10,1.06-18-.43,1.91-1.68,16-2.85,8a40.68,40.68,0,0,0-.79-9.6c1-.1.53-4.33.18-9.64l1.38.29c-.71-5.72-1.37-5.23-2.17-8.57-.22-6.41.76-7.79,1.56-9.35-.35-10.26-1.29,7.17-2.22-4.95,0-8.55-.84-14.51-2.21-24.66.14-6,.89,1,1.15-1.16l-1.37-5.23c0-1.3.31-.9.49-.69-.67-4.43-1.37-.29-2.13-7.28a3.25,3.25,0,0,1-.47-1.82l0-.7v-.63c0-.37.06-.76.1-1.17l.16-1.16a2.1,2.1,0,0,1,.45-1.11,2.6,2.6,0,0,1,2.47-.82c.45,0,.89.05,1.31.06h.62l1-.07a27,27,0,0,0,4.49-.7c2.16.27-1,.89-.3,1.38C146,55.07,144.34,55.47,154,53.43l8.37.43c-6.17-.68,1.58-2.31,8.36-3.68-2.2-.37-4.07-.7-5.33-.84L176.31,48c1.33.15.26.67-1.5,1.34.74-.15,1.44-.3,2-.44,3.93.28,2,1.18-.8,2.09l-4-.62c-2.65,1-5.12,2-4.52,2.78a26.18,26.18,0,0,1,3.56-.56c-.69.26-1.13.49-.8.6a12.33,12.33,0,0,0,3.27-.68l2.57,1.37.57-.63,14.34.16c10.14-2.08,18.91-4.81,35.1-6.33-4,1.33-.77,1.86-.91,3.18-4.5-1.14-12.53,1.28-21,1.47,4.4-.1,3.47.58,2.36.86l14.93-2.09c-.28,1.09,3.23.63,7.17.86-3.08-2,11.1-2,17.17-3,.42.69-1,1.5-8.46,1.74,8.3,1.14,10.48-3.08,18.61-2.16-1.82.12-2.8.06-3.5.46,4.21-.87,14.62-.94,12.21-.18l-1.81.11c12.08-.42,36.74-2,38.44-3.91.13.22-1.46,2.26-2.17,2.66l21.2-7.25c-1.81,1.65,5.67,4.93-4.29,6.36a67.17,67.17,0,0,0,12.48-.76c-2-.11-5-2-2.34-2.26,7.45,1.32,5.16.64,14.3,1.61-3-.17.17-2.77,4.82-3-.7.4.52,2.37-1.16,2.72l11.43-3c-2.86.59-.4,2,2.22,2.58-1.23-.4,10-.51,13.06-.92L366,42.91c13.07-.36,12.7-4.06,25.66-4.65-1.54.58-3.7,3.24,2.9,3.18,2.95-1.39,13-6.6,24.44-8.17l2.24.58,8.74-1.28a295,295,0,0,1-28.82,8.81c4.91.28,1.41.75,8.71.28,2.62.51-3.93,1.21-6.08,1.37l17-.52c-1-1.37,13.31-2.17,11.19-3.23a0,0,0,0,0,0,0h0l-1.28.26-2.3.31-4.6.62-9.2,1.25c-.36-.61,1.62-1.58,5-2.51,1.68-.47,3.71-.92,6-1.32,1.13-.2,2.31-.38,3.53-.54l1.8-.22,1.59-.17,1.78-.14a2.86,2.86,0,0,1,1.72.38c.45.46.35.84.1,1a4.32,4.32,0,0,1-1.21.47,3.72,3.72,0,0,0-2,1.22,1.6,1.6,0,0,1,1.35,0,1.79,1.79,0,0,1,1.05,1.62c.11.73.18,1.45.22,2.12a11.3,11.3,0,0,1,0,2.22l-.26-1.27-.13-.63-.07-.32a1.19,1.19,0,0,0-.06-.18q-.22-.61-.44-1.1a5.13,5.13,0,0,0,0,1.07l.09.9.14,1.11c.21,1.46.5,2.86.76,4.31a32.13,32.13,0,0,1,.51,10c.06,2.79-1.37,8.42-.5,8.85,1.37-4.63,6.35-5.8,7.74-2.84-.06,1-.74,14.71-1.37,17.94-1,4.66-3.42-6.72-4.29-2.75.4.15,1,2.65,1.23,3.7-.17,2.94-1.27-1.14-.74,5.2,1.5,1,.59,12.93,1.39,2.94.76,6.19.07,6.62.54,13.92.8-2.38,3.54,6.38,4.29,12.59-.39-.35-.79,1.08-1,1.77.57,12.75.3,19.63.94,31.52-.29,1.11-.4,6.87-1.15,4.46a35.78,35.78,0,0,1,1.16,6.9c-.86,7.16-.65-8.16-1.85-2.67.86.42,1.68,9.42,2.49,14.61,1.21-1.68-.42-12.08-1.23-17.28,1.79-.12,4.16,8.88,5.67,21.25,1,9.85-.92,4.34-.57,6,.71,18.56,4,15.63,3.56,31.09-.8,6.17-2.25.4-3,1.8-.88-8,0-12.39-.31-17.83l-.17,6.74a54.9,54.9,0,0,1-.94-10.83c-.74,5.18,1.54,31.34,1.38,45.7.52,2.52,1.16,6.89,1.5,4.78l-.41-4.52c.69-4.21,1.74,8.45,1.85,2.7,1,6,2.37,12.79,2.33,21.36l-1.21,1.68c.37-.2.46-5.63-.06-8,.77,3.53-1,13.2.88,17l.57-6c1,6.06,2.79,13.52,2.79,21.12,1.09-3.52-.24-1.74,1-7.2-1.61,4.77-1-19.39-2.54-11.78,1.44-5.62.21-9.6,1.29-16.91-.42.25-.68,2.6-.82-3.77a10.18,10.18,0,0,1-.45-1.37v-.43l0,.35c-.08-.27-.09-.3,0,.13a13.82,13.82,0,0,1-.47,3.28c-1.16-3.1-1.69-13.22-2.39-16.61,0-3.79.58,1.55.92-.53l-1-5.07c.92-.56,1-10.11,2.07-1.25l-.4-8a84.06,84.06,0,0,0-.5-15.21c0-3.79-1.58-9.47-.65-6.23l-1.28-12.52.23-.13c-.57-12.39-3-25.4-2.05-39.65a140.45,140.45,0,0,1-1.12-15.44l.75-1.41c-.58-5.33-.07-16.12-1-18.37,1.89-5.9-1-26-1.08-35.44l-1.09-.3c-.3-6.48-.95-12.68-1.82-20.7l-.92.55a83.92,83.92,0,0,1-.68-12.55V43.35l0-1.31c0-1,0-2-.08-2.94a13.72,13.72,0,0,0-.46-2.79,7.49,7.49,0,0,0-6-5.34,13.89,13.89,0,0,0-3-.19l-1.15.07a6.11,6.11,0,0,1,1.19-.23,10.17,10.17,0,0,1,3.34.18,7.15,7.15,0,0,1,3.22,1.67,7.41,7.41,0,0,0-2.9-1.75A11.37,11.37,0,0,0,434,30.2c-1.2,0-2.42,0-3.64.09-.8,0-1.5,0-2.26.09-1.49.08-3,.2-4.48.34-3,.29-6,.67-8.92,1-5.89.73-11.62,1.38-16.88,1a29.26,29.26,0,0,1-7.18.38,5.51,5.51,0,0,0,.73-.09l-1.22.06c-1.32-.09-2.67-.21-4.14-.28,1.25.16,2.45.29,3.49.32-2.28.15-5.74.45-9.12.88l-1.5-.94-.78.07c-3.35-.19-2.65.63-.83,1.3-1.7.26-3.26.55-4.46.86-2.8-1.5-8.88,1-12.67-.51-2.24,1-17,1.59-18.74,3.49-.13-.23-1.14-.28.7-.4a56.13,56.13,0,0,0-11,.7l-1.68-1.21-8.17,2.2c-5.06-.51-7.17-.86-2.24-2.13-12,2.2-9.74,1.12-19.89,3.2l.45-.87c-3.66.23-9.45,1.68-11.69,1.11-8.27-1.14-40.52,2-61.61,1.69,4.21,2.24-9.83-.57-10.56,1.39-1.26-.52-4.2-.68-.83-1.38-10.69,1.17-16.16,0-23.48,2-1.26-.52,2.25-1,1.14-1.27-.85.17-3.38.7-4.51.41s1.54-.58,3.23-.92c-10.95.7-12,2.56-12.66,4.3-5.6-.49-8.36-.23-12.31,1.1-2-.45-5.22-.85,1.58-1.42-3.83.13-23.44.48-23.75,1.86a27,27,0,0,0-6.36.41l-9,.38a48.94,48.94,0,0,0-4.93.37,7.39,7.39,0,0,0-2.72.88,6,6,0,0,0-2.38,2.67,5.93,5.93,0,0,1,2-2.13,10.33,10.33,0,0,0-1.38,3.19,8.93,8.93,0,0,0-.17,1.81c0,.63,0,1.31,0,2l0,4c0,1.28.06,2.7.19,4.28l-.18-.18c-.31,15.66.94,6.7.45,22.16l1-.89c2.26,1.31-.53,13.7.8,22.59l.4-3.26c1,4.84-2.22,13.8-2.22,18.71-.13,1.08-.4-1.67-.62-3.15-.58,12.89,1.42,1.59,2.26,11.13-.62,1.8-2-2.17-1.73,4.27-.4,3.24,3.36,18.53,2.47,27.38.45-2,.89-3.92,1.55.5.57,6.79-1.07,18.51,1,24.56-.1.87-.23,1.21-.36,1.25.74,5.18,1.68,16.86,2.8,19.94-3.24,5,3.5,32.24.25,32.3l1.06,16-.35-.4c.35,10.24,1.33,13.81,2.3,17.36-.09,2.38-.49.67-.67.48.17,15,.39,16.45,2.7,28.89l-1,1.36c.8,3.36-.45,21.69,1.59,36.28-.13-.14-.35-.43-.56-1.59,2.14,16.42-.73,39.63,3.43,45.46l1.54,10.83c-.48-14.09,1.77,2,2.09-3.82.53,5.52-.36,14.37-.93,7.58l.13-1.07c-2.13-2.39.26,17.53-1.12,17.23,1.63,27.69,2,54.75,3.37,80.7l1.38-3.07.41,9.05c-.23,2.4-1,3.26-1.33-3.2-.69,3.44,1.33,10.79,1.68,11,.07,12.68-2.08-4.84-1.9-1l.41,5.26.12-1.2c.87,4.23,1.56,4.57,1.91,12.34,0,4.93-.82,2.57-.77,4.51-.11,0-.13.65.12,3l.5,11.41,1-4.63c.88,5,.53,10.72,1.62,5.39a46.65,46.65,0,0,0-.49,8.6l0,1.88c0,.68,0,1.39.07,2.1a16.08,16.08,0,0,0,.27,2.07,6.56,6.56,0,0,0,.67,1.94,6.36,6.36,0,0,0,3.2,2.86,7.17,7.17,0,0,0,2.12.47,15.87,15.87,0,0,0,2.32.07l17.16-1c4.72-.27,8.35-.44,9.68-.33,7-1.28,14-1.65,22.68-2-2.17-.14-3.53-1.44,3.94-1.68-2.57,3,13.74.48,19.88,2.18-5.47-1.06,21.2-1.51,12.64-3,6.24-.11.44,1,5.2,1.45,14.76-1.92,32.71-1.09,51-2.47.27-.39-2.84-.79,1.06-1.56l9.78,1.33c3.61-.38,3.21-2.33,9.9-1.41-1-.26-2.37-.66,0-.91,36-.17,73.27-5.54,109.92-4.14-5-.45-1.69-.7,2.08-.94-2.46,0,0-.92-.5-1.4l15.34.56c2.7-1.55,16.36-1,17.88-2.43l-4.82.51c6.34-1.93-9.19-3-8.36-5.1-7.1,2.19-19.12-1.61-30.79,1.61-2.63-.27,2.19-.78.77-1.17-2.95,1-6.55,1.42-13.27,1.4l.75-.26c-18.81,1.25-26.92.84-48.1,1.44l1.62.92a55,55,0,0,1-7.66-.28c-5.13,1.81,12.76-.62,8.11,1.32-6.14-1.71-32,1.74-36.24-.36-7,.37,2.11,1-4.87,1.42l-1.89-.53-1.72.91c-4.59.12-6.94-.54-7.14-1.06,1.12,0,3.15-.32,4.34-.43-6-.41-16.74,1.18-18.79,1l6.74,0c-19,1.64-42.38,2.1-60.73,4.4l1.43.4c-14,1.65-11.3.1-26.73,1.36l.56-.14a74.17,74.17,0,0,1-11.41,1.29c3.87-.77-7.4-.67-2.32-1.57-15.21,1.78-7.51,1.15-17.49,3.47l-2.37-.66c-3.4.9-3.66,1.29-11.37,1.92,6.29-1-5-.92,2-2.21a88.86,88.86,0,0,0-9.73,0c-1.44.08-2.79.2-4.07.32l-.95.1-.45,0-.23,0-.93.16a5.11,5.11,0,0,1-2.28.15,1.83,1.83,0,0,1-1.27-1.47,7.87,7.87,0,0,1,.11-1.94,4.88,4.88,0,0,1,.24-.87c.09-.52.21-1,.35-1.57-.65-1.83-1-1.86-1.17-1a12.83,12.83,0,0,0-.14,2v2c0,.63,0,1.28.1,1.86a2.33,2.33,0,0,0,.77,1.32,4.29,4.29,0,0,0,.69.45c.09.05,0,.08-.36,0,.39.42.36.58-.11.67a2.2,2.2,0,0,1-1.94-1,3.19,3.19,0,0,1-.49-1.53c-.09-.58-.17-1.21-.24-1.85-.13-1.17-.24-2.9-.26-4.13-.24-5.18,2.29-8.95,1.53-22,.06,1.29.23,1.37.29,2.67.28-4.9-1.28-9.5-.71-15.52-1.5-3.28-.35-7.76-2.08-8.63l1,11.91c-.81-6.74-3.12-13-2.79-24.18a45.05,45.05,0,0,1,1.39,6.41c.31-3.29-.67-6.26-.35-9.67,1.73.87,1.17,14.48,2.85,21.66.51-3.54-2-13.65,0-10.1-2.6-5.11-.42-12.84-2.67-21.55l1,.53a54.58,54.58,0,0,1-1-6.82L150,483c-1.51-7.07.21-13.81-.77-20.62.82,14.33-1,3.28-1.43,9.38-2.32-17.6,2.07-10.31.49-30.06.29,2.67,0,10.09-.74,5.93a88,88,0,0,1,.51-11.11c-.93-13.1-.92,2.07-1.85-3.48,1-4.53-.85-6.41-1.56-12.13l1-.1c-.17-15-2.35-3.84-2.3-17.33l1.73,5.61-.75-7,1.24,1.38c-1.28-7.58-1.19-10-1.28-17.46-.62,1.78-1.91-.87-2.31-7.49.36-4.55,1.11,2.47.45-6.9a14.3,14.3,0,0,1,1,8.49c.36.4.76,2.05,1.11,2.47.43-4.9-.52-12.22-.71-15.62a31.78,31.78,0,0,1,0,3.68l-2.17-13.52c.27-2.16.67-.48,1.06,1.18-.26-2.75-.84-4.63-1.15-8.67.89,1,1.73.7,2.44,6.41l-1.64-12.9c.31-.89.62-6.7,1-5,.09-7.21-2.59-17.53-2.47-27.08a16.4,16.4,0,0,1-.63-3.49c-.31-9,.27-16.94-1.45-27.48l1.16-6.1c-.8-8.29-1.42,8.25-2.75-5.55-1-9.76,1.07-3.73,1.29-7.18-1-4.83-3-13.21-2.3-22.27C136.59,241.91,136.5,244.25,136.76,247Zm-6.33-102.39c.32,2,1.2,5.89.68,7.38C129.82,149.81,130.29,148,130.43,144.63Zm55.51-93.32a19.29,19.29,0,0,1-6.35.13A40.64,40.64,0,0,1,185.95,51.31ZM453.74,217.36a2,2,0,0,0-.06-.21C453.83,212.7,453.76,214.28,453.74,217.36Zm.07,9.22c.19.92.33.84.45.45a20.1,20.1,0,0,1-.48-5C453.54,222.65,453.42,223.85,453.8,226.58ZM143.22,533.74l.17-1.8C143.9,536,143.58,534.85,143.22,533.74Z"/><path class="cls-2" d="M168.37,53.69a1.33,1.33,0,0,1-.88-.51C166.72,53.39,166.71,53.59,168.37,53.69Z"/><path class="cls-2" d="M140.83,310.7V311a.7.7,0,0,0,.2.3Z"/><path class="cls-2" d="M437.26,84.65a20,20,0,0,1,.33-3.68C437.33,80.88,437.17,81.75,437.26,84.65Z"/><path class="cls-2" d="M458.24,275.2l-.59-5.87a30.2,30.2,0,0,1,0,5.32C457.84,274.51,458.12,273.36,458.24,275.2Z"/><path class="cls-2" d="M454.74,326.67c.17.85.11,1.82.29,2.67l.46-.26C455.26,325.41,454.74,322.87,454.74,326.67Z"/><path class="cls-2" d="M455.14,280.84c-.83.51-.34,4.19.05,8.31,0-.25,0-.48,0-.73C456.42,289.57,455.78,285.2,455.14,280.84Z"/><path class="cls-2" d="M455.28,290.11c.11,1.27.21,2.57.23,3.81C456,294.38,455.52,292.37,455.28,290.11Z"/><path class="cls-2" d="M455,238.21c-.11,2,1.17,1.17.88,2.29C457.11,242.63,453.85,227.53,455,238.21Z"/><polygon class="cls-2" points="452.5 284.34 453.48 282.8 452.49 280.54 452.5 284.34"/><path class="cls-2" d="M451.47,251.73l.07,6.61c.17-.11.32.72.46,1.75C451.82,256,451.78,251.55,451.47,251.73Z"/><path class="cls-2" d="M452,260.08a41.1,41.1,0,0,0,.47,5.3C452.4,264.23,452.23,261.77,452,260.08Z"/><polygon class="cls-2" points="451.68 275.35 451.8 273.39 451.62 268.73 451.68 275.35"/><path class="cls-2" d="M447.76,180.86l-.7-7.18c-.4-.71-.52,1.26-.22,3.93C447.18,179.32,447.47,182,447.76,180.86Z"/><path class="cls-2" d="M446.06,202.77a10.45,10.45,0,0,1,.63-3.22l-1.33-.15Z"/><path class="cls-2" d="M444.59,181.81c-.4-.7-1.62-10.38-1-1.27C444,181.25,444.66,188.44,444.59,181.81Z"/><polygon class="cls-2" points="440.25 73.33 440.37 75.16 442.51 74.77 440.25 73.33"/><path class="cls-2" d="M380,44.16c8.55,0,2-1.44,9.69-1.22,2-.62-6.33-.18-4.3-.73C380.31,43,377.59,42.87,380,44.16Z"/><path class="cls-2" d="M385.42,42.2c.82-.13,1.69-.28,2.61-.47A24.84,24.84,0,0,0,385.42,42.2Z"/><polygon class="cls-2" points="454.3 553.15 459.8 553.3 456.22 552.77 454.3 553.15"/><path class="cls-2" d="M465.79,550.56a7.44,7.44,0,0,0,3.09-.29,7.94,7.94,0,0,0,1.67-6.87,7.58,7.58,0,0,1-.17,2.24,7.11,7.11,0,0,1-1.08,2.4A6.13,6.13,0,0,1,465.79,550.56Z"/><path class="cls-2" d="M132.36,129.25l-.35-.4c-.31.87-.27,2.15-.18,4.73Z"/><polygon class="cls-2" points="135.45 203.65 135.4 202.37 134.29 204.83 135.45 203.65"/><path class="cls-2" d="M140.49,266c-.09-2.55-.53-5.53-.62-8.09C140.4,263.41,139,266.74,140.49,266Z"/><text class="cls-3" transform="matrix(0.86, -0.52, 0.52, 0.86, 159.74, 184.03)">T</text><text class="cls-3" transform="translate(171.71 176.83) rotate(-27.43)">R</text><text class="cls-3" transform="translate(185.29 169.8) rotate(-23.65)">A</text><text class="cls-3" transform="matrix(0.94, -0.34, 0.34, 0.94, 200.1, 163.34)">D</text><text class="cls-3" transform="matrix(0.96, -0.29, 0.29, 0.96, 216.26, 157.67)">I</text><text class="cls-3" transform="translate(223.79 155.33) rotate(-14.5)">T</text><text class="cls-3" transform="matrix(0.98, -0.21, 0.21, 0.98, 237.43, 151.89)">I</text><text class="cls-3" transform="translate(245.1 150.13) rotate(-9.23)">O</text><text class="cls-3" transform="translate(263.29 147.22) rotate(-5.41)">N</text><text class="cls-3" transform="translate(280.75 145.62) rotate(-1.88)">A</text><text class="cls-3" transform="translate(296.94 145.16) rotate(1.15)">L</text><text class="cls-3" transform="translate(309.57 145.48) rotate(3.3)"> </text><text class="cls-3" transform="translate(316.97 145.84) rotate(5.76)">B</text><text class="cls-3" transform="translate(332.26 147.48) rotate(8.32)">I</text><text class="cls-3" transform="matrix(0.98, 0.18, -0.18, 0.98, 340.09, 148.6)">L</text><text class="cls-3" transform="matrix(0.97, 0.23, -0.23, 0.97, 349.95, 150.39)">T</text><text class="cls-3" transform="matrix(0.96, 0.28, -0.28, 0.96, 362.53, 153.23)">O</text><text class="cls-3" transform="translate(380.13 158.49) rotate(20.8)">N</text><text class="cls-3" transform="translate(396.48 164.75) rotate(25)">G</text><path class="cls-4" d="M140.14,177.63c.13,0,.36-.09.49-.1a5.8,5.8,0,0,1,3.84-.17c.23.09.47.08.68.18s.72.26,1.06.39a10.69,10.69,0,0,1,1.22.53c.45.21.89.42,1.36.58a2.92,2.92,0,0,0,.67.28,4.59,4.59,0,0,0,.76.15,1.26,1.26,0,0,1,.48.15c0,.11,0,.26-.16.3a4.09,4.09,0,0,1-1.26.11,4.36,4.36,0,0,1-.72-.1c-.24,0-.5,0-.73-.11a13,13,0,0,0-1.3-.2c-.36,0-.72-.06-1.09,0a6.26,6.26,0,0,1-1.67-.17c-.43-.06-.84-.19-1.25-.27a7.45,7.45,0,0,1-1-.33,3.66,3.66,0,0,1-1-.67,1.79,1.79,0,0,0-.4-.38C140.07,177.73,140.07,177.65,140.14,177.63Zm8.06,14.49a6.9,6.9,0,0,0,.12-.74,3,3,0,0,0,0-.88,2.55,2.55,0,0,1,0-.54,8,8,0,0,0,.13-.91c0-.14.15-.25.16-.38a2.07,2.07,0,0,1,.22-.67c.11-.21.15-.44.24-.68s.23-.52.37-.78c.23-.42.42-.86.66-1.26s.44-.77.66-1.15a5.13,5.13,0,0,0,.39-.66,2.51,2.51,0,0,1,.33-.63,3,3,0,0,1,.48-.47c.18-.07.32.16.27.42-.09.07-.08.29-.11.42-.14.53-.26,1-.4,1.57s-.25,1.3-.37,1.92c-.07.21,0,.44-.11.66a1.79,1.79,0,0,0-.08.61,1.06,1.06,0,0,1-.1.5c-.24.56-.41,1.16-.66,1.72-.13.27-.33.52-.47.79a5.51,5.51,0,0,1-1.36,1.45C148.32,192.58,148.2,192.48,148.2,192.12Zm-7-5.57a6.24,6.24,0,0,1,.61-.68c.09-.2.32-.36.41-.56a2,2,0,0,1,.41-.52,5.74,5.74,0,0,1,1.8-1.17,13.51,13.51,0,0,0,1.48-.48c.26-.12.56-.16.82-.3a3.77,3.77,0,0,1,.6-.26c.41-.13.8-.37,1.22-.47s.58-.21.86-.36.39-.16.6-.26a1.17,1.17,0,0,1,.65-.07c.27,0,.16.31-.07.48a4.94,4.94,0,0,1-1,.9l-1.18.8c-.26.14-.47.35-.73.46a6,6,0,0,0-.71.51,4.28,4.28,0,0,0-.5.33c-.17.12-.27.27-.42.37a2.31,2.31,0,0,0-.49.34,4.15,4.15,0,0,1-.7.47,6.75,6.75,0,0,1-1.29.63,5.52,5.52,0,0,1-1.34.12c-.19,0-.38.11-.57,0C141.31,186.93,141.18,186.83,141.17,186.55Z"/><path class="cls-4" d="M430.14,165.22a2.18,2.18,0,0,0-.42.36,3.57,3.57,0,0,1-1,.64,7.71,7.71,0,0,1-1,.3c-.41.07-.83.19-1.26.23a6.23,6.23,0,0,1-1.68.12,9.77,9.77,0,0,0-1.08,0,11.71,11.71,0,0,0-1.3.16c-.24.06-.5,0-.74.1a4.34,4.34,0,0,1-.73.08,3.94,3.94,0,0,1-1.25-.15c-.13,0-.13-.19-.16-.3a1.24,1.24,0,0,1,.49-.14,4,4,0,0,0,.76-.13,2.94,2.94,0,0,0,.68-.26c.47-.15.92-.35,1.38-.54a11.42,11.42,0,0,1,1.23-.49c.34-.13.72-.22,1.07-.37s.46-.08.69-.15a6.85,6.85,0,0,1,1.67-.21,7.06,7.06,0,0,1,2.17.48c.13,0,.36.09.48.12S430.15,165.17,430.14,165.22Zm-8.9,14.41a5.59,5.59,0,0,1-1.33-1.49c-.12-.27-.31-.52-.43-.8-.25-.57-.39-1.17-.61-1.74a1.11,1.11,0,0,1-.09-.5,1.77,1.77,0,0,0-.06-.62c-.05-.22,0-.45-.09-.66-.11-.63-.17-1.42-.32-1.93s-.23-1-.36-1.57c0-.13,0-.34-.1-.43,0-.26.11-.49.29-.41a3.55,3.55,0,0,1,.46.49,2.56,2.56,0,0,1,.31.64,5.15,5.15,0,0,0,.37.68c.22.38.44.77.63,1.16s.41.86.63,1.29c.13.25.24.52.34.78s.12.47.22.68a2.33,2.33,0,0,1,.21.68c0,.13.14.24.14.38a7.13,7.13,0,0,0,.12.91,2.73,2.73,0,0,1,0,.53,3.21,3.21,0,0,0,0,.89c.07.24,0,.51.1.74S421.47,179.77,421.24,179.63Zm7.1-5.42c-.18.07-.37,0-.56,0a6,6,0,0,1-1.34-.15,6.93,6.93,0,0,1-1.28-.68,3.43,3.43,0,0,1-.68-.49,3,3,0,0,0-.48-.35c-.15-.1-.25-.26-.41-.38a3.72,3.72,0,0,0-.49-.35,5.08,5.08,0,0,0-.69-.53c-.25-.12-.45-.34-.71-.48s-.77-.55-1.16-.84a5.12,5.12,0,0,1-1-.92c-.22-.18-.32-.46-.06-.48a1.13,1.13,0,0,1,.66.09c.19.1.39.16.58.28s.58.21.85.39.8.36,1.2.5a3.85,3.85,0,0,1,.6.28c.26.15.54.2.8.32a15.56,15.56,0,0,0,1.47.53,5.71,5.71,0,0,1,1.75,1.22,1.85,1.85,0,0,1,.39.53c.09.21.31.37.4.58a5,5,0,0,1,.6.7C428.79,174.23,428.65,174.33,428.34,174.21Z"/><text class="cls-5" transform="translate(193.42 283.97) rotate(-3.15)">BEEF</text><text class="cls-6" transform="translate(210.53 314.14) rotate(-3.15)">A<tspan class="cls-7" x="12.9" y="0">I</tspan><tspan x="19.07" y="0">R-DRIED SLICES</tspan></text><path class="cls-8" d="M424.85,473.45c-4.39-10.59-8.15-25.43-6.91-36.55.83-7.37,1.42-14.77,2.26-22.14.45-2.34,3.07-11.94,1-13.72-7.91-6.66-29.23.12-38.49,1-7.52.7-15.13-.12-22.61,1.13-5.2.87-11.2,4.88-16.48,4.74,0,0-10-1-11.3-.65-1.49.34-13.71,2.4-14.13,2.84-2.27-2.27-15-1.87-18.45-2.06a138.21,138.21,0,0,0-23.86.75c-16,1.73-31.93,3.17-48,3.55-7.89.19-15.79.33-23.66.91s-17.33,3.06-24.12,2.62c-1.61-.11,6.13,35.33,7.24,38.6-2.82,5.71-3.83,12.07-5.47,18.11-1.23,4.53-5.13,13.61-2.85,18.14,1.91,3.78,4.26,2.49,9.61,1.74,9.76-1.39,19.42-3.35,29.13-5.06,6.22-1.09,12.63-2.35,19-1.81,8.32.71,15.69,2.82,24,.54,6.87-1.88,13.53-5,20.77-5.38,6.32-.34,12.23-.39,18.83-.61,16.16-.54,32.59-.81,48.74-.88,5,0,5.1-2.09,9.69.09a20,20,0,0,0,8.86,1.83c8.14-.12,15.89-4.18,23.86-1.87,8.39,2.43,16.29.72,24.76,1.41,1.19.1,7.74,2,8.38,1,1.19-1.91,1.08-6.31.26-8.28C421.42,465.19,425.45,474.89,424.85,473.45Z"/><text class="cls-9" transform="translate(350.37 471.53) rotate(-3.21)">E<tspan class="cls-10" x="5.28" y="0">A</tspan><tspan x="9.93" y="0">T OUR ME</tspan><tspan class="cls-10" x="49.66" y="0">A</tspan><tspan class="cls-11" x="54.31" y="0">T</tspan><tspan class="cls-12" x="60.05" y="-1.38">™</tspan></text><path class="cls-13" d="M442,545.55a17.77,17.77,0,1,1,16.82-18.68A17.79,17.79,0,0,1,442,545.55Zm-1.84-35.07a17.35,17.35,0,1,0,18.23,16.41A17.36,17.36,0,0,0,440.16,510.47Z"/><path class="cls-13" d="M438.81,518.43c.07,1.27-.53,1.93-1.5,2s-1.61-.56-1.68-1.78l-.13-2.45.65,0,.13,2.41c0,.79.42,1.2,1,1.16s.91-.45.87-1.23l-.13-2.44.65,0Z"/><path class="cls-13" d="M439.6,520.23l0-.83.71,0,0,.83Z"/><path class="cls-13" d="M443.5,517.56c.8.17,1.22.47,1.26,1.19a1.22,1.22,0,0,1-1.26,1.34,2.17,2.17,0,0,1-1.58-.6l.36-.56a1.61,1.61,0,0,0,1.2.49c.4,0,.65-.25.63-.57s-.17-.47-.87-.61-1.26-.42-1.3-1.21a1.2,1.2,0,0,1,1.2-1.3,1.91,1.91,0,0,1,1.37.46l-.32.58a1.55,1.55,0,0,0-1-.38c-.38,0-.59.25-.58.54S442.78,517.4,443.5,517.56Z"/><path class="cls-13" d="M445.48,519.92l0-.83.7,0,0,.83Z"/><path class="cls-13" d="M431.36,522.43l.13,2.46-.38,0-.13-2.47Z"/><path class="cls-13" d="M433.74,522.31l.37,0,.13,2.46-.32,0-1.28-1.69.09,1.75-.37,0-.13-2.46.35,0,1.24,1.65Z"/><path class="cls-13" d="M435.86,523.23c.46.11.71.28.73.69a.7.7,0,0,1-.73.78,1.24,1.24,0,0,1-.92-.34l.21-.33a.93.93,0,0,0,.7.29c.24,0,.38-.14.37-.34s-.1-.27-.5-.35-.74-.24-.76-.7a.7.7,0,0,1,.7-.76,1.1,1.1,0,0,1,.79.26l-.18.34a.88.88,0,0,0-.6-.22c-.22,0-.34.14-.33.31S435.44,523.14,435.86,523.23Z"/><path class="cls-13" d="M438.15,523.75l-.43,0,0,.79-.38,0-.13-2.46.85,0a.77.77,0,0,1,.86.78A.8.8,0,0,1,438.15,523.75Zm-.06-1.28-.44,0,0,.88.44,0a.42.42,0,0,0,.44-.46A.42.42,0,0,0,438.09,522.47Z"/><path class="cls-13" d="M441.23,522.3l-1.22.06,0,.64,1.08-.06,0,.39-1.08.06,0,.66,1.24-.06,0,.39-1.61.08-.13-2.46,1.6-.08Z"/><path class="cls-13" d="M443.12,524.33a1.29,1.29,0,0,1-.12-2.55,1.05,1.05,0,0,1,.86.34l-.22.33a.82.82,0,0,0-.62-.28.79.79,0,0,0-.67.91.73.73,0,0,0,1.36.49l.26.27A1.09,1.09,0,0,1,443.12,524.33Z"/><path class="cls-13" d="M445.6,524.15l-.38,0-.11-2.06-.68,0,0-.41,1.75-.09,0,.4-.68,0Z"/><path class="cls-13" d="M448.48,521.92l-1.22.06,0,.64,1.08-.06,0,.39-1.08.06,0,.66,1.23-.07,0,.39-1.61.08-.13-2.46,1.6-.08Z"/><path class="cls-13" d="M450.16,523.92l-.8,0-.13-2.46.8,0a1.24,1.24,0,0,1,.13,2.46Zm-.11-2.07-.43,0,.09,1.68.42,0a.84.84,0,0,0-.09-1.67Z"/><path class="cls-13" d="M428.84,529.27l-.4,0-.25-.58-1,.05-.19.61-.39,0,.82-2.53.35,0Zm-1.23-1.91-.32,1,.74,0Z"/><path class="cls-13" d="M430.89,526.7l.37,0,.13,2.46-.32,0-1.28-1.69.09,1.75-.37,0-.13-2.46.35,0L431,528.4Z"/><path class="cls-13" d="M433.06,529l-.8,0-.13-2.46.8,0a1.24,1.24,0,0,1,.13,2.47Zm-.11-2.07-.42,0,.09,1.67.43,0a.76.76,0,0,0,.71-.87A.77.77,0,0,0,432.95,527Z"/><path class="cls-13" d="M437,528.05l-.43,0,0,.79-.38,0-.13-2.46.85,0a.77.77,0,0,1,.86.79A.81.81,0,0,1,437,528.05Zm-.05-1.28-.44,0,0,.89.44,0a.43.43,0,0,0,.44-.47A.41.41,0,0,0,436.91,526.77Z"/><path class="cls-13" d="M440.4,528.66l-.4,0-.25-.58-1,.05-.19.61-.39,0,.82-2.53.35,0Zm-1.23-1.91-.32,1,.74,0Z"/><path class="cls-13" d="M441.8,527.16c.46.1.71.28.73.69a.71.71,0,0,1-.73.78,1.22,1.22,0,0,1-.92-.35l.21-.32a.94.94,0,0,0,.7.29c.23,0,.38-.14.36-.33s-.1-.27-.51-.36-.73-.24-.76-.69a.7.7,0,0,1,.7-.76,1.13,1.13,0,0,1,.8.27l-.19.34a.92.92,0,0,0-.6-.22.31.31,0,0,0-.33.31C441.28,527,441.38,527.07,441.8,527.16Z"/><path class="cls-13" d="M444,527c.46.11.71.28.73.69a.71.71,0,0,1-.73.78,1.23,1.23,0,0,1-.92-.35l.21-.32a.93.93,0,0,0,.7.28c.23,0,.38-.14.36-.33s-.1-.27-.51-.36-.73-.24-.76-.7a.7.7,0,0,1,.7-.76,1.11,1.11,0,0,1,.8.27l-.19.34a.91.91,0,0,0-.6-.22c-.22,0-.34.15-.33.31S443.63,527,444,527Z"/><path class="cls-13" d="M447.05,526.23l-1.22.07,0,.64,1.08-.06,0,.39-1.08.06,0,.66,1.24-.07,0,.39-1.62.08-.13-2.46,1.6-.08Z"/><path class="cls-13" d="M448.74,528.23l-.8,0-.13-2.46.8,0a1.24,1.24,0,0,1,.13,2.46Zm-.11-2.07-.42,0,.09,1.67.43,0a.84.84,0,0,0-.09-1.68Z"/><path class="cls-13" d="M453.46,526.14a.58.58,0,0,1-.28.57.59.59,0,0,1,.46.58c0,.45-.28.7-.76.72l-1,.05-.13-2.46,1-.05A.63.63,0,0,1,453.46,526.14Zm-.38.09c0-.2-.15-.31-.4-.3l-.54,0,0,.66.52,0C452.94,526.58,453.09,526.46,453.08,526.23Zm.17,1c0-.21-.16-.32-.46-.31l-.6,0,0,.67.63,0C453.12,527.62,453.27,527.49,453.25,527.26Z"/><path class="cls-13" d="M455.33,527.88l-.38,0-.05-1-.93-1.45.45,0,.66,1.06.55-1.12.43,0-.78,1.53Z"/><path class="cls-13" d="M427,533.61l-.8,0-.13-2.47.8,0a1.24,1.24,0,0,1,.13,2.47Zm-.11-2.07-.42,0,.09,1.67.42,0a.75.75,0,0,0,.71-.87A.76.76,0,0,0,426.89,531.54Z"/><path class="cls-13" d="M430.4,531.35l-1.22.07,0,.64,1.08-.06,0,.39-1.08.06,0,.66,1.24-.07,0,.39-1.61.09-.13-2.47,1.6-.08Z"/><path class="cls-13" d="M432,532.55l-.43,0,0,.79-.38,0-.13-2.47.85,0a.77.77,0,0,1,.86.78A.8.8,0,0,1,432,532.55Zm-.06-1.28-.44,0,0,.88.44,0a.43.43,0,0,0,.44-.47A.41.41,0,0,0,432,531.27Z"/><path class="cls-13" d="M435.49,533.16l-.4,0-.25-.58-1,.05-.19.6-.38,0,.82-2.53.35,0Zm-1.23-1.91-.32,1,.74,0Z"/><path class="cls-13" d="M437.54,533.05l-.57-.83-.48,0,0,.85-.38,0-.13-2.46,1-.05a.74.74,0,0,1,.84.74.72.72,0,0,1-.48.77l.63.9Zm-.56-2-.55,0,0,.82.55,0a.4.4,0,0,0,.42-.44A.39.39,0,0,0,437,531Z"/><path class="cls-13" d="M439.59,532.94l-.38,0-.11-2.06-.68,0,0-.4,1.75-.1,0,.41-.68,0Z"/><path class="cls-13" d="M442,532.21h0l-.73-1.12.09,1.76-.37,0-.13-2.46.4,0,.72,1.13.59-1.2.4,0,.13,2.47-.38,0-.09-1.77Z"/><path class="cls-13" d="M445.45,530.56l-1.22.06,0,.64,1.08-.06,0,.39-1.08.06,0,.66,1.23-.06,0,.39-1.61.08-.13-2.46,1.6-.08Z"/><path class="cls-13" d="M447.71,530.05l.37,0,.13,2.47h-.32l-1.28-1.69.09,1.75-.37,0-.13-2.47.35,0,1.25,1.64Z"/><path class="cls-13" d="M450,532.4l-.38,0-.11-2.06-.68,0,0-.4,1.75-.09,0,.41-.68,0Z"/><path class="cls-13" d="M453.63,532.25a1.18,1.18,0,0,1-1.19-1.21,1.14,1.14,0,1,1,1.19,1.21Zm-.11-2.15a.79.79,0,0,0-.68.91.81.81,0,0,0,.78.84.79.79,0,0,0,.68-.91A.8.8,0,0,0,453.52,530.1Z"/><path class="cls-13" d="M457,530l-1.23.06,0,.67,1.09-.06,0,.39-1.09.06.05,1-.38,0-.13-2.47,1.61-.08Z"/><path class="cls-13" d="M431.26,537.62l-.4,0-.25-.58-1,.05-.19.61-.39,0,.82-2.53.35,0Zm-1.23-1.9-.32,1,.74,0Z"/><path class="cls-13" d="M432.83,537.58a1.16,1.16,0,0,1-1.19-1.21,1.19,1.19,0,0,1,1-1.34,1.09,1.09,0,0,1,.85.29l-.22.34a.74.74,0,0,0-1.27.67c0,.51.34.87.78.85a.78.78,0,0,0,.51-.21l0-.46-.55,0,0-.38.92,0,.05,1A1.27,1.27,0,0,1,432.83,537.58Z"/><path class="cls-13" d="M435.9,537.37l-.58-.83-.48,0,0,.86-.38,0-.13-2.46,1-.05a.79.79,0,0,1,.37,1.51l.63.9Zm-.56-2-.55,0,0,.83.56,0a.4.4,0,0,0,.42-.44C435.8,535.45,435.62,535.32,435.34,535.33Z"/><path class="cls-13" d="M437.33,534.83l.13,2.47-.38,0-.13-2.46Z"/><path class="cls-13" d="M439.34,537.24a1.29,1.29,0,0,1-.12-2.55,1.06,1.06,0,0,1,.86.34l-.23.33a.8.8,0,0,0-.62-.27.9.9,0,0,0,.09,1.75.82.82,0,0,0,.6-.35l.26.27A1.06,1.06,0,0,1,439.34,537.24Z"/><path class="cls-13" d="M442.67,535.95c0,.74-.3,1.12-.87,1.16s-.94-.32-1-1l-.07-1.42.38,0,.07,1.4c0,.46.24.7.58.67s.53-.26.51-.71l-.07-1.42.38,0Z"/><path class="cls-13" d="M443.42,534.51l.38,0,.11,2.07,1.13-.06,0,.39-1.51.08Z"/><path class="cls-13" d="M446.36,536.83l-.38,0-.11-2.06-.68,0,0-.4,1.75-.09,0,.4-.68,0Z"/><path class="cls-13" d="M449.51,535.59c0,.74-.3,1.13-.87,1.16s-.93-.32-1-1l-.08-1.42.38,0,.07,1.4c0,.46.24.69.58.67s.53-.26.51-.71l-.07-1.42.38,0Z"/><path class="cls-13" d="M451.77,536.54l-.57-.83-.48,0,0,.86-.38,0-.13-2.46,1-.05a.79.79,0,0,1,.37,1.52l.63.9Zm-.56-2-.55,0,0,.83.56,0a.4.4,0,0,0,.42-.43A.39.39,0,0,0,451.21,534.5Z"/><path class="cls-13" d="M454.41,534.32l-1.22.07,0,.64,1.08-.06,0,.39-1.08.06,0,.66,1.23-.07,0,.39-1.61.09-.13-2.47,1.6-.08Z"/><text class="cls-14" transform="matrix(1, -0.05, 0.05, 1, 271.54, 552.54)">NET WT 2 OZ (57G)</text><path class="cls-13" d="M271.47,63.48c-2.17.47-4.42,1.67-4.17,6.13l.44,8c0,.61.06,3.16-2.2,4.21,2.47.79,2.64,3.86,2.65,4.05l.43,7.83c.23,4.26,2.61,5.52,4.78,5.63a.41.41,0,0,1,.41.4v0a.34.34,0,0,1-.37.37c-1.19-.05-5.36-.71-5.65-6l-.44-8.1a4,4,0,0,0-2.52-3.75.37.37,0,0,1-.33-.37.41.41,0,0,1,.28-.44c1.21-.49,2.21-1.82,2.09-4l-.45-8.1c-.29-5.26,3.7-6.36,5-6.59a.35.35,0,0,1,.4.32A.46.46,0,0,1,271.47,63.48Z"/><path class="cls-13" d="M293.69,61.79a.36.36,0,0,1,.37-.37c1.31.08,5.4.74,5.69,6l.45,8.1c.12,2.23,1.27,3.44,2.52,3.79a.42.42,0,0,1,.33.41.37.37,0,0,1-.29.4,4,4,0,0,0-2.09,4l.45,8.11c.29,5.3-3.77,6.41-5,6.59a.33.33,0,0,1-.4-.33v0a.41.41,0,0,1,.36-.44c2.14-.35,4.37-1.86,4.13-6.13l-.43-7.83c0-.19-.18-3.27,2.19-4.32-2.35-.8-2.61-3.32-2.64-3.94l-.44-8c-.24-4.46-2.61-5.4-4.82-5.63A.46.46,0,0,1,293.69,61.79Z"/><text class="cls-15" transform="translate(274.89 85.56) rotate(-3.15)">0</text><text class="cls-15" transform="translate(286.83 84.9) rotate(-3.15) scale(0.5)">g</text><text class="cls-16" transform="translate(274.79 95.73) rotate(-3.15)">SUGAR</text><path class="cls-13" d="M212.19,66.74c-2.17.46-4.42,1.67-4.17,6.12l.44,8c0,.61.06,3.16-2.2,4.2,2.47.79,2.64,3.86,2.65,4.05l.43,7.84c.23,4.26,2.62,5.52,4.78,5.63a.42.42,0,0,1,.41.4v0a.33.33,0,0,1-.36.37c-1.2,0-5.36-.71-5.65-6l-.45-8.11a4,4,0,0,0-2.52-3.75.38.38,0,0,1-.33-.37.42.42,0,0,1,.28-.44c1.21-.49,2.21-1.81,2.09-4l-.45-8.11c-.29-5.26,3.69-6.37,5-6.59a.35.35,0,0,1,.4.32A.46.46,0,0,1,212.19,66.74Z"/><path class="cls-13" d="M246.93,64.37a.36.36,0,0,1,.37-.37c1.31.09,5.4.74,5.68,6l.45,8.1c.12,2.23,1.27,3.44,2.52,3.79a.41.41,0,0,1,.33.4.38.38,0,0,1-.29.4,4,4,0,0,0-2.09,4l.45,8.11c.29,5.3-3.77,6.41-5,6.59a.34.34,0,0,1-.4-.32v0a.42.42,0,0,1,.36-.45c2.14-.35,4.37-1.86,4.13-6.12l-.43-7.84c0-.19-.18-3.27,2.19-4.32-2.36-.79-2.61-3.32-2.64-3.94l-.44-8c-.25-4.45-2.61-5.4-4.82-5.63A.46.46,0,0,1,246.93,64.37Z"/><text class="cls-15" transform="translate(214.34 88.89) rotate(-3.15)">180</text><text class="cls-16" transform="translate(217.25 98.9) rotate(-3.15)">CA<tspan class="cls-17" x="8.02" y="0">L</tspan><tspan x="10.8" y="0">ORIES</tspan></text><path class="cls-13" d="M317.87,60.92c-2.17.47-4.42,1.67-4.17,6.13l.44,8c0,.61.06,3.15-2.2,4.21,2.47.79,2.64,3.86,2.65,4.05l.43,7.83c.23,4.27,2.62,5.52,4.78,5.63a.42.42,0,0,1,.41.41v0a.33.33,0,0,1-.37.37c-1.19,0-5.35-.7-5.65-6l-.45-8.1a4,4,0,0,0-2.52-3.75.38.38,0,0,1-.33-.37.42.42,0,0,1,.28-.44c1.21-.49,2.21-1.82,2.09-4l-.45-8.11c-.29-5.26,3.7-6.37,5-6.59a.35.35,0,0,1,.4.32A.46.46,0,0,1,317.87,60.92Z"/><path class="cls-13" d="M348.61,58.76a.36.36,0,0,1,.37-.37c1.31.08,5.4.74,5.69,6l.44,8.1c.13,2.22,1.27,3.44,2.52,3.79a.41.41,0,0,1,.33.41.37.37,0,0,1-.29.4,4,4,0,0,0-2.09,4l.45,8.1c.29,5.3-3.77,6.41-5,6.59a.34.34,0,0,1-.4-.33v0A.42.42,0,0,1,351,95c2.14-.35,4.37-1.86,4.13-6.12L354.73,81c0-.2-.18-3.27,2.19-4.32-2.35-.79-2.61-3.33-2.64-3.94l-.44-8c-.25-4.46-2.61-5.41-4.82-5.63A.46.46,0,0,1,348.61,58.76Z"/><text class="cls-15" transform="translate(321.13 83.01) rotate(-3.15)">31</text><text class="cls-15" transform="translate(341.68 81.88) rotate(-3.15) scale(0.5)">g</text><text class="cls-16" transform="translate(322.64 93.1) rotate(-3.15)">PR<tspan class="cls-18" x="7.45" y="0">O</tspan><tspan x="11.69" y="0">TEIN</tspan></text><text class="cls-19" transform="translate(362.03 78.19) rotate(-3.15)">PER <tspan class="cls-20" x="9.75" y="0">P</tspan><tspan class="cls-21" x="12.2" y="0">A</tspan><tspan class="cls-22" x="15.07" y="0">CK</tspan><tspan class="cls-21" x="21.27" y="0">A</tspan><tspan x="24.15" y="0">GE</tspan></text><path class="cls-23" d="M343.38,186.9c-1.5-2.74-1.86-7-3.38-9.74.65-3.17,1-6.55,1.58-9.81a5,5,0,0,0,.17-1c.17-.9.34-1.8.55-2.68.15-.62-.24-1.19-.51-.84,0,0,0-.05,0-.06-5.11-1.19-10.32-.39-15.38.32s-10.29-.16-15.26,1.4c-1.12,0-1.61.64-2.72.68-.59,0-.81.26-1.4.26,0-.27-.92.22-1.08.15-2.21-1-4.5-.17-6.7.27-.62.12-1.24.28-1.86.42-.55,0-1.09-.06-1.63-.07a.35.35,0,0,0-.24.09.3.3,0,0,0-.17-.09c-3.78-.2-7.62-.67-11.41-.49-.06-.16-.15-.28-.26-.27-7.88.61-15.75,1.52-23.65,1.86-8.89.39-17.86.2-26.68,1.88-.21-.57-.71-.21-.59.54a48.91,48.91,0,0,0,1.61,6.58,53.49,53.49,0,0,0,1.78,5.43,23.91,23.91,0,0,0-2.28,5.3c-.57,1.65-1.89,4.42-1.75,6.55,0,.2.14.43.25.33l0,0c-.05.41.08.93.36.9,6.92-.59,13.82-1.86,20.73-2.72.06.11.13.19.23.17,4.57-1.17,9.23.72,13.82,0,4.89-.78,9.28-2.87,14.28-2,.11,0,.19-.07.25-.18a.45.45,0,0,0,.29.08,54.13,54.13,0,0,1,6.28-.43c2.13.09,4.26.12,6.38.09,3.68.23,7.35-.54,11-.63,1.95,0,4.17.36,6.11-.53,3.1,1.58,6.21,1.21,9.33.68,1.73-.3,3.47-.48,5.21-.64,3.13.74,6.34,1.28,9.38.43,2.24.37,4.51.1,6.75.71.49.13.76-.7.7-1.41A2,2,0,0,0,343.38,186.9Z"/><path class="cls-1" d="M255.87,186.23l0,.43-.49.12-.55,0h-.33l-.67.09h-.37l-.41-.15-.37-.25-.12-.31-.18-.33-.35-.26-.39-.17-.39.07-.32,0-1.73.12-.32,0-.73.12-.34,0-.36.21-.32.35-.29.6-.31.34-.4.15-1,.08h-.35l-.69.07-.36-.08-.11-.44.09-.36.31-.72.07-.32.18-.25.22-.72.29-.58.1-.36.16-.27.08-.39,1.59-3.87.08-.32.18-.34L247,178l.18-.28.62-1.66.14-.26.1-.36.14-.31.3-.32.55-.23.59.14.32.3.37.6.12.31.21.31.12.35,1.3,2.38.14.37.41.63.12.28.17.26.13.38.2.33.19.25.76,1.56.39.62.28.64.53.89.3.64Zm-11.54.3v-.09l.17,0,0-.14.16-.08.2.06.12-.09,0,0-.14,0,.06-.15.1-.08.1-.15v-.09l0-.11,0-.11.12-.1,0-.07h-.07l-.16-.06,0,0,.07,0,.08,0,.08-.1-.05-.06h-.07l-.08,0-.07,0-.16,0,0,.06,0,.12h-.07l0,0-.12.06-.05.07,0,.09.18.08.06.07,0,.09-.09,0h-.1l-.05.07v.07h-.2l-.07,0-.08.06,0,.11,0,0h.09l0,.15-.14.08,0,.19,0,.1,0,.11-.11,0,0-.11H244v.09l.09.06.11.09.09,0,.15-.09Zm0,.46h-.07v0h.07Zm.31-1-.06-.07,0-.11h.09l.11,0-.05.08Zm.73.38-.17-.08-.07-.08-.11,0,0,0,0,.18,0,.11-.11,0-.14,0v.09l.06.09,0,.08,0,.05-.07.05-.14,0,.06.12.09.08V187l.11,0,.17.12h.19l.14,0v-.17l-.15-.1-.08.14-.11-.08.08-.13,0-.1.09,0,.07.05v-.11l0-.08Zm-.47-.52-.11,0,.11,0Zm0,.88H245l-.05,0Zm-.1-2.15,0,.08,0,.13.05.06H245l.15-.06,0,0H245l-.11-.1Zm.2,0,.07.08h.07l.09,0-.11,0Zm.19-.4.12,0V184l-.06.09Zm8.93,1.45-.09-.33-.46-1-.37-.56-1.84-3.5-.2-.5-1.63-3-.23-.34h-.25l-.18.36-.24.68-.16.29-.1.41-.29.6-.11.36-.42,1-.1.36-.3.62-.11.32-.16.33-.08.38-.16.27-.14.31-.61,1.73-.15.27-.4,1,0,.29.23.06.58-1.25.28-.31.43-.15h.67l.32-.07.37,0,2,0,1.93-.22.36,0,.39.15.33.26.45.81.26.29Zm-8.87-1.22,0,0h.05l0,0Zm.14,0,0,.09,0,.11,0-.11v-.14Zm1.93,1.07-.15-.11-.13.13h-.16l-.15-.1,0,.08.06.12v.09l-.1,0h-.25l-.07,0h-.18v.09l-.07,0-.06.17,0,.1,0,.05-.07,0h-.11l-.06.05,0,.09,0,.11-.15.13.06.16h.14v.09l-.07,0h-.12v.07l.18,0,.09,0,0,.16.06.07,0-.07,0-.07H246l.09,0,.1,0,.05-.06,0-.19,0-.09.07-.09h.1l0,0v-.34l0-.08.09.07,0,.16.09,0,0-.15v-.11h.09l.07,0,0-.11.18-.06.08-.11.13-.12Zm-1.92-2.51,0,.07.06,0h.05l0,0,0-.05Zm.09,1.05,0,0h0v0Zm.1-.5-.1.11v.09l.07,0v0l.09,0,.07,0,.08-.11.1,0,.09-.06-.21,0Zm.77,2.36,0,.09,0,.17-.07.09-.1.15-.08.07-.19.06-.06-.12.19-.08,0-.07.08-.2,0-.09,0-.07.09,0Zm-.45-3.95H246v0l0,0Zm0,.4,0,.11.18,0,0-.09Zm.31,3.45h-.05v0Zm.18-.36v.1l.11,0v-.09Zm.13-.17.09,0h.1l.15-.13V185l-.06-.05-.12-.06-.1.08-.11,0-.1.13Zm-.13-3.65,0,0h0Zm3.2-3.78,2.88,5.44v.35l-.25.18L248,184l-.69,0-.35,0-.27-.14-.09-.3,1.23-3.1.14-.26,1-2.67.24-.19.25.13ZM246.75,185l0,0,0-.05Zm-.14-3.93,0,0,.05.05h0l0,0,0-.05Zm.81,3.82h-.09l-.05.07-.1,0,0-.11-.11-.12-.09.07.11.13.11,0-.08.08h.07l.12,0,.09,0Zm-.12-1.55,0-.1-.09,0,0,.1Zm-.3-3.94,0,0v-.07l0,0Zm.59,4.23h-.09l-.06-.08h-.12l.08.08h.2Zm-.26-.53,0,0,0,0v0Zm1.09,1.76.08-.06h.11l-.07-.06-.18-.06-.11,0,0,.09,0,.19-.12.15L248,185l-.09,0-.11-.06-.16.06-.07.09,0,.08-.08.08,0,0,.16,0,.07-.06,0-.11h.13l.06.16.07.06.07,0,.16,0v-.09l.06-.2,0-.09Zm-.8,0,.07-.06,0,0-.07,0Zm-.05-2.52h.09l.06.07,0,.11.07,0,.09,0,.14,0,0-.1-.09.06-.14,0-.08-.08-.07-.07-.11,0Zm-.14-3.53.06.07h.09l-.06-.08Zm0,.46,0,.1v-.07Zm.66,3.94H248l0,0v0l-.1,0-.05,0-.13.14.12.17h.07l.15-.1,0-.19,0-.09h.09Zm-.47-1.16.11.08.08.08.07-.07-.11,0-.07-.08-.06-.08Zm.12.95v.07l.08,0V183Zm-.23-4.9,0,.07.05,0,0-.07Zm.25,3.34h.07v-.05h-.07Zm.19,1.16-.12,0,.08.09.07,0Zm-.13-.86v.07h.07v-.07Zm-.07-4.2,0,.05.11.07,0-.13,0-.09-.07-.06-.05.09.06.07-.06,0h-.12Zm.32,5.53.16,0V183h-.16Zm-.31-6,.09.06.06.07,0-.13h-.2Zm.31,5.67.05,0,.11,0-.06-.07Zm.24.77,0,0v.06h.05Zm-.11-3,0,0v0Zm.18.29v0l.05,0v-.05l-.13,0-.07.06h.07Zm.47,4.34,0-.12-.05-.07,0,.06v.09l-.1,0-.06,0v0l-.07.09.05.07.12-.08.09-.08Zm-.45-3.63,0-.1-.07,0,0,.09Zm-.29-4.35.13,0,.07-.13,0-.09.07-.1.08-.15,0,0,0,.05-.06.09-.08,0,0,.07-.07.09Zm0-.67.08.09,0-.09,0-.09.05-.05,0-.09h-.12l-.06.14Zm2.16,6.19.26-.16.05-.32-.93-1.89-.25-.13-.19.17-.72,1.95,0,.33.29.11.41-.05.35,0Zm-1.87-2.3h.05l0-.09,0,0Zm.26,3.2,0-.07h-.05v0Zm-.17-3.73,0,.12.09,0h.18l0-.14h-.26Zm-.19-4,.06.07.12.16,0,.07.08.08.08-.11,0-.08,0-.08h.11l.07,0,.12-.06.12,0-.07-.1,0-.11.07-.09.1-.06.09,0,.11,0h.2v-.05l0-.07v-.08l-.13-.06-.17.15h-.06l.08-.07-.11-.06,0,.12,0,.07-.07,0,0-.08-.09-.07-.11,0h-.15l-.09.06,0,.09,0,.18-.16.1.06.16,0,.09.19,0,.11-.06.07,0,.11,0-.1.06-.08,0-.09,0-.12,0-.13-.06-.06-.08Zm.3,4.5h-.05l0,0,0,0Zm-.14-3.88,0,.07h.07v-.05Zm.81,8.65,0-.14-.11,0H249l.07.11.08,0Zm-.1-1.87-.09.05,0,.06,0,.07h.09l.07-.06Zm-.38-4,.06.15H249l0-.12-.06-.05Zm0-4,0,.17v.09h0l0-.09-.08-.16Zm0,1-.08.08h.1l.05-.06Zm.25,3.52,0,0-.05.06H249l.06-.09v-.06Zm-.18-3.68,0,0,0,.05h0Zm.2,3.93,0,0,0,0Zm0-1.38,0,.09.12,0,.06,0,0,.1.07,0,0-.1-.13,0Zm.64-3.11h-.19l-.18,0,0,.1.16,0,0,.19-.16.06,0-.1-.07-.05-.12.11-.09.05-.12,0L249,176h.09l.09-.06h.09l.11,0h.07l.06.07.11.15.08-.06h.11l.09,0v.09l-.09.18v.11l.06.06.09,0h.16l0,.07,0,.14-.06.2,0,.1.14.06h.11l.07,0,.09,0h.11l.08.07,0,.11,0,.06-.1,0v0l0,0-.1,0,0,0,0,0,.1,0,.1,0h.13l.09,0,.07,0v-.17l-.08,0-.11-.07.07-.07,0,0h-.14l-.16-.08-.08-.07,0-.09.08,0h.14l0,0-.07-.07-.08-.08,0-.09-.11-.12v-.16l0-.09-.07,0-.11-.17-.09-.07-.07,0h-.18l-.13,0,0-.09h.11l.09,0,0-.14v-.1l-.15-.13Zm-.46,4.06-.07,0,0,.05.07,0Zm.34,5.47,0,0v0l0,0Zm-.2-6.58,0,.05h0v-.05Zm.41,1.07-.19-.1-.12.06.12,0,.06,0,0,.11-.11.12.13.1h.11l.15-.1.05,0-.08-.17Zm-.05-.37V179l-.06,0-.16,0,0,.19,0,.18.13.06.1,0Zm-.08.57.12,0,.07,0-.12.11-.11,0Zm.28,5,0-.07,0,.07,0,0Zm.07-4.57h-.14v.09l.08-.06.15.06.11,0,0-.11.09,0h-.07l-.15.08Zm.13-.17.07,0v-.08l-.07,0Zm-.07-3.55-.11,0v-.09l.07,0Zm.48,8.45,0-.05h0l0,.05Zm.34.1.05-.05.07,0h-.23l-.1.08-.17,0,.18.08.1-.06.14,0,.06,0-.06-.05Zm-.49-4.42,0-.07,0,.09.08,0h.14l0,0h-.09Zm.28,2.58,0-.07-.09,0v.09l.11,0Zm.1-.18,0,0v0h0Zm0-1.34,0,.16h.14l0-.14Zm.19-3.56-.1-.17h-.11l-.09,0,.08,0,.07.09.06.07,0,.08-.07,0v.09l.13.06.09.08.06-.12,0-.07-.11-.05Zm-.09,3.15,0,0v0l0,0Zm.5,1.67,0-.09,0,0V183Zm0,.41,0,0,0,0,0,0Zm-.14-4.55-.05.07,0,.13v0l.14-.11h.09l.16.07.06-.13-.15,0Zm.61,6.31-.07-.09-.12,0h-.06l0,0,.11.06Zm-.57-6.49h.11v-.07l-.07,0Zm.46,4.57,0,.07.05,0,0-.05Zm-.06-4h-.12l0,.11h.13Zm.15,1.07h.05l0,0h-.07Zm.45,5h0l0,0,0,0Zm-.15-5.29,0,.05,0,0v0Zm.48,5.52-.07,0h-.05l0,.05Zm-.32-4.59.09.08V181l0-.09-.07,0Zm.42,4-.09-.07-.07.06h.05l.08.08Zm0,.27h-.11v.12l.13,0Zm-.31-3.76v.07l.05,0v0Zm.46.54.08,0v-.09l-.09,0Zm.08.24v.07l.11,0v-.07Zm.24-.19h.05v0l-.05,0Zm.13.5.05,0,.07,0-.06,0Zm.23.69.05.07h.07l-.06-.07Zm.15.29-.05,0,.06,0,0,0Zm0-.09h0l0,0h-.05Zm0,.28,0,0,0,0,0,0Z"/><path class="cls-1" d="M264.33,174.41l-.17.45-1,1.93-.2.26-2,3.8-.15.46-.08.52.07,1,0,.32,0,.35.05.35.06,2-.12.38-.34.21H260l-.49.06H259l-.31.05h-.35l-.38-.12-.16-.38,0-.67-.05-.33,0-1.36-.05-.35-.06-1.39-.12-.47-.2-.48L255.77,179l-.16-.31-.45-.54-.79-1.21-.21-.24-.83-1.21-.2-.4,0-.39.34-.19h.81l.89-.12.3.05.37,0,.41.14.39.31.92,1.51.21.29.58,1,.21.27.21.33H259l.22-.31.26-.68.16-.31.16-.38.36-.59.18-.54.42-.78.3-.32.46-.2h.3l.69-.06.35,0,.37-.06.69,0,.32.05Zm-10.45,1.14v.09l.18.06.26-.08.11,0-.25-.11-.27-.06-.09,0Zm0-.28.12-.06h.1l.13.13.11-.17-.16-.1-.11-.13-.2.15Zm2.14,3.57.13,0,.37-.05.28,0-.14-.22-.28,0,0,0,.12-.08.12-.1-.24-.09-.06-.17.11,0V178h-.11l-.11-.07v-.28l-.27,0,0-.14-.09,0,.06-.14-.13,0-.18-.06-.07-.39-.24.09-.09,0,0,.11-.09,0,.06-.23,0-.22-.07-.23h-.17l-.21,0,.15-.19.23.07.07-.07-.06-.12-.51,0-.25-.09-.18.2.08.24.29,0,.16.47.29.16,0,.06.14.06.06,0-.08.15,0,.1-.05.07.16.17.21.38.26-.17.07,0,.13,0,0,.09-.21.06v.27l.28.05.05.29.14.08v.1l0,.05ZM254.4,176l.06.1-.05,0-.08-.06Zm.13-.2.16,0v-.14l-.12,0Zm.12.26-.06-.07h.11Zm-.06-1.07,0,.1.08-.1,0-.07Zm.2,1.61h.14v.11l-.14,0Zm0-1.38,0,.18.19,0,0-.18Zm.1.24v.14H255v-.13Zm.28.94.07,0,0-.07h-.05Zm.11,1,.07,0v.05h-.07Zm-.1-2.1.11.09.17,0,.07-.06.2-.15.31.07,0-.11-.13-.07-.16-.22-.23,0-.28.05.23.06.2,0,.06.05-.13.08-.13-.07-.1.15.11.08v0l-.07,0-.16-.06Zm7.1,0-.23,0-.35.46-.58,1-.21.28-.11.33-.16.34-.37.57-.12.3-.2.26-.14.38-.34.61-.22.24-.2.2-.29-.18-.21-.24-.18-.31-.82-1.1-.18-.33-.59-.79-.19-.29-.23-.29-.16-.33-.68-.81-.3,0,.12.27,1.62,2.37.21.24.18.3.24.25.37.63.45.51.18.34.18.43.23,1.56,0,.51.06.69,0,.31.06.37,0,.51.09.35.19,0,.09-.29v-.37l0-.37,0-.29-.19-2.5.21-1,.21-.27.26-.44.23-.55.2-.27.3-.63.2-.28.66-1.29.37-.62.32-.62Zm-6.61,2.29,0,.2-.12,0-.06-.09Zm.53.92-.07.09h-.05v-.11l.07-.05Zm.51,1.28.33,0,.15-.19-.21,0-.14,0-.13-.33.19-.17h.05l-.15-.16-.33.13-.15-.12v-.05l-.14.06,0,.21.27,0,.08.26Zm-.47-1.49-.06,0v-.09l.07.07Zm.06-2.42.1.17,0,.32.3.07.09.37.23.11.19.15.11-.29-.18-.15-.3,0,.1-.15.07,0,0-.05-.18-.12-.3,0V176l.07-.07.17-.08,0-.09-.2,0h-.09l-.15,0Zm0-.27.14,0v-.16l-.1.08Zm1,4.52-.06-.05-.15.06-.1-.1,0,.07.08.08h.18Zm-.4-4,0,.09,0-.07Zm.24.75-.11-.06.09,0Zm.16,3.15.24-.1v-.16l-.12.08-.15.06Zm3.21,2.44-.05,0-.07.06-.07-.28,0-.42-.05-.3v-.14l-.09-.06-.14.07-.1-.11.07-.09,0-.13-.13-.07-.11.25-.13.18h0l-.05.06v.28l0,.3.14,0,.1.19v.16l-.16.06-.09.18.15.2.06.19.14,0,.06.12h-.23l-.1.13,0,.28-.11.18.1.22-.07.3.2.15-.17.22.07.3-.07.37-.23.24,0,.09-.33,0-.1.15-.11-.07v-.11l0-.16-.25-.34.17-.42-.06-.41,0-.39-.24-.16.19,0,0-.14-.18,0,.17-.12-.05-.31.06-.41-.21-.31.05-.31-.25-.07-.07,0-.08-.21.28,0,.06-.2v-.27l-.27-.12-.12-.29,0-.23,0-.11,0,0,0,0v.11l-.13-.08-.06-.38-.29.12h-.14l0-.07.07-.05.14-.06-.05-.11-.15.12-.1.2.3.09.07.24.18.13.11.08V181h-.12l-.12,0v.05l.25.11,0,.19h-.16l0,.11.11,0,.12-.1.08.17-.16.2-.06.18,0,.3,0,.53.22.2,0,.09-.16,0,0,.21-.08.21.1.23.15.06-.14,0,0,.18.16,0-.06.2,0,.12.18,0v.05l-.19.06-.08.35v.21l0,0,.07,0v.51l0,.23.07.24.09,0v-.14l.22.06.07.24.19-.06,0,0,.09,0V186h.11l.17.15.19-.13-.08-.15h-.16l.24-.14.36-.11.32.09.43.1.15-.21h-.09l0-.11.09-.28V185l0-.28,0-.46-.25,0,0-.09.26-.06.07-.4-.18-.45.11-.25-.09-.1.13-.27Zm-3.29-5.23h-.05l0,.05.05,0,0,0Zm.3,3.57,0-.09-.11,0v.13Zm-.08-3.07-.11-.12,0,.18.13.12Zm.23,0,.06.14,0,.13.18.09,0-.12-.18-.06h.11v-.19l-.14-.08Zm0-.27h.11l0-.11h-.11Zm.53,7.62-.1.06,0-.09.07-.09Zm.08-2.6-.13.19-.16,0,.12-.13Zm-.18-.34-.12-.12h.14Zm-.05.25.09,0-.1,0Zm.31.85.05,0-.05,0h-.09Zm-.15-1.67,0-.12h.12l0,.05Zm-.12-3.16.13,0,0-.11h-.14Zm.18.25,0,.05,0,.05,0-.07Zm.61,7.25,0,0-.1.13-.14,0,0-.19Zm0-.18-.18.06v-.1Zm-.31-6.94h.11l0,.14,0,.07,0,.1,0,.16.09,0,.08-.13L259,179l-.21-.33h-.27Zm.28.25-.14,0v-.06l.12,0h.11Zm.21.24h-.09v.1l.12,0Zm0-.74,0,.07.07,0,0-.07Zm.63,7.49-.16,0v.11h.12Zm-.36-7.54.14,0,.07,0v.12l.1,0,0-.1-.14,0-.11-.06Zm.64,7.45-.06-.08-.07,0,.06.07v.11l.06,0Zm-.24-4.39,0-.07,0,0,.07.07Zm.05-.3,0-.05,0,0,0,.05Zm.58,4.74L260,186l-.06.21h.28Zm-.32-4.18,0,.1-.11,0,0-.09Zm-.25-3.29.11,0v-.08h-.11Zm.32,2.24.13.06.07.21.18-.06,0-.17-.06-.18-.14,0-.17.08,0,0Zm.13,3.74.11,0,0,.07h-.09ZM259.8,178l.14,0,0-.14h-.16Zm.6,7.39-.07-.06.09,0Zm.26-4.89-.13-.15-.06-.16h.16l-.06-.1h-.3l0,.21.19.31h.14Zm-.4-3.44,0,0,.08,0,0-.06,0,0-.08,0Zm.49,2.48-.18-.08,0,.08-.09,0,.08.14-.08.1,0,.07.19-.07Zm.48-.31h-.05l-.05.06.09,0Zm-.18-3.61.07,0h.05l0,0Zm.25,3.27-.05,0V179l.05,0Zm.4-1,0-.09-.07.06V178Zm.09-.38,0-.14-.11,0,.06.1Zm.24.27,0,0h-.07l.06.05Zm.18-.52-.09,0h0l.06,0Zm.52-.87-.1,0v.09l.11,0Z"/><path class="cls-1" d="M277,179.41l0,1.24,0,.39-.09.29,0,.36-.11.34-.62,1.25-.21.33-1.17,1.25-1.53.79-.66.25-1.56.24h-1.06l-1.52-.36-.34-.12-1.24-.57-.24-.26-.52-.45-.89-1.08L265,183l-.13-.36-.3-.59-.25-1.1,0-2,.1-.77.28-1,.14-.31.55-.92.45-.55.54-.42.23-.22.87-.61.66-.21.31-.16.35-.13.35-.09,1.23-.14.83,0,2.34.59.93.52.8.65.24.31.23.2.24.29.14.31.35.56.11.4.16.36.18.65Zm-12.58,0h.18l.16.11,0,.09.08.07.11,0-.12.13-.09,0,0,.09.11,0,.13-.22-.13-.15,0-.11-.11-.1,0-.14h-.13Zm0,.35.06.07,0-.05.07-.08v-.09Zm.48.7,0,0-.06-.12-.11-.06-.07,0-.1.08,0,.11h.12l0-.05.14,0,.07,0h0Zm-.28.69,0-.08-.08-.12,0,.07v.09Zm.14.61,0-.14h-.09l0,.09Zm-.15-3.13.14,0,0-.12-.07-.08Zm.65,3.76v-.09l-.21.1Zm-.46-4.76.12-.08,0-.21-.14,0Zm.2.1,0,0v0l0,0-.05.09.09,0Zm0,.33h-.16l0,.12.15,0Zm.71,4.52-.06-.1-.09,0v-.07l0-.07v0l-.05-.05,0-.05,0-.05,0,0-.05.07.06.07-.15.13-.16.06-.1.08v.05l.35-.09.06.08Zm-.57-3.2h-.07l-.07,0v0l.09,0Zm0,1.1,0-.09h-.07v.19Zm.12.63,0,.07,0,.09,0,.05.08-.12v-.11l-.11-.17h-.09Zm.15,2,0-.1,0-.09-.09-.07V183l0,.1Zm-.35-6.1.16.07.13-.12-.06-.15.08-.09-.06-.12-.05,0,.12-.15-.06,0h-.05v.11l0,.09.1.15-.06.08,0,.12-.1.08,0-.07Zm.4.58-.07.07v.09l.12-.11v-.09l-.11-.06-.25-.07.09,0,.05,0h-.08l-.07,0v.07l.09,0,.09,0-.06,0-.07.07h.09l.1-.08Zm-.1.5,0,.09-.14.13.09,0,.05-.09.08-.06v-.05Zm7.36,6.18.67-.3.29-.18.87-.87.29-.44.17-.36.18-.31.12-.34.24-1.45-.1-1.12-.07-.32,0-.34-.14-.31-.27-.76-.39-.58-.47-.57-1.18-.82-.34-.14-.36-.08-.32-.12-.33,0-.4-.08-.9,0-.86.1-1,.37-.94.5-.29.24-.52.56-.38.53-.35.65-.14.34-.08.38,0,.3-.09.38,0,.44.22,1.79.4,1,.15.26.21.29.55.6.81.63.31.18,1,.39.89.07h1.25l.37,0,.31-.14.35-.05ZM265.58,177l.21,0,.1-.06-.1,0Zm0-.44.16,0,0-.25-.12.07,0,.09Zm8,6.83-.25.25-.95.46-.33.07-.31.1-.89.1-1.22-.08-.31-.09-.68-.16-.31-.14-.57-.4-.54-.46-.4-.58-.21-.22-.28-.69-.2-.7-.05-.33,0-1,.21-1.36.16-.34.1-.38.16-.32,1-1,.56-.42.29-.14.35-.07.64-.23.9-.1.49,0h.37l.63.09,1,.38.57.38.55.43.31.44.57,1.06.11.33.16,1.26v.83l-.1.69-.12.4-.23.57-.21.31-.16.28-.19.27-.26.3Zm-7.14.15-.12.05.06.14v-.11l0-.08Zm-.26-7.62.09.09.07,0-.06-.12Zm.62,8,.05,0-.07-.07-.08.11v.07Zm.15.4-.09,0,0,0,0,0,.08.08Zm-.07-5.22-.08,0-.05,0-.13-.08,0,.05-.07.11,0,0Zm-.29-.78.11,0,.07-.07v-.12l-.07,0,0,.17-.05,0Zm.18.45-.11,0,0,.11h.11Zm.39,5.44-.08-.15,0,.07.06.08Zm0-6,0,0-.12.06-.07.06-.06.18.09,0,0-.06.07-.09Zm.14-.45-.09.06H267l0,.11.09,0,.21,0Zm5,4.88.31-.16.52-.46.2-.33.14-.27.18-.28.12-.73.06-.89-.11-.76-.14-.3-.13-.35-.16-.31-.44-.57-.57-.37-1-.36h-.84l-.81.11-.37.11-.31.18-.49.38-.25.24-.21.29-.14.31-.2.26-.09.32-.09.66v.53l.13.88.39,1,.24.24.19.23.57.45.62.29.32,0,.36.1,1-.09.33-.11.31-.05Zm-4.77-5,0,.09h.07l.07-.06h-.09l0,0,0-.05Zm.08-.36.15.1,0-.05,0-.05Zm2.44,8.1h0l0-.1-.12,0,.07,0Zm.21,0-.09,0-.09,0,.11,0Zm.62.39-.11-.08h-.07l0,.09Zm.08-.4h-.16v.1h.16Zm.43.12h-.12l0,.07.09,0,0,0h0l.05-.06Zm0-1.64,0-.07h-.11v.09Zm.9,1.34-.11-.15,0,.07-.1.08H272l0,0-.13.15-.13-.06-.09,0-.12.09.07,0,.14-.06.07,0,.12-.06,0-.11.18,0,.06-.09Zm-.65-9,.05-.05,0-.09Zm.63,7,.09-.05.09,0h.21l-.11-.08h-.09l-.11,0-.07,0,0,.07-.08.16.08.15v.16l.07,0,.12-.06h.05l-.15-.15Zm.53,2-.08-.15-.14.06.06.12-.06.05Zm0-.49-.09-.07,0,.06,0,0h0l0,.05Zm-.07,0,.07,0-.07,0h-.06v0Zm.23-1.59-.1,0,0,.14-.16,0,0,.06.16-.06Zm.31,1.72,0-.06-.07-.07H273l0,.27-.1,0v.12h.14l0-.07.09.07.1-.06-.06-.1,0-.06Zm-.19-2.11.1-.14-.11-.06H273l0,.09,0,.09,0,.14.16,0Zm0,2.19h.18l0,.07-.1.06-.05,0Zm.44-2.25.07-.05.09,0,.07.09h.09l-.16-.08-.07-.06,0-.18-.07,0,0-.05,0-.09-.06-.07,0,.09-.17.19h-.11l0,.09.09,0,.12,0,.06,0-.08.11Zm.48,2,0-.12h0l-.15-.1-.16,0-.07.05-.11.15.09,0,.08-.09,0,.1.11.1-.05,0H274l0-.16Zm-.28.37-.07,0-.09.06.09,0Zm.24-.49,0,.12-.17.06-.12,0,0-.07.15-.19.11,0Zm.08-.2.12-.06-.09-.12-.19,0,0,.18h.1Zm-.1-1.83-.06-.12-.09,0,0,.12.05.07Zm0-.48-.1.08H274l0,.11H274v.14l.18,0,.08-.09-.1.06,0-.17L274,182Zm0-.78.11.13.07,0v-.2l-.1-.12-.08.1ZM275,184l-.09,0-.11,0,0-.09-.06-.08-.32,0,0-.09.16,0,0-.1-.07-.07-.12.13-.15.06.11.17-.19,0v.11l.16,0,0,.07h.06l.1-.09.12,0,.07-.07.06.07-.08.18.08,0,.1-.11h.23Zm-.65.7h-.09l0,0,0,0-.09,0,0-.12h-.11l0,.11.08.08,0,.09h.14Zm-.21-3.08-.08.09.13,0h.14l0,0,.05,0Zm.1-.48h.12V181l0-.1.17.12-.1-.14h-.07l-.17.1Zm.32-1.24.11.1.1-.08,0-.07,0,.05Zm.63,3.41-.19,0-.12.13.09.11-.07.07h-.11v.07l.14,0,0-.13v-.16l.09.08,0,.34.08.12h.05l0-.43Zm.48-.22,0,0v-.09h-.09l-.12.08-.32,0v.12l.21,0,.1-.09.11.15,0-.07Zm.42-.41h-.07l-.07.06-.11-.07-.08-.08.13-.2-.08-.05-.31.12h-.12l-.07.09h.19l.13.08.07.21H276l.06.06.06-.09Zm-.44-.59-.13,0,0,.13v0l-.06.09.22-.08.06,0v-.07l0-.07Zm-.41-5.46.06.05,0-.09-.07-.07Zm.43,5.22,0,.07.39,0,.07-.09-.17-.13-.12.08-.05.07Zm.46.34.13-.12,0-.09-.12.08-.06.09-.15-.06h-.11l.08,0,.16,0,.15.1v-.07ZM276,181l.12-.08-.12,0Zm.1.26.07.06v-.16Zm-.23-4.49.06,0,0,0,0,0Zm.55,4.9.1-.11-.1-.23h-.07l-.09.15-.11,0v.06l.25.13,0,.12.08,0v-.09Zm-.54-5h0v0Zm.28,3.82.06-.15-.07-.08v.07l0,.14Zm-.08-1.06.14,0,0-.09Zm.45,1.71-.11-.12-.19,0,.07.1h.07Zm.13-.52-.09,0-.07,0,0,.09-.12.13.11.08.2-.28Z"/><path class="cls-1" d="M288.53,180.72l0,1.43-.12.34-.09.34-.16.36-.44.68-.67.6-.31.18-1,.33-.31.07-1.81.19-.36,0-2.55.18-.53,0-.58.08-.34-.19-.18-.35-.06-.33-.18-3.86-.08-.53-.12-3.37-.09-.74,0-1,0-.32v-.37l-.06-.32,0-.39.16-.38.38-.2,2.14-.08.31-.09.69.05.31-.09,1.82,0,.7.12.31.09.35.14.31.16.26.18.27.16.28.23.63.78.14.36.18.63.07.55v.6l-.18.65-.3.7-.1.34.2.4.3.23.24.25.36.71Zm-9.14,3.07-.05,0-.05,0h.09Zm0-.2.13.08.12-.11.07,0-.09-.06h-.16Zm0-.3,0,0,.07,0,0,0,0,0-.07,0Zm-.39-7.5.07,0,0,0h0Zm.32,5.83,0,0,.07,0,0,0Zm.15.57.09,0,.15,0,0-.05h-.16l-.11,0-.05,0,.07-.07.12,0,0-.07h-.14l-.07,0v.09Zm.16,2.52,0-.1-.08.08v.1l0,.13,0-.12Zm-.21-2.29,0,.06v.07l0,0Zm.22,1.74-.14,0v.16l.13,0Zm-.48-7.13,0,.05.09,0,0-.09Zm.28,4.74,0,0h.05v0Zm-.08-2.24v0l0,0v0Zm.46,2.87-.05,0v.2l0,.09-.09,0-.1.1v.07l0,.11.06.1,0,.07.07-.07.1-.06.07-.06v-.11l0-.19v-.09l0-.15.05-.07,0-.09-.08.06Zm-.37-1.59,0,.09.17.1,0-.13-.11-.12Zm.15,2.46,0,.07h.09l0-.1Zm.07.54.11.06.12-.08-.06-.09-.1.08h-.11Zm-.23-3.73h0l0,0,.09,0-.06,0Zm-.31-6.36,0,.08h.11l0-.08Zm.21,3.71,0,0,.07-.06,0,0Zm.37,4.11v-.11l-.05,0-.07,0v.16Zm-.39-7.06-.05,0,0,0,0,0Zm.13,1.39-.08,0V176h.09Zm.79,9.07-.08-.14-.12-.15-.07,0-.15-.06,0,.14,0,.12.11.12h.19Zm-.64-5.3v.05l0,0v-.06Zm-.22-5.6,0,0h.09l-.06-.1Zm.59,10,0,.09.11,0,0-.11Zm.52.43-.07,0-.09,0h-.18v-.05l.1,0,.16-.08,0-.15-.11,0v.12h-.16l-.07,0-.07,0,0,.09.06.09.22.13h.09l.09,0Zm-.45-1.14,0-.12h-.09v.09Zm-.32-5.07-.05,0,0,.05,0,0Zm-.07-2.56h-.09v.11l.09,0Zm.23,6.19.07,0v-.07l-.07,0Zm.1,1.12,0,0h0v0Zm-.17-2.76,0,0,0,0,0,0Zm.13.45,0,0-.05,0,0,0Zm-.11-2,0,0v0l0,0Zm0,.48,0,0,0,.07,0,0Zm.17,3.33.08,0v0H280Zm-.24-8.43h0l0,0h-.05Zm7.41,7.52-.08-1.07-.11-.37-.19-.32-.17-.24-.59-.52-.34-.1-.19-.2.09-.29.27-.24.2-.3.16-.32.12-.33.11-.34-.08-1-.28-.66-.19-.31-.21-.25-.89-.53-.34-.14-.85-.06h-.51l-.67.11-.32,0-.31.07-.37,0-.81,0-.52.22-.14.38,0,.35v.37l0,.32,0,.35,0,.72.06.35,0,.37.06,1.06.07.33.22,4.63.22.33.34.15.35,0h.85l.53-.07.36,0,1.56-.1.86-.17.62-.37.29-.25.41-.55.19-.33.07-.35Zm-6.45,3.22-.06,0v.07l0,0Zm-.23-6.4v-.76l-.07-.7v-.9l-.11-1,.18-.33.32-.23h.58l.39,0,.89-.13.91,0,.89.11.34.14.28.18.28.25.42.54.11.31.1.51,0,.5-.07.39-.3.53-.22.26-.28.28-.61.23-.47.1-1.59.08-.49.08-.34,0-.53,0-.36-.17Zm6.2,2.13.07.56v.51l-.1.38-.3.6-.27.26-.61.44-.85.19-.84.1-2.26.07-.54-.15-.18-.25,0-.71-.05-.37-.05-.61,0-.37-.12-1.23.17-.49.31-.21.35,0,.71,0,.39,0h.32l.35-.09.34.05.35,0,1.38,0,.34.17.29.11.5.5.21.27Zm-6.4-7.07,0,.11h.07l0-.09Zm1,11.06-.05-.05-.05,0Zm-.24-3.65.09,0,0,0H281Zm.11,1.06,0-.08-.08,0,0,.09Zm-.35-5.76,0,.05h.07v-.05Zm.33,5.37,0,.05h0v-.07Zm.17.89-.06,0v.09l0,0Zm-.42-6.6,0,0,0,0,0,0Zm-.12-2.43h.05v0h0Zm0,.21.08.08.15-.11.21,0v-.12l-.11-.07H281l-.08,0Zm.21,2.76,0,0,0,.05h0Zm.17,4.19,0,0,0,0h0Zm.26.62.11,0-.08-.09-.15,0,0,.09v.09l0,.14h.09v-.16Zm-.34-3.62,0,0v-.05h0Zm-.1-2.4h.12v-.07H281Zm0,.88h.05v0l0,0Zm.24,4.3.06.16.16,0,.08-.06,0-.05-.11-.1h-.18Zm-.09-4.83,0-.09-.12,0-.09,0,.06.09h.14Zm0,2.82,0,0h0v.05Zm.07,1.55,0,.05.16,0,.07,0h-.05l0-.1.08-.18-.09-.07-.08.15Zm0-1.9h0l0,0h.05Zm.28,3.54h.05l0,0,0,0Zm-.15-3.38h.05l0,0,0-.05Zm.27.09-.16.06-.08,0,0,.07h.18v-.06l0-.06.1,0h.07l.09,0,.11,0,.07,0,.13.1h.08l0,0-.11-.09-.09,0-.11-.06,0-.07.14-.07,0-.11H282l-.06.15-.1,0h-.09Zm.18,4.63h-.1l-.07.09h.1Zm-.27-2.12,0,.08h.09l-.05,0Zm.29,3.66,0,0v0h0Zm-.5-9.39,0,.07.05-.05,0-.11Zm.35,4.71,0,0,0,0,0,0Zm-.08-2.08,0,0,0,0,0,0Zm.1.19-.07.06,0,0,.09,0,0-.06Zm-.28-4.33.13,0,.13-.13v-.14l-.1.06-.07.05Zm.39,6.46.15-.09.05.07h.09l.14,0,0,.12-.14.06H282l0,.14.09.07.1-.07h.18l.08,0,0-.06,0-.09v-.19l.08-.14-.13-.06-.11.1-.07.05-.1,0-.26.07Zm-.24-4.91h.07l0,0Zm3.8,6.17-.13-.44-.19-.31-.3-.11-1.67-.07-.37.05-.34,0-.29.25-.14.3V182l.25.34.32.11,1.36,0,1-.14.29-.21.18-.26Zm-3.71-4.81,0,.6.22.48.38.19,1.36-.13.5-.2.25-.23.09-.52-.08-.53-.16-.27-.29-.12-1.82,0-.32.23Zm0-1.15,0-.06h0l0,0Zm0-.44h.05v0h-.05Zm.83,9.88h-.05l-.07.05h.1Zm-.52-11.33,0,.09h0v-.09Zm.43,4.72.07,0h-.07l0,0Zm.43,6.53,0,0-.05,0,0,0Zm-.26-6.36-.11,0v.11l.11,0Zm.06,1.71.07,0,0-.07h-.07Zm-.31-6.52.09.05v0l0-.05-.06,0Zm.1,1.55,0,0v-.09l0,0,.09,0,.06,0-.06,0-.09,0,0,0v.12Zm.31,4.77H283l0-.11h-.16Zm.24.13.07,0,0-.09-.09,0Zm.13-1.86-.06,0v.05h.05Zm-.28-4.69.09.07v-.12l-.09-.07Zm.1,1.75h.09l.06-.09H283Zm.62,8.06-.11,0-.07,0,.08,0Zm-.11-3.51,0,0,.07,0,0,0-.07.07.08.07.07,0,.09,0-.08-.1-.11-.07h-.09Zm-.23-6,0,0,0,0v.05Zm.53,4.25h-.05l0,.06-.1.06,0,0-.07.07v.07l.05,0,.12-.12,0-.12Zm-.51-4.71,0,0,.07,0,0,0Zm.49,5-.07,0v.09l.07,0Zm.42,4.71h-.09l0,.07h.06Zm-.6-9.47.05,0v0l0,0Zm.76,11.16h-.07l0,.05,0,0Zm-.33-6.62-.09,0v.07l.09,0Zm.49,6.33h-.1l0,.09h.1Zm-.37-4.55.07,0,0-.07-.05,0Zm.34-1.75-.18-.11-.09,0,0,.07,0,.2,0,.11v.08h0v-.09l.07-.06.08,0h.16Zm0,2,.05,0h0l0,0Zm.4,4.62h-.06v0l0,0Zm-.31-9h0l0,0,0,0Zm.3,2.23.05.07,0-.11h-.07Zm.23,2.21h.1l0-.12h-.07Zm-.14-3.07,0,.05h.19l.05-.05-.07,0-.1.06Zm.13.43H285v.07h.07Zm.6,7.07-.12,0,0,.09.1,0Zm-.43-7.15,0,.16.13,0v-.13l-.06,0Zm.35,2.83h-.05l0,0h0Zm0,.24.12,0v-.11l-.12.06Zm.15.49h0v0h.05Zm.15,1.12,0-.09-.09,0,0,.08Zm-.06-1.5h0l0-.06,0,0-.05,0-.05,0Zm.29,4h0l0,.07,0,0Zm-.14-2.89h.16l-.06-.12h-.05l-.08,0h0Zm0-1H286l.08,0,0,0Zm0,.18h0l0,0,0,0Zm.25,1,.05,0-.06,0-.18.06v.12l.12-.06Zm.1-.34h-.11v.06l.09.05Zm.1,2.51,0,0,0,0,0,0Zm.24.09,0,0v0l0,0Zm-.29-5.51v.07l.07,0v-.07Zm.36-.53h.07v-.07h-.07Zm.22,1.67h0v0l0,0Zm.36,3.43V183l.05,0,0,0-.17.06.08.12Zm-.14-.3.09,0v-.1l-.09,0Zm-.09-3,.09.06h.12l.09,0v-.12l-.07,0,0,.11-.09-.08Zm.34,3.72-.07,0v.09l.07,0Zm.09-.7,0-.05,0,.05v.09Zm-.08-2.45.17-.06h.07l0,0,0,.08v.16l0,.11-.07,0h0l0,0,0,0V181l.14,0,0-.07.07-.11.1-.09v-.27l-.11-.08-.06-.07,0-.14v-.07l-.06,0h-.18l-.19,0,0,.16Zm.08.84h0l0-.05h0Zm.3,1.54,0-.1h-.16l0,.1Zm-.06-1.53-.08.11v.09l.09,0,0-.13.05,0Zm.35,1-.06,0-.14.06v-.07l-.06-.15-.05.06,0,.12-.07,0,0,.06v.21l.16,0h.09l0-.08.11,0Zm-.27-1.4-.08-.17.08-.07h.12l-.06.12v.09Z"/><path class="cls-1" d="M301.41,183.72l0,.42-.49.12-.54,0H300l-.66.09H299l-.42-.16-.37-.25-.12-.31-.18-.33-.35-.26-.4-.17-.39.07-.32,0-1.73.11-.32,0-.74.11-.34,0-.36.21-.32.36-.29.6-.32.33-.39.15-1,.09h-.36l-.68.07-.36-.08-.11-.44.09-.36.31-.72.07-.32.18-.26L290,182l.29-.58.1-.36.16-.27.09-.39,1.59-3.87.09-.32.18-.34.07-.36.18-.28.62-1.66.15-.25.1-.36.14-.31.3-.32.56-.22.59.14.32.3.37.6.13.31.21.31.13.35,1.3,2.38.14.36.41.63.13.28.17.25.13.38.19.32.19.25.76,1.57.39.62.28.64.53.89.3.64Zm-11.54.3v-.09l.17,0,0-.14.16-.08.19.06.12-.09,0,0-.14,0,.06-.14.1-.08.1-.15v-.09l0-.11,0-.11.12-.09,0-.07h-.07l-.17-.06,0-.05.07,0,.08,0,.08-.09-.05-.07h-.07l-.09,0-.07,0-.16,0,0,.05,0,.12h-.07l0,0-.12.06,0,.07,0,.09.18.08.05.06,0,.09-.09,0h-.1l-.05.08v.07H290l-.07,0-.08.06,0,.11,0,0h.09l0,.16-.14.08,0,.19,0,.11,0,.11-.11,0,0-.1-.05,0v.09l.09.07.11.09.09,0,.15-.1Zm0,.46h-.07v0h.07Zm.31-1-.06-.07,0-.11h.09l.11,0,0,.07Zm.72.39-.17-.08-.07-.09-.11,0,0,0,0,.18,0,.11-.1,0-.14,0v.09l.06.09,0,.09,0,.05-.07.06-.14,0,.06.12.09.08v-.14l.11,0,.16.11h.19l.14,0v-.18l-.15-.1-.08.14-.11-.08.08-.13,0-.1.09,0,.07,0,0-.11,0-.07Zm-.47-.52-.11-.05.1,0Zm0,.88h.09l-.05,0Zm-.1-2.15,0,.08,0,.12.06.07h.11l.15-.06,0,0h-.14l-.11-.1Zm.19,0,.07.09.07,0,.08,0-.11,0Zm.19-.4.12,0v-.12l-.07.09Zm8.93,1.45-.09-.34-.46-1-.36-.56-1.84-3.5-.21-.5-1.63-3-.23-.34h-.25l-.17.37-.25.69-.16.29-.1.41-.29.6-.1.36-.42,1-.1.36-.3.61-.11.32-.16.33-.08.38-.16.27-.14.31-.61,1.73-.14.27-.4,1,0,.28.23.06.59-1.25L292,182l.43-.15h.67l.31-.07.37,0,2,0,1.93-.21.36,0,.4.15.33.26.45.8.26.29Zm-8.87-1.22,0,0h.05v0Zm.14,0,0,.09,0,.1,0-.11v-.12l0,0Zm1.93,1.07-.15-.11-.14.13h-.16l-.15-.1,0,.07.06.12v.09l-.1,0h-.25l-.07,0h-.18v.09l-.06,0-.06.16,0,.1-.05.06h-.18l-.07.05,0,.09,0,.11-.16.13.06.15h.14v.09l-.07,0h-.12v.07l.18,0,.09,0,0,.16.06.07,0-.07.05-.07h.11l.08,0,.1,0,0-.06,0-.19,0-.09.07-.09h.1l0,0v-.34l0-.08.09.07,0,.16.09,0,0-.16v-.11h.08l.08,0,0-.1.17-.06.08-.11.13-.12Zm-1.92-2.51,0,.07.06,0h0l0,0,0-.05Zm.09,1.06,0,0h0v0Zm.1-.5-.1.11v.09l.07,0v0l.09,0,.07,0,.08-.11.1,0,.09-.05-.21,0Zm.76,2.36,0,.09,0,.17-.06.09-.1.15-.09.08-.19.06-.06-.12.19-.08,0-.07.08-.2,0-.09,0-.07.09,0Zm-.45-4,.05,0v-.05l0,0Zm0,.41,0,.1.18,0,0-.09Zm.31,3.44h-.05l0,0Zm.18-.36V183l.11,0v-.09Zm.13-.17.09,0h.11l.15-.13v-.07l-.05-.05-.13-.06-.1.08-.11-.05-.1.13ZM292,179l0,0,.05,0,0,0Zm3.2-3.78,2.88,5.44v.36l-.26.17-4.25.23-.69,0-.35,0-.27-.14-.09-.29,1.22-3.1.15-.26,1-2.67.24-.19.26.13Zm-2.87,7.22h0v-.05Zm-.15-3.93,0,0,.05,0h0l0-.05Zm.81,3.82h-.09l0,.08-.1,0,0-.1-.11-.12-.09.08.11.14.11,0-.08.08h.08l.12,0,.08,0Zm-.12-1.55,0-.11-.09,0,0,.11Zm-.31-3.94,0,0v-.07l-.05,0Zm.58,4.22H293L293,181h-.12l.07.09h.2Zm-.26-.53,0,0,0,0v0Zm1.09,1.76.08-.05h.11l-.07-.07-.18-.06-.1,0,0,.09,0,.19-.12.15-.08-.14-.09,0-.11-.07-.16.06-.06.09,0,.07-.09.08,0,0,.16,0,.07-.06,0-.11h.12l.06.15.07.07.07,0,.16,0v-.09l.06-.2,0-.09Zm-.8,0,.07-.05,0,0-.07,0Zm0-2.52h.09l.06.07,0,.11.07,0,.09,0,.14,0,0-.11-.08.06-.14,0-.08-.08-.07-.07-.1,0Zm-.14-3.53.06.07h.09l-.06-.09Zm0,.46,0,.11,0-.07Zm.66,3.94h-.09l0,0v0l-.1,0-.05,0-.13.15.11.17.07,0,.15-.1,0-.19,0-.09h.09Zm-.47-1.16.11.08.07.09.07-.08-.11,0-.08-.08-.06-.09Zm.12.95,0,.07.09,0v-.05Zm-.23-4.9,0,.07.05,0,0-.07Zm.25,3.34h.07v-.05h-.07Zm.19,1.15-.13,0,.08.09.07,0Zm-.14-.86v.07h.07v-.07Zm-.08-4.2,0,.05.11.07,0-.13,0-.09-.08-.07,0,.09.06.07-.05,0h-.13Zm.33,5.53.16,0v-.08h-.16Zm-.31-6,.09.06.06.07,0-.12h-.2Zm.31,5.67.06,0,.11,0-.06-.07Zm.24.76h0v.05h.05Zm-.11-3,0,0v0Zm.17.29v0l.05,0v-.05l-.13,0-.07.06h.07Zm.46,4.34,0-.12-.06-.07,0,.06v.09l-.11,0-.05,0v0l-.07.09.06.06.12-.07.08-.07Zm-.44-3.64,0-.11-.07,0,0,.09Zm-.29-4.35.13,0,.06-.13,0-.09.06-.09.08-.15,0-.05,0,.06-.07.09-.08,0-.05.07-.06.09Zm0-.67.07.09,0-.1,0-.08,0-.06,0-.09h-.12l-.06.14Zm2.16,6.19.26-.15.05-.32-.93-1.89-.25-.13-.19.17-.72,1.95,0,.34.29.1.4-.05.36,0Zm-1.88-2.3H294l0-.09,0,0Zm.27,3.2,0-.07h-.05v0Zm-.17-3.74,0,.13.09,0h.18l0-.14H294Zm-.18-4,.06.07.11.15,0,.07.08.09.08-.12,0-.09.05-.07h.1l.07,0,.12-.06.12,0-.08-.1,0-.1.06-.09.1-.06.08,0,.11,0h.2v-.05l0-.07v-.09l-.13-.07-.17.15h-.05l.08-.08-.11-.06,0,.13v.07l-.07-.05,0-.08-.09-.07-.11,0h-.16l-.09.06,0,.09,0,.18-.16.1.06.15,0,.09.19,0,.1-.06.07,0,.11,0-.1.06-.08,0-.09,0-.12,0-.12-.06-.06-.08Zm.3,4.51h-.05l0,0,0,0ZM294,174l0,.07.07,0,0-.06Zm.81,8.65,0-.14-.11,0h-.16l.08.1.07,0Zm-.1-1.87-.09.06,0,.05,0,.07h.09l.07-.05Zm-.38-4,.06.16h.16l0-.12-.06,0Zm0-4,0,.18v.09h0l0-.09-.08-.16Zm0,1-.08.07h.11l.05-.06Zm.25,3.52-.05,0,0,.05h.07l.06-.09v0Zm-.19-3.68,0,0,0,.06,0,0Zm.2,3.93,0,0,0,0Zm0-1.38,0,.09.12,0,.06,0,0,.1.07,0,0-.1-.12,0Zm.64-3.11h-.19l-.18,0,0,.11.16,0,0,.19-.15.06,0-.11-.08-.05-.11.11-.09.06-.12,0-.05.05.09,0,.08-.06h.09l.11,0H295l.06.07.11.15.09-.06h.11l.08,0v.09l-.1.18v.1l.06.07.09,0h.16l0,.07,0,.14-.06.2,0,.11.15.06h.11l.07,0,.09,0h.11l.07.07,0,.11,0,.05-.1,0v0l0,0-.11,0,0,0,0,0,.1,0,.11,0h.12l.09,0,.07,0v-.18l-.08-.05-.11-.06.07-.08,0,0h-.14l-.17-.08-.08-.07,0-.09.07,0h.14l0,0-.07-.06-.07-.08,0-.09-.11-.12v-.16l0-.09-.07,0-.11-.17-.09-.06-.07,0h-.17l-.13,0,0-.09h.1l.09,0,0-.14v-.11l-.15-.13Zm-.47,4.05h-.07l0,0,.07,0Zm.34,5.48,0,0,0,0h0Zm-.2-6.58,0,.05h0V176Zm.41,1.07-.18-.1L295,177l.13,0,.05,0,0,.11-.12.13.13.1h.1l.15-.1,0,0-.08-.17Zm-.06-.37v-.23l-.06,0-.16,0,0,.19,0,.18.13.06.1,0Zm-.07.57.12,0,.07,0-.12.11-.11,0Zm.28,5,0-.07v.07l0,0Zm.07-4.57h-.14v.09l.09-.06.14.06.1,0,0-.11.09,0h-.07l-.15.08Zm.13-.17.07,0v-.09l-.07,0Zm-.08-3.55-.1,0v-.09l.07,0Zm.49,8.45,0,0h0v.05Zm.34.11,0-.05.07,0h-.23l-.1.08-.17,0,.18.08.11-.05.14,0,.05,0-.05,0Zm-.49-4.43,0-.07,0,.09.07,0h.14l0,0H296Zm.28,2.58,0-.07-.09,0v.09l.11,0Zm.1-.18,0,0v0h0Zm0-1.34,0,.16h.14l0-.14Zm.19-3.56-.1-.17h-.1l-.09,0,.07,0,.08.08.05.07,0,.09-.07,0v.09l.13.06.09.08.06-.12,0-.07-.11,0Zm-.09,3.15,0,0v0l0,0Zm.5,1.67,0-.09,0,0v.13Zm0,.4,0,0,0,0,0,0Zm-.15-4.55,0,.07,0,.13v0l.13-.11h.09l.16.06.06-.13-.14,0Zm.62,6.31-.08-.08-.12,0h0l.11.07Zm-.57-6.49h.11v-.07l-.08,0Zm.46,4.57,0,.07.05,0,0-.05Zm-.06-4h-.13l0,.1h.12Zm.15,1.07h.05l0,0h-.07Zm.45,5,0,0,0,0h0Zm-.15-5.29,0,.05,0,0v0Zm.48,5.52H298l0,.05Zm-.32-4.59.1.08v-.09l0-.09h-.07Zm.42,4-.09-.06-.07.06h.06l.07.09Zm0,.26h-.11v.13l.12,0ZM298,179v.07l.05,0V179Zm.46.54.08,0v-.09l-.08,0Zm.08.24v.07l.1,0v-.07Zm.24-.19h.05v0l-.05,0Zm.13.5.05,0,.07,0-.05,0Zm.23.69.06.07h.07l-.06-.07Zm.16.29,0,0,.05,0v0Zm0-.09h0l0,0h-.06Zm0,.28h0l0,0,0,0Z"/><path class="cls-1" d="M302.38,179.3l-.37,0-.33-.19-.18-.33-.08-1.5.14-.34.36-.23.33-.06h.35l2-.14.34.05,1.78-.11.36.17.14.38.11,1.42-.19.38-.52.21-1,.07-.35,0-1.2.06-.3.07h-.71l-.33.09Zm.39-.41h.14l.13,0,.08-.06.18-.21.19-.1-.14,0-.11,0-.14,0H303l-.13-.15-.21.08,0,.18.14.06H303v.11h-.16l-.12.08-.1.09-.09-.08-.19-.15.17-.2v-.14l.07-.15v0l-.05-.07-.13-.13,0-.08-.08-.16h-.13l-.16,0-.12,0v-.11H302l.37,0,.23.06,0-.29.27.05v-.21l-.29-.13h-.12l-.08.08.09,0v.12h-.14l-.18,0-.24,0-.12.1,0,.25,0,.12.28,0,0,.05L302,178l0,.06h-.07l0,.05.13,0,.16.08,0,.08-.08.08-.1.16-.07,0-.09-.1v-.13l0,.16v.12l.06.09.15.06.11.06-.09.08-.05,0,.08,0,.15-.11.12.19.16-.08.15.13Zm-.61-.81.1-.06h.12l.09.07h-.32Zm0,.34h.06v.07h-.05Zm.32-.26.05,0h-.05Zm2.08-.08,1.08,0,.36-.16v-.18l-1.29-.07-.88.1-.74,0-.37.11v.23l.37,0h.73Zm-1.44-.75h.09l-.08-.07-.1,0,0,.11Zm.78,1.57.1,0h.13l.2.09h.11l.21-.1.31,0,0-.13,0-.12h.11l.08.19.1.12.05-.06-.06-.15.07,0h.28l.16.16.14,0,.09,0,.12-.06.1,0v-.16h-.48l0-.16-.14.11-.13.08-.1-.12.12-.1.1-.07-.1,0-.14,0-.11,0-.12,0-.08.11-.14,0-.15-.17-.07,0h-.14l-.22.14-.1.07-.1,0-.11.06-.1,0h-.12l-.35,0-.08.2.14,0,.08-.16.11,0,0,.19Zm-.28-1.49,0,0-.05,0,0,0Zm.07-.41v-.09l-.07,0,0,.05Zm.17,1.58,0-.09-.07,0,0,.11Zm-.1-1.43h0l0-.07v.05Zm.34-.21-.06-.07-.09,0,.06.05Zm.13.22h-.12l.09,0h.16Zm0,1.52h.09l0,.09h-.07Zm.32-1.5,0,0v.05l0,0Zm.07,1.53v-.05h.06l0,.07ZM305,177l0-.05V177h0Zm1.78.52,0-.19v-.05h.11l.05-.06h-.07l-.09,0-.12.08-.08-.12.14-.06,0-.15-.13-.08,0,.13-.16,0h-.12l-.28.07-.12,0,0-.08.07,0,.11,0,0-.11-.18,0,0,.14-.17,0-.09,0,0-.1.1-.08-.09-.07,0,.09-.05.06-.13-.1-.08.13.11.06.09.13.21,0h.11v0H306l.08.19.1.06.09,0h0l.14,0,.14,0,.22.15Zm-.72.78,0,0-.05,0v0Zm.25.06v0h-.05v0Zm.17-.06,0-.16,0-.13v-.12l0-.21h-.11l-.13.15,0,.11,0,.14,0,.16.11.08,0,.05Zm.06.42v-.09h-.11v.08Zm.25-.9,0-.05,0,.07,0,0Zm.14.22h-.16l0,.05H307Zm0-.19h0l0,0h0Zm0,.6,0-.05,0,.05,0,0Z"/><path class="cls-1" d="M318.11,171.44l-.17.45-1,1.93-.2.26-2,3.81-.15.47-.08.51.07,1,0,.32,0,.35.06.35.06,2-.12.38-.34.21-.36,0-.49.06h-.55l-.32.05h-.35l-.38-.12-.16-.38,0-.67-.05-.34,0-1.36-.05-.35-.05-1.39-.12-.48-.2-.48L309.54,176l-.16-.3-.45-.54-.79-1.21-.21-.23-.83-1.21-.2-.4,0-.39.34-.19h.81l.89-.12.31.05.37,0,.41.14.39.31.91,1.5.21.29.58,1,.21.27.21.32h.2l.21-.31.26-.68.16-.31.15-.38.36-.58.18-.54.42-.78.3-.31.47-.21h.3l.69-.06.35,0L317,171l.69,0,.32.05Zm-10.45,1.14v.09l.18.06.26-.08.11,0-.25-.11-.27-.05-.08,0Zm0-.28.12-.06h.11l.13.13.11-.17-.16-.1-.12-.13-.2.15Zm2.14,3.57.12,0,.37-.06.29,0-.14-.22-.28,0,0-.05.12-.08.12-.09-.23-.1-.06-.17.11,0v-.06h-.1L310,175l0-.28-.26,0,0-.14-.09,0,.06-.14-.13,0-.18-.06-.07-.38-.25.09-.09,0,0,.11-.09,0,.06-.23,0-.23-.07-.23h-.17l-.21,0,.15-.19.23.07.07-.07-.06-.12-.51,0-.26-.09-.18.21.08.24.28,0,.17.47.29.16-.05.05.14.06.06,0-.08.15,0,.1,0,.08.15.16.21.38.26-.17.07,0,.13,0,0,.09-.21.06v.26l.29.06.05.3.14.08v.11l0,.06ZM308.17,173l.06.1-.05,0-.07-.06Zm.13-.2.16,0v-.14l-.12,0Zm.12.26-.06-.07h.11Zm-.06-1.08,0,.1.08-.09,0-.07Zm.19,1.62h.14v.11l-.14,0Zm0-1.38,0,.18.19,0,0-.18Zm.1.24v.14h.12v-.13Zm.28.94.07,0,0-.07H309Zm.11,1,.07,0v.05H309Zm-.1-2.1.11.09.18,0,.07-.06.2-.16.31.07,0-.11-.13-.06-.15-.22-.23,0-.28.05.23.06.2,0,.06.05-.14.08-.13-.06-.1.14.11.08v.06l-.07,0-.16-.06Zm7.1,0-.23,0-.35.46-.58,1-.21.28-.11.32-.16.34-.38.57-.12.31-.2.26-.14.38-.34.61-.22.24-.2.2-.29-.18-.21-.23-.17-.31-.82-1.1-.18-.32-.59-.8-.19-.29-.23-.29-.16-.33-.68-.81-.3,0,.12.28,1.62,2.37.2.24.18.31.24.25.37.63.45.51.18.35.18.43.23,1.56,0,.51.06.69,0,.32.06.37,0,.51.09.35.19,0,.09-.29v-.37l0-.37,0-.28-.19-2.5.21-1,.21-.28.26-.44.24-.54.2-.28.3-.63.2-.28.65-1.29.37-.62.32-.62Zm-6.6,2.29,0,.19-.13,0-.06-.09Zm.53.92-.07.09h-.05v-.11l.07-.06Zm.51,1.28.33,0,.15-.19-.21,0-.14,0-.12-.33.18-.17h.05l-.15-.15-.33.13-.15-.12v-.05l-.14.06,0,.21.27,0,.08.26Zm-.47-1.5-.05,0v-.09l.07.07Zm.06-2.42.1.17,0,.31.3.07.09.37.24.11.18.15.11-.29-.18-.15-.3,0,.1-.15h.07l0-.05-.18-.11-.3,0V173l.07-.07.17-.08,0-.09-.2,0h-.08l-.15,0Zm0-.27.14,0v-.16l-.1.07Zm1,4.53-.05,0-.16.06-.09-.1,0,.07.08.08H311Zm-.4-4,0,.09,0-.07Zm.23.75-.11-.06.09,0ZM311,177l.24-.1v-.16l-.12.08-.16.06Zm3.21,2.44-.05,0-.06.06-.07-.28,0-.43-.05-.3v-.14l-.09-.07-.14.08-.09-.12.06-.09,0-.13-.12-.06-.11.26-.13.18h0l-.05.05v.28l0,.3.14,0,.1.19v.16l-.15.06-.1.18.15.2.06.19.14,0,.06.12h-.23l-.1.13,0,.28-.11.18.1.22-.07.3.2.15-.16.22.07.3-.07.38-.24.24,0,.09-.33,0-.1.15-.11-.07v-.1l0-.16-.25-.34.17-.41-.06-.4,0-.39-.24-.16.19,0,0-.14-.18,0,.17-.11,0-.32.06-.41-.21-.31.05-.3-.25-.08-.07,0-.08-.21.28,0,.06-.2v-.27l-.27-.12-.12-.3,0-.23,0-.11,0,0,0,0v.11l-.13-.08-.06-.38-.29.12h-.14l0-.07.07-.06.14-.06-.06-.1-.15.12-.1.2.31.09.06.24.19.13.11.08v.07h-.12l-.12,0v.05l.25.11,0,.2h-.16l0,.11.11,0,.12-.09.08.17-.16.2-.06.19,0,.29,0,.53.22.2-.05.09-.16,0,0,.21-.07.22.1.22.14.06-.14,0,0,.18.16,0-.06.2,0,.12.17,0v.05l-.19.07-.09.36v.21l.05,0h.07v.51l0,.23.06.24.09,0V183l.21.06.07.25.19-.06,0,0,.08,0V183h.11l.17.15.19-.13-.08-.15h-.16l.24-.14.36-.11.32.09.43.1.15-.2h-.09l0-.11.09-.29V182l0-.28,0-.46-.25,0,0-.08.26-.07.06-.39-.18-.45.11-.25-.09-.1.13-.27Zm-3.29-5.23h-.05l0,.05H311l0,0Zm.3,3.57,0-.09-.11,0v.12Zm-.08-3.07-.11-.12,0,.17.13.12Zm.23,0,.06.14,0,.13.18.09,0-.12-.18-.06h.11v-.2l-.15-.08Zm0-.27h.11l0-.11h-.1Zm.53,7.62-.1.06,0-.09.06-.09Zm.09-2.6-.13.18-.16,0,.11-.13Zm-.18-.34-.13-.12h.14Zm-.05.25h.09l-.1,0Zm.31.85.05,0-.05,0H312Zm-.15-1.67,0-.12H312l0,.05Zm-.12-3.16.12,0,0-.11h-.14Zm.17.26,0,.05,0,.05,0-.07Zm.61,7.24,0,0-.1.13-.14,0,0-.2Zm0-.18-.17.06v-.11Zm-.31-6.94h.1l0,.14,0,.07,0,.1,0,.16.09,0,.08-.13.22-.15-.21-.32h-.26Zm.28.25-.14,0v-.05l.12,0h.11Zm.21.24h-.09v.11l.12,0Zm0-.74,0,.07.07,0,0-.07Zm.63,7.49-.16,0v.1h.12Zm-.36-7.54.14,0,.07,0v.13l.1,0,0-.1-.14,0-.11-.07Zm.64,7.46-.05-.09-.07,0,.06.07v.11l.06,0Zm-.24-4.39,0-.07h0l.07.07Zm.06-.3,0-.06,0,0,0,.05ZM314,183l-.26,0-.06.22H314Zm-.32-4.19,0,.1-.11,0,0-.09Zm-.25-3.29.1,0v-.09h-.11Zm.32,2.24.13.06.06.21.17-.06,0-.17-.06-.18-.14,0-.17.08,0,0Zm.13,3.73.11,0,0,.07h-.09Zm-.33-6.37.14,0,0-.14h-.16Zm.6,7.39-.08-.07.09,0Zm.26-4.89-.13-.15-.06-.16h.16l-.06-.1H314l0,.21.2.31h.14Zm-.4-3.44h0l.09,0,0-.05,0,0-.08,0Zm.49,2.48-.18-.08,0,.07-.09,0,.08.14-.09.1,0,.07.19-.07Zm.48-.31h-.05l0,.06.09,0Zm-.18-3.61.08,0h0l0,0Zm.25,3.27-.05,0v.05l.05,0Zm.4-1,0-.09-.07.06V175Zm.09-.38,0-.14-.11,0,.06.1Zm.24.27,0,0h-.07l.06,0Zm.18-.52-.09,0h0l.05,0Zm.52-.88-.1,0v.09l.1,0Z"/><path class="cls-1" d="M331.16,176.43l0,1.24,0,.39-.09.29,0,.36-.1.34-.62,1.25-.21.33-1.16,1.25-1.53.79-.66.25-1.56.24h-1.06l-1.52-.36-.35-.12-1.23-.57-.24-.25-.52-.45-.89-1.08-.19-.31-.13-.37-.29-.58-.26-1.1,0-2,.1-.76.29-1,.14-.3.55-.92.44-.55.54-.42.24-.22.87-.62.66-.21.31-.16.35-.13.35-.09,1.23-.14.82,0,2.35.59.93.51.8.64.25.31.22.2.25.29.14.31.35.57.11.4.16.36.18.64Zm-12.58,0h.18l.16.11,0,.08.08.07.11,0-.12.13-.09,0,0,.09.11,0,.13-.22-.13-.15,0-.11-.11-.1,0-.14h-.13Zm0,.35.06.07,0-.05.06-.08v-.09Zm.48.7,0,0-.06-.12-.11-.07-.07,0-.1.08,0,.11h.12l0-.05.14,0,.07,0h0Zm-.28.69,0-.08-.08-.12,0,.07v.09Zm.14.61,0-.14h-.08l0,.09Zm-.16-3.14.14,0,0-.12-.07-.08Zm.65,3.76v-.08l-.21.1Zm-.46-4.77.12-.07,0-.22-.14,0Zm.2.1,0,0,0,0,0,0,0,.09.09,0Zm0,.34h-.16l0,.12.16,0Zm.71,4.52-.06-.11-.09,0v-.07l0-.08v0l-.06,0,.05-.05,0-.05,0,0-.05.07.06.06-.15.13-.15.06-.1.07v.05l.35-.09.06.09Zm-.56-3.2h-.07l-.07,0v0l.09,0Zm0,1.09,0-.09h-.07v.19Zm.12.63v.07l0,.09,0,.05.08-.13v-.1l-.11-.17h-.09Zm.15,2,0-.1,0-.09-.09-.07V180l0,.1Zm-.36-6.09.16.06.14-.12-.06-.15.08-.09-.06-.12-.06,0,.12-.15-.05,0h-.05v.11l0,.09.1.15-.07.08v.12l-.1.08,0-.07Zm.4.58-.07.07v.09l.12-.11v-.09l-.11-.06-.25-.08.09,0,0,0h-.07l-.07,0v.07l.09.05.09,0-.07,0-.07.07h.09l.1-.08Zm-.1.5,0,.09-.14.13.09,0,0-.09.08-.06v-.05Zm7.35,6.18.67-.3.29-.18.87-.88.29-.44.17-.36.18-.31.13-.34.24-1.45-.1-1.12-.07-.32,0-.33-.14-.31-.27-.76-.38-.58-.47-.58-1.18-.82-.34-.14-.36-.08-.32-.12-.34,0-.39-.09-.9,0-.86.1-1,.38-.94.49-.29.25-.51.56-.38.53-.35.65L320,175l-.09.38,0,.3-.08.38,0,.44.22,1.79.39,1,.16.26.21.29.55.61.81.63.31.18,1,.38.89.08h1.25l.37,0,.31-.14.35-.05ZM319.71,174l.21,0,.1-.06-.1,0Zm0-.44.16,0,0-.25-.12.08,0,.09Zm8,6.84-.25.24-.95.46-.33.07-.31.1-.9.1-1.22-.07-.31-.09-.68-.16-.31-.14-.57-.39-.54-.47-.4-.58-.2-.21-.29-.69-.2-.7-.06-.33,0-1,.21-1.36.15-.35.1-.37.16-.33,1-1,.56-.42.29-.14.35-.07.64-.23.9-.1.5,0h.37l.62.09,1,.38.57.37.55.43.31.44L329,175l.11.33.16,1.27v.83l-.11.7-.12.4-.23.58-.21.31-.16.27-.19.28-.27.3Zm-7.15.15-.12.06.06.14v-.11l.05-.07Zm-.26-7.62.09.08.07,0-.06-.12Zm.62,8,.06,0-.07-.06-.08.11v.07Zm.15.4-.09,0,0,0,0,0,.08.08Zm-.08-5.22-.07,0-.05,0-.12-.08,0,0-.06.11.05,0Zm-.29-.78.11,0,.07-.08v-.12l-.07,0,0,.16-.05,0Zm.19.45-.11,0,0,.11h.11Zm.39,5.43-.08-.15,0,.07.06.08Zm0-6,0,0-.12.06-.07.06-.06.18.09,0,.05-.06.06-.09Zm.13-.44-.08.06h-.18l0,.11.09,0,.21,0Zm5,4.88.31-.16.52-.45.19-.33.15-.28.18-.28.12-.73.06-.89-.11-.75-.14-.31-.12-.35-.16-.31-.44-.58-.57-.37-1-.35h-.85l-.81.12-.37.11-.31.17-.49.38-.25.24-.21.29-.14.31-.2.26-.09.33-.09.66v.53l.14.88.39,1,.24.24.19.24.57.45.61.28.32,0,.36.1,1-.09.33-.1.31-.05Zm-4.78-5,0,.09h.07l.07-.06h-.09l0,0,0-.05Zm.09-.36.15.1,0-.05,0-.06Zm2.44,8.1h0l0-.1-.12,0,.07,0Zm.21,0-.09,0-.09,0,.11,0Zm.62.39-.11-.08h-.07l0,.09Zm.08-.39h-.16v.11h.16Zm.43.12h-.12l0,.07.09.05,0,0h0l.05-.06Zm0-1.64,0-.07h-.11v.08Zm.9,1.34-.11-.15,0,.07-.1.08h-.11l0,0-.13.15-.12-.06-.09,0-.12.09.08,0,.14-.06.07.05.12-.06,0-.11.17,0,.06-.09Zm-.65-9,.05-.05,0-.09Zm.63,7,.09-.06.09,0h.21l-.11-.08h-.09l-.11,0-.07,0,0,.07-.08.16.08.16v.16l.07,0,.12-.06h.06l-.15-.15Zm.53,2-.08-.16-.14.06.06.12-.07.05Zm0-.49-.1-.07,0,.06,0,0h0l0,0Zm-.07,0,.07,0-.07,0h0v0Zm.23-1.58-.11,0,0,.14-.16,0,0,.07.16-.06Zm.31,1.71,0-.05-.07-.07h-.18l0,.26-.11,0v.12h.14l0-.08.09.07.1-.06-.06-.1,0-.06Zm-.19-2.11.1-.15-.11-.07h-.09l0,.08,0,.09,0,.14.16,0Zm0,2.19h.18l0,.07-.1.06-.06,0Zm.44-2.25.07-.06.09,0,.08.08H328l-.17-.08-.07-.07,0-.18-.07,0,0-.05,0-.09-.06-.07,0,.09-.17.19h-.1l0,.09.08,0,.13,0,.05,0-.08.11Zm.48,2,0-.12h0l-.15-.1-.16,0-.07.06-.12.15.09,0,.08-.09,0,.11.11.1,0,0h.25l0-.16Zm-.28.37-.07,0-.09.06.09,0Zm.24-.49,0,.12-.17.07-.12,0,0-.07.15-.19.11,0Zm.08-.2.12-.06-.1-.12-.19,0,0,.17h.11Zm-.1-1.83-.06-.12-.09,0,0,.13.06.06Zm0-.48-.1.08h.18l0,.11h-.05v.14l.18,0,.08-.09-.1.06,0-.17-.08-.08Zm0-.78.11.14.07,0v-.2l-.1-.12-.08.09Zm1.13,2.75-.08,0-.11,0,0-.09-.06-.09-.31,0,0-.09.16,0,0-.11-.08-.06-.12.13-.15.06.11.17-.19,0v.11l.16,0,0,.07h.05l.1-.1.12,0,.07-.07.06.07-.08.18.09,0,.1-.11h.23Zm-.65.71h-.09l0,0,0,0h-.09l0-.12h-.11l0,.1.07.08,0,.08h.14Zm-.2-3.08-.08.09.13,0h.14l0,0,.05,0Zm.09-.48h.13V178l0-.1.16.11-.09-.13h-.07l-.17.1Zm.32-1.24.11.1.1-.07,0-.07,0,.05Zm.63,3.41-.2,0-.12.13.1.1-.07.07H329v.07l.14,0,0-.12v-.16l.09.08,0,.33.08.12h.05l0-.42Zm.48-.22,0,0v-.09h-.09l-.12.08-.32,0v.12l.21,0,.1-.09.12.15,0-.08Zm.42-.42h-.08l-.07.05-.11-.06-.08-.08.13-.2-.07-.05-.31.13h-.12l-.07.09h.19l.13.08.06.21h.2l.05.07.07-.09Zm-.44-.59-.12,0,0,.13v0l-.07.09.23-.08.05,0v-.07l0-.07Zm-.4-5.45.05,0,0-.09-.08-.07Zm.43,5.22,0,.07.39,0,.06-.09-.17-.13-.12.08-.05.07Zm.46.35.13-.11,0-.09-.12.08-.07.09-.14-.06H330l.07,0,.16,0,.15.09v-.07ZM330.1,178l.12-.07-.13,0Zm.1.26.08.07v-.16Zm-.23-4.49.05,0,0,0,0,0Zm.55,4.9.1-.11-.1-.22-.07,0-.1.15-.1,0,0,.06.25.12,0,.12.07,0v-.09Zm-.54-5h0v0Zm.28,3.82.06-.14-.07-.08v.07l0,.14Zm-.08-1.06.14,0,0-.09Zm.45,1.71-.11-.12-.19,0,.08.11h.07Zm.13-.52-.08,0-.07,0,0,.09-.11.13.11.08.19-.27Z"/><text class="cls-24" transform="translate(361.08 338.69) rotate(-3)"><tspan class="cls-25">A</tspan><tspan x="3.92" y="0">U</tspan><tspan class="cls-26" x="8.13" y="0">T</tspan><tspan class="cls-27" x="11.58" y="0">H</tspan><tspan x="15.9" y="0">E</tspan><tspan class="cls-26" x="19.54" y="0">N</tspan><tspan x="23.92" y="0">TIC</tspan></text><text class="cls-28" transform="translate(369.41 378.38) rotate(-3)">R<tspan class="cls-29" x="3.81" y="0">ECIPE</tspan></text><text class="cls-30" transform="translate(359.11 355.07) rotate(-3)">SOUTH<tspan x="-6.8" y="15">AFRICAN</tspan></text><text class="cls-31" transform="translate(171.15 514.45) rotate(-3)">BEEF RAISED WI<tspan class="cls-32" x="52.27" y="0">T</tspan><tspan class="cls-33" x="56.03" y="0">H VEGE</tspan><tspan class="cls-34" x="79.59" y="0">T</tspan><tspan x="82.84" y="0">ARIAN DIET AND NO AD</tspan><tspan class="cls-35" x="158.2" y="0">D</tspan><tspan class="cls-33" x="162.79" y="0">ED HOR</tspan><tspan class="cls-36" x="187.35" y="0">M</tspan><tspan x="193.29" y="0">ONES OR A</tspan><tspan class="cls-37" x="228.64" y="0">N</tspan><tspan x="233.35" y="0">TIBI</tspan><tspan class="cls-38" x="245.72" y="0">O</tspan><tspan x="250.43" y="0">TICS.</tspan></text><text class="cls-39" transform="translate(204.68 377.48) rotate(-3)">USA</text><text class="cls-40" transform="translate(194.75 354.97) rotate(-3)">PROUD<tspan class="cls-41" x="19.27" y="0">L</tspan><tspan x="21.85" y="0">Y MADE</tspan></text><text class="cls-42" transform="translate(200.21 377.26) rotate(-93.15)">IN <tspan class="cls-43" x="7.38" y="0">T</tspan><tspan class="cls-44" x="10.54" y="0">H</tspan><tspan x="14.51" y="0">E</tspan></text><path class="cls-45" d="M305.83,395.42a7.09,7.09,0,0,1-1.12,0l-.48-.06a34.58,34.58,0,0,1-5.65-1.2l-.53.08h0a33.53,33.53,0,0,1-5.34,1.73l-.33.08c-.29.05-.53.09-.77.11a7.69,7.69,0,0,1-4.75-1.16l-.39-.27a33.29,33.29,0,0,1-4.37-3.72h-.16a33.68,33.68,0,0,1-5.57-1L276,390a7.63,7.63,0,0,1-4.38-3.46c-.09-.17-.18-.33-.25-.49a33.09,33.09,0,0,1-2.14-5.28l-.14-.09a33.85,33.85,0,0,1-4.48-3.42l-.24-.23a7.54,7.54,0,0,1-1.63-2.37,7.65,7.65,0,0,1-.64-2.73c0-.2,0-.38,0-.55a33.07,33.07,0,0,1,.56-5.66l-.08-.14a34.62,34.62,0,0,1-2.38-5.12l-.1-.29a7.62,7.62,0,0,1-.35-2.86,7.48,7.48,0,0,1,.71-2.72,4.77,4.77,0,0,1,.25-.48,33.27,33.27,0,0,1,3.12-4.76v-.16a33.44,33.44,0,0,1,.27-5.64l0-.28a7.68,7.68,0,0,1,2.9-4.8l.47-.32a34.08,34.08,0,0,1,5-2.76l.07-.14a33.63,33.63,0,0,1,2.83-4.86l.18-.26a7.68,7.68,0,0,1,4.8-2.9c.14,0,.3,0,.52-.07l1-.09a32.86,32.86,0,0,1,4.78-.06l.13-.1a34.26,34.26,0,0,1,4.8-3l.25-.13a7.53,7.53,0,0,1,2.56-.68l.24,0a7.36,7.36,0,0,1,2.83.38l.45.17a34,34,0,0,1,5.12,2.51l.17,0c.85-.14,1.71-.25,2.56-.32,1-.09,2.05-.12,3.07-.12h.25a7.62,7.62,0,0,1,5.13,2.27c.13.13.27.28.4.44a34.41,34.41,0,0,1,3.34,4.58l.15,0a33.46,33.46,0,0,1,5.19,2.23l.24.13a7.7,7.7,0,0,1,3.49,4.4c.06.19.1.37.14.56a33.59,33.59,0,0,1,.85,5.62l.12.12a34.22,34.22,0,0,1,3.57,4.4l.14.21a7.65,7.65,0,0,1,1.06,2.75,7.55,7.55,0,0,1,0,2.83c0,.15-.07.3-.09.4a34.29,34.29,0,0,1-1.89,5.46l0,.16a33.63,33.63,0,0,1,1.13,5.54l0,.26a7.62,7.62,0,0,1-1.66,5.39,5.63,5.63,0,0,1-.38.43,33.89,33.89,0,0,1-4.12,3.87l0,.16a34.42,34.42,0,0,1-1.57,5.43l-.11.27a7.61,7.61,0,0,1-4,4l-.46.18a34.56,34.56,0,0,1-5.49,1.54l-.11.13a33.79,33.79,0,0,1-3.92,4.09l-.2.18a7.6,7.6,0,0,1-2.59,1.39,8.09,8.09,0,0,1-1.63.32Z"/><path class="cls-13" d="M293.52,327.31l-.17.09a29.2,29.2,0,0,0-4.21,2.63l-.22.16-.16.13a4.08,4.08,0,0,1-.46.24l-.18.08-.34.13a4.1,4.1,0,0,1-1.27.16h0a28.82,28.82,0,0,0-5.2.13l-.25,0a3.7,3.7,0,0,0-2.25,1.35l-.11.16a29.64,29.64,0,0,0-2.51,4.29l-.12.25-.08.18a4,4,0,0,1-.28.43l-.16.19-.21.24a4.16,4.16,0,0,1-1,.73h0l0,0a29.44,29.44,0,0,0-4.54,2.52l-.21.14a3.69,3.69,0,0,0-.89,1,3.49,3.49,0,0,0-.48,1.25l0,.19a29.62,29.62,0,0,0-.24,5v.47a4.22,4.22,0,0,1-.05.51c0,.07,0,.15-.06.23s0,.21-.08.32a3.92,3.92,0,0,1-.59,1.13v0l0,0a29.64,29.64,0,0,0-2.85,4.35,2,2,0,0,0-.12.22,3.47,3.47,0,0,0-.33,1.28,3.6,3.6,0,0,0,.15,1.34l.07.18a30.82,30.82,0,0,0,2.1,4.51l.14.24.1.17a4.07,4.07,0,0,1,.19.48l.05.22c0,.11.06.21.08.33a3.91,3.91,0,0,1,0,1.28v0a29.58,29.58,0,0,0-.52,5.18,2.24,2.24,0,0,0,0,.24,3.58,3.58,0,0,0,.31,1.29,3.43,3.43,0,0,0,.75,1.12l.14.13a29.48,29.48,0,0,0,4,3l.23.15.17.11a3.36,3.36,0,0,1,.39.33l.19.2.19.22a3.76,3.76,0,0,1,.6,1.13v0a29.94,29.94,0,0,0,1.95,4.82,2.26,2.26,0,0,0,.11.22,3.71,3.71,0,0,0,2.05,1.64l.18,0a29.71,29.71,0,0,0,4.89.84l.28,0h.2a4.29,4.29,0,0,1,.5.12l.23.08.3.12a4,4,0,0,1,1.06.73h0l0,0a29.34,29.34,0,0,0,4,3.36l.2.15a3.61,3.61,0,0,0,1.24.49,3.65,3.65,0,0,0,1.34,0l.19,0a29.7,29.7,0,0,0,4.73-1.53l.26-.11.18-.08a3.59,3.59,0,0,1,1.08-.2h0v0h0l.26,0a3.88,3.88,0,0,1,1.27.13h0a30.47,30.47,0,0,0,5.08,1.09l.25,0a3.51,3.51,0,0,0,1.32-.16,3.7,3.7,0,0,0,1.19-.62l.15-.12a30.09,30.09,0,0,0,3.44-3.59l.17-.21.12-.16a3.63,3.63,0,0,1,.38-.35l.18-.13c.09-.07.18-.14.28-.2a3.86,3.86,0,0,1,1.19-.47h0a29.56,29.56,0,0,0,5-1.4l.23-.09a3.69,3.69,0,0,0,1.85-1.86l.07-.18a29.93,29.93,0,0,0,1.38-4.77l.05-.27,0-.2a3.39,3.39,0,0,1,.17-.48c0-.07.06-.13.1-.19a3.45,3.45,0,0,1,.16-.31,4,4,0,0,1,.84-1h0l0,0a29.88,29.88,0,0,0,3.79-3.56,1.45,1.45,0,0,0,.16-.19,3.67,3.67,0,0,0,.78-2.5l0-.19a29.18,29.18,0,0,0-1-4.87l-.08-.27-.06-.19a3.58,3.58,0,0,1-.08-.51c0-.09,0-.18,0-.27s0-.19,0-.29a3.9,3.9,0,0,1,.29-1.25h0v0a30.35,30.35,0,0,0,1.71-4.91c0-.08,0-.16.06-.24a3.59,3.59,0,0,0,0-1.33,3.54,3.54,0,0,0-.47-1.26l-.11-.16a30.23,30.23,0,0,0-3.13-3.86l-.19-.2-.14-.14a3.45,3.45,0,0,1-.3-.41l-.11-.2c-.05-.1-.11-.19-.16-.29a3.87,3.87,0,0,1-.32-1.24v0a29.71,29.71,0,0,0-.77-5.14,2,2,0,0,0-.06-.24,3.55,3.55,0,0,0-.61-1.17,3.49,3.49,0,0,0-1-.89l-.17-.09a29.58,29.58,0,0,0-4.57-2l-.26-.09-.19-.06a4.17,4.17,0,0,1-.46-.23l-.17-.12a3.12,3.12,0,0,1-.29-.2,4,4,0,0,1-.86-.95v0a30.3,30.3,0,0,0-3.06-4.2l-.17-.19a3.71,3.71,0,0,0-2.39-1.09h-.19a29,29,0,0,0-5,.38l-.27,0-.2,0a4.46,4.46,0,0,1-.51,0l-.22,0-.34,0a3.92,3.92,0,0,1-1.2-.44h0a30.28,30.28,0,0,0-4.67-2.29l-.23-.09a3.62,3.62,0,0,0-1.31-.17A3.57,3.57,0,0,0,293.52,327.31Z"/><text class="cls-46" transform="translate(259.87 519.49) rotate(-3.15)">*N<tspan class="cls-47" x="7.82" y="0">O</tspan><tspan class="cls-48" x="12.53" y="0">T A </tspan><tspan class="cls-49" x="24.87" y="0">LO</tspan><tspan class="cls-48" x="32.85" y="0">W CA</tspan><tspan class="cls-49" x="50.51" y="0">L</tspan><tspan x="53.73" y="0">ORIE </tspan><tspan class="cls-50" x="71.08" y="0">F</tspan><tspan x="74.85" y="0">OOD</tspan></text><text class="cls-51" transform="translate(270.99 359.1) rotate(-3)">SUGAR<tspan x="4.4" y="19">FREE</tspan></text><path class="cls-1" d="M320.28,361.77c.09.15.13.35.2.49s0,0,0,.05a7.32,7.32,0,0,0-.89.48c.18.24.33.52.5.79,0,0,0,0,0,0a.76.76,0,0,1-.21.21l-.12.09a.34.34,0,0,1-.13.07s-.14-.12-.18-.16l-.09-.07-.43-.48a.11.11,0,0,0,0,0s0,0,0,0a4.24,4.24,0,0,0-.56.72c-.07,0-.09,0-.16,0s-.11,0-.14-.1,0,0,0,0a1.24,1.24,0,0,0-.12-.09s0,0,0,0l0-.07.13-.22a3.93,3.93,0,0,0,.2-.49.28.28,0,0,0,.05-.17s-.13-.07-.17-.08l-.18-.05a3.19,3.19,0,0,0-.48-.2h-.1l0-.07a2.35,2.35,0,0,1,.12-.38s0-.05,0-.09a.22.22,0,0,0,0-.1c.15,0,.3.07.47.08a.55.55,0,0,1,.16,0l.44.11a3.68,3.68,0,0,1,0-.45c0-.21,0-.4,0-.61a.59.59,0,0,1,.33,0,.51.51,0,0,1,.23,0,8.76,8.76,0,0,1,.16,1c.18,0,.32-.1.49-.14l.46-.12Z"/></svg>