<svg xmlns="http://www.w3.org/2000/svg" viewBox="0 0 349.3 490.56"><defs><style>.cls-1,.cls-35{fill:#231f20;}.cls-2{fill:#3f3b3c;}.cls-10,.cls-11,.cls-12,.cls-13,.cls-15,.cls-16,.cls-17,.cls-18,.cls-19,.cls-20,.cls-22,.cls-23,.cls-24,.cls-25,.cls-3,.cls-31,.cls-32,.cls-33,.cls-35,.cls-4,.cls-5,.cls-7,.cls-8{isolation:isolate;}.cls-3{font-size:100.56px;}.cls-10,.cls-11,.cls-12,.cls-13,.cls-15,.cls-16,.cls-3,.cls-4,.cls-9{fill:#60bbd4;}.cls-3,.cls-35{font-family:FestivoLC-BasicRLine, Festivo LC;}.cls-4{font-size:17px;}.cls-10,.cls-11,.cls-12,.cls-13,.cls-15,.cls-16,.cls-19,.cls-20,.cls-25,.cls-33,.cls-4{font-family:HalisR-Medium, Halis R;}.cls-17,.cls-18,.cls-19,.cls-20,.cls-22,.cls-23,.cls-24,.cls-25,.cls-31,.cls-32,.cls-33,.cls-6,.cls-7,.cls-8{fill:#fff;}.cls-7,.cls-8{font-size:11.09px;}.cls-7{font-family:FestivoLC-Basic, Festivo LC;}.cls-8{font-family:FestivoLC-Mini, Festivo LC;}.cls-10{font-size:29.38px;}.cls-11{font-size:29.46px;}.cls-12{font-size:29.46px;}.cls-13{font-size:29.58px;}.cls-14{letter-spacing:-0.01em;}.cls-15{font-size:29.47px;}.cls-16{font-size:29.51px;}.cls-17{font-size:26.52px;}.cls-17,.cls-18{font-family:FestivoLC-Wood, Festivo LC;}.cls-18{font-size:13.26px;}.cls-19{font-size:5.56px;}.cls-20{font-size:4.3px;}.cls-21{letter-spacing:-0.03em;}.cls-22{font-size:12.02px;font-family:Futura-CondensedLight, Futura;}.cls-23,.cls-25{font-size:5.72px;}.cls-23{font-family:HalisR-Bold, Halis R;font-weight:700;}.cls-24{font-size:17.14px;}.cls-24,.cls-31{font-family:FestivoLC-Inline, Festivo LC;}.cls-26{letter-spacing:-0.12em;}.cls-27{letter-spacing:0em;}.cls-28{letter-spacing:-0.02em;}.cls-29{letter-spacing:-0.01em;}.cls-30{letter-spacing:-0.02em;}.cls-31{font-size:26.44px;}.cls-32{font-size:7px;font-family:Futura-Condensed, Futura;}.cls-33{font-size:5.29px;}.cls-34{fill:none;stroke:#60bbd4;stroke-miterlimit:10;stroke-width:0.91px;}.cls-35{font-size:21px;}.cls-36{letter-spacing:-0.06em;}.cls-37{letter-spacing:0em;}</style></defs><title>Asset 2</title><g id="Layer_2" data-name="Layer 2"><g id="Layer_1-2" data-name="Layer 1"><path class="cls-1" d="M5.8,19.61,316.5,5.3c2-.08,3.7,1.16,3.8,2.83l27.9,420c.1,1.66-1.4,3.08-3.4,3.16L34.1,445.65c-2,.08-3.7-1.16-3.8-2.83L2.4,22.77C2.3,21.11,3.8,19.69,5.8,19.61Z"/><path class="cls-2" d="M342.91,422.3c.1,2.5.9,1.5,1.1,1.9C343.61,420.1,342.71,422.4,342.91,422.3Z"/><polygon class="cls-2" points="344.75 428.77 345.15 429.48 343.85 423.57 344.75 428.77"/><path class="cls-2" d="M346.46,409.5c-1.3,3.6,1,13.6.8,20.4L347,431l1.4,3C347.76,425.9,346.36,415.3,346.46,409.5Z"/><path class="cls-2" d="M349.1,413.2c-.5,1.3-.8-4.3.1,4.7,0-.5.1-.6.1-.9C349.3,416.2,349.2,415.1,349.1,413.2Z"/><path class="cls-2" d="M349.3,417C349.6,421,349.7,414.4,349.3,417Z"/><path class="cls-2" d="M348,398.7l.8,5.2c.3-1.1.1-5.8.5-4C348.7,394.5,348.4,395.6,348,398.7Z"/><path class="cls-2" d="M346.6,393.8l.4,2.7A5,5,0,0,0,346.6,393.8Z"/><path class="cls-2" d="M347.8,402.2l-.8-5.7c-.2.8-.7.9.3,2.6C346.8,398.7,347.3,399.8,347.8,402.2Z"/><path class="cls-2" d="M347.7,405.5c-.2,3-.2,6.8-1,1.5C347.5,417,348.5,415.5,347.7,405.5Z"/><path class="cls-2" d="M345.3,431.6l-.2,4,.7,3.4C345.5,437.2,345.8,431.3,345.3,431.6Z"/><path class="cls-2" d="M347,366.1c-.3-.3-.8,1.8-1.1,2.2l.6,3.8C346.5,370.1,346.5,366.4,347,366.1Z"/><path class="cls-2" d="M345.8,368.3l-.9-5.8C345.2,367.7,345.5,368.6,345.8,368.3Z"/><polygon class="cls-2" points="344.9 393 346.6 402.4 344.8 391.1 344.9 393"/><polygon class="cls-2" points="345.8 344 346.7 347.2 345.3 341.5 345.8 344"/><path class="cls-2" d="M344.8,329.4c.8,2.4.9-3.4,1.4-.8a72.73,72.73,0,0,0-1.7-10.4A52.3,52.3,0,0,1,344.8,329.4Z"/><path class="cls-2" d="M343.6,313.1c.2,1.6.6,3.3,1,5.1C344.3,316.5,344,314.7,343.6,313.1Z"/><path class="cls-2" d="M344.6,352.7c.2-.5.6-1.4.7-4.6l-.8,2.3Z"/><path class="cls-2" d="M344.4,350.5h0l-.2-5Z"/><path class="cls-2" d="M344.6,353.3v-.6A.64.64,0,0,0,344.6,353.3Z"/><path class="cls-2" d="M344.8,377.8c-.7-3.4-1.6-10.4-2-3.5C343.6,376.6,343.8,372.7,344.8,377.8Z"/><path class="cls-2" d="M343.6,356.1l.1,6.1c.2-.1.5-1.3.9.4Z"/><polygon class="cls-2" points="343.1 353.2 343.6 356.1 343.6 353.9 343.1 353.2"/><path class="cls-2" d="M343.3,323.6a84.57,84.57,0,0,1-1-8.8c0,3.5.1,7.2.3,10.6C342.9,325.9,343.5,327.4,343.3,323.6Z"/><path class="cls-2" d="M343.7,336.7l-.1-.6C343.6,336.5,343.6,336.8,343.7,336.7Z"/><path class="cls-2" d="M340.5,282.6l-.1.5c.1,0,.1.1.2.1Z"/><path class="cls-2" d="M342.5,326a22.11,22.11,0,0,0,.6,5.7c-.2-2-.4-4.1-.5-6.3C342.5,325.2,342.4,325.2,342.5,326Z"/><path class="cls-2" d="M342.6,304.1c-.1,1.4-.2,3-.2,4.6C342.6,307.3,342.9,304.6,342.6,304.1Z"/><path class="cls-2" d="M343.9,335.2l.1.4C344.1,334.7,344,334.8,343.9,335.2Z"/><path class="cls-2" d="M343.9,335.2a26.1,26.1,0,0,0-.8-3.5c.2,1.6.3,3.1.5,4.4Z"/><path class="cls-2" d="M334.2,273.1c.9.4,2,7.3,1.5,13.4,1,5.9,3.5,1.9,4.8-3.4-.4-.2-.7-.1-1.5-6.2-.3,2.1-.3,13.5-1.4,8.4-.9-8-.1-6.6.2-10.5-.9,3.4-2.1-10.1-3.5-8.3l.9,7C334.8,273.7,334.3,271.2,334.2,273.1Z"/><path class="cls-2" d="M340.9,294.7l.2,2.5a51,51,0,0,1,.7-8.7c-.6-4.1-1-5-1.3-5.2l.6,12.3Z"/><path class="cls-2" d="M341.8,308.4c-1-1.9-1.7-7.9-2.5-4.1.5,7.3,1,5.1,1.7,9.4-.9-11.8.7,3.4.7-5.2.3,2.3.5,4.4.6,6.4,0-2.1,0-4.2.1-6.1v.4h0c-.1.5-.1.7-.1.1v-.2a2.1,2.1,0,0,0-.5-.7c.1-3.4.3-.6.5.5l.1.1h0l-1.2-11.8C341.2,299.7,341.4,302.8,341.8,308.4Z"/><path class="cls-2" d="M340.5,368c.1-.4.1-.4.2-.4C340.6,366.9,340.5,366.6,340.5,368Z"/><path class="cls-2" d="M340.8,363.1a16.11,16.11,0,0,1,.6,4.4c-.1,2.4-.4,0-.7.2.3,1.7,1,5.9,1.1.5l-.2-.8c0-4.8.9-11,1-10.1A19.56,19.56,0,0,0,340.8,363.1Z"/><path class="cls-2" d="M341.1,335.4l-1-9.8-.5,5,.5-.3C340.1,336,340.6,334.7,341.1,335.4Z"/><polygon class="cls-2" points="340.9 281.4 342 282.7 340.3 277.1 340.9 281.4"/><polygon class="cls-2" points="340.1 268.6 341 269 340.3 265.7 340.1 268.6"/><path class="cls-2" d="M15.1,166.8l.4,2.9A13.21,13.21,0,0,0,15.1,166.8Z"/><path class="cls-2" d="M14,145.8l-.4-.5C13.9,146.2,14.1,146.6,14,145.8Z"/><path class="cls-2" d="M267.4,2.7c-4.3-.5-9-1.5-8.5-.6l1.4.9A41.75,41.75,0,0,1,267.4,2.7Z"/><path class="cls-2" d="M52.2,20.1l1.2.2,2.8-1Z"/><path class="cls-2" d="M49.4,24.1l-5.6-.3C45.1,23.9,46.9,24,49.4,24.1Z"/><path class="cls-2" d="M22.5,281.2l1.1,3.4C23.3,279.3,22.9,281.6,22.5,281.2Z"/><path class="cls-2" d="M332.5,137.4c.2-3.7.1-6.6,0-9.1C332.3,132.7,331.7,136.3,332.5,137.4Z"/><path class="cls-2" d="M4.9,159c.3,1.8.5,2.5.7,2.4C5.4,159.7,5.1,158.7,4.9,159Z"/><path class="cls-2" d="M332,117.8a12.1,12.1,0,0,0-.1,1.9c.3,2.6.6,5.3.7,8.6A36.91,36.91,0,0,0,332,117.8Z"/><path class="cls-2" d="M305.21,434c-1.2.1-3.1.2-5,.3A28,28,0,0,0,305.21,434Z"/><path class="cls-2" d="M337.6,217C337.8,219.8,337.7,217.5,337.6,217Z"/><path class="cls-2" d="M334.7,230.5c-.1-.6-.3-1-.5-1.1A1.61,1.61,0,0,1,334.7,230.5Z"/><path class="cls-2" d="M324.7,91v-.2C324.6,91.6,324.6,91.5,324.7,91Z"/><path class="cls-2" d="M337.5,221.2c.1-1,.1-2.2.1-3.5A26.62,26.62,0,0,0,337.5,221.2Z"/><path class="cls-2" d="M337.8,220.6V223C338.1,223.3,338.1,223,337.8,220.6Z"/><path class="cls-2" d="M337.4,213.3c.1,1.6.1,3,.1,4.4,0-.5.1-.8.1-.6Z"/><path class="cls-2" d="M29.9,474.3a1.27,1.27,0,0,1-.1.6C30.4,477.6,30.3,476.4,29.9,474.3Z"/><path class="cls-2" d="M197.2,16.2l.3-.1-.3.1Z"/><path class="cls-2" d="M187.5,17.4a24.28,24.28,0,0,1,9.6-1.3l-3.4-2.5Z"/><path class="cls-2" d="M18.2,180.68l.4-5.75c1.8,6.83,1.7,11.82,2.5,6.41-2.9-.67-1.8-22.15-4.7-22.81l.4-3.83a18.59,18.59,0,0,0,.3,2.33c.9-7.41-2.4-5.33-2.7-14.82,0-3.33.3-5.58.8-3.41L14,131.47c-.1-2.16.4-1.67.5.5l-1-11.16.1.08c-.6-1.58-1.5-5.16-1.9-6.91.2-2.83.4,1.42.7.67l-1.1-6.16c.6-2.58,1.6,2.5,1.8,6.83,2.5-5.91-1.1-5.08-.2-17.65l.8,5.83c1.4-3.83.5-8.33,1.1-15-.4,1.58-1.7,13.32-2.9,6.66a27.17,27.17,0,0,0-.8-8c1-.08.5-3.58.2-8l1.4.25c-.7-4.75-1.4-4.33-2.2-7.16-.2-5.33.8-6.49,1.6-7.74-.4-8.58-1.3,6-2.2-4.08,0-7.16-.8-12.07-2.2-20.57.1-5,.9.83,1.2-1L7.5,34.55c0-1.08.3-.75.5-.58-.7-3.66-1.4-.25-2.1-6.08a2.73,2.73,0,0,1-.5-1.5V25.31c0-.33.1-.67.1-1l.2-1a1.58,1.58,0,0,1,.4-.92,2.93,2.93,0,0,1,2.5-.67,6.82,6.82,0,0,1,1.3.08h.6l1-.08a27.75,27.75,0,0,0,4.5-.58c2.2.25-1,.75-.3,1.17,11.8-1.5,10.1-1.17,19.8-2.83l8.4.33c-6.2-.58,1.6-1.92,8.4-3.08-2.2-.33-4.1-.58-5.3-.67L57.9,15c1.3.17.3.58-1.5,1.08.7-.17,1.4-.25,2-.33,3.9.25,2,1-.8,1.75l-4-.5c-2.6.83-5.1,1.67-4.5,2.33a26.72,26.72,0,0,1,3.6-.5c-.7.25-1.1.42-.8.5a15.26,15.26,0,0,0,3.3-.58l2.6,1.17.6-.5,14.3.17c10.1-1.75,18.9-4,35.1-5.25-4,1.08-.8,1.58-.9,2.66-4.5-.92-12.5,1.08-21,1.25,4.4-.08,3.5.5,2.4.75l14.9-1.75c-.3.92,3.2.5,7.2.75-3.1-1.67,11.1-1.67,17.2-2.5.4.58-1,1.25-8.5,1.42,8.3.92,10.5-2.58,18.6-1.83a10.47,10.47,0,0,0-3.5.42c4.2-.75,14.6-.75,12.2-.17l-1.8.08c12.1-.33,36.7-1.67,38.4-3.25a7.14,7.14,0,0,1-2.2,2.25l21.2-6c-1.8,1.42,5.7,4.08-4.3,5.33a78,78,0,0,0,12.5-.67c-2-.08-5-1.67-2.3-1.92,7.5,1.08,5.2.5,14.3,1.33-3-.17.2-2.33,4.8-2.5-.7.33.5,2-1.2,2.25l11.4-2.5c-2.9.5-.4,1.67,2.2,2.16-1.2-.33,10-.42,13.1-.75l-4.9-.25c13.1-.33,12.7-3.41,25.7-3.91-1.5.5-3.7,2.66,2.9,2.66,3-1.17,13-5.5,24.4-6.83l2.2.5,8.7-1.08c-9.5,2.83-19.1,5.33-28.8,7.33,4.9.25,1.4.67,8.7.25,2.6.42-3.9,1-6.1,1.17l17-.42c-.4-.58,2.8-1,6.1-1.42l2.4-.33,1.1-.17.5-.08.2-.08c.5-.17,1-.42,1-.67l-1.3.25-2.3.25-4.6.5-9.1,1c-.4-.58,2.2-1.5,6.4-2.41,2.1-.42,4.6-.83,7.4-1.17L312.2,6l1.8-.17c.6-.08,1.2-.08,1.9-.17a3.3,3.3,0,0,1,1.8.33c.5.42.4.67.1.83a6.85,6.85,0,0,1-1.2.42,3.93,3.93,0,0,0-2,1,2,2,0,0,1,1.4,0,1.49,1.49,0,0,1,1,1.33,11.48,11.48,0,0,1,.2,1.75,5.63,5.63,0,0,1,0,1.83l-.3-1-.1-.5-.1-.25c0-.08,0-.08-.1-.17a10,10,0,0,0-.4-.92v.92l.1.75.1.92c.2,1.25.5,2.41.8,3.58a21.33,21.33,0,0,1,.5,8.33c.1,2.33-1.4,7-.5,7.33,1.4-3.83,6.4-4.83,7.7-2.33-.1.83-.7,12.24-1.4,14.9-1,3.91-3.4-5.58-4.3-2.33.4.17,1,2.25,1.2,3.08-.2,2.41-1.3-.92-.7,4.33,1.5.83.6,10.74,1.4,2.41.8,5.16.1,5.5.5,11.57.8-2,3.5,5.33,4.3,10.49-.4-.25-.8.92-1,1.5.6,10.66.3,16.32.9,26.23-.3.92-.4,5.75-1.1,3.75a29.4,29.4,0,0,1,1.2,5.75c-.9,6-.6-6.83-1.9-2.25.9.33,1.7,7.83,2.5,12.16,1.2-1.42-.4-10.07-1.2-14.4,1.8-.08,4.2,7.41,5.7,17.65,1,8.24-.9,3.58-.6,5,.7,15.49,4,13,3.6,25.89-.8,5.16-2.2.33-3,1.5-.9-6.66,0-10.32-.3-14.82l-.2,5.58a34.35,34.35,0,0,1-.9-9c-.7,4.33,1.5,26.06,1.4,38.05.5,2.08,1.2,5.75,1.5,4l-.4-3.75c.7-3.5,1.7,7,1.9,2.25,1,5,2.4,10.66,2.3,17.82l-1.2,1.42c.4-.17.5-4.66-.1-6.66.8,2.91-1,11,.9,14.15l.6-5c1,5.08,2.8,11.24,2.8,17.57,1.1-2.91-.2-1.42,1-6-1.6,4-1-16.15-2.5-9.83,1.4-4.66.2-8,1.3-14.07-.4.17-.7,2.16-.8-3.16-.2-.33-.3-.75-.5-1.17v0c-.1-.25-.1-.25,0,.08a8.86,8.86,0,0,1-.5,2.75c-1.2-2.58-1.7-11-2.4-13.82,0-3.16.6,1.33.9-.42l-1-4.25c.9-.5,1-8.41,2.1-1l-.4-6.66a59.42,59.42,0,0,0-.5-12.66c0-3.16-1.6-7.91-.6-5.16l-1.3-10.41.2-.08c-.6-10.32-3-21.15-2-33.06a92.46,92.46,0,0,1-1.1-12.82l.8-1.17c-.6-4.41-.1-13.41-1-15.32,1.9-4.91-1-21.65-1.1-29.48l-1.1-.25c-.3-5.41-1-10.57-1.8-17.24l-1.4.33a64.62,64.62,0,0,1-.7-10.74V9.41a20.87,20.87,0,0,0-.1-2.5,10,10,0,0,0-.6-2.33,7.08,7.08,0,0,0-4-3.41,10.34,10.34,0,0,0-2.8-.58,20.53,20.53,0,0,0-3.2,0,9.81,9.81,0,0,1,3.5-.17,9.22,9.22,0,0,1,2.2.5,6.43,6.43,0,0,1,1.9,1C320,.5,317.8,0,315,0l-3.9.08c-.8,0-1.7,0-2.5.08-3.4.17-6.8.5-10.2.83-6.7.67-13.3,1.42-19.3,1.08a41.72,41.72,0,0,1-7.2.33,2,2,0,0,0,.7-.08l-1.2.08-4.1-.25a27,27,0,0,0,3.5.25c-2.3.08-5.7.42-9.1.75l-1.5-.75-.8.08c-3.4-.17-2.6.5-.8,1.08a42,42,0,0,0-4.5.75c-2.8-1.25-8.9.83-12.7-.42-2.2.83-17,1.33-18.7,2.91-.1-.17-1.1-.25.7-.33a69,69,0,0,0-11,.58l-1.7-1-8.2,1.83c-5.1-.42-7.2-.75-2.2-1.75-12,1.83-9.7.92-19.9,2.66l.5-.75c-3.7.17-9.5,1.42-11.7.92-8.3-.92-40.5,1.67-61.6,1.42,4.2,1.83-9.8-.5-10.6,1.17-1.3-.42-4.2-.58-.8-1.17-10.7,1-16.2,0-23.5,1.67-1.3-.42,2.2-.83,1.1-1.08a15.85,15.85,0,0,1-4.5.33c-1.1-.25,1.5-.5,3.2-.75-10.9.58-12,2.16-12.7,3.58-5.6-.42-8.4-.17-12.3.92-2-.42-5.2-.67,1.6-1.17-3.8.08-23.4.42-23.8,1.58a33,33,0,0,0-6.4.33l-9,.33a48.42,48.42,0,0,0-4.9.33,7.08,7.08,0,0,0-2.6.75A5.7,5.7,0,0,0,0,19.48a5.33,5.33,0,0,1,2-1.75A10,10,0,0,0,.6,20.4a7.71,7.71,0,0,0-.2,1.5v5c0,1.08.1,2.25.2,3.58l-.2-.17c-.3,13.07.9,5.58.4,18.48l1-.75c2.3,1.08-.5,11.41.8,18.82L3,64.11C4,68.11.8,75.6.8,79.68.7,80.6.4,78.27.2,77c-.6,10.74,1.4,1.33,2.3,9.24-.6,1.5-2-1.83-1.7,3.58-.4,2.66,3.4,15.4,2.5,22.81.4-1.67.9-3.25,1.6.42.6,5.66-1.1,15.4,1,20.48-.1.75-.2,1-.4,1,.7,4.33,1.7,14.07,2.8,16.57-3.2,4.16,3.5,26.81.2,26.89l1.1,13.32L9.3,191c.3,8.49,1.3,11.49,2.3,14.49-.1,2-.5.58-.7.42.2,12.49.4,13.74,2.7,24.06l-1,1.17c.8,2.83-.4,18.07,1.6,30.22-.1-.08-.4-.33-.6-1.33,2.1,13.66-.7,33,3.4,37.88l1.5,9c-.5-11.74,1.8,1.67,2.1-3.16.5,4.58-.4,12-.9,6.33l.1-.92c-2.1-2,.3,14.57-1.1,14.32,1.6,23.06,2,45.63,3.4,67.19l1.4-2.58.4,7.49c-.2,2-1,2.75-1.3-2.66-.7,2.83,1.3,9,1.7,9.16.1,10.57-2.1-4-1.9-.83l.4,4.41.1-1c.9,3.5,1.6,3.83,1.9,10.24,0,4.08-.8,2.16-.8,3.75-.1,0-.1.58.1,2.5l.5,9.49,1-3.83c.9,4.16.5,8.91,1.6,4.5a34.13,34.13,0,0,0-.5,7.16V440a10.26,10.26,0,0,0,.1,1.75,5.36,5.36,0,0,0,.3,1.75,3.3,3.3,0,0,0,.7,1.58,6.2,6.2,0,0,0,3.2,2.41,9.38,9.38,0,0,0,2.1.42,21.24,21.24,0,0,0,2.3.08l17.2-.83c4.7-.25,8.4-.33,9.7-.25A180.52,180.52,0,0,1,85,445.29c-2.2-.08-3.5-1.17,3.9-1.42-2.6,2.5,13.7.42,19.9,1.83-5.5-.92,21.2-1.25,12.6-2.5,6.2-.08.4.83,5.2,1.25,14.8-1.58,32.7-.92,51-2.08.3-.33-2.8-.67,1.1-1.33l9.8,1.08c3.6-.33,3.2-1.92,9.9-1.17-1-.25-2.4-.58,0-.75,36-.17,73.3-4.58,109.9-3.41-5-.42-1.7-.58,2.1-.75-2.5,0,0-.75-.5-1.17l15.3.5c2.7-1.25,16.4-.83,17.9-2l-4.8.42c6.3-1.58-9.2-2.5-8.4-4.25-7.1,1.83-19.1-1.33-30.8,1.33-2.6-.25,2.2-.67.8-1-3,.83-6.5,1.17-13.3,1.17l.8-.25c-18.8,1-26.9.67-48.1,1.17l1.6.75a59.5,59.5,0,0,1-7.7-.25c-5.1,1.5,12.8-.5,8.1,1.08-6.1-1.42-32,1.42-36.2-.33-7,.33,2.1.83-4.9,1.17l-1.9-.42-1.7.75c-4.6.08-6.9-.42-7.1-.92,1.1,0,3.1-.25,4.3-.33-6-.33-16.7,1-18.8.83h6.7c-19,1.33-42.4,1.75-60.7,3.66l1.4.33c-14,1.42-11.3.08-26.7,1.17l.6-.08a88,88,0,0,1-11.4,1.08c3.9-.67-7.4-.58-2.3-1.33-15.2,1.5-7.5,1-17.5,2.91l-2.4-.58c-3.4.75-3.7,1.08-11.4,1.58,6.3-.83-5-.75,2-1.83a94.23,94.23,0,0,0-9.7,0l-4.1.25-.9.08H38l-.9.17a7,7,0,0,1-2.3.17,1.64,1.64,0,0,1-1.3-1.25,8.41,8.41,0,0,1,.1-1.58c.1-.25.1-.5.2-.75a9,9,0,0,1,.4-1.33c-.6-1.5-1-1.58-1.2-.83a9.31,9.31,0,0,0-.1,1.67v1.67A8.41,8.41,0,0,0,33,441a1.84,1.84,0,0,0,.8,1.08,4.31,4.31,0,0,0,.7.42c.1,0,0,.08-.4,0,.4.33.4.5-.1.58A2.27,2.27,0,0,1,31.6,441a7.71,7.71,0,0,1-.2-1.5c-.1-1-.2-2.41-.3-3.41-.2-4.33,2.3-7.49,1.5-18.32.1,1.08.2,1.17.3,2.25.3-4.08-1.3-7.91-.7-12.91-1.5-2.75-.4-6.49-2.1-7.16l1,9.91c-.8-5.58-3.1-10.82-2.8-20.15a32.56,32.56,0,0,1,1.4,5.33c.3-2.75-.7-5.25-.4-8.08,1.7.75,1.2,12.07,2.9,18.07.5-2.91-2-11.32,0-8.41-2.6-4.25-.4-10.66-2.7-17.9l1,.42a35.61,35.61,0,0,1-1-5.66l1.6,3.83c-1.5-5.91.2-11.49-.8-17.15.8,11.91-1,2.75-1.4,7.83-2.3-14.65,2.1-8.58.5-25.06.3,2.25,0,8.41-.7,4.91a57.29,57.29,0,0,1,.5-9.24c-.9-10.91-.9,1.75-1.9-2.91,1-3.75-.9-5.33-1.6-10.07l1-.08c-.2-12.49-2.4-3.16-2.3-14.4l1.7,4.66L25.3,310l1.2,1.17c-1.3-6.33-1.2-8.33-1.3-14.57-.6,1.5-1.9-.75-2.3-6.24.4-3.75,1.1,2.08.4-5.75a10.3,10.3,0,0,1,1,7.08c.4.33.8,1.67,1.1,2.08.4-4.08-.5-10.16-.7-13a15.86,15.86,0,0,1,0,3.08l-2.2-11.24c.3-1.83.7-.42,1.1,1-.3-2.33-.8-3.83-1.1-7.24.9.83,1.7.58,2.4,5.33l-1.6-10.74c.3-.75.6-5.58,1-4.16.1-6-2.6-14.57-2.5-22.56a13.91,13.91,0,0,1-.6-2.91c-.3-7.49.3-14.07-1.4-22.9l1.2-5.08c-.8-6.91-1.4,6.83-2.8-4.58-1-8.16,1.1-3.08,1.3-6-1-4-3-11-2.3-18.57C18,176.35,17.9,178.35,18.2,180.68ZM11.9,95.42c.3,1.67,1.2,4.91.7,6.16C11.2,99.67,11.7,98.25,11.9,95.42ZM67.4,17.74a23.49,23.49,0,0,1-6.4.08,41.07,41.07,0,0,1,6.4-.08ZM335.2,156c0-.08,0-.08-.1-.17C335.2,152,335.2,153.37,335.2,156Zm0,7.66c.2.75.3.67.5.33a14.47,14.47,0,0,1-.5-4.16A7.42,7.42,0,0,0,335.2,163.61ZM24.6,419.4l.2-1.5C25.3,421.23,25,420.31,24.6,419.4Z"/><path class="cls-2" d="M49.8,23.6a1.19,1.19,0,0,1-.9-.5C48.1,23.3,48.1,23.5,49.8,23.6Z"/><path class="cls-2" d="M22.2,280.6v.3c0,.1.1.2.2.3Z"/><path class="cls-2" d="M318.7,54.6a23.08,23.08,0,0,1,.3-3.7C318.7,50.8,318.6,51.7,318.7,54.6Z"/><path class="cls-2" d="M339.7,245.1l-.6-5.9a23.48,23.48,0,0,1,0,5.3C339.3,244.5,339.5,243.3,339.7,245.1Z"/><path class="cls-2" d="M336.2,296.6c.2.9.1,1.8.3,2.7l.5-.3C336.7,295.4,336.2,292.8,336.2,296.6Z"/><path class="cls-2" d="M336.6,250.8c-.8.5-.3,4.2,0,8.3v-.7C337.8,259.5,337.2,255.1,336.6,250.8Z"/><path class="cls-2" d="M336.7,260.1c.1,1.3.2,2.6.2,3.8C337.4,264.3,337,262.3,336.7,260.1Z"/><path class="cls-2" d="M336.4,208.2c-.1,2,1.2,1.2.9,2.3C338.5,212.6,335.3,197.5,336.4,208.2Z"/><polygon class="cls-2" points="333.9 254.3 334.9 252.7 333.9 250.5 333.9 254.3"/><path class="cls-2" d="M332.9,221.7l.1,6.6c.2-.1.3.7.5,1.8C333.2,226,333.2,221.5,332.9,221.7Z"/><path class="cls-2" d="M333.4,230a31.69,31.69,0,0,0,.5,5.3C333.8,234.2,333.6,231.7,333.4,230Z"/><polygon class="cls-2" points="333.1 245.3 333.2 243.3 333 238.7 333.1 245.3"/><path class="cls-2" d="M329.2,150.8l-.7-7.2c-.4-.7-.5,1.3-.2,3.9C328.6,149.3,328.9,151.9,329.2,150.8Z"/><path class="cls-2" d="M327.5,172.7a11.34,11.34,0,0,1,.6-3.2l-1.3-.1Z"/><path class="cls-2" d="M326,151.7c-.4-.7-1.6-10.4-1-1.3C325.4,151.2,326.1,158.4,326,151.7Z"/><polygon class="cls-2" points="321.7 43.3 321.8 45.1 323.9 44.7 321.7 43.3"/><path class="cls-2" d="M261.5,14.1c8.5,0,2-1.4,9.7-1.2,2-.6-6.3-.2-4.3-.7C261.7,13,259,12.8,261.5,14.1Z"/><path class="cls-2" d="M266.8,12.1c.8-.1,1.7-.3,2.6-.5C268.6,11.8,267.7,11.9,266.8,12.1Z"/><polygon class="cls-2" points="325.31 434.1 330.81 434.2 327.21 433.7 325.31 434.1"/><path class="cls-2" d="M336.81,431.5a8.2,8.2,0,0,0,3.1-.3,8.12,8.12,0,0,0,1.7-6.9,5.34,5.34,0,0,1-.2,2.2,6.59,6.59,0,0,1-1.1,2.4A5.77,5.77,0,0,1,336.81,431.5Z"/><path class="cls-2" d="M13.8,99.2l-.4-.4a14.87,14.87,0,0,0-.2,4.7Z"/><polygon class="cls-2" points="16.9 173.6 16.8 172.3 15.7 174.8 16.9 173.6"/><path class="cls-2" d="M21.9,235.9c-.1-2.5-.5-5.5-.6-8.1C21.8,233.4,20.4,236.7,21.9,235.9Z"/><text class="cls-3" transform="matrix(0.82, -0.05, 0.05, 1, 33.69, 254.95)">SAUSAGE</text><text class="cls-4" transform="translate(113.39 284.6) rotate(-3.15)"><tspan xml:space="preserve"> BEEF</tspan></text><text class="cls-5"></text><text class="cls-4" transform="translate(165.7 281.83) rotate(-3.15)">&amp;</text><text class="cls-4" transform="translate(183.95 280.63) rotate(-3.15)">PORK</text><text class="cls-5"></text><path class="cls-6" d="M224.8,156.9c-1.5-2.7-1.9-7-3.4-9.7.6-3.2,1-6.6,1.6-9.8.1-.3.1-.7.2-1,.2-.9.3-1.8.5-2.7.1-.6-.2-1.2-.5-.8v-.1c-5.1-1.2-10.3-.4-15.4.3s-10.3-.2-15.3,1.4c-1.1,0-1.6.6-2.7.7-.6,0-.8.3-1.4.3,0-.3-.9.2-1.1.1-2.2-1-4.5-.2-6.7.3-.6.1-1.2.3-1.9.4-.5,0-1.1-.1-1.6-.1-.1,0-.2,0-.2.1a.35.35,0,0,0-.2-.1,108.69,108.69,0,0,0-11.4-.5c-.1-.2-.1-.3-.3-.3-7.9.6-15.8,1.5-23.6,1.9-8.9.4-17.9.2-26.7,1.9-.2-.6-.7-.2-.6.5a52.78,52.78,0,0,0,1.6,6.6,48.83,48.83,0,0,0,1.8,5.4,25,25,0,0,0-2.3,5.3c-.6,1.6-1.9,4.4-1.8,6.6,0,.2.1.4.2.3h0c-.1.4.1.9.4.9,6.9-.6,13.8-1.9,20.7-2.7.1.1.1.2.2.2,4.6-1.2,9.2.7,13.8,0,4.9-.8,9.3-2.9,14.3-2a.22.22,0,0,0,.2-.2.37.37,0,0,0,.3.1,44.42,44.42,0,0,1,6.3-.4c2.1.1,4.3.1,6.4.1,3.7.2,7.4-.5,11-.6,2,0,4.2.4,6.1-.5,3.1,1.6,6.2,1.2,9.3.7a46,46,0,0,1,5.2-.6c3.1.7,6.3,1.3,9.4.4,2.2.4,4.5.1,6.8.7.5.1.8-.7.7-1.4A2.06,2.06,0,0,0,224.8,156.9Z"/><path class="cls-1" d="M137.3,156.2v.4l-.5.1h-.9l-.7.1h-.4l-.4-.1-.4-.2-.1-.3-.2-.3-.4-.3-.4-.2-.4.1h-.3l-1.6.1h-.3l-.7.1h-.3l-.4.2-.3.4-.3.6-.3.3-.4.1-1,.1h-.4l-.7.1-.4-.1-.1-.4.1-.4.3-.7.1-.3.2-.3.2-.7.3-.6.1-.4.2-.3.1-.4,1.6-3.9.1-.3.2-.3.1-.4.2-.3.6-1.7.1-.3.1-.4.1-.3.3-.3.6-.2.6.1.3.3.4.6.1.3.2.3.1.4,1.3,2.4.1.4.4.6.1.3.2.3.1.4.2.3.2.2.8,1.6.4.6.3.6.5.9.3.6Zm-11.6.3h0l.2-.1v-.1l.1-.1.2.1.1-.1h-.1l.1-.1.1-.1.1-.1v-.4l.1-.1v-.1h-.1l-.2-.1v-.1h.2l.1-.1-.1-.1H126v.2h-.1l-.1.1-.1.1v.1l.2.1.1.1v.1h-.2v.2h-.3l-.1.1v.1h.1v.2l-.1.1v.4h-.1v-.1h-.1v.1l.1.1.1.1h.1l.1-.1Zm0,.5h0Zm.4-1h0l-.1-.2h.2l-.1.1Zm.7.4-.2-.1-.1-.1h-.1v.3h-.2v.1l.1.1v.2l-.1.1h-.1l.1.1.1.1v-.1h.1l.2.1h.2V157l-.1-.1-.1.1-.1-.1.1-.1v-.2h.2v-.2Zm-.5-.6h0Zm0,.9Zm-.1-2.1h0v.2l.1.1h.1l.1-.1h-.1l-.2-.2Zm.2,0h0l.2.1h0Zm.2-.4h.1v-.1l-.1.1Zm8.9,1.4-.1-.3-.5-1-.4-.6-1.8-3.5-.2-.5-1.6-3-.2-.3h-.2l-.2.4-.2.7-.2.3-.1.4-.3.6-.1.4-.4,1-.1.4-.3.6-.1.3-.2.3-.1.4-.2.3-.1.3-.6,1.7-.1.3-.4,1v.3l.2.1.6-1.2.3-.3.4-.1h.7l.3-.1h2.4l1.9-.2h.4l.4.2.3.3.4.8.3.3Zm-8.8-1.2Zm.1,0h0v0Zm1.9,1.1-.1-.1-.1.1h-.2l-.1-.1v.1l.1.1h-.7v.1h-.1l-.1.2v.2h-.2l-.1.1v.2l-.1.1.1.1h.1v.1H127v.1h.3v.2l.1.1v-.2h.3l.1-.1v-.3l.1-.1h.1V156l.1.1v.2h.1v-.2h.2V156l.2-.1.1-.1v-.3Zm-1.9-2.5h0l.1.1h0V153Zm.1,1Zm.1-.5-.1.1v.1h.3l.1-.1h.1l.1-.1H127Zm.8,2.4h0v.3l-.1.1-.1.1-.1.1-.2.1-.1-.1.2-.1v-.1l.1-.2v-.2h.3Zm-.5-4Zm0,.4v.1h.2v-.1Zm.3,3.5Zm.2-.4v.1h.1v-.1Zm.1-.1h.2l.1-.1v-.1l-.1-.1-.1-.1-.1.1h-.1l-.1.1Zm-.1-3.7Zm3.2-3.8,2.9,5.4v.3l-.3.2-4.2.2h-1.1l-.3-.1-.1-.3,1.2-3.1.1-.3,1-2.7.2-.2.2.1Zm-2.9,7.2Zm-.1-3.9Zm.8,3.8h0l-.2.1v-.1l-.1-.1-.1.1.1.1h.1l-.1.1h.2v-.2Zm-.1-1.5v-.1h-.1l.1.1Zm-.3-4Zm.6,4.3h0l-.1-.1h-.1l.1.1Zm-.3-.6Zm1.1,1.8h0l.2-.1-.1-.1-.2-.1h-.1v.3l-.1.1-.1-.1h-.1l-.1-.1-.2.1-.1.1v.1l-.1.1h.2l.1-.1V155h.1l.1.2.1.1h.3v-.1l.1-.2v-.1Zm-.8,0Zm-.1-2.5h0l.1.1v.1h.3v-.1l-.1.1h-.1l-.1-.1-.1-.1Zm-.1-3.5h0l.1.1-.1-.1Zm0,.4v0Zm.7,4h-.3l-.1.1.1.2h.1l.1-.1.1-.2Zm-.5-1.2.1.1.1.1.1-.1h-.1l-.2-.1Zm.1,1Zm-.2-4.9Zm.2,3.3Zm.2,1.2h0Zm-.1-.9Zm-.1-4.2h0l.1.1v-.2l-.1-.1v.2Zm.3,5.5h.2V153l-.2.1Zm-.3-6h0l.1.1v-.1Zm.3,5.7h.2l-.1-.1Zm.3.8Zm-.1-3Zm.1.3Zm.5,4.3v-.1l-.1-.1v.1l.1.1h-.3l-.1.1.1.1.1-.1.2-.1Zm-.4-3.6v-.1h-.1l.1.1Zm-.3-4.4h.1l.1-.1V147l.1-.1.1-.1v0l-.1.1h-.1v.1l-.1.1Zm0-.7h0l.1-.1v-.1h0l-.1.2Zm2.1,6.2.3-.2.1-.3-.9-1.9-.2-.1-.2.2-.7,1.9v.3l.3.1.4-.1h.4Zm-1.8-2.3Zm.2,3.2Zm-.1-3.7v.1h.3v-.1Zm-.2-4h0l.2.2v.1l.1.1.1-.1V146h.2l.1-.1h.1l-.1-.1v-.1l.1-.1.1-.1h.4v-.1l-.1-.1-.2.1h0l.1-.1-.1-.1v.2h-.1v-.1l-.1-.1h-.2l-.1.1v.3l-.2.1.1.1v.1h.2l.1-.1h.2l-.1.1h-.3l-.1-.1-.1-.1Zm.3,4.5Zm-.2-3.9Zm.9,8.7v-.1h-.3l.1.1h.2Zm-.1-1.9h0l-.1.1v.1h.1l.1-.1Zm-.4-4,.1.2h.2v-.1l-.1-.1Zm0-4v.3h0v-.3Zm0,1Zm.2,3.5Zm-.2-3.6Zm.2,3.9Zm0-1.4h0l.1.1h.1v.1h.1v-.1h-.1Zm.7-3.1h-.4v.1h.2v.2l-.2.1v-.1l-.1-.1-.1.1-.1.1h-.1l-.1.1h.1l.1-.1h.3l.1.1.1.1.1-.1h.2v.1l-.1.2v.1l.1.1h.3v.2l-.1.2v.1l.1.1h.4l.1.1v.2h.3v-.2h-.1l-.1-.1.1-.1H132l-.2-.1-.1-.1v-.1h.2l-.1-.1-.1-.1h0l-.1-.1v-.3h-.1l-.1-.2-.1-.1h-.4v-.1h.2v-.2l-.1-.1Zm-.5,4Zm.3,5.5Zm-.2-6.6Zm.5,1.1-.2-.1-.1.1h.2v.1l-.1.1.1.1h.1l.1-.1h.1l-.1-.2Zm-.1-.4V149l-.1-.1h-.2v.4l.1.1h.1Zm-.1.6h.2l-.1.1H131Zm.3,5Zm.1-4.6h-.1v.1l.1-.1h0l.2.1v-.1h-.2Zm.1-.2Zm-.1-3.5h-.1v-.1l.1.1Zm.5,8.4Zm.3.1h0l-.2-.1-.1.1h-.2l.2.1.1-.1Zm-.4-4.4Zm.3,2.6Zm.1-.2Zm0-1.3v.2h.1v-.1Zm.2-3.6-.1-.2h-.1l.1.1.1.1h0l-.2.1v.1l.1.1.1.1.1-.1v-.1h-.1Zm-.1,3.2Zm.5,1.6Zm0,.4Zm-.2-4.5h0v.2h0l.1-.1h.1l.2.1.1-.1H133Zm.6,6.3h0l-.2-.1h0l.2.1Zm-.5-6.5h0Zm.4,4.6Zm0-4H133v.1h.1Zm.1,1Zm.5,5Zm-.2-5.2Zm.5,5.5h-.1v.1Zm-.3-4.6Zm.4,4Zm0,.3H134v.1h.1Zm-.3-3.8v.2h.1Zm.5.5Zm0,.3h0l.1.1v-.1Zm.3-.2Zm.1.5Zm.2.7h0l.1.1-.1-.1Zm.2.3Zm0-.1Zm0,.3Z"/><path class="cls-1" d="M145.7,144.4l-.2.4-1,1.9-.2.3-2,3.8-.1.5-.1.5.1,1v1.1l.1,2-.1.4-.3.2h-.4l-.5.1h-1.2l-.4-.1-.2-.4v-2.5l-.1-.4v-1.4l-.1-.5-.2-.5-1.5-2.1-.2-.3-.4-.5-.8-1.2-.2-.2-.8-1.2-.2-.4v-.3l.3-.2h.8l.9-.1.3.1h.4l.4.1.4.3.9,1.5.2.3.6,1,.2.3.2.3h.2l.2-.3.3-.7.2-.3.2-.4.4-.6.2-.5.4-.8.3-.3.5-.2h.3l.7-.1h.4l.4-.1h.7l.3.1Zm-10.4,1.1h0l.2.1.3-.1h.1l-.2-.1-.3-.1h-.1Zm0-.2.1-.1h.1l.1.1.1-.2-.2-.1-.1-.1-.2.1Zm2.1,3.5h.1l.4-.1h.3l-.1-.2h-.3l.1-.1.1-.1-.2-.1-.1-.2h.1v-.1h-.1l-.1-.1v-.3h-.3v-.1h-.1l.1-.1h-.1l-.2-.1-.1-.4-.2.1h-.1v.1h-.1l.1-.2v-.2l-.1-.2h-.4l.1-.2.2.1.1-.1-.1-.1h-.5l-.2-.1-.2.2.1.2h.3l.2.5.3.2v.1l.1.1.1.1-.1.1v.2l.1.2.2.4.2-.2h.2v.1l-.2.1v.3l.3.1.1.1h.1v.2Zm-1.6-2.8.1.1h-.1V146Zm.1-.2h.2v-.2H136Zm.1.2Zm0-1.1v0Zm.2,1.6h.1v.1l-.1-.1Zm0-1.3v.2h.2v-.2Zm.1.2v.2h.1v-.1Zm.3,1Zm.1,1h0l.1.1h-.2Zm-.1-2.1.1.1h.2l.1-.1.2-.1.3.1.1-.1-.1-.1-.1-.2h-.2l-.3.1.2.1h.2l.1.1-.1.1-.1-.1-.1.1.1.1h-.1l-.2-.1Zm7.1,0h-.2l-.3.5-.6,1-.2.3-.1.3-.2.3-.4.6-.1.3-.2.3-.1.4-.3.6-.2.2-.2.2-.3-.2-.2-.2-.2-.3-.8-1.1-.2-.3-.6-.8-.2-.3-.2-.3-.2-.3-.7-.8h-.4l.1.3,1.6,2.4.2.2.2.3.2.3.4.6.5.5.2.3.2.4.2,1.6v.5l.1.7V155l.1.4h.2l.1-.3v-1.2l-.2-2.5.2-1,.2-.3.3-.4.2-.6.2-.3.3-.6.2-.3.7-1.3.4-.6.3-.6Zm-6.7,2.2v.2h-.1l-.1-.1Zm.6,1h0l-.1.1v-.1Zm.5,1.3h.3l.1-.2h-.3l-.1-.3.2-.2h.1l-.1-.1-.3.1-.1-.1v-.1l-.1.1v.2h.3l.1.3Zm-.5-1.5Zm.1-2.5.1.2v.3l.3.1.1.4.2.1.2.1.1-.3-.2-.1h-.3l.1-.1h.1l-.2-.1h-.3v-.2l.1-.1.2-.1v-.1h-.3l-.2-.1Zm0-.2h.1v-.2l-.1.2Zm1,4.5h0l-.2.1-.1-.1v.1l.1.1h.2Zm-.4-4Zm.2.7-.1-.1.1.1Zm.2,3.2.2-.1v-.2l-.1.1-.1.1Zm3.2,2.4h0l-.1.1-.1-.3v-.8l-.1-.1-.1.1-.1-.1.1-.1v-.1l-.1-.1-.1.3-.1.2h0v.7h.1l.1.2v.2l-.2.1-.1.2.1.2.1.2h.1l.1.1h-.2l-.1.1v.3l-.1.2.1.2-.1.3.2.1-.2.2.1.3-.1.4-.2.2v.1h-.3l-.1.1-.1-.1v-.4l-.2-.3.2-.4-.1-.4v-.4l-.2-.2h.2v-.1h-.2l.2-.1v-.3l.1-.4-.2-.3v-.3l-.2-.1h-.4l-.1-.2h.3l.1-.2v-.3l-.3-.1-.1-.3v-.3h0v.1l-.1-.1-.1-.4-.3.1h-.1v-.1l.1-.1.1-.1-.1-.1-.1.1-.1.2.3.1.1.2.2.1.1.1v.1h-.2v.1l.2.1v.2h-.2v.1h.1l.1-.1.1.2-.2.2-.1.2v.8l.2.2v.1h-.2v.2l-.1.2.1.2.1.1h-.1v.2h.2l-.1.2v.1h.2v.1l-.2.1-.1.4v.2h.1v.8l.1.2h.1v-.1l.2.1.1.2.2-.1h.1V156h.1l.2.1.2-.1-.1-.2h-.2l.2-.1.4-.1.3.1.4.1.1-.2h-.1v-.1l.1-.3v-.9h-.2v-.1l.3-.1.1-.4-.2-.4.1-.2-.1-.1.1-.3Zm-3.3-5.2Zm.3,3.5h0l-.1-.1v.1Zm-.1-3-.1-.1v.2l.1.1Zm.3,0,.1.1v.1l.2.1v-.1l-.2-.1h.1v-.2l-.1-.1Zm0-.3h.1v-.1h-.1Zm.5,7.6-.1.1V155l.1-.1Zm.1-2.6-.1.2h-.2l.1-.1Zm-.2-.3-.1-.1h.1Zm-.1.2Zm.3.9Zm-.1-1.7v-.1h.1Zm-.1-3.1h.1v-.1h-.1Zm.1.2h0v0Zm.7,7.3h0l-.1.2h-.1v-.2Zm0-.2-.2.1v-.2Zm-.4-7h.1v.5h.1l.1-.1.2-.1-.2-.3h-.3Zm.3.3h-.1v-.1l.1.1Zm.2.2h0l-.1.1h.1Zm0-.7Zm.7,7.5h-.2v.1h.1Zm-.4-7.6h.1l.1.1v.1h.1v-.1h-.1l-.2-.1Zm.6,7.5h0l-.1-.1.1.1-.1.1h.1Zm-.2-4.4Zm.1-.3Zm.5,4.7h-.3l-.1.2h.2Zm-.3-4.1v.1h-.1v-.1Zm-.2-3.3h.1v-.1l-.1.1Zm.3,2.2.1.1.1.2.2-.1v-.2l-.1-.2h-.2l-.1.2Zm.1,3.7h.1v.1l-.1-.1Zm-.3-6.3h.1V148h-.2Zm.6,7.4Zm.3-4.9-.1-.1-.1-.2h.2l-.1-.1h-.3v.2l.2.3h.1Zm-.4-3.5Zm.4,2.5-.2-.1v.1h-.1l.1.1-.1.1v.1l.2-.1Zm.5-.3h-.1v.1l.1-.1Zm-.2-3.6Zm.3,3.3Zm.4-1Zm.1-.4v-.1h-.1l.1.1Zm.2.2Zm.2-.5Zm.5-.9h-.1v.1l.1-.1Z"/><path class="cls-1" d="M158.4,149.4V151l-.1.3v.4l-.1.3-.6,1.2-.2.3-1.2,1.2-1.6.9-.7.2-1.6.2h-1.1l-1.5-.4-.3-.1-1.2-.6-.2-.2-.5-.4-.9-1.1-.2-.3-.1-.4-.3-.6-.2-1.1v-2l.1-.8.3-1,.1-.3.5-.9.5-.6.5-.4.2-.2.9-.6.7-.2.3-.2.4-.1.4-.1,1.2-.1h.8l2.3.6.9.5.8.6.2.3.2.2.2.3.1.3.4.6.1.4.2.4.2.6Zm-12.6,0h.2l.2.1v.1l.1.1h.1l-.1.1h-.1v.1h.1l.1-.2-.1-.1v-.1l-.1-.1v-.1h-.1Zm0,.4h.1v-.2Zm.5.7h0l-.1-.1-.1-.1H146l-.1.1v.1h.1v-.1l.3.1Zm-.2.6h0l-.1-.2v.1l.1.1Zm.1.6v-.1h-.1l.1.1Zm-.2-3.1h.1v-.1l-.1-.1Zm.7,3.8Zm-.5-4.8.1-.1v-.2h-.1Zm.2.1Zm0,.3h-.2v.1h.2Zm.7,4.6-.1-.1-.1-.1v-.2h0V152h0v.1l.1.1-.1.1-.2.1-.1.1v.1l.4-.1.1.1Zm-.5-3.2Zm0,1.1h0v0Zm.1.6h0v0h0v-.2h-.1Zm.1,2v-.2l-.1-.1v.1l.1.2Zm-.3-6.1.2.1.1-.1-.1-.2.1-.1-.1-.1h0l.1-.1h0v.2l.1.1-.1.1v.1l-.1.1V147Zm.4.6h0l-.1.2.1-.2h0l-.3-.1h0v.1h.3Zm-.1.5h0l-.1.2h.1v-.2Zm7.3,6.2.7-.3.3-.2.9-.9.3-.4.2-.4.2-.3.1-.3.2-1.4-.1-1.1-.1-.3v-.3l-.1-.3-.3-.8-.4-.6-.5-.6-1.2-.8-.3-.1-.4-.1-.3-.1H153l-.4-.1h-.9l-.9.1-1,.4-.9.5-.3.2-.5.6-.4.5-.4.7-.1.3-.1.4v.3l-.1.4v.4l.2,1.8.4,1,.2.3.2.3.5.6.8.6.3.2,1,.4.9.1h1.6l.3-.1.4-.1Zm-7.2-7.3h.2l.1-.1h-.1Zm0-.5h.1v-.2l-.1.1v.1Zm8,6.9-.2.2-1,.5-.3.1-.3.1-.9.1-1.2-.1-.3-.1-.7-.2-.3-.1-.6-.4-.5-.5-.4-.6-.2-.2-.3-.7-.2-.7v-1.3l.2-1.4.2-.3.1-.4.2-.3,1-1,.6-.4.3-.1.4-.1.6-.2.9-.1h.9l.6.1,1,.4.6.4.5.4.3.4.6,1.1.1.3.2,1.3v.8l-.1.7-.1.4-.2.6-.2.3-.2.3-.2.3-.3.3Zm-7.1.1-.1.1.1.1v-.2Zm-.3-7.6h0l.2.1-.1-.1Zm.6,8h0l-.1.1Zm.2.4Zm-.1-5.2h-.1l-.1-.1v.1l-.1.1h0Zm-.3-.8h.1l.1-.1v-.1H148v.2Zm.2.4H148v.1h.1Zm.4,5.5-.1-.1.1.1Zm0-6h0l-.1.1-.1.1-.1.2h.1v-.1l.1-.1Zm.1-.5h0l-.3.1v.1h.3Zm5,4.9.3-.2.5-.4.2-.3.1-.3.2-.3.1-.7.1-.9-.1-.8-.1-.3-.1-.4-.2-.3-.4-.6-.6-.4-1-.4h-.9l-.8.1-.4.1-.3.2-.5.4-.2.2-.2.3-.1.3-.2.3-.1.3-.1.7v.5l.1.9.4,1,.2.2.2.2.6.4.6.3h.3l.4.1,1-.1.3-.1.3-.1Zm-4.7-5Zm0-.4.1.1v-.2Zm2.5,8.1h0v-.1h0Zm.2,0Zm.6.4-.1-.1H152v.1Zm.1-.4h-.2v.1h.2Zm.4.1h-.1v.1l.1-.1Zm0-1.6h0l-.1-.1v.1Zm.9,1.3-.1-.1v.1l-.1.1h-.1l-.1.1-.1-.1H153l-.1.1h.1l.1-.1h.1l.1-.1V155h.2l.1-.1Zm-.6-9h0v0Zm.6,7h0l.2-.1h.2l-.1-.1h-.3v.2l-.1.1.1.1v.2h.1l.1-.1h0l-.1-.1Zm.5,2-.1-.1-.1.1.1.1-.1.1Zm0-.4Zm0,0Zm.2-1.6h-.1v.1H154v.1l.2-.1Zm.3,1.7h0l-.1-.1h-.2v.3h-.1v.1h.1V155l.1.1.1-.1.1-.2Zm-.2-2.1.1-.1-.1-.1h-.1v.1l.1.1-.1.1h.2Zm0,2.2h.2v.1l-.1.1-.1-.2Zm.5-2.3h0l.2-.1.1.1h.1l-.2-.1-.1-.1v-.2l-.1-.1v-.2l-.2.2h0v.1h.2v.4Zm.4,2v-.1h0l-.1-.1H155l-.1.1-.1.1h.1l.1-.1v.1l.1.1h.2v-.1Zm-.2.4h0l-.2.1.1.1Zm.2-.5v.1l-.2.1H155v-.1l.1-.2.2.1Zm.1-.2.1-.1-.1-.1h-.2v.2Zm-.1-1.8-.1-.1h-.1v.1Zm0-.5-.1.1.1-.1.1.2h0v.1h.2l.1-.1-.1.1v-.2l-.1-.1Zm0-.8.1.1h.1v-.2l-.1-.1-.1.2Zm1.1,2.8h-.2v-.1l-.1-.1h-.3v-.1h.2v-.1l-.1-.1-.1.1-.2.1.1.2h-.2v.1h.2v.1h0l.1-.1h.1l.1-.1v.1l-.1.2h.1l.1-.1.3-.1Zm-.7.7h-.1v-.1h-.1v.1l.1.1v.1h.1Zm-.1-3.1h0l.2.1h0Zm.1-.5h.1v-.3l.2.1-.1-.1h-.1l-.2.1Zm.3-1.2.1.1.1-.1v0Zm.7,3.4h-.2l-.1.1.1.1-.1.1h-.1v.1h.1v-.3l.1.1v.3l.1.1h0v-.4Zm.4-.2h-.5v.1h.2l.1-.1.1.1.1-.1Zm.5-.4h0l-.1.1-.1-.1-.1-.1.1-.2-.1-.1-.3.1h-.1l-.1.1h.2l.1.1.1.2h.2l.1.1.1-.1Zm-.5-.6H157v.1h0l-.1.1.2-.1h.1l-.1-.1Zm-.4-5.5h0v0Zm.4,5.2h0l.4.1.1-.1-.2-.1-.1.1v.1Zm.5.4.1-.1V152l-.1.1v.1l-.2-.1h0l.2.1Zm-.2-1.2.1-.1-.1.1Zm.1.2Zm-.2-4.5Zm.5,4.9.1-.1-.1-.2h-.1l-.1.1h-.1v.1l.3.1v.1l.1.1-.1-.2Zm-.5-5Zm.3,3.8.1-.1-.1-.1v.2Zm-.1-1h.1v-.1Zm.4,1.7-.1-.1h-.2l.1.1h.2Zm.2-.5h-.2v.1l-.1.1.1.1.2-.3Z"/><path class="cls-1" d="M169.9,150.7v1.4l-.1.3-.1.3-.2.4-.4.7-.7.6-.3.2-1,.3-.3.1-1.8.2h-.4l-2.5.2h-.5l-.6.1-.3-.2-.2-.4-.1-.3-.2-3.9-.1-.5-.1-3.4-.1-.7v-2.4l.2-.4.4-.2,2.1-.1.3-.1.7.1.3-.1h1.8l.7.1.3.1.4.1.3.2.3.2.3.2.3.2.6.8.1.4.2.6.1.5v.6l-.2.6-.3.7-.2.4.2.4.3.2.2.2.4.7Zm-9.1,3.1Zm0-.2.1.1.1-.1h.1l-.1-.1h-.2Zm0-.3Zm-.4-7.5Zm.3,5.8Zm.2.6h.2v-.1l-.2.1h0v-.1h.1V152h-.2v.1Zm.1,2.5v0h0l-.1.2.1-.2Zm-.2-2.3h0v.1h0Zm.2,1.8h-.1v.2h.1Zm-.5-7.2Zm.3,4.8Zm-.1-2.3Zm.5,2.9h0v.3h-.1l-.1.1v.2l.1.1v.1l.1-.1.1-.1.1-.1v-.3h0v-.3l-.1.1Zm-.4-1.6h0l.2.2v-.1l-.2-.1Zm.2,2.5Zm.1.5.1.1.1-.1-.1-.1-.1.1Zm-.3-3.7Zm-.3-6.4h0l.1.1v-.1Zm.2,3.8Zm.4,4.1v-.1H161v.1Zm-.4-7.1Zm.1,1.4Zm.8,9.1-.1-.1-.1-.1-.1-.1-.1-.1v.2l.1.1.3.1Zm-.6-5.3Zm-.2-5.6h0v0Zm.5,10h0l.1.1v-.1Zm.6.4h-.4v-.1h.1l.1-.1v-.1h-.1v.1h-.4v.2l.2.1h.2Zm-.5-1.2v-.1h-.1l.1.1Zm-.3-5Zm-.1-2.6h0l-.1.1h.1Zm.3,6.2Zm.1,1.1Zm-.2-2.7Zm.1.4Zm-.1-2Zm0,.5Zm.2,3.3Zm-.2-8.4Zm7.4,7.5-.1-1.1-.1-.4-.2-.3-.2-.2-.6-.5-.3-.1-.2-.2.1-.3.3-.2.2-.3.2-.3.1-.3.1-.3-.1-1-.3-.7-.2-.3-.2-.2-.9-.5-.3-.1-.9-.1h-.5l-.7.1h-.3l-.3.1H162l-.5.2-.1.4v2.2l.1.4v.4l.1,1.1.1.3.2,4.6.2.3.3.1h1.3l.5-.1h.4l1.6-.1.9-.2.6-.4.3-.2.4-.6.2-.3.1-.4Zm-6.5,3.2Zm-.2-6.4v-.8l-.1-.7V146l-.1-1,.2-.3.3-.2h1l.9-.1h.9l.9.1.3.1.3.2.3.2.4.5.1.3.1.5v.5l-.1.4-.3.5-.2.3-.3.3-.6.2-.5.1-1.6.1-.5.1H163l-.5.1-.4-.2Zm6.2,2.2.1.6v.5l-.1.4-.3.6-.3.3-.6.4-.9.2-.8.1-2.3.1-.5-.1-.2-.3v-2.1l-.1-1.2.2-.5.3-.2h1.8l.4-.1.3.1h1.8l.3.2.3.1.5.5.2.3Zm-6.4-7.1v.1h.1l-.1-.1Zm1,11.1h0l-.1-.1Zm-.2-3.7Zm.1,1.1Zm-.4-5.8Zm.4,5.4Zm.1.9Zm-.4-6.6Zm-.1-2.5Zm0,.2h.4l-.1-.1h-.2Zm.2,2.8Zm.2,4.2Zm.3.6h0l-.1-.1v.3h.1v-.2Zm-.4-3.6Zm-.1-2.4h.1v-.1l-.1.1Zm0,.9Zm.2,4.3.1.1h.2l.1-.1v-.1l-.1-.1-.3.2Zm0-4.8h0l-.1-.1h-.1l.1.1Zm0,2.8Zm.1,1.6h.3v-.1l.1-.2-.1-.1-.1.1Zm0-1.9Zm.3,3.5Zm-.2-3.4Zm.3.1-.2.1h-.1v.1h.2l.1-.2h.4l.1.1h.1l-.1-.1h-.1l-.1-.1v-.1l.1-.1v-.1h-.2l-.1.1H163Zm.1,4.7h-.1l-.1.1.2-.1Zm-.2-2.2Zm.3,3.7Zm-.5-9.4Zm.3,4.7Zm-.1-2Zm.1.1Zm-.2-4.3h.1l.1-.1v-.1l-.1.1-.1.1Zm.4,6.5.1-.1.1.1h.2v.1l-.1.1h-.2v.1l.1.1.1-.1h.3V150l.1-.1-.1-.1-.1.1-.1.1h-.1l-.3.1Zm-.3-4.9Zm3.8,6.1-.1-.4-.2-.3-.3-.1-1.7-.1-.4.1h-.3l-.3.2-.1.3v1.1l.2.3.3.1h1.4l1-.1.3-.2.2-.3Zm-3.7-4.8v.6l.2.5.4.2,1.4-.1.5-.2.2-.2.1-.5-.1-.5-.2-.3-.3-.1h-1.7l-.3.2Zm0-1.1Zm0-.5Zm.8,9.9h0l-.1.1.1-.1Zm-.5-11.3Zm.5,4.7Zm.4,6.5Zm-.3-6.3h-.1v.1h.1Zm.1,1.7Zm-.3-6.5Zm.1,1.5h0l.1-.1-.1.1Zm.3,4.8h.1v-.1h-.2Zm.3.1Zm.1-1.8Zm-.3-4.7h0v0Zm.1,1.7h0l.2-.1-.2.1Zm.6,8.1h0Zm-.1-3.5h0l.1.1h.2l-.1-.1Zm-.2-6Zm.5,4.2h0l-.1.1h0l-.1.1v.1h0l.1-.1.1-.2Zm-.5-4.7Zm.5,5Zm.4,4.7Zm-.6-9.5Zm.8,11.1Zm-.3-6.6Zm.5,6.3h-.1v.1l.1-.1Zm-.4-4.5Zm.3-1.8-.2-.1h-.1v.5h0v-.1l.1-.1h.3Zm0,2Zm.4,4.6Zm-.3-9Zm.3,2.3Zm.3,2.2h.1V150h-.1Zm-.2-3.1h0l.2.1V147h-.2Zm.2.4Zm.6,7.1h-.1v.1l.1-.1Zm-.5-7.1v.2h.1v-.1l-.1-.1Zm.4,2.8Zm0,.2h.1v-.1l-.1.1Zm.1.5Zm.2,1.1Zm-.1-1.5Zm.3,4Zm-.1-2.9h.1l-.1-.1h-.1Zm0-1Zm0,.2Zm.2,1h0l-.2.1v.1l.1-.1Zm.1-.3h-.1v.1l.1-.1Zm.1,2.5Zm.3.1Zm-.3-5.5Zm.3-.6Zm.2,1.7Zm.4,3.4h-.1l.1.1Zm-.1-.3h0l.1-.1h-.1Zm-.1-3h0l.2.1h.1v-.1h-.1v.1l-.1-.1Zm.3,3.7Zm.1-.7Zm-.1-2.4.2-.1h.1v.4h-.1v.2h.1v-.1l.1-.1.1-.1v-.3l-.1-.1v-.3l-.1-.1h-.4v.2Zm.1.8Zm.3,1.6v-.1h-.2v.1Zm-.1-1.6-.1.1v.1h.1v-.2Zm.4,1h0l-.2.1v-.1l-.1-.2v.2h-.1v.3h.3v-.1h.1Zm-.3-1.4-.1-.2.1-.1h.1l-.1.1v.2Z"/><path class="cls-1" d="M182.8,153.7v.4l-.5.1h-.8l-.7.1h-.4l-.4-.1-.4-.2-.1-.3-.2-.3-.4-.3-.4-.2-.4.1h-.3l-1.7.1h-.3l-.7.1h-.3l-.4.2-.3.4-.3.6-.3.3-.4.1-1,.1h-.4l-.7.1-.4-.1-.1-.4.1-.4.3-.7.1-.3.2-.2.2-.7.3-.6.1-.4.2-.3.1-.4,1.6-3.9.1-.3.2-.3.1-.4.2-.3.6-1.7.1-.2.1-.4.1-.3.3-.3.6-.2.6.1.3.3.4.6.1.3.2.3.1.4,1.3,2.4.1.4.4.6.1.3.2.2.1.4.2.3.2.2.8,1.6.4.6.3.6.5.9.3.6Zm-11.5.3h0l.2-.1v-.1l.2-.1.2.1.1-.1h-.1l.1-.1.1-.1.1-.1v-.3l.1-.1v-.1h-.1l-.2-.1h.2l.1-.1-.1-.1h-.5v.2h-.1l-.1.1v.2l.2.1.1.1v.1h-.2v.2h-.3l-.1.1v.1h.1v.2l-.1.1.1-.1h0l-.1.2h-.1v-.1h0v.1l.1.1.1.1h.1l.1-.1Zm0,.5Zm.3-1h0l-.1-.2h.2v.1Zm.7.4-.2-.1-.1-.1h-.1v.3h-.2v.1l.1.1v.2l-.1.1h-.1l.1.1.1.1v-.1h.1l.2.1h.3v-.2l-.1-.1-.1.1-.1-.1.1-.1v-.1h.2l-.1-.3Zm-.5-.6h0Zm0,.9Zm-.1-2.1h0v.2l.1.1h.1l.1-.1v-.1h-.1l-.2-.1Zm.2,0h0l.1.1h0Zm.2-.4h.1v-.1l-.1.1Zm8.9,1.4-.1-.3-.5-1-.4-.6-1.8-3.5-.2-.5-1.6-3-.2-.3H176l-.2.4-.2.7-.2.3-.1.4-.3.6-.1.4-.4,1-.1.4-.3.6-.1.3-.2.3-.1.4-.2.3-.1.3-.6,1.7-.1.3-.4,1.1v.3l.2.1.6-1.3.3-.3.4-.1h.7l.3-.1h2.4l1.9-.2h.4l.4.1.3.3.5.8.3.3Zm-8.8-1.2Zm.1,0h0v0Zm2,1.1-.1-.1-.1.1h-.2l-.1-.1v.1l.1.1v.1h-.8v.1H173l-.1.2v.2h-.2l-.1.1v.2l-.1.1.1.1h.1v.1h-.1v.1h.3v.2l.1.1v-.2h.3v-.4l.1-.1h.1v-.5l.1.1v.2h.1v-.3h.1l.1.1v-.1l.2-.1.1-.1.1-.1Zm-2-2.5h0l.1.1h0v-.1Zm.1,1Zm.1-.5-.1.1v.1h.3l.1-.1h.1l.1-.1h-.5Zm.8,2.4h0v.3l-.1.1-.1.1-.1.1-.2.1-.1-.1.2-.1v-.1l.1-.2v-.2h.3Zm-.5-4Zm0,.4v.1h.2v-.1Zm.3,3.4Zm.2-.3v.1h.1v-.1Zm.2-.2h.2l.1-.1v-.2l-.1-.1-.1.1h-.1l-.1.1Zm-.2-3.6Zm3.2-3.8,2.9,5.4v.4l-.3.2-4.2.2h-1.1l-.3-.1-.1-.3,1.2-3.1.1-.3,1-2.7.2-.2.3.1Zm-2.8,7.2Zm-.1-3.9Zm.8,3.8h0l-.1.1h-.1v-.1l-.1-.1-.1.1.1.1h.1l-.1.1h.3Zm-.1-1.5v-.1h-.1l.1.1Zm-.3-4Zm.6,4.3h0l-.1-.1h-.1l.1.1Zm-.3-.6Zm1.1,1.8h0l.2-.1-.1-.1-.2-.1h-.1v.3l-.1.1-.1-.1h-.1l-.1-.1-.1.1-.1.2v.1l-.1.1h.2l.1-.1v-.1h.1l.1.1.1.1h.3v-.1l.1-.2-.1-.1Zm-.8,0Zm0-2.6h0l.1.2h.3v-.1l-.1.1h-.1l-.2-.2Zm-.2-3.5h0l.1.1-.1-.1Zm0,.5v0Zm.7,3.9h-.2l-.1.1.1.2h.1l.1-.1v-.2Zm-.5-1.1.1.1.1.1.1-.1h-.1l-.2-.1Zm.2,1Zm-.3-4.9Zm.3,3.3Zm.2,1.2h0Zm-.2-.9Zm-.1-4.2h0l.1.1V145l-.1-.1v.2Zm.4,5.5h0Zm-.3-6h0l.1.1v-.1Zm.3,5.7h.2l-.1-.1Zm.2.8Zm-.1-3Zm.2.3h0l-.2.1.2-.1Zm.4,4.3v-.1l-.1-.1v.1l.1.1-.2-.1h0l-.1.1v.1l.1-.1Zm-.4-3.6V149h-.1l.1.1Zm-.3-4.4h.1l.1-.1v-.1l.1-.1.1-.1v0l-.1.1h-.1v.1l-.1.1Zm0-.7h.1v-.3h-.1l-.1.1Zm2.1,6.2.2-.1v-.3l-.9-1.9-.2-.1-.2.2-.7,1.9v.3l.3.1.4-.1.4.1Zm-1.8-2.3Zm.2,3.2Zm-.1-3.7v.1h.3v-.1Zm-.2-4h0l.2.2v.1l.1.1.1-.2v-.2h.2l.1-.1h.1l-.1-.1v-.1l.1-.1.1-.1h.4v-.3l-.1-.1-.2.1h0l.1-.1-.1-.1v.2l-.1-.1v-.1l-.1-.1h-.5l-.1.1v.3l-.2.1.1.1v.1h.2l.1-.1h.2l-.1.1h-.3l-.2.4v0Zm.3,4.5Zm-.2-3.9Zm.9,8.7v-.1H176l.1.1h.2Zm-.1-1.9h0l-.1.1v.1h.1l.1-.1Zm-.4-4,.1.1h.2v-.1h-.3Zm0-4v.3h0v-.3Zm0,1Zm.2,3.5Zm-.2-3.7Zm.2,3.9Zm0-1.4h0l.1.1h.1v.1h.1v-.1h-.1Zm.6-3.1h-.4v.1h.2v.2l-.2.1v-.1h-.1l-.1.1-.1.1h-.1v.1h.1l.1-.1h.3l.1.1.1.1.1-.1h.2v.1l-.1.2v.1l.1.1h.3v.2l-.1.2v.1l.1.1h.6l.1.1v.2h.2v-.2l-.1-.1-.1-.1.1-.1h-.3l-.2-.1-.1-.1v-.1h.3l-.1-.1-.1-.1v-.1l-.1-.1v-.2h-.1l-.1-.2-.1-.1h-.4v-.1h.2V143l-.1-.1Zm-.4,4.1Zm.3,5.5Zm-.2-6.6Zm.4,1.1-.2-.1-.1.1h.1v.1l-.1.1.1.1h.1l.2-.1h0l-.1-.2Zm0-.4v-.2l-.1-.1h-.2v.4l.1.1h.1Zm-.1.6h.2l-.1.1h-.1Zm.3,5Zm.1-4.6h-.1v.1l.1-.1h0l.2.1v-.1H177Zm.1-.2ZM177,144h-.1v-.1l.1.1Zm.5,8.4Zm.3.1h0l-.2-.1-.1.1h-.2l.2.1.1-.1Zm-.5-4.4h0l.2.1h-.1Zm.3,2.6Zm.1-.2Zm0-1.3v.2h.1v-.1Zm.2-3.6-.1-.2h-.1l.1.1.1.1h0l-.2.1v.1l.1.1.1.1.1-.1v-.1h-.1Zm-.1,3.2Zm.5,1.6Zm0,.4Zm-.1-4.5h0v.2h0l.1-.1h.1l.2.1.1-.1h-.1Zm.6,6.3h0l-.2-.1h0l.2.1Zm-.6-6.5h.1V146l-.1.1Zm.5,4.6Zm-.1-4h-.1v.1h.1Zm.2,1Zm.4,5Zm-.1-5.3Zm.5,5.6h-.1v.1Zm-.4-4.6.1.1v-.2l-.1.1Zm.5,4Zm0,.2h0l-.1.1h.1Zm-.4-3.7Zm.5.5Zm.1.3h0l.1.1v-.1Zm.2-.2Zm.2.5Zm.2.7h0l.1.1-.1-.1Zm.1.3Zm0-.1Zm0,.2Z"/><path class="cls-1" d="M183.8,149.3h-.4l-.3-.2-.2-.3-.1-1.5.1-.3.4-.2.3-.1h.4l2-.1.3.1,1.8-.1.4.2.1.4.1,1.4-.2.4-.5.2-1,.1h-.4l-1.2.1-.3.1h-.7l-.3.1Zm.4-.4h.2l.1-.1.2-.2.2-.1h-.4l-.1-.1-.2.1v.2l.1.1h.1v.1h-.2l-.2.1-.1-.1-.2-.1.2-.2v-.1l.1-.1v-.2l-.1-.1V148l-.1-.1h-.4v-.1h.5l.2.1v-.3l.3.1v-.2l-.3-.1H184l-.1.1h.1v.1h-.5l-.1.1v.3h.3v.1l-.1.2v.1h-.1v.1h.1l.2.1v.1l-.1.1-.1.2h-.1l-.1-.1v.2l.1.1.1.1.1.1-.1.1h.1l.1-.1.1.2.2-.1.1.1Zm-.6-.8.1-.1h.1l.1.1Zm0,.3Zm.3-.3Zm2.1,0h1.1l.4-.2v-.2l-1.3-.1-.9.1h-.7l-.4.1v.2l.4.1H186Zm-1.5-.8Zm.8,1.6h.3l.2.1h.1l.2-.1h.3v-.3h.2l.1.2.1.1v-.1l-.1-.1h.4l.1.2h.2l.1-.1h.1v-.2h-.5v-.1l-.1.1-.1.1-.1-.1.1-.1.1-.1h-.4l-.1.1h-.1l-.1-.2h-.2l-.2.1-.3.2h-.1l-.1.1h-.6l-.1.2h.1l.1-.2h.1v.2Zm-.3-1.5Zm.1-.4Zm.2,1.6Zm-.1-1.5Zm.3-.2h0l-.1-.1.1.1Zm.1.3h0Zm0,1.5Zm.3-1.5Zm.1,1.5v-.1h0v.1Zm.4-1.7Zm1.7.5v-.2h.1v-.1H188l-.1.1-.1-.1.1-.1V147l-.1-.1v.1h-.3l-.3.1h-.1V147h.2v-.1h-.2v.1h-.3v-.1l.1-.1-.1-.1v.2l-.1-.1-.1.1.1.1.1.1h.4l.1.2.1.1h.3l.2.1Zm-.7.8Zm.3.1Zm.1-.1v-.6h-.1l-.1.1v.4l.1.1v.1Zm.1.4v-.1h-.1v.1Zm.2-.9Zm.2.2h-.2v.1l.2-.1Zm0-.1Zm0,.6Z"/><path class="cls-1" d="M199.5,141.4l-.2.4-1,1.9-.2.3-2,3.8-.1.5-.1.5.1,1v.7l.1.4.1,2-.1.4-.3.2h-.4l-.5.1h-1.3l-.4-.1-.2-.4v-.7l-.1-.3v-3.2l-.3-.3-.2-.5-1.5-2.1-.2-.3-.5-.5-.8-1.2-.2-.2-.8-1.2-.2-.4v-.4l.3-.2h.8l.9-.1.3.1h.4l.4.1.4.3.9,1.5.2.3.6,1,.2.3.2.3h.2l.2-.3.3-.7.2-.3.1-.4.4-.6.2-.5.4-.8.3-.3.5-.2h.3l.7-.1h.4l.4-.1h1Zm-10.4,1.2h0l.2.1.3-.1h.1l-.2-.1-.3-.1h-.1Zm0-.3.1-.1h.1l.1.1.1-.2-.2-.1-.1-.1-.2.1Zm2.1,3.6h.1l.4-.1h.3l-.1-.2h-.3l.1-.1.1-.1-.2-.1-.1-.2h.1V145h-.1l-.1-.1v-.3H191l.1-.1H191l-.2-.1-.1-.4-.2.1h-.1v.1l-.1-.1.1-.2v-.2l-.1-.2h-.4l.1-.2.2.1.1-.1-.1-.1h-.5l-.3-.1-.2.2.1.2h.3l.2.5.3.2v.1l.1.1h.1l-.1.1v.2l.1.2.2.4.3-.2h.2v.1l-.2.1v.3l.3.1v.3l.1.1v-.2Zm-1.6-2.9.1.1h-.1V143Zm.1-.2h.2v-.2h-.1Zm.1.2Zm0-1v0Zm.2,1.6h.1v.1H190Zm0-1.4v.2h.2v-.2Zm.1.2v.2h.1v-.1Zm.3,1Zm.1,1Zm-.1-2.1.1.1h.2l.1-.1.2-.1.3.1v-.1l-.1-.1-.1-.2h-.2l-.3.1.2.1h.2l-.1.1-.1-.1-.1.1.1.1v.1h-.2l-.2-.1Zm7.1,0h-.2l-.4.5-.6,1-.2.3-.1.3-.2.4-.4.6-.1.3-.2.3-.1.4-.3.6-.2.2-.2.2-.3-.2-.2-.2-.2-.3-.8-1.1-.2-.3-.6-.8-.2-.3-.2-.3-.2-.3-.7-.8h-.3l.1.3,1.6,2.4.2.2.2.3.2.2.4.6.5.5.2.3.2.4.2,1.6v.5l.1.7v.3l.1.4v.5l.1.4h.2l.1-.3v-1.2l-.2-2.5.2-1,.2-.3.3-.4.2-.5.2-.3.3-.6.2-.3.6-1.3.4-.6.3-.6Zm-6.7,2.3v.2h-.1l-.1-.1Zm.6.9h0l-.1.1v-.1Zm.5,1.3h.3l.1-.2H192l-.1-.3.2-.2h0l-.1-.2-.3.1-.1-.1v-.1l-.1.1v.2h.3l.1.3Zm-.5-1.5Zm.1-2.4.1.2v.3l.3.1.1.4.2.1.2.1.1-.3-.2-.1H192l.1-.1h.1l-.2-.1h-.3v-.2l.1-.1.2-.1V143h-.4l-.1-.1Zm0-.3h.1v-.2l-.1.2Zm1,4.5h0l-.2.1-.1-.1v.1l.1.1h.2Zm-.4-4Zm.2.8-.1-.1.1.1Zm.2,3.1.2-.1v-.2l-.1.1-.2.1Zm3.2,2.5h0l-.1.1-.1-.3v-.8l-.1-.1-.1.1-.1-.1.1-.1v-.1l-.1-.1-.1.3-.1.2h0v.7h.1l.1.2v.2l-.1.1-.1.2.2.2.1.2h.1l.1.1h-.2l-.1.1v.3l-.1.2.1.2-.1.3.2.1-.2.2.1.3-.1.4h-.5v.1h-.3l-.1.1-.1-.1v-.3l-.2-.3.2-.4-.1-.4v-.4l-.2-.2h.2v-.1h-.2l.2-.1v-.3l.1-.4-.2-.3v-.3l-.2-.1h-.1l-.1-.2h.3l.1-.2v-.3l-.3-.1-.1-.3v-.3h0v.1l-.1-.1-.1-.4-.3.1h-.4v-.1l.1-.1.1-.1-.1-.1-.1.1-.1.2.3.1.1.2.2.1.1.1v.1H193v.1l.2.1v.2H193v.1h.1l.1-.1.1.2-.2.2-.1.2v.8l.2.2v.1H193v.2l-.1.2.1.2.1.1H193v.2h.2l-.1.2v.1h.2v.1l-.2.1-.1.4v.2h.1v.8l.1.2h.1v-.1l.2.1.1.2.2-.1h.1V153h.1l.2.1.2-.1-.1-.1h-.2l.2-.1.4-.1.3.1.4.1.1-.2h.1v-.1l.1-.3v-1h-.2v-.1l.3-.1.1-.4-.2-.4.1-.2-.1-.1v-.5Zm-3.3-5.3Zm.3,3.6h0l-.1-.1v.1Zm-.1-3.1-.1-.1v.2l.1.1Zm.2,0,.1.1v.1l.2.1v-.1l-.2-.1h.1v-.2l-.2.1Zm0-.2h.1v-.1h-.1Zm.6,7.6-.1.1v-.1l.1-.1Zm0-2.6-.1.2h-.2l.1-.1Zm-.1-.3-.1-.1h.1Zm-.1.2Zm.3.9Zm-.1-1.7v-.1h.1v.1Zm-.1-3.2h.1v-.1h-.1Zm.1.3h0v0Zm.6,7.2h0l-.1.1h-.1v-.2Zm0-.1-.2.1v-.3Zm-.3-7h.1v.5h.1l.1-.1.2-.1-.2-.3h-.3Zm.3.3h-.1V146l.1.1Zm.2.2h0l-.1.1h.1Zm0-.7Zm.6,7.5h-.2v.1h.1Zm-.3-7.6h.2v.1h.1v-.1h-.3Zm.6,7.5h0l-.1-.1.1.1Zm-.2-4.4Zm0-.3Zm.6,4.7-.3.1-.1.2h.3Zm-.3-4.1v.1h-.1v-.1Zm-.3-3.3h.1v-.1l-.1.1Zm.4,2.2.1.1.1.2.2-.1v-.2l-.1-.2h-.1l-.2.2Zm.1,3.8h.1v.1l-.1-.1Zm-.3-6.4h.1v-.1H195Zm.6,7.4Zm.2-4.9-.1-.1-.1-.1h.2l-.1-.1h-.3v.2l.2.3h.1Zm-.4-3.5Zm.5,2.5-.2-.1v.1h-.1l.1.1-.1.1v.1l.2-.1Zm.5-.3Zm-.2-3.6Zm.3,3.3Zm.4-1Zm.1-.4v-.1H197l.1.1Zm.2.3Zm.2-.6Zm.5-.8h0Z"/><path class="cls-1" d="M212.6,146.4V148l-.1.3v.4l-.1.3-.6,1.2-.2.4-1.2,1.2-1.5.8-.7.2-1.5.2h-1.1l-1.5-.4-.4-.1-1.2-.6-.2-.2-.5-.4-.9-1.1-.2-.3-.1-.4-.3-.6-.3-1.1v-2l.1-.8.3-1,.1-.3.5-.9.4-.6.5-.4.2-.2.9-.6.7-.2.3-.2.4-.1.4-.1,1.2-.1h.8l2.4.6.9.5.8.6.2.3.2.2.2.3.1.3.4.6.1.4.2.4.2.6Zm-12.6,0h.2l.2.1v.1l.1.1.1.1-.1.1h-.1v.1h.1l.1-.2-.1-.1v-.1l-.1-.1v-.1H200Zm0,.4h0l.1-.1v-.1Zm.5.7h0l-.1-.1-.1-.1h-.1l-.1.1v.1h.1v-.1l.3.1Zm-.3.7h0l-.1-.2v.1l.1.1Zm.2.6v-.2h-.1l.1.2Zm-.2-3.2h.1v-.1l-.1-.1Zm.6,3.8Zm-.4-4.8.1-.1v-.2h-.1Zm.2.1Zm0,.3h-.2v.1h.2Zm.7,4.6-.1-.1h-.1v-.2H201v-.2h0v.1l.1.1-.1.1-.1.1-.1.1h0l.4-.1.1.1Zm-.6-3.2Zm0,1.1h0l-.1.1Zm.2.6h0v0h0v-.2h-.1Zm.1,2v-.2l-.1-.1v.1l.1.2Zm-.3-6.1.2.1.1-.1-.1-.2.1-.1-.1-.1h-.1l.1-.1h-.1v.2l.1.1-.1.1v.1l-.1.1V144Zm.4.6h0l-.1.2.1-.2h0l-.3-.1h-.1v.1l.1.1h0l-.1.1h.1l.1-.1h.2Zm-.1.5h0l-.1.2h.1v-.2Zm7.3,6.2.7-.3.3-.2.9-.9.3-.4.2-.4.2-.3.1-.3.2-1.4-.1-1.1-.1-.3v-.3l-.1-.3-.3-.8-.4-.6-.5-.6-1.2-.8-.3-.1-.4-.1-.3-.1h-.3l-.4-.1h-.9l-.9.1-1,.4-.9.5-.3.2-.5.6-.4.5-.4.7-.1.3-.1.4v.3l-.1.4v.4l.2,1.8.4,1,.2.3.2.3.5.6.8.6.3.2,1,.4.9.1h1.6l.3-.1.4-.1Zm-7.2-7.3h.2l.1-.1h-.1Zm0-.5h.2v-.2l-.1.1-.1.1Zm8,6.9-.2.2-1,.5-.3.1-.3.1-.9.1-1.2-.1-.3-.1-.7-.2-.3-.1-.6-.4-.5-.5-.4-.6-.2-.2-.3-.7-.2-.7v-1.2l.2-1.4.2-.3.1-.4.2-.3,1-1,.6-.4.3-.1.4-.1.6-.2.9-.1h.9l.6.1,1,.4.6.4.5.4.3.4.6,1.1.1.3.2,1.3v.8l-.1.7-.1.4-.2.6-.2.3-.2.3-.2.3-.3.3Zm-7.1.1-.1.1.1.1v-.2Zm-.3-7.6h0l.2.1-.1-.1Zm.6,8h0l-.1.1Zm.1.4Zm0-5.2h-.1l-.1-.1h0l-.1.1h.3Zm-.3-.8h.1l.1-.1v-.1h-.1v.2h-.1Zm.2.4h-.1v.1h.1Zm.3,5.5-.1-.1.1.1Zm0-6h0l-.1.1-.1.1-.1.2h.1v-.1l.1-.1Zm.2-.5h0l-.3.1v.1h.3Zm5,4.9.3-.2.5-.4.2-.3.1-.3.2-.3.1-.7.1-.9-.1-.8-.1-.3-.1-.4-.2-.3-.4-.6-.6-.4-1-.4h-.9l-.8.1-.4.1-.3.2-.5.4-.2.2-.2.3-.1.3-.2.3-.1.3-.1.7v.5l.1.9.4,1,.2.2.2.2.6.4.6.3h.3l.4.1,1-.1.3-.1.3-.1Zm-4.8-5Zm.1-.4.1.1v-.2h-.1Zm2.4,8.2h0v-.1h0Zm.2,0Zm.7.3-.1-.1h-.1v.1Zm0-.3h-.2v.1h.2Zm.5.1h-.1v.1l.1-.1Zm0-1.7h0l-.1-.1v.1Zm.9,1.4-.1-.1v.1l-.1.1h-.1l-.1.1-.1-.1h-.1l-.1.1.1.1.1-.1.1.1.1-.1v-.1h.2l.1-.1Zm-.7-9h0v0Zm.6,7h0l.2-.1h.2l-.1-.1h-.3v.2h0v.5h.1l.1-.1h.1l-.1-.1Zm.6,2-.1-.1-.1.1.1.1-.1.1Zm0-.5Zm-.1,0Zm.2-1.6h-.1v.1h-.2v.1l.2-.1Zm.3,1.7h0l-.1-.1h0v.3h-.1v.1h.1V152l.1.1.1-.1-.1-.2Zm-.2-2.1.1-.1-.1.1h0v.2h.2Zm0,2.2h.2v.1l-.1.1h0Zm.5-2.3h0l.2-.1.1.1h.1l-.2-.1-.1-.1v-.2H209V149l-.1-.1v.1l-.2.2h-.1v.1h.2l-.1.1Zm.5,2v-.1h0l-.1-.1h-.2l-.1.1-.1.1h.1l.1-.1v.1l.1.1h.2v-.1Zm-.3.4h0l-.2.1.2-.1Zm.2-.5v.1l-.2.1h-.1v-.1l.1-.2.2.1Zm.1-.2.1-.1-.1-.1h-.2v.2Zm-.1-1.8-.1-.1h-.1v.1Zm0-.5-.1.1h.3v.1h0v.1h.2l.1-.1-.1.1v-.2l-.1-.1Zm0-.8.1.1h.1v-.2l-.1-.1-.1.2Zm1.1,2.8h-.2v-.1l-.1-.1h-.3v-.1h.2v-.1l-.1-.1-.1.1-.1.1.1.2h-.2v.1h.2v.1h0l.1-.1h.1l.1-.1.1.1-.1.2h.1l.1-.1.1-.1Zm-.6.7h-.2v-.1h-.1v.1l.1.1v.1h.1Zm-.2-3.1h0l.2.1h0Zm.1-.5h.1v-.3l.2.1-.1-.1h-.1l-.2.1Zm.3-1.2.1.1.1-.1v0Zm.6,3.4h-.2l-.1.1.1.1-.1.1h-.1v.1h.1v-.3l.1.1v.3l.1.1h0v-.4Zm.5-.2h-.5v.1h.2l.1-.1.1.1.1-.1Zm.4-.4h-.2l-.1-.1.1-.2-.1-.1-.3.1h-.1l-.1.1h.2l.1.1.1.2h.2v.1l.1-.1Zm-.4-.6h-.1v.1h0l-.1.1.2-.1h0v-.1Zm-.4-5.4h0v0Zm.4,5.2h0l.4.1.1-.1-.2-.1-.1.1v.1Zm.5.3.1-.1V149l-.1.1v.1l-.2-.1h0l.2.1Zm-.3-1.2.1-.1-.1.1Zm.1.3Zm-.2-4.5Zm.6,4.9.1-.1-.1-.2h-.1l-.1.1h-.1v.1l.3.1v.1h.1l-.1-.1Zm-.6-5Zm.3,3.8.1-.1-.1-.1v.2Zm-.1-1.1h.1v-.1Zm.5,1.7-.1-.1h-.2l.1.1h.2Zm.1-.5H212v.1l-.1.1.1.1.1-.3Z"/><text class="cls-7" transform="matrix(1, -0.06, 0.06, 1, 152.66, 380.17)">E</text><text class="cls-7" transform="matrix(1, -0.06, 0.06, 1, 157.93, 379.87)">A</text><text class="cls-7" transform="matrix(1, -0.06, 0.06, 1, 162.57, 379.61)">T OUR MEA</text><text class="cls-7" transform="matrix(1, -0.06, 0.06, 1, 208.89, 377.13)">T</text><text class="cls-8" transform="matrix(1, -0.06, 0.06, 1, 213.54, 375.43)">™</text><path class="cls-6" d="M312.91,426.5a17.78,17.78,0,1,1,16.8-18.7h0A17.72,17.72,0,0,1,312.91,426.5Zm-1.8-35a17.32,17.32,0,1,0,18.2,16.4h0a17.33,17.33,0,0,0-18.2-16.4Z"/><path class="cls-6" d="M309.71,399.4c.1,1.3-.5,1.9-1.5,2s-1.6-.5-1.7-1.8l-.1-2.5h.6l.1,2.4c0,.8.4,1.2,1,1.2s.9-.5.9-1.2l-.1-2.4h.6Z"/><path class="cls-6" d="M310.51,401.2v-.8h.7v.8Z"/><path class="cls-6" d="M314.41,398.6c.8.2,1.2.5,1.3,1.2a1.11,1.11,0,0,1-1.1,1.3h-.2a2.27,2.27,0,0,1-1.6-.6l.4-.6a1.66,1.66,0,0,0,1.2.5.53.53,0,0,0,.6-.6c0-.4-.2-.5-.9-.6s-1.3-.4-1.3-1.2a1.16,1.16,0,0,1,1.1-1.3h.1a1.87,1.87,0,0,1,1.4.5l-.3.6a1.78,1.78,0,0,0-1-.4c-.4,0-.6.2-.6.5S313.71,398.4,314.41,398.6Z"/><path class="cls-6" d="M316.41,400.9v-.8h.7v.8Z"/><path class="cls-6" d="M302.21,403.4l.1,2.5h-.4l-.1-2.5Z"/><path class="cls-6" d="M304.61,403.3h.4l.1,2.5h-.3l-1.3-1.7.1,1.8h-.4l-.1-2.5h.4l1.2,1.7Z"/><path class="cls-6" d="M306.81,404.2c.5.1.7.3.7.7a.76.76,0,0,1-.6.8h-.1a1.4,1.4,0,0,1-.9-.3l.2-.3a.91.91,0,0,0,.7.3c.2,0,.4-.1.4-.3s-.1-.3-.5-.4-.7-.2-.8-.7a.87.87,0,0,1,.6-.8h.1a1.14,1.14,0,0,1,.8.3l-.2.3a1.42,1.42,0,0,0-.6-.2.27.27,0,0,0-.3.3C306.31,404.1,306.31,404.1,306.81,404.2Z"/><path class="cls-6" d="M309,404.7h-.4v.8h-.4l-.1-2.5h.9a.78.78,0,0,1,.9.7v.1a.9.9,0,0,1-.9.9Zm0-1.2h-.4v.9h.4a.43.43,0,0,0,.4-.4v-.1a.37.37,0,0,0-.4-.4Z"/><path class="cls-6" d="M312.11,403.3l-1.2.1v.6l1.1-.1v.4l-1.1.1v.7l1.2-.1v.4l-1.6.1-.1-2.5,1.6-.1Z"/><path class="cls-6" d="M314,405.3a1.4,1.4,0,0,1-1.2-1.4,1.28,1.28,0,0,1,1-1.1,1.61,1.61,0,0,1,.9.3l-.2.3a.86.86,0,0,0-.6-.3,1,1,0,0,0-.7.9h0a.77.77,0,0,0,.7.8h0a.82.82,0,0,0,.6-.4l.3.3A.76.76,0,0,1,314,405.3Z"/><path class="cls-6" d="M316.51,405.1h-.4L316,403h-.7v-.4l1.8-.1v.4h-.7Z"/><path class="cls-6" d="M319.41,402.9l-1.2.1v.6l1.1-.1v.4l-1.1.1v.7l1.2-.1v.4l-1.6.1-.1-2.5,1.6-.1Z"/><path class="cls-6" d="M321.11,404.9h-.8l-.1-2.5h.8a1.24,1.24,0,0,1,1.2,1.3A1.38,1.38,0,0,1,321.11,404.9Zm-.1-2.1h-.4l.1,1.7h.4a.77.77,0,0,0,.7-.8v-.1c0-.4-.4-.7-.8-.8Z"/><path class="cls-6" d="M299.71,410.3h-.4l-.2-.6-1,.1-.2.6h-.4l.8-2.5h.4Zm-1.2-1.9-.3,1h.7Z"/><path class="cls-6" d="M301.81,407.7h.4l.1,2.5H302l-1.3-1.7.1,1.8h-.4l-.1-2.5h.4l1.2,1.6Z"/><path class="cls-6" d="M304,410h-.8l-.1-2.5h.8a1.24,1.24,0,0,1,1.2,1.3A1.39,1.39,0,0,1,304,410Zm-.2-2h-.4l.1,1.7h.4a.77.77,0,0,0,.7-.8v-.1c.1-.4-.3-.8-.8-.8Z"/><path class="cls-6" d="M307.91,409h-.4v.8h-.4l-.1-2.5h.9a1,1,0,0,1,.9.7v.1a1.06,1.06,0,0,1-.9.9Zm-.1-1.2h-.4v.9h.4a.43.43,0,0,0,.4-.4v-.1c.1-.2-.1-.4-.4-.4Z"/><path class="cls-6" d="M311.31,409.6h-.4l-.2-.6h-1l-.2.6h-.4l.8-2.5h.4Zm-1.2-1.9-.3,1h.7Z"/><path class="cls-6" d="M312.71,408.1c.5.1.7.3.7.7a.76.76,0,0,1-.6.8h-.1a1.4,1.4,0,0,1-.9-.3l.2-.3a.91.91,0,0,0,.7.3c.2,0,.4-.1.4-.3s-.1-.3-.5-.3a.76.76,0,0,1-.8-.7.87.87,0,0,1,.6-.8h.1a1.14,1.14,0,0,1,.8.3l-.2.3a1.42,1.42,0,0,0-.6-.2.32.32,0,0,0-.3.3C312.21,408,312.31,408.1,312.71,408.1Z"/><path class="cls-6" d="M314.91,408c.5.1.7.3.7.7a.76.76,0,0,1-.6.8h-.1a1.4,1.4,0,0,1-.9-.3l.2-.3a.91.91,0,0,0,.7.3c.2,0,.4-.1.4-.3s-.1-.3-.5-.4-.7-.2-.8-.7a.87.87,0,0,1,.6-.8h.1a1.14,1.14,0,0,1,.8.3l-.2.3a1.42,1.42,0,0,0-.6-.2.32.32,0,0,0-.3.3C314.41,407.8,314.51,407.9,314.91,408Z"/><path class="cls-6" d="M318,407.2l-1.2.1v.6l1.1-.1v.4l-1.1.1v.7l1.2-.1v.4l-1.6.1-.1-2.5,1.6-.1Z"/><path class="cls-6" d="M319.61,409.2h-.8l-.1-2.5h.8a1.24,1.24,0,0,1,1.2,1.3A1.28,1.28,0,0,1,319.61,409.2Zm-.1-2.1h-.4l.1,1.7h.4a.77.77,0,0,0,.7-.8v-.1c0-.4-.3-.7-.8-.8Z"/><path class="cls-6" d="M324.31,407.1a.86.86,0,0,1-.3.6.63.63,0,0,1,.5.6c0,.5-.3.7-.8.7h-1l-.1-2.5h1a.67.67,0,0,1,.7.6Zm-.3.1c0-.2-.1-.3-.4-.3h-.5v.7h.5a.43.43,0,0,0,.4-.4Zm.1,1c0-.2-.2-.3-.5-.3H323v.7h.6c.4,0,.6-.1.5-.4Z"/><path class="cls-6" d="M326.21,408.9h-.4v-1l-.9-1.5h.5l.7,1.1.5-1.1h.4l-.8,1.5Z"/><path class="cls-6" d="M297.91,414.6h-.8l-.1-2.5h.8a1.24,1.24,0,0,1,1.2,1.3A1.28,1.28,0,0,1,297.91,414.6Zm-.1-2.1h-.4l.1,1.7h.4a.82.82,0,0,0,.7-1,.85.85,0,0,0-.8-.7Z"/><path class="cls-6" d="M301.31,412.3l-1.2.1v.6l1.1-.1v.4l-1.1.1v.7l1.2-.1v.4l-1.6.1-.1-2.5,1.6-.1Z"/><path class="cls-6" d="M302.91,413.5h-.4v.8h-.4l-.1-2.5h.9a1,1,0,0,1,.9.7v.1a.84.84,0,0,1-.9.9Zm0-1.2h-.4v.9h.4a.43.43,0,0,0,.4-.4v-.1a.37.37,0,0,0-.4-.4Z"/><path class="cls-6" d="M306.41,414.1H306l-.2-.6h-1l-.2.6h-.4l.8-2.5h.4Zm-1.2-1.9-.3,1h.7Z"/><path class="cls-6" d="M308.41,414l-.6-.8h-.5v.9h-.4l-.1-2.5h1a.64.64,0,0,1,.8.6v.1a.89.89,0,0,1-.5.8l.6.9Zm-.5-2h-.5v.8h.5a.43.43,0,0,0,.4-.4v-.1c0-.1-.1-.3-.4-.3Z"/><path class="cls-6" d="M310.51,413.9h-.4l-.1-2.1h-.7v-.4l1.8-.1v.4h-.7Z"/><path class="cls-6" d="M312.91,413.2h0l-.7-1.1.1,1.8h-.4l-.1-2.5h.4l.7,1.1.6-1.2h.4l.1,2.5h-.4l-.1-1.8Z"/><path class="cls-6" d="M316.31,411.6l-1.2.1v.6l1.1-.1v.4h-1v.7l1.2-.1v.4l-1.6.1-.1-2.5,1.6-.1Z"/><path class="cls-6" d="M318.61,411h.4l.1,2.5h-.3l-1.3-1.7.1,1.8h-.4l-.1-2.5h.4l1.2,1.6Z"/><path class="cls-6" d="M320.91,413.4h-.4l-.1-2.1h-.7v-.4l1.8-.1v.4h-.7Z"/><path class="cls-6" d="M324.51,413.2a1.27,1.27,0,1,1,1-1.5v.1a1,1,0,0,1-1,1.4Zm-.1-2.1a1,1,0,0,0-.7.9h0a.79.79,0,0,0,.8.8h0a.92.92,0,0,0,.7-1.1.87.87,0,0,0-.8-.6Z"/><path class="cls-6" d="M327.91,410.9l-1.2.1v.7l1.1-.1v.4l-1.1.1v1h-.4l-.1-2.5,1.6-.1Z"/><path class="cls-6" d="M302.21,418.6h-.4l-.2-.6h-1l-.2.6H300l.8-2.5h.4Zm-1.2-1.9-.3,1h.7Z"/><path class="cls-6" d="M303.71,418.6a1.2,1.2,0,0,1-1.2-1.1v-.1a1.2,1.2,0,0,1,1-1.3,1.61,1.61,0,0,1,.9.3l-.2.3a.77.77,0,0,0-1-.1.66.66,0,0,0-.2.7c0,.5.3.9.8.8a.76.76,0,0,0,.5-.2v-.5h-.5V417h.9l.1,1A1.54,1.54,0,0,1,303.71,418.6Z"/><path class="cls-6" d="M306.81,418.4l-.6-.8h-.5v.9h-.4l-.1-2.5h1a.64.64,0,0,1,.8.6v.1a.89.89,0,0,1-.5.8l.6.9Zm-.6-2h-.5v.8h.6a.43.43,0,0,0,.4-.4v-.1c0-.3-.2-.4-.5-.3Z"/><path class="cls-6" d="M308.21,415.8l.1,2.5h-.4l-.1-2.5Z"/><path class="cls-6" d="M310.21,418.2a1.4,1.4,0,0,1-1.2-1.4,1.28,1.28,0,0,1,1-1.1,1.61,1.61,0,0,1,.9.3l-.2.3a.86.86,0,0,0-.6-.3,1,1,0,0,0-.7.9h0a.64.64,0,0,0,.6.8.78.78,0,0,0,.7-.3l.3.3A.89.89,0,0,1,310.21,418.2Z"/><path class="cls-6" d="M313.61,416.9a1,1,0,0,1-.9,1.2c-.6.1-.9-.3-1-1l-.1-1.4h.4l.1,1.4c0,.5.2.7.6.7s.5-.3.5-.7l-.1-1.4h.4Z"/><path class="cls-6" d="M314.31,415.5h.4l.1,2.1,1.1-.1v.4l-1.5.1Z"/><path class="cls-6" d="M317.31,417.8h-.4l-.1-2.1h-.7v-.4l1.8-.1v.4h-.7Z"/><path class="cls-6" d="M320.41,416.6a1,1,0,0,1-.9,1.2c-.6.1-.9-.3-1-1l-.1-1.4h.4l.1,1.4c0,.5.2.7.6.7s.5-.3.5-.7l-.1-1.4h.4Z"/><path class="cls-6" d="M322.71,417.5l-.6-.8h-.5v.8h-.4l-.1-2.5h1a1,1,0,0,1,.9.7.79.79,0,0,1-.5.8l.6.9Zm-.6-2h-.5v.8h.6a.43.43,0,0,0,.4-.4h0a.46.46,0,0,0-.5-.4Z"/><path class="cls-6" d="M325.31,415.3l-1.2.1v.6h1.1v.4h-1.1v.7l1.2-.1v.4l-1.6.1-.1-2.5,1.6-.1Z"/><path class="cls-9" d="M50.8,126c.2,0,.5-.1.7-.1a7.75,7.75,0,0,1,5.2-.2c.3.1.6.1.9.2a12.13,12.13,0,0,0,1.4.5,12.2,12.2,0,0,1,1.7.7,10.84,10.84,0,0,0,1.9.8,4.55,4.55,0,0,0,1.9.6,1.85,1.85,0,0,1,.7.2c0,.1-.1.4-.2.4a4.88,4.88,0,0,1-1.7.1c-.3,0-.7-.1-1-.1s-.7-.1-1-.2l-1.8-.3H58a17.85,17.85,0,0,1-2.3-.2A10.46,10.46,0,0,1,54,128c-.5-.1-.9-.3-1.4-.4a4.19,4.19,0,0,1-1.4-.9c-.2-.2-.3-.4-.6-.5C50.7,126.2,50.7,126,50.8,126Zm11,19.8c.1-.3.1-.7.2-1a2.44,2.44,0,0,0,0-1.2v-.7c.1-.4.1-.8.2-1.2,0-.2.2-.3.2-.5a1.61,1.61,0,0,1,.3-.9l.3-.9a9.75,9.75,0,0,1,.5-1.1c.3-.6.6-1.2.9-1.7s.6-1,.9-1.6a4.05,4.05,0,0,0,.5-.9c.1-.3.3-.6.4-.9s.4-.5.6-.6.4.2.4.6c-.1.1-.1.4-.1.6l-.6,2.1c-.2.7-.3,1.8-.5,2.6a2.77,2.77,0,0,0-.1.9,2.49,2.49,0,0,0-.1.8,1.7,1.7,0,0,1-.1.7l-.9,2.4c-.2.4-.4.7-.6,1.1a6.06,6.06,0,0,1-1.9,2c-.4,0-.5-.2-.5-.6Zm-9.6-7.6c.3-.3.5-.6.8-.9.1-.3.4-.5.6-.8a1.34,1.34,0,0,1,.6-.7,7.76,7.76,0,0,1,2.4-1.6,15.87,15.87,0,0,0,2-.7c.4-.2.8-.2,1.1-.4s.5-.3.8-.4a11.51,11.51,0,0,1,1.7-.6c.4-.2.8-.3,1.2-.5a5.94,5.94,0,0,0,.8-.4,1.41,1.41,0,0,1,.9-.1c.4,0,.2.4-.1.6a5.26,5.26,0,0,1-1.4,1.2c-.5.4-1.1.7-1.6,1.1-.4.2-.6.5-1,.6a3.59,3.59,0,0,0-1,.7c-.2.1-.5.3-.7.4a2.65,2.65,0,0,1-.6.5,3,3,0,0,0-.7.5,4.7,4.7,0,0,1-.9.6,15.11,15.11,0,0,1-1.8.9,11,11,0,0,1-1.8.2,2.15,2.15,0,0,1-.8,0c-.3.3-.5.2-.5-.2Z"/><path class="cls-9" d="M283.6,114a2.65,2.65,0,0,0-.5.6,6.89,6.89,0,0,1-1.3,1.1c-.4.2-.8.4-1.3.6s-1.1.4-1.7.6a8.73,8.73,0,0,1-2.2.5,7.72,7.72,0,0,0-1.5.2,8.45,8.45,0,0,0-1.7.5c-.3.1-.7.1-1,.2a3.55,3.55,0,0,1-1,.2,4.84,4.84,0,0,1-1.7,0c-.2,0-.2-.2-.3-.4l.6-.3c.3-.1.7-.2,1-.3a4.05,4.05,0,0,0,.9-.5,16.18,16.18,0,0,0,1.8-1c.5-.3,1-.6,1.6-.9.4-.2.9-.4,1.4-.7a3.18,3.18,0,0,1,.9-.3,7.77,7.77,0,0,1,5.2-.3,1.7,1.7,0,0,1,.7.1C283.7,114,283.6,113.9,283.6,114Zm-9.4,21.1a9.1,9.1,0,0,1-2.1-1.8c-.2-.3-.5-.6-.8-1a22.57,22.57,0,0,1-1.1-2.2,1.45,1.45,0,0,1-.2-.7,1.88,1.88,0,0,0-.2-.8c-.1-.3-.1-.6-.2-.9-.3-.8-.5-1.9-.8-2.5s-.5-1.4-.8-2.1c-.1-.2-.1-.5-.2-.6-.1-.4,0-.7.3-.6a4.35,4.35,0,0,1,.7.6,2.18,2.18,0,0,1,.5.8,5.55,5.55,0,0,0,.6.8c.4.5.7,1,1.1,1.5s.7,1.1,1.1,1.6c.2.3.4.7.6,1s.2.6.4.9a3.55,3.55,0,0,1,.4.9c0,.2.2.3.3.5l.3,1.2a1.7,1.7,0,0,1,.1.7,4.87,4.87,0,0,0,.1,1.2,3.81,3.81,0,0,0,.3,1c0,.5-.1.6-.4.5Zm8.6-8.6c-.2.1-.5,0-.8.1a5.44,5.44,0,0,1-1.8,0,14.58,14.58,0,0,1-1.9-.7,4.67,4.67,0,0,1-1-.5,2.51,2.51,0,0,0-.7-.4c-.2-.1-.4-.3-.6-.4s-.5-.3-.7-.4-.7-.4-1-.6a9.29,9.29,0,0,1-1-.5c-.6-.3-1.1-.6-1.7-.9a4.18,4.18,0,0,1-1.5-1.1c-.3-.2-.5-.6-.2-.6a1.39,1.39,0,0,1,.9,0,3.18,3.18,0,0,1,.9.3c.3.2.8.2,1.2.4a10.93,10.93,0,0,1,1.7.5l.9.3a6.15,6.15,0,0,0,1.1.3,15.52,15.52,0,0,0,2.1.4,9.06,9.06,0,0,1,2.6,1.3c.2.2.5.4.6.6s.5.4.6.7c.3.3.6.5.9.8,0,.3-.2.5-.6.4Z"/><text class="cls-10" transform="translate(74.56 137.54) rotate(-15.71)">B</text><text class="cls-11" transform="translate(93.18 131.85) rotate(-12.25)">O</text><text class="cls-12" transform="matrix(0.99, -0.15, 0.15, 0.99, 115.36, 127.81)">E</text><text class="cls-13" transform="translate(133.24 124.17) rotate(-5.14)"><tspan class="cls-14">R</tspan><tspan x="19.49" y="0">E</tspan></text><text class="cls-15" transform="matrix(1, -0.02, 0.02, 1, 170.77, 121.21)">W</text><text class="cls-16" transform="translate(199.22 120.78) rotate(3.43)">O</text><text class="cls-11" transform="matrix(0.99, 0.12, -0.12, 0.99, 223.27, 122.35)">R</text><text class="cls-11" transform="translate(242.01 124.95) rotate(10.32)">S</text><path class="cls-6" d="M153.1,33.1c-2.2.5-4.4,1.7-4.2,6.1l.4,8c0,.6.1,3.2-2.2,4.2,2.5.8,2.6,3.9,2.6,4.1l.4,7.8c.2,4.3,2.6,5.5,4.8,5.6a.43.43,0,0,1,.4.4h0c0,.2-.1.4-.3.4h-.1c-1.2-.1-5.4-.7-5.6-6l-.4-8.1a4.16,4.16,0,0,0-2.5-3.8c-.2,0-.3-.2-.3-.4s.1-.4.3-.4c1.2-.5,2.2-1.8,2.1-4l-.5-8.1c-.3-5.3,3.7-6.4,5-6.6.2,0,.4.1.4.3h0A.46.46,0,0,1,153.1,33.1Z"/><path class="cls-6" d="M175.3,31.4a.45.45,0,0,1,.3-.4h0c1.3.1,5.4.7,5.7,6l.5,8.1a3.91,3.91,0,0,0,2.5,3.8c.2,0,.3.2.3.4s-.1.4-.3.4a4,4,0,0,0-2.1,4l.5,8.1c.3,5.3-3.8,6.4-5,6.6-.2,0-.4-.1-.4-.3V68h0a.37.37,0,0,1,.4-.4c2.1-.3,4.4-1.9,4.1-6.1l-.4-7.8c0-.2-.2-3.3,2.2-4.3a4.05,4.05,0,0,1-2.6-3.9l-.4-8c-.2-4.5-2.6-5.4-4.8-5.6C175.5,31.8,175.3,31.6,175.3,31.4Z"/><text class="cls-17" transform="translate(156.49 55.16) rotate(-3.15)">0</text><text class="cls-18" transform="translate(168.43 54.5) rotate(-3.15)">g</text><text class="cls-19" transform="translate(156.39 65.33) rotate(-3.15)">SUGAR</text><path class="cls-6" d="M93.8,36.3c-2.2.5-4.4,1.7-4.2,6.1l.4,8c0,.6.1,3.2-2.2,4.2,2.5.8,2.6,3.9,2.6,4.1l.4,7.8c.2,4.3,2.6,5.5,4.8,5.6a.43.43,0,0,1,.4.4h0c0,.2-.1.3-.3.4h-.1c-1.2,0-5.4-.7-5.6-6l-.4-8.1A4.16,4.16,0,0,0,87.1,55c-.2,0-.3-.2-.3-.4s.1-.4.3-.4c1.2-.5,2.2-1.8,2.1-4l-.4-8.1c-.3-5.3,3.7-6.4,5-6.6.2,0,.4.1.4.3h0C94.1,36.1,94,36.3,93.8,36.3Z"/><path class="cls-6" d="M128.5,34a.45.45,0,0,1,.3-.4h0c1.3.1,5.4.7,5.7,6l.4,8.1a3.91,3.91,0,0,0,2.5,3.8c.2,0,.3.2.3.4s-.1.4-.3.4a4,4,0,0,0-2.1,4l.4,8.1c.3,5.3-3.8,6.4-5,6.6-.2,0-.4-.1-.4-.3h0a.37.37,0,0,1,.4-.4c2.1-.3,4.4-1.9,4.1-6.1l-.4-7.8c0-.2-.2-3.3,2.2-4.3a4.05,4.05,0,0,1-2.6-3.9l-.4-8c-.2-4.5-2.6-5.4-4.8-5.6A3.33,3.33,0,0,0,128.5,34Z"/><text class="cls-17" transform="translate(95.94 58.49) rotate(-3.15)">260</text><text class="cls-19" transform="translate(98.85 68.5) rotate(-3.15)">CA</text><text class="cls-19" transform="translate(106.86 68.06) rotate(-3.15)">L</text><text class="cls-19" transform="translate(109.63 67.91) rotate(-3.15)">ORIES</text><path class="cls-6" d="M199.5,30.5c-2.2.5-4.4,1.7-4.2,6.1l.4,8c0,.6.1,3.2-2.2,4.2,2.5.8,2.6,3.9,2.6,4.1l.4,7.8c.2,4.3,2.6,5.5,4.8,5.6a.43.43,0,0,1,.4.4h0c0,.2-.1.3-.3.4h-.1c-1.2,0-5.4-.7-5.6-6l-.5-8.1a4.16,4.16,0,0,0-2.5-3.8c-.2,0-.3-.2-.3-.4s.1-.4.3-.4c1.2-.5,2.2-1.8,2.1-4l-.5-8.1c-.3-5.3,3.7-6.4,5-6.6.2,0,.4.1.4.3h0C199.8,30.3,199.7,30.5,199.5,30.5Z"/><path class="cls-6" d="M230.2,28.4a.45.45,0,0,1,.3-.4h0c1.3.1,5.4.7,5.7,6l.4,8.1a3.91,3.91,0,0,0,2.5,3.8c.2,0,.3.2.3.4s-.1.4-.3.4a4,4,0,0,0-2.1,4l.5,8.1c.3,5.3-3.8,6.4-5,6.6-.2,0-.4-.1-.4-.3V65h0a.37.37,0,0,1,.4-.4c2.1-.3,4.4-1.9,4.1-6.1l-.4-7.9c0-.2-.2-3.3,2.2-4.3a4.05,4.05,0,0,1-2.6-3.9l-.4-8c-.2-4.5-2.6-5.4-4.8-5.6A.78.78,0,0,1,230.2,28.4Z"/><text class="cls-17" transform="translate(202.73 52.61) rotate(-3.15)">13</text><text class="cls-18" transform="translate(223.28 51.48) rotate(-3.15)">g</text><text class="cls-19" transform="translate(204.24 62.7) rotate(-3.15)">PR</text><text class="cls-19" transform="translate(211.68 62.29) rotate(-3.15)">O</text><text class="cls-19" transform="translate(215.91 62.06) rotate(-3.15)">TEIN</text><text class="cls-20" transform="translate(243.63 47.79) rotate(-3.15)">PER </text><text class="cls-20" transform="translate(253.37 47.25) rotate(-3.15)">S</text><text class="cls-20" transform="translate(255.81 47.12) rotate(-3.15)">E</text><text class="cls-20" transform="translate(258.68 46.96) rotate(-3.15)"><tspan class="cls-21">R</tspan><tspan x="2.75" y="0">V</tspan></text><text class="cls-20" transform="translate(264.21 46.62) rotate(-3.15)">I</text><text class="cls-20" transform="translate(265.42 46.62) rotate(-3.15)">NG</text><text class="cls-22" transform="matrix(1, -0.05, 0.05, 1, 140.29, 426.53)">NET WT 16 OZ (454G)</text><path class="cls-6" d="M224.6,156.9c-1.5-2.7-1.9-7-3.4-9.7.6-3.2,1-6.6,1.6-9.8.1-.3.1-.7.2-1,.2-.9.3-1.8.5-2.7.1-.6-.2-1.2-.5-.8v-.1c-5.1-1.2-10.3-.4-15.4.3s-10.3-.2-15.3,1.4c-1.1,0-1.6.6-2.7.7-.6,0-.8.3-1.4.3,0-.3-.9.2-1.1.1-2.2-1-4.5-.2-6.7.3-.6.1-1.2.3-1.9.4-.5,0-1.1-.1-1.6-.1-.1,0-.2,0-.2.1a.35.35,0,0,0-.2-.1,108.69,108.69,0,0,0-11.4-.5c-.1-.2-.1-.3-.3-.3-7.9.6-15.8,1.5-23.6,1.9-8.9.4-17.9.2-26.7,1.9-.2-.6-.7-.2-.6.5a52.78,52.78,0,0,0,1.6,6.6,48.83,48.83,0,0,0,1.8,5.4A25,25,0,0,0,115,157c-.6,1.6-1.9,4.4-1.8,6.6,0,.2.1.4.2.3h0c-.1.4.1.9.4.9,6.9-.6,13.8-1.9,20.7-2.7.1.1.1.2.2.2,4.6-1.2,9.2.7,13.8,0,4.9-.8,9.3-2.9,14.3-2a.22.22,0,0,0,.2-.2.37.37,0,0,0,.3.1,44.42,44.42,0,0,1,6.3-.4c2.1.1,4.3.1,6.4.1,3.7.2,7.4-.5,11-.6,2,0,4.2.4,6.1-.5,3.1,1.6,6.2,1.2,9.3.7a46,46,0,0,1,5.2-.6c3.1.7,6.3,1.3,9.4.4,2.2.4,4.5.1,6.8.7.5.1.8-.7.7-1.4A1.74,1.74,0,0,0,224.6,156.9Z"/><path class="cls-1" d="M137.1,156.2v.4l-.5.1h-.9l-.7.1h-.4l-.4-.1-.4-.2-.1-.3-.2-.3-.4-.3-.4-.2-.4.1H132l-1.7.1H130l-.7.1H129l-.4.2-.3.4-.3.6-.3.3-.4.1-1,.1h-.4l-.7.1-.4-.1-.1-.4.1-.4.3-.7.1-.3.2-.2.2-.7.3-.6.1-.4.2-.3.1-.4,1.6-3.9.1-.3.2-.3.1-.4.2-.3.6-1.7.1-.2.1-.4.1-.3.3-.3.6-.2.6.1.3.3.4.6.1.3.2.3.1.4,1.3,2.4.1.4.4.6.1.3.2.3.1.4.2.3.2.2.8,1.6.4.6.3.6.5.9.3.6Zm-11.6.3h0l.2-.1v-.1l.2-.1.2.1.1-.1h-.1l.1-.1.1-.1.1-.1v-.4l.1-.1v-.1h-.1l-.2-.1v-.1h.2l.1-.1-.1-.1h-.5v.2h-.1l-.1.1-.1.1v.1l.2.1.1.1v.1h-.2l-.1.1v.1h-.1l-.1.1v.1h.1v.1l-.1.1v.4h-.1v-.1h-.1v.1l.1.1.1.1h.1l.1-.1Zm0,.5Zm.3-1h0l-.1-.2h.2l-.1.1Zm.8.3-.2-.1-.1-.1h-.1v.3H126v.1l.1.1v.2l-.1.1h-.1l.1.1.1.1V157h.1l.2.1h.3v-.2l-.1-.1-.1.1-.1-.1.1-.1v-.1h.1l.1.1v-.2Zm-.5-.5h0Zm0,.9Zm-.1-2.2h0v.2l.1.1h.1l.1-.1h-.1l-.1-.1Zm.2,0h0l.1.1h0Zm.2-.4h.1V154l-.1.1Zm8.9,1.5-.1-.3-.5-1-.4-.6-1.8-3.5-.2-.5-1.6-3-.2-.3h-.2l-.2.4-.2.7-.2.3-.1.4-.3.6-.1.4-.4,1-.1.4-.3.6-.1.3-.2.3-.1.4-.2.3-.1.3-.6,1.7-.1.3-.4,1v.3l.2.1.6-1.2.3-.3.4-.1h.7l.3-.1h2.4l1.9-.2h.4l.4.1.3.3.4.8.3.3Zm-8.9-1.2Zm.2,0h0v0Zm1.9,1-.1-.1-.1.1h-.2l-.1-.1v.1l.1.1h-.8v.1h-.1l-.1.2v.2h-.2l-.1.1v.2l-.1.1.1.2h-.1v.1h.3v.2l.1.1v-.2h.3l.1-.1v-.3l.1-.1h.1v-.4l.1.1v.2h.1V156h.2v-.1l.2-.1.1-.1.1-.3Zm-1.9-2.5h0l.1.1h0v-.1Zm.1,1Zm.1-.5-.1.1v.1h.3l.1-.1h.1l.1-.1h-.5Zm.8,2.4h0v.3l-.1.1-.1.1-.1.1-.2.1-.1-.1.2-.1v-.1l.1-.2v-.2h.3Zm-.5-4Zm0,.4v.1h.2v-.1Zm.3,3.5Zm.2-.4v.1h.1v-.1Zm.1-.1h.2l.1-.1V155l-.1-.1-.1-.1-.1.1h-.1l-.1.1Zm-.1-3.7Zm3.2-3.8,2.9,5.4v.4l-.2.2-4.2.2h-1.1l-.3-.1-.1-.3,1.2-3.1.1-.3,1-2.7.2-.2.2.1Zm-2.9,7.3Zm-.1-4Zm.8,3.9h0l-.1.1h-.1v-.1l-.1-.1-.1.1.1.1h.1l-.1.1h.3Zm-.1-1.6v-.1h-.1l.1.1Zm-.3-3.9Zm.6,4.2h0l-.1-.1h-.1l.1.1Zm-.3-.5Zm1.1,1.7h0l.2-.1-.1-.1-.2-.1h-.1v.3l-.1.1-.1-.1h-.1l-.1-.1-.2.1-.1.1v.1l-.1.1h.2l.1-.1v-.1h.1l.1.2.1.1h.3v-.1l.1-.2v-.1Zm-.8,0Zm-.1-2.5h0l.1.1v.1h.3v-.1l-.1.1h-.1l-.1-.1-.1-.1Zm-.1-3.5h0l.1.1-.1-.1Zm0,.4v0Zm.7,4H129l-.1.1.1.2h.1l.1-.1.1-.2Zm-.5-1.2.1.1.1.1.1-.1H129l-.2-.1Zm.1,1Zm-.2-4.9Zm.2,3.3Zm.2,1.2h0Zm-.1-.9Zm-.1-4.2h0l.1.1v-.2l-.1-.1v.2Zm.3,5.5h.2v-.1l-.2.1Zm-.3-6h0l.1.1V147Zm.3,5.7h.2l-.1-.1Zm.3.8Zm-.1-3Zm.2.3Zm.4,4.3V155l-.1-.1v.1l.1.1h-.3l-.1.1.1.1.1-.1.2-.1Zm-.4-3.6v-.1h-.1l.1.1Zm-.3-4.4h.1l.1-.1v-.1l.1-.1.1-.1h0v.1l-.1.1h-.1v.1l-.1.1Zm0-.7h0l.1-.1v-.1h-.1v.2Zm2.1,6.2.3-.2.1-.3-.9-1.9-.2-.1-.2.2-.7,1.9v.3l.3.1.4-.1h.4Zm-1.8-2.3Zm.2,3.2Zm-.1-3.7v.1h.3v-.1Zm-.2-4h0l.2.2v.1l.1.1.1-.1v-.2h.2l.1-.1h.1l-.1-.1v-.1l.1-.1.1-.1h.4v-.3l-.1-.1-.2.1h-.1l.1-.1-.1-.1v.2h-.1V145l-.1-.1H130l-.1.1v.3l-.2.1.1.1v.1h.2l.1-.1h.2l-.1.1h-.3l-.1-.1-.1-.1Zm.3,4.5Zm-.2-3.9Zm.8,8.7V155h-.3l.1.1h.2Zm-.1-1.9h0l-.1.1v.1h.1l.1-.1Zm-.3-4,.1.1h.2v-.1l-.1-.1Zm0-4v.3h0v-.3Zm0,1Zm.2,3.5ZM130,146Zm.2,4Zm0-1.4h0l.1.1h.1v.1h.1v-.1h-.1Zm.7-3.1h-.4v.1h.2v.2l-.2.1v-.1l-.1-.1-.1.1-.1.1h-.1l-.1.1h.1l.1-.1h.4l.1.1.1.1.1-.1h.2v.1l-.1.2v.1l.1.1h.3v.2l-.1.2v.1l.1.1h.2l.1.1h.2l.1.1v.2h.3v-.2h-.1l-.1-.1.1-.1h-.1l-.2-.1-.1-.1v-.1h.2l-.1-.1-.1-.1v-.1l-.2.1v-.3l-.1-.1-.1-.2-.1-.1h-.4v-.1h.2v-.2l-.1-.1Zm-.5,4Zm.4,5.5Zm-.2-6.6Zm.4,1.1-.2-.1-.1.1h.2v.1l-.1.1.1.1h.1l.1-.1h.1l-.1-.2Zm-.1-.4v-.2h-.3v.4l.1.1h.1Zm-.1.6h.2l-.1.1h-.1Zm.3,5Zm.1-4.6h-.1v.1l.1-.1h0l.2.1v-.1h-.2Zm.1-.1Zm-.1-3.6h-.1v-.1l.1.1Zm.5,8.5Zm.4.1h0l.1-.1H132l-.1.1h-.2l.2.1.2-.1h0l.1.1-.1-.1Zm-.5-4.4Zm.3,2.6Zm.1-.2Zm0-1.3v.2h.1v-.1Zm.2-3.6-.1-.2H132l.1.1.1.1h0l-.2.1v.1l.1.1.1.1.1-.1v-.1l-.1-.2Zm-.1,3.2Zm.5,1.6Zm0,.4Zm-.2-4.5h0l-.1.2h0l.1-.2.2.1.2.1.1-.1h-.1Zm.7,6.3h0l-.2-.1h-.1l.1.1Zm-.6-6.5h.1v-.1l-.1.1Zm.4,4.6Zm0-4h-.1v.1h.1Zm.1,1Zm.5,5Zm-.2-5.2Zm.5,5.5h-.1v.1Zm-.3-4.6Zm.4,4Zm0,.3h-.1v.1h.1Zm-.3-3.8Zm.5.5Zm0,.3h0l.1.1v-.1Zm.3-.2Zm.1.5Zm.2.7h0l.1.1-.1-.1Zm.2.3Zm0-.1Zm0,.3Z"/><path class="cls-1" d="M145.5,144.4l-.2.4-1,1.9-.2.3-2,3.8-.1.5-.1.5.1,1v1.1l.1,2-.1.4-.3.2h-.4l-.5.1h-.5l-.3.1h-.4l-.4-.1-.2-.4v-3l-.1-1.4-.1-.5-.2-.5-1.5-2.1-.2-.3-.4-.5-.8-1.2-.2-.2-.8-1.2-.2-.4v-.3l.3-.2h.8l.9-.1.3.1h.4l.4.1.4.3.9,1.5.2.3.6,1,.2.3.2.3h.2l.2-.3.3-.7.2-.3.2-.4.4-.6.2-.5.4-.8.3-.3.5-.2h.3l.7-.1h.4l.4-.1h.7l.3.1Zm-10.4,1.1h0l.2.1.3-.1h.1l-.2-.1-.3-.1h-.1Zm0-.3.1-.1h.1l.1.1.1-.2-.2-.1-.1-.1-.2.1Zm2.1,3.6h.1l.4-.1h.3l-.1-.2h-.3l.1-.1.1-.1-.2-.1-.1-.2h.1v-.1h-.1l-.1-.1v-.2h-.3v-.1H137l.1-.1H137l-.2-.1-.1-.4-.2.1h-.1v.1h-.1l.1-.2v-.3l-.1-.2h-.4l.1-.2.2.1.1-.1-.1-.1h-.5l-.2-.1-.2.2.1.2h.3l.2.5.3.2v.1l.1.1h.1l-.1.1v.1l-.1.1.2.2.2.4.3-.2h.2v.1l-.2.1v.3l.3.1.1.3.1.1v.2Zm-1.6-2.9.1.1h-.1v-.1Zm.1-.2h.2v-.1h-.1Zm.1.3Zm0-1.1v0Zm.2,1.6h.1v.1l-.1-.1Zm0-1.4v.2h.2v-.2Zm.1.3v.1h.1v-.1Zm.3.9Zm.1,1h0l.1.1h-.1Zm-.1-2.1.1.1h.2l.1-.1.2-.1.3.1v-.1l-.1-.1-.2-.2h-.2l-.3.1.2.1h.2l.1.1-.1.1-.1-.1-.1.1.1.1h-.2l-.2-.1Zm7.1,0h-.2l-.4.5-.6,1-.2.3-.1.3-.2.3-.4.6-.1.3-.2.3-.1.4-.3.6-.2.2-.2.2-.3-.2-.2-.2-.2-.3-.8-1.1-.2-.3-.6-.8-.2-.3-.2-.3-.2-.3-.7-.8h-.3l.1.3,1.6,2.4.2.2.2.3.2.2.4.6.5.5.2.3.2.4.2,1.6v.5l.1.7v.3l.1.4v.5l.1.4h.2l.1-.3v-1l-.2-2.5.2-1,.2-.3.3-.4.2-.6.2-.3.3-.6.2-.3.7-1.3.4-.6.3-.6Zm-6.6,2.3v.2h-.1l-.1-.1Zm.5.9h0l-.1.1v-.1Zm.5,1.3h.3l.1-.2H138l-.1-.3.2-.2h.1l-.1-.2-.3.1-.1-.1v-.1l-.1.1v.2h.3l.1.3Zm-.5-1.5Zm.1-2.4.1.2v.3l.3.1.1.4.2.1.2.1.1-.3-.2-.1H138l.1-.1h.1v-.1l-.2-.1h-.3v-.2l.1-.1.2-.1v-.1h-.5Zm0-.3h.1v-.2l-.1.2Zm1,4.5h-.2l-.1-.1v.1l.1.1.2-.1Zm-.4-4Zm.2.8-.1-.1.1.1Zm.2,3.1.2-.1v-.2l-.1.1-.1.1Zm3.2,2.5h0l-.1.1-.1-.3v-.8l-.1-.1-.1.1-.1-.1.1-.1v-.1l-.1-.1-.1.2-.1.2h0v.7h.1l.1.2v.2l-.2.1-.1.2.1.2.1.2h.1l.1.1h-.2l-.1.1v.3l-.1.2.1.2-.1.3.2.1-.2.2.1.3-.1.4-.2.2v.1h-.3l-.1.1-.1-.1v-.3l-.2-.3.2-.4-.1-.4v-.4l-.2-.2h.2v-.1h-.2l.2-.1v-.3l.1-.4-.2-.3v-.3l-.2-.1h-.1l-.1-.2h.3l.1-.2v-.3l-.3-.1-.1-.3v-.4h0v.1l-.1-.1-.1-.4-.3.1h-.5v-.1l.1-.1.1-.1v-.1l-.1.1-.1.2.3.1.1.2.2.1.1.1v.1h-.2v.1l.2.1v.2h-.2v.1h.1l.1-.1.1.2-.2.2-.1.2v.8l.2.2v.1h-.2v.2l-.1.2.1.2.1.1h-.1v.2h.2l-.1.2v.1h.2v.1l-.2.1-.1.4v.2h.1v.7l.1.2h.1v-.1l.2.1.1.2.2-.1h.1v-.1h.1l.2.1.2-.1-.1-.1h-.2l.2-.1.4-.1.3.1.4.1.1-.2h0v-.1l.1-.3v-1h-.2V154l.3-.1.1-.4-.2-.4.1-.2-.1-.1v-.4Zm-3.3-5.2Zm.3,3.5h0l-.1-.1v.1Zm-.1-3-.1-.1v.2l.1.1Zm.3,0,.1.1v.1l.2.1v-.1l-.2-.1h.1v-.2l-.1-.1Zm0-.3h.1v-.1h-.1Zm.5,7.6-.1.1V155l.1-.1Zm.1-2.6-.1.2h-.2l.1-.1Zm-.2-.3-.1-.1h.1Zm0,.2Zm.3.9Zm-.2-1.7v-.1h.1Zm-.1-3.2h.1v-.1h-.1Zm.2.3h0v0Zm.6,7.2h0l-.1.1h-.1v-.2Zm0-.1-.2.1v-.2Zm-.3-7h.1v.5h.1l.1-.1.2-.1-.2-.3h-.3Zm.2.3h-.1v-.1l.1.1Zm.3.2h0l-.1.1h.1Zm0-.7Zm.6,7.5h-.2v.1h.1Zm-.4-7.6h.1l.1.1v.1h.1v-.1h-.1l-.2-.1Zm.7,7.5h0l-.1-.1.1.1-.1.1h.1Zm-.3-4.4Zm.1-.3Zm.6,4.7-.3.1-.1.2h.3Zm-.4-4.2v.1h-.1v-.1Zm-.2-3.2h.1v-.1l-.1.1Zm.3,2.2.1.1.1.2.2-.1v-.2l-.1-.1h-.1l-.2.1Zm.1,3.7h.1v.1l-.1-.1Zm-.3-6.3h.1V148H141Zm.6,7.3Zm.3-4.8-.1-.1-.1-.2h.2l-.1-.1h-.3v.2l.2.3h.1Zm-.4-3.5Zm.5,2.5-.2-.1v.1h-.1l.1.1-.1.1v.1l.2-.1Zm.4-.3Zm-.1-3.6Zm.2,3.2Zm.4-1Zm.1-.3v-.1H143l.1.1Zm.2.2Zm.2-.5Zm.5-.9h-.1v.1l.1-.1Z"/><path class="cls-1" d="M158.2,149.4V151l-.1.3v.4l-.1.3-.6,1.2-.2.3-1.2,1.2-1.5.8-.7.2-1.6.2h-1.1l-1.5-.4-.3-.1-1.2-.6-.2-.3-.5-.4-.9-1.1-.2-.3-.1-.4-.3-.6-.2-1.1v-2l.1-.8.3-1,.1-.3.5-.9.5-.6.5-.4.2-.2.9-.6.7-.2.3-.2.4-.1.4-.1,1.2-.1h.8l2.3.6.9.5.8.6.2.3.2.2.2.3.1.3.4.6.1.4.2.4.2.6Zm-12.6,0h.2l.2.1v.1l.1.1h.1l-.1.1H146v.1h.1l.1-.2-.1-.1v-.1l-.1-.1v-.1h-.1Zm0,.3h0l.1-.1h0Zm.5.7h0l-.1-.1-.1-.1h-.1l-.1.1v.1h.1v-.1l.3.1Zm-.3.7h0l-.1-.2v.1l.1.1Zm.2.6v-.1h-.1l.1.1Zm-.2-3.1h.1v-.1l-.1-.1Zm.7,3.8Zm-.5-4.8.1-.1v-.2H146Zm.2.1Zm0,.3H146v.1h.1Zm.7,4.6-.1-.1h-.1v-.2h0V152h0v.1l.1.1-.1.1-.2.1-.1.1h0l.4-.1.1.1Zm-.5-3.2Zm0,1h0l-.1.1Zm.1.7h0v0h0v-.2h-.1Zm.1,2v-.2l-.1-.1v.1l.1.2Zm-.3-6.1.2.1.1-.1-.1-.1.1-.1v-.1h0l.1-.1h-.1v.2l.1.1-.1.1v.1l-.1.1v-.1Zm.4.6h0l-.1.2.1-.2h0l-.3-.2h-.1v.1h.1l-.1.1h.4v0Zm-.1.5h0l-.1.2h.1v-.2Zm7.3,6.1.7-.3.3-.2.9-.9.3-.4.2-.4.2-.3.1-.3.2-1.4-.1-1.1-.1-.3v-.3l-.1-.3-.3-.8-.4-.6-.5-.6-1.2-.8-.3-.1-.4-.1-.3-.1h-.3l-.4-.1h-.9l-.9.1-1,.4-.9.5-.3.2-.5.6-.4.5-.4.6-.1.3-.1.4v.3l-.1.4v.4l.2,1.8.4,1,.1.2.2.3.5.6.8.6.3.2,1,.4.9.1h1.6l.3-.1.4-.1Zm-7.2-7.3h.2l.1-.1h-.1Zm0-.4h.2v-.2l-.1.1-.1.1Zm8,6.8-.1.3-1,.5-.3.1-.3.1-.9.1-1.2-.1-.3-.1-.7-.2-.3-.1-.6-.4-.5-.5-.4-.6-.2-.2-.3-.7-.2-.7v-1.3l.2-1.4.2-.3.1-.4.2-.3,1-1,.6-.4.3-.1.4-.1.6-.2.9-.1h.9l.6.1,1,.4.6.4.5.4.3.4.6,1.1.1.3.2,1.3v.8l-.1.7-.1.4-.2.6-.2.3-.5.2-.2.3-.3.3Zm-7.1.2-.1.1.1.1v-.2Zm-.3-7.6h0l.2.1-.1-.1Zm.6,8h-.1v.1Zm.2.4ZM148,149h-.1l-.1-.1v.1l-.1.1h0Zm-.3-.7h.1l.1-.1v-.1h-.1v.2Zm.2.4h-.1v.1h.1Zm.4,5.5-.1-.1.1.1Zm0-6h0l-.1.1-.1.1-.1.2h.1v-.1l.1-.1Zm.1-.5h0l-.3.1v.1h.3Zm5,4.9.3-.2.5-.4.2-.3.1-.3.2-.3.1-.7.1-.9-.1-.8-.1-.3-.1-.4-.2-.3-.4-.6-.6-.4-1-.4h-.8l-.8.1-.4.1-.3.2-.5.4-.2.2-.2.3-.1.3-.2.3-.1.3-.1.7v.5l.1.9.4,1,.2.2.2.2.6.4.6.3h.3l.4.1,1-.1.3-.1.3-.1Zm-4.7-5Zm0-.4.1.1v-.2h-.1Zm2.5,8.1h0v-.1h0Zm.2,0Zm.6.4-.1-.1h-.1v.1Zm.1-.4h-.2v.1h.2Zm.4.1h-.1v.1l.1-.1h0l.1.2Zm0-1.6h0l-.1-.1v.1Zm.9,1.3-.1-.1v.1l-.1.1h-.1l-.1.1-.1-.1h-.1l-.1.1h.1l.1-.1h.1l.1-.1V155h.2l.1-.1Zm-.6-9h0v0Zm.6,7h0l.2-.1h.2l-.1-.1h-.3v.2l-.1.1.1.1v.2h.1l.1-.1h0l-.1-.1Zm.5,2-.1-.1-.1.1.1.1-.1.1Zm0-.5Zm0,0Zm.2-1.5H154v.1h-.2v.1l.2-.1Zm.3,1.7h0l-.1-.1h-.2v.3H154v.1h.1V155l.1.1.1-.1.1-.2Zm-.2-2.1.1-.1-.1-.1h-.1v.1l.1.1-.1.1h.2Zm0,2.2h.2v.1l-.1.1-.1-.2Zm.5-2.3h0l.2-.1.1.1h.1l-.2-.1-.1-.1v-.2h-.1V152l-.1-.1v.1l-.2.2h-.1v.1h.2l.2.3Zm.4,2v-.1h0l-.1-.1h-.2l-.1.1-.1.1h.1l.1-.1v.1l.1.1h.2v-.1Zm-.2.4h0l-.2.1.2-.1Zm.2-.5v.1l-.2.1h-.1v-.1l.1-.2.2.1Zm.1-.2.1-.1-.1-.1H155v.2h.2Zm-.1-1.8-.1-.1h-.1v.2Zm0-.5-.1.1.1-.1.1.2h0v.1h.2l.1-.1-.1.1v-.2l-.1-.1Zm0-.8.1.1h.1v-.2l-.1-.1-.1.2Zm1.1,2.7H156v-.1l-.1-.1h-.3v-.1h.2l-.1-.1-.1.1-.1.1.1.2h-.2v.1h.2v.1h.1l.1-.1h.1l.1-.1.1.1-.1.2h.1l.1-.1v-.2Zm-.7.7h-.2v-.1h-.1v.1l.1.1v.1h.3Zm-.2-3h0l.3.1h0Zm.1-.5h.2v-.3l.2.1-.1-.1h-.1l-.2.1Zm.4-1.3.1.1.1-.1v-.1h0Zm.6,3.5h-.2l-.1.1.1.1-.1.1h0v-.3l.1.1v.3l.1.1h0v-.4Zm.5-.3h-.5v.1h.2l.1-.1.1.1V153Zm.4-.4h0l-.1.1-.1-.1-.1-.1.1-.2-.1-.1-.3.1h-.1l-.1.1h.2l.1.1.1.2h.2l.1.1.1-.1Zm-.5-.6h-.1v.1h0l-.1.1.2-.1h.1l-.1-.1Zm-.4-5.4h0v0Zm.5,5.2h0l.4.1.1-.1-.2-.1-.1.1v.1Zm.4.3.1-.1v-.1l-.1.1v.1l-.2-.1h0l.2.1Zm-.2-1.2.1-.1-.1.1Zm.1.3h0l.1-.1Zm-.2-4.5Zm.6,4.9.1-.1-.1-.2h-.1l-.1.1h-.1v.1l.3.1v.1l.1.1-.1-.2Zm-.5-5Zm.2,3.8.1-.1-.1-.1v.2Zm0-1h.1v-.1Zm.4,1.7-.1-.1h-.2l.1.1h.2Zm.1-.5h-.2v.1l-.1.1.1.1.2-.3Z"/><path class="cls-1" d="M169.7,150.7v1.4l-.1.3-.1.3-.2.4-.4.7-.7.6-.3.2-1,.3-.3.1-1.8.2h-.4l-2.5.2h-.5l-.6.1-.3-.2-.2-.4v-.3l-.2-3.9-.1-.5-.1-3.4-.1-.7v-1.7l-.1-.3v-.4l.2-.4.4-.2,2.1-.1.3-.1.7.1.3-.1h1.8l.7.1.3.1.4.1.3.2.3.2.3.2.3.2.6.8.1.4.2.6.1.6v.6l-.2.6-.3.7-.1.3.2.4.3.2.2.2.4.7Zm-9.1,3Zm0-.2.1.1.1-.1h.1l-.1-.1-.2.1Zm0-.3Zm-.4-7.5Zm.3,5.9Zm.2.6h.2v-.1l-.2.1h0v-.1h.1V152h-.3v.1Zm.1,2.5v0h0l-.1.2.1-.2Zm-.2-2.3h0v.1h0Zm.2,1.7h-.1v.2h.1Zm-.4-7.1Zm.2,4.7Zm0-2.2Zm.4,2.9h0v.3h-.1l-.1.1v.2l.1.1v.1l.1-.1.1-.1.1-.1v-.4l-.2-.1.1-.1v-.1l-.1.2Zm-.3-1.6h0l.2.2v-.1l-.2-.1Zm.1,2.4Zm.1.6.1.1.1-.1-.1-.1-.1.1Zm-.3-3.7Zm-.3-6.4h0l.1.1v-.1Zm.2,3.7Zm.4,4.1v-.1h-.1v.2Zm-.4-7Zm.1,1.3Zm.8,9.1-.1-.1-.1-.1h-.1l-.1-.1v.2l.1.1h.3Zm-.6-5.3Zm-.2-5.6h0v0Zm.6,10h0l.1.1V154Zm.5.4h-.4v-.1h.1l.2-.1v-.1h-.1v.1h-.4v.1l.1.1.2.1h.2Zm-.5-1.1v-.1h-.1l.1.1Zm-.3-5.1Zm-.1-2.5h0l-.1.1h.1Zm.3,6.2Zm.1,1.1Zm-.2-2.8Zm.1.5Zm-.1-2Zm0,.5Zm.2,3.3Zm-.3-8.4Zm7.5,7.5-.1-1.1-.1-.4-.2-.3-.2-.2-.6-.5-.3-.1-.2-.2.1-.3.3-.2.2-.3.2-.3.1-.3.1-.3-.1-1-.3-.7-.2-.3-.2-.2-.9-.5-.3-.1-.9-.1h-.5l-.7.1h-.3l-.3.1h-1.2l-.5.2-.1.4v2.2l.1.4v.4l.1,1.1.1.3.3,4.6.2.3.3.1h1.3l.5-.1h.4l1.6-.1.9-.2.6-.4.3-.2.4-.6.2-.3.1-.4Zm-6.5,3.2Zm-.2-6.4v-.8l-.1-.7V146l-.1-1,.2-.3.3-.2h1l.9-.1h.9l.9.1.3.1.3.2.3.2.4.5.1.3.1.5v.5l-.1.4-.3.5-.2.3-.3.3-.6.2-.5.1-1.6.1-.5.1h-.8l-.4-.2Zm6.2,2.1.1.6v.5l-.1.4-.3.6-.3.3-.6.4-.9.2-.8.1-2.3.1-.5-.1-.2-.2v-2.1l-.1-1.2.2-.5.3-.2h1.8l.4-.1.3.1h1.8l.3.2.3.1.5.5.2.3Zm-6.4-7v.1h.1v-.1Zm1,11Zm-.3-3.6Zm.1,1Zm-.3-5.7Zm.3,5.3Zm.2.9Zm-.4-6.6Zm-.1-2.4Zm0,.2h.4v-.1l-.1-.1h-.2Zm.2,2.8Zm.1,4.2Zm.3.6h0l-.1-.1v.3h.1v-.2Zm-.3-3.6Zm-.1-2.4h.1v-.1l-.1.1Zm0,.8Zm.2,4.3.1.1h.2l.1-.1v-.1l-.1-.1-.3.2Zm-.1-4.8h0l-.1-.1h-.1l.1.1Zm0,2.8Zm.1,1.6h0l.2.1h.1v-.1l.1-.2-.1-.1-.1.1Zm0-1.9Zm.3,3.5Zm-.2-3.4Zm.3.1-.2.1h-.1v.1h.2l.1-.2h.4l.1.1h.1l-.1-.1h-.1l-.1-.1V148l.1-.1v-.1H163l-.1.1h-.2Zm.2,4.7h-.1l-.1.1.2-.1Zm-.3-2.2Zm.3,3.7Zm-.5-9.4Zm.3,4.7Zm-.1-2.1Zm.1.2Zm-.2-4.3h.1l.1-.1v-.1l-.1.1-.1.1Zm.4,6.5.1-.1v.1h.2v.1l-.1.1H163v.1l.1.1.1-.1h.4v-.4l.1-.1-.1-.1-.1.1-.1.1h-.1l-.3.1Zm-.3-5Zm3.8,6.2-.1-.4-.2-.3-.3-.1-1.7-.1-.4.1h-.3l-.3.2-.1.3V152l.2.3.3.1H165l1-.1.3-.2.2-.3Zm-3.7-4.8v.6l.2.5.4.2,1.4-.1.5-.2.2-.2.1-.5-.1-.5-.2-.3-.3-.1h-1.8l-.3.2Zm0-1.1Zm0-.5Zm.8,9.9h0l-.1.1.1-.1Zm-.5-11.3Zm.5,4.7Zm.4,6.5Zm-.3-6.3h-.1v.1h.1Zm.1,1.7Zm-.3-6.6Zm.1,1.6h0l.1-.1-.1.1Zm.3,4.8h.1v-.1h-.2Zm.2.1Zm.2-1.9Zm-.3-4.6h0v0Zm.1,1.7h0l.1-.1-.1.1Zm.6,8.1h0Zm-.1-3.5h0l.1.1h.2l-.1-.1Zm-.2-6Zm.5,4.2h0l-.1.1h0l-.1.1v.1h0l.1-.1.1-.2Zm-.5-4.7Zm.5,5Zm.4,4.7Zm-.6-9.5Zm.9,11.2Zm-.3-6.6Zm.5,6.3h-.2v.1l.2-.1Zm-.4-4.5Zm.3-1.8-.2-.1h-.1v.5h0v-.1l.1-.1h.3Zm0,2Zm.4,4.6Zm-.3-9Zm.3,2.3Zm.3,2.2h.1V150h-.1Zm-.2-3.1h0l.2.1V147h-.2Zm.1.4Zm.6,7.1h-.1v.1l.1-.1Zm-.4-7.1v.2h.1v-.1l-.1-.1Zm.4,2.8Zm0,.2h.1v-.1l-.1.1Zm.1.5Zm.2,1.1Zm-.1-1.5Zm.3,4Zm-.2-2.9h.2l-.1-.1h-.1Zm0-1Zm0,.2Zm.3,1h0l-.2.1v.1l.1-.1Zm.1-.3h-.1v.1l.1.1Zm.1,2.5Zm.2.1Zm-.3-5.5Zm.4-.6Zm.2,1.7Zm.4,3.4h-.1l.1.1Zm-.2-.3h0l.1-.2h-.1Zm0-3h0l.2.1h.1v-.3h-.1v.1l-.1-.1Zm.3,3.7Zm.1-.7Zm-.1-2.4.2-.1h.1v.4h-.1v.2h.1v-.1l.1-.1.1-.1v-.3l-.1-.1-.1-.1v-.2h-.4v.2Zm.1.8Zm.3,1.6v-.1h-.2v.1Zm-.1-1.6-.1.1v.1h.1v-.2Zm.4,1h-.2v-.1l-.1-.1v.2H169v.3h.3v-.1h.1Zm-.3-1.4-.1-.2.1-.1h.1l-.1.1v.2Z"/><path class="cls-1" d="M182.6,153.7v.4l-.5.1h-.8l-.7.1h-.4l-.4-.1-.4-.2-.1-.3-.2-.3-.4-.3-.4-.2-.4.1h-.3l-1.7.1h-.3l-.7.1h-.3l-.4.2-.3.4-.3.6-.3.3-.4.1-1,.1h-.4l-.7.1-.4-.1-.1-.4.1-.4.3-.7.1-.3.2-.3.2-.7.3-.6.1-.4.2-.3.1-.4,1.6-3.9.1-.3.2-.3.1-.4.2-.3.6-1.7.1-.2.1-.4.1-.3.3-.3.6-.2.6.1.3.3.4.6.1.3.2.3.1.4,1.3,2.4.1.4.4.6.1.3.2.2.1.4.2.3.2.2.8,1.6.4.6.3.6.5.9.3.6Zm-11.5.3h0l.2-.1v-.1l.2-.1.2.1.1-.1h-.2l.1-.1.1-.1.1-.1v-.3l.1-.1v-.1h-.1l-.2-.1v-.1h.2l.1-.1v-.1h-.6v.2h-.1l-.1.1v.2l.2.1v.2h-.2v.2h-.3l-.1.1v.1h.1v.2l-.1.1v.4h-.1v-.1h0v.1l.1.1.1.1h.1l.1-.1Zm0,.5Zm.3-1h0l-.1-.2h.2v.1Zm.7.3-.2-.1-.1-.1h-.1v.3h-.2v.1l.1.1v.2l-.1.1h-.1l.1.1.1.1v-.1h.1l.2.1h.3v-.2l-.1-.1-.1.1-.1-.1.1-.1v-.1h.2V154l-.1-.2Zm-.5-.5-.1-.1.1.1Zm0,.9Zm-.1-2.1h0v.2l.1.1h.1l.1-.1v-.1h-.1l-.2-.1Zm.2,0h0l.1.1h0Zm.2-.4h.1v-.1l-.1.1Zm8.9,1.4-.1-.3-.5-1-.4-.6-1.8-3.5-.2-.5-1.6-3-.2-.3h-.2l-.2.4-.2.7-.2.3-.1.4-.3.6-.1.4-.4,1-.1.4-.3.6-.1.3-.2.3-.1.4-.2.3-.1.3-.6,1.7-.1.3-.4,1v.3l.2.1.6-1.2.3-.3.4-.1h.7l.3-.1H177l1.9-.2h.4l.4.1.3.3.5.8.3.3Zm-8.8-1.2Zm.1,0h0v0ZM174,153l-.1-.1-.1.1h-.2l-.1-.1v.1l.1.1v.1H173v.1h-.1l-.1.2v.2h-.2l-.1.1v.2l-.2.1.1.1h.1v.1h-.2v.1h.3v.2l.1.1v-.2h.3v-.4l.1-.1h.1v-.5l.1.1v.2h.1v-.3h.2v-.1l.2-.1.1-.1.1-.1Zm-1.9-2.6Zm.1,1.1Zm.1-.5-.1.1v.1h.3l.1-.1h.1l.1-.1h-.5Zm.8,2.4h0v.3l-.1.1-.1.1-.1.1-.2.1-.1-.1.2-.1v-.1l.1-.2v-.2h.3Zm-.5-4Zm0,.4v.1h.2v-.1Zm.3,3.4Zm.2-.3v.1h.1v-.1Zm.1-.2h.2l.2-.1v-.2l-.1-.1-.1.1-.1-.1-.1.1Zm-.1-3.7Zm3.2-3.7,2.9,5.4v.4l-.3.2-4.2.2h-1.1l-.3-.1-.1-.3,1.2-3.1.1-.3,1-2.7.2-.2.3.1Zm-2.9,7.2Zm-.1-3.9Zm.8,3.8h0l-.2.1v-.1l-.1-.1-.1.1.1.1h.1l-.1.1h.3Zm-.1-1.6v-.1h-.1l.1.1Zm-.3-3.9Zm.5,4.2h0l-.1-.1H174l.1.1Zm-.2-.5Zm1.1,1.7h0l.2-.1-.1-.1-.2-.1h-.1v.3l-.1.1-.1-.1h-.1l-.1-.1-.2.1-.1.1v.1l-.1.1h.2l.1-.1v-.1h.1l.1.1.1.1h.3l.1-.3Zm-.8,0Zm0-2.5h0l.1.1v.1h.3v-.1l-.1.1h-.1l-.1-.1-.1-.1Zm-.2-3.5h0l.1.1-.1-.1Zm0,.4v0Zm.7,4h-.2l-.1.1.1.2h.1l.1-.1v-.2Zm-.5-1.2.1.1.1.1.1-.1h-.1l-.2-.1Zm.1,1Zm-.2-4.9Zm.3,3.3h.1v-.1l-.1.1Zm.1,1.2h0Zm-.1-.9Zm-.1-4.2h0l.1.1v-.2l-.1-.1v.2Zm.4,5.5h.2v-.1l-.2.1Zm-.4-6h0l.1.1v-.1Zm.4,5.7h.2l-.1-.1Zm.2.8Zm-.1-3Zm.2.3Zm.5,4.3v-.1l-.1-.1v.1l.1.1h-.2l-.1.1.1.1.1-.1.1-.1Zm-.4-3.6v-.1h-.1l.1.1Zm-.3-4.4h.1l.1-.1v-.1l.1-.1.1-.1v0l-.1.1h-.1v.1l-.1.1Zm0-.7h0l.1-.1v-.1h-.1l-.1.1Zm2.1,6.2.3-.1v-.3l-.9-1.9-.2-.1-.2.2-.7,1.9v.3l.3.1.4-.1h1Zm-1.9-2.3Zm.3,3.2Zm-.2-3.7v.1h.3v-.1Zm-.1-4h0l.2.2v.1l.1.1.1-.1v-.2h.2l.1-.1h.1l-.1-.1v-.1l.1-.1.1-.1h.4v-.3l-.1-.1-.2.1h0l.1-.1-.1-.1v.2l-.1-.1v-.1l-.1-.1h-.3l-.1.1v.3l-.2.1.1.1v.1h.2l.1-.1h.2l-.1.1h-.4l-.1-.1-.1-.1Zm.3,4.5Zm-.2-3.9Zm.8,8.7v-.1h-.3l.1.1h.2Zm-.1-1.9h0l-.1.1v.1h.1l.1-.1Zm-.3-4,.1.2h.2v-.1h-.1Zm0-4v.3h0v-.3Zm0,1Zm.2,3.5Zm-.2-3.6Zm.2,3.9Zm0-1.4h0l.1.1h.1v.1h.1v-.1H176Zm.6-3.1H176v.1h.2v.2l-.1.1v-.1l-.1-.1-.1.1-.1.1h-.1v.1h.1l.1-.1h.3l.1.1.1.1.1-.1h.2v.1l-.1.2v.1l.1.1h.3v.2l-.1.2v.1l.1.1h.4l.1.1v.2h.3v-.3l-.1-.1-.1-.1.1-.1h-.1l-.2-.1-.1-.1V144h.2l-.1-.1-.1-.1v-.1l-.1-.1v0h-.1l-.1-.2-.1-.1h-.4v-.1h.2V143l-.1-.1Zm-.4,4.1Zm.3,5.5Zm-.2-6.6Zm.4,1.1-.2-.1-.1.1h.1v.1l-.1.1.1.1h.1l.1-.1h0v-.2Zm0-.4v-.2h-.3v.4l.1.1h.1Zm-.1.6h.2l-.1.1h-.1Zm.3,5Zm0-4.6h-.1v.1l.1-.1h0l.2.1v-.1h-.2Zm.2-.2Zm-.1-3.5h-.1v-.1l.1.1Zm.5,8.4Zm.3.1h0l-.2-.1-.1.1h-.2l.2.1.1-.1Zm-.5-4.4Zm.3,2.6Zm.1-.2Zm0-1.3v.2h.1v-.1Zm.2-3.6-.1-.2h-.1l.1.1.1.1h0l-.2.1v.1l.1.1.1.1.1-.1v-.1h-.1Zm-.1,3.2Zm.5,1.6Zm0,.4Zm-.1-4.5h0v.2h0l.1-.1h.1l.2.1.1-.1h-.1Zm.6,6.3h0l-.2-.1h0l.2.1Zm-.6-6.5h.1V146l-.1.1Zm.5,4.6Zm-.1-4h-.1v.1h.1Zm.2,1.1Zm.4,5Zm-.1-5.3Zm.5,5.5h-.1v.1Zm-.4-4.6.1.1v-.2l-.1.1Zm.5,4Zm0,.3h-.1v.1h.1Zm-.3-3.8Zm.4.5Zm.1.3h0l.1.1v-.1Zm.2-.2Zm.2.5Zm.2.7h0l.1.1-.1-.1Zm.2.3Zm0-.1Zm0,.3Z"/><path class="cls-1" d="M183.6,149.3h-.4l-.3-.2-.2-.3-.1-1.5.1-.3.4-.2.3-.1h.4l2-.1.3.1,1.8-.1.4.2.1.4.1,1.4-.2.4-.5.2-1,.1h-.4l-1.2.1-.3.1h-.7l-.3.1Zm.4-.4h.2l.1-.1.2-.2.2-.1h-.3l-.1-.1-.2.1v.2l.1.1h.1v.1H184l-.2.1-.1-.1-.2-.1.2-.2v-.1l.1-.1h0v-.1l-.1-.1v-.1l-.1-.1h-.4v-.1h.5l.2.1v-.3l.3.1v-.2l-.3-.1h-.3l-.1.1h.1v.1h-.5l-.1.1v.3h.3v.1l-.1.2v.1h-.1v.1h.1l.2.1v.1l-.1.1-.1.2h-.1l-.1-.1v.2l.1.1.1.1.1.1-.1.1h.1l.1-.1.1.2.2-.1.1.1Zm-.6-.9.1-.1h.1l.1.1Zm0,.4Zm.3-.3Zm2.1-.1h1.1l.4-.2v-.2l-1.3-.1-.9.1h-.7l-.4.1v.2l.4.1h1.4Zm-1.5-.7Zm.8,1.5h.2l.2.1h0l.2-.1h.3v-.2h.1l.1.2.1.1v-.1l-.1-.1h.4l.2.2h.2l.1-.1h.1v-.2h-.5v-.2l-.1.1-.1.1-.1-.1.1-.1.1-.1h-.3l-.1.1h-.1l-.1-.2-.1-.1h-.1l-.2.1-.1.1h-.1l-.1.1h-.7l-.1.2h.1l.1-.2h.1v.2Zm-.3-1.4Zm.1-.5Zm.2,1.6Zm-.1-1.4Zm.3-.2h0l-.1-.1.1.1Zm.2.2h0Zm0,1.5h.1v.1l-.1-.1Zm.3-1.5Zm0,1.6Zm.4-1.7Zm1.8.5v-.3h.1v-.1h-.2l-.1.1-.1-.1.1-.1v-.1l-.1-.1v.1h-.2l-.3.1h-.1v-.1h.2v-.1h-.2v.1h-.3v-.1l.1-.1-.1-.1v.2l-.1-.1-.1.1.1.1.1.1h.3l.1.2.1.1h.3l.4.2Zm-.7.8Zm.2,0Zm.2,0v-.7h-.1l-.1.1v.4l.1.1v.1Zm0,.4h0l-.1-.1v.1Zm.3-.9Zm.1.2h-.2v.1l.2-.1Zm0-.2Zm0,.6Z"/><path class="cls-1" d="M199.3,141.4l-.2.4-1,1.9-.2.3-2,3.8-.1.5-.1.5.1,1v.7l.1.4.1,2-.1.4-.3.2h-.4l-.5.1h-1.5l-.4-.1-.2-.4v-2.4l-.1-.4v-1.4l-.1-.5-.2-.5-1.5-2.1-.1-.2-.5-.5-.8-1.2-.2-.2-.8-1.2-.2-.4v-.4l.3-.2h.8l.9-.1.3.1h.4l.4.1.4.3.9,1.5.2.3.6,1,.2.3.2.3h.2l.2-.3.3-.7.2-.3.1-.4.4-.6.2-.5.4-.8.3-.3.5-.2h.3l.7-.1h.4l.4-.1h.7l.3.1Zm-10.5,1.1h0l.2.1.3-.1h.1l-.2-.1-.3-.1h-.1Zm0-.2.1-.1h.1l.1.1.1-.2-.2-.1-.1-.1-.2.1Zm2.2,3.5h.1l.4-.1h.3l-.2-.1h-.3v-.1l.1-.1.1-.1-.2-.1-.1-.2h.1v-.1h-.1l-.1-.1v-.3h-.3v-.1h-.1l.1-.1h-.1l-.2-.1-.1-.4-.2.1h-.1v.1l-.1-.1.1-.2v-.1l-.1-.2h-.4l.1-.2.2.1.1-.1-.1-.1h-.3l-.3-.1-.2.2.1.2h.3l.2.5.3.2v.1l.1.1h.1l-.1.1v.2l.1.2.2.4.3-.2h.2v.1l-.2.1v.3l.3.1v.3l.1.1v.2Zm-1.7-2.8.1.1h0l-.1-.1Zm.2-.2h.2v-.2h-.1Zm.1.2Zm-.1-1.1v0Zm.2,1.7h.1v.1h-.1Zm0-1.4v.2h.2v-.2Zm.1.2v.2h.1v-.1Zm.3,1Zm.1,1Zm-.1-2.1.1.1h.2l.1-.1.2-.2.3.1v-.1l-.1-.1-.1-.2h-.2l-.3.1.2.1h.2l.1.1-.1.1-.1-.1-.1.1.1.1v.1h-.1l-.4-.1Zm7.1,0H197l-.4.5-.6,1-.2.3-.1.3-.2.3-.4.6-.1.3-.2.3-.1.4-.3.6-.2.2-.2.2-.3-.2-.2-.2-.2-.3-.8-1.1-.2-.3-.6-.8-.2-.3-.2-.3-.2-.3-.7-.8h-.3l.1.3,1.6,2.4.2.2.2.3.2.2.4.6.5.5.2.4.2.4.2,1.6v.5l.1.7v.3l.1.4v.5l.1.4h.2l.1-.3v-1.2l-.2-2.5.2-1,.2-.3.3-.4.2-.5.2-.3.3-.6.2-.3.6-1.3.4-.6.3-.6Zm-6.6,2.3v.2h-.1l-.1-.1Zm.5.9h0l-.1.1v-.1Zm.5,1.3h.3l.1-.2h-.3l-.1-.3.2-.2h0l-.1-.1-.3.1-.1-.1v-.1l-.1.1v.2h.3l.1.3Zm-.4-1.5Zm0-2.4.1.2v.3l.3.1.1.4.2.1.2.1.1-.3-.2-.1h-.3l.1-.1h.1v-.1l-.2-.1h-.3v-.2l.1-.1.2-.1v-.1h-.5Zm0-.3h.1v-.2l-.1.2Zm1,4.5H192l-.1-.1v.1l.1.1.2-.1Zm-.4-4Zm.3.8-.1-.1.1.1Zm.1,3.2.2-.1v-.2l-.1.1-.2.1Zm3.2,2.4h0l-.1.1-.1-.3v-.8l-.1-.1-.1.1-.1-.1.1-.1v-.1l-.1-.1-.1.3-.1.2h0v.7h.1l.1.2v.2l-.1.1-.1.2.1.2.1.2h.1l.1.1h-.2l-.1.1v.3l-.1.2.1.2-.1.3.2.1-.3-.1.1.3-.1.4-.2.2v.1h-.3l-.1.1-.1-.1h0v-.2l-.2-.3.2-.4-.1-.4v-.4l-.2-.2h.2v-.1h-.2l.2-.1v-.3l.1-.4-.2-.3v-.3l-.2-.1h-.1l-.1-.2h.3l.1-.2v-.3l-.3-.1-.1-.3v-.4h0v.1l-.1-.1-.1-.4-.3.1h-.1v-.1l.1-.1.1-.1-.1-.1-.1.1-.1.2.3.1.1.2.2.1.1.1v.1h-.2v.1l.2.1v.2h-.2v.1h.1l.1-.1.1.2-.2.2-.1.2v.8l.2.2v.1h-.2v.2l-.1.2.1.2.1.1h-.1v.2h.2l-.1.2v.1h.2v.1l-.2.1-.1.4v.2h.1v.9l.1.2h.1v-.1l.2.1.1.2.2-.1h.1V153h.1l.2.1.2-.1-.1-.1h-.2l.2-.1.3-.2.3.1.4.1.1-.2h-.1v-.1l.1-.3v-1h-.2v-.1l.3-.1.1-.4-.2-.4.1-.2-.1-.1.1-.3Zm-3.3-5.2Zm.3,3.5h0l-.1-.1v.1Zm0-3-.1-.1v.2l.1.1Zm.2,0,.1.1v.1l.2.1V145l-.2-.1h.1v-.3h-.2Zm0-.3h.1v-.1h-.1Zm.5,7.6-.1.1.1-.1v0Zm.1-2.6-.1.2h-.2l.1-.1Zm-.2-.3-.1-.1h.1Zm0,.2Zm.3.9Zm-.2-1.7v-.1h.1v.1Zm-.1-3.1h.1v-.1H193Zm.2.2h0v0Zm.6,7.3h0l-.1.1h-.1v-.2Zm0-.2-.2.1v-.3Zm-.3-7h.1v.5h.1l.1-.1.2-.1-.2-.3h-.3Zm.3.3h-.2V146l.2.1Zm.2.2h0l-.1.1h.1Zm0-.7Zm.6,7.5h-.2v.1h.1Zm-.3-7.6h.2v.1h.1v-.1h-.1l-.1-.1Zm.6,7.5h0l-.1-.1.1.1Zm-.2-4.4Zm0-.3Zm.6,4.8H195l-.1.2h.3Zm-.3-4.2v.1h-.1v-.1Zm-.3-3.3h.1v-.1h-.2Zm.3,2.2.1.1.1.2.2-.1v-.2l-.1-.2h-.1l-.2.2Zm.2,3.7h.1v.1l-.1-.1Zm-.4-6.3h.1v-.1h-.2Zm.6,7.4Zm.3-4.9-.1-.1-.1-.2h.1l-.1-.1h-.3v.2l.2.3h.2Zm-.4-3.5Zm.5,2.5-.2-.1v.1h-.1l.1.1-.1.1v.1l.2-.1Zm.5-.3Zm-.2-3.6Zm.2,3.3Zm.4-1Zm.1-.4v-.1h-.1l.1.1Zm.3.3Zm.2-.6Zm.5-.8h0Z"/><path class="cls-1" d="M212.4,146.4V148l-.1.3v.4l-.1.3-.6,1.2-.2.3-1.2,1.2-1.6.9-.7.2-1.6.2h-1.1l-1.5-.4-.4-.1-1.2-.6-.2-.2-.5-.4-.9-1.1-.2-.3-.1-.4-.3-.6-.3-1.1v-2l.1-.8.3-1,.1-.3.5-.9.4-.6.5-.4.2-.2.9-.6.7-.2.3-.2.4-.1.4-.1,1.2-.1h.8l2.4.6.9.5.8.6.2.3.2.2.2.3.1.3.4.6.1.4.2.4.2.6Zm-12.6,0h.2l.2.1v.1l.1.1.1.1-.1.1h-.1v.1h.1l.1-.2-.1-.1v-.1l-.1-.1v-.1h-.4Zm0,.3h0l.1-.1h0Zm.5.7h0l-.1-.1-.1-.1H200l-.1.1v.1h.1v-.1l.3.1Zm-.3.7h0l-.1-.2v.1l.1.1Zm.1.6v-.1H200l.1.1Zm-.1-3.1h.1v-.1l-.1-.1Zm.6,3.8Zm-.5-4.8.1-.1v-.2h-.1Zm.2.1Zm0,.3h-.2v.1h.2Zm.8,4.5-.1-.1h-.1v-.2h-.1V149h0v.1l.1.1-.1.1-.1.1-.1.1h0l.4-.1.1.1Zm-.6-3.2Zm0,1.1h0l-.1.1Zm.1.7h0v0h0v-.2h-.1Zm.2,2v-.2l-.1-.1v.1l.1.2Zm-.4-6.1.2.1.1-.1-.1-.1.1-.1-.1-.1h0l.1-.1h0v.2l.1.1-.1.1v.1l-.1.1v-.1Zm.4.6h0l-.1.2.1-.2h0l-.3-.1h0v.1h.1v.1h.1l.1-.1Zm-.1.5h0l-.1.2h.1v-.2Zm7.4,6.1.7-.3.3-.2.9-.9.3-.4.2-.4.2-.3.1-.3.2-1.4-.1-1.1-.1-.3v-.3l-.1-.3-.3-.8-.4-.6-.5-.6-1.2-.8-.3-.1-.4-.1-.3-.1H207l-.4-.1h-1l-.9.1-1,.4-.9.5-.3.2-.5.6-.4.5-.4.6-.1.3-.1.4v.3l-.1.4v.4l.2,1.8.4,1,.2.3.2.3.5.6.8.6.3.2,1,.4.9.1H207l.3-.1.4-.1Zm-7.3-7.2h.2l.1-.1H201Zm0-.5h.2v-.2l-.1.1-.1.1Zm8,6.9-.2.2-1,.5-.3.1-.3.1-.9.1-1.2-.1-.3-.1-.7-.2-.3-.1-.6-.4-.5-.5-.4-.6-.2-.2-.3-.7-.2-.7-.1-.3v-1l.2-1.4.1-.4.1-.4.2-.3,1-1,.6-.4.3-.1.4-.1.6-.2.9-.1h.9l.6.1,1,.4.6.4.5.4.3.4.6,1.1.1.3.2,1.3v.8l-.1.7-.1.4-.2.6-.2.3-.2.3-.2.3-.3.3Zm-7.1.1-.1.1.1.1v-.2Zm-.3-7.6h0l.2.1-.1-.1Zm.7,8h0l-.1.1Zm.1.4Zm-.1-5.2H202l-.1-.1v.1l-.1.1h0Zm-.3-.8h.1l.1-.1v-.1h-.1v.2Zm.2.4h-.1v.1h.1Zm.4,5.5-.1-.1.1.1Zm0-6h0l-.1.1-.1.1-.1.2h.1v-.1l.1-.1Zm.1-.5h0l-.3.1v.1h.3Zm5,4.9.3-.2.5-.4.2-.3.1-.3.2-.3.1-.7.1-.9-.1-.8-.1-.3-.1-.4-.2-.3-.4-.6-.6-.4-1-.4h-.9l-.8.1-.4.1-.3.2-.5.4-.2.2-.2.3-.1.3-.2.3-.1.3-.1.7v.5l.1.9.4,1,.2.2.2.2.6.4.6.3h.3l.4.1,1-.1.3-.1.3-.1Zm-4.7-5Zm.1-.4.1.1v-.2Zm2.4,8.1h0v-.1h0Zm.2,0Zm.6.4-.1-.1h-.1v.1Zm.1-.4H206v.1h.2Zm.4.2Zm0-1.7Zm.9,1.4-.1-.1v.1l-.1.1h-.1l-.1.1-.1-.1h-.1l-.1.1.1.1.1-.1.1.1.1-.1v-.1h.2l.1-.1Zm-.6-9h0v0Zm.6,7h0l.2-.1h.2l-.1-.1h-.3v.2h0v.5h.1l.1-.1h.1l-.1-.1Zm.6,2-.1-.2-.1.1.1.1-.1.1Zm0-.5-.1-.1v.1h.1Zm-.1,0Zm.2-1.6h-.1v.1h-.2v.1l.2-.1Zm.3,1.7h0l-.1-.1h-.2v.3h-.1v.1h.1V152l.1.1.1-.1.1-.2Zm-.2-2.1.1-.1-.1-.1h-.1v.1l.1.1-.1.1h.2Zm0,2.2h.3v.1l-.1.1h-.1Zm.5-2.3h0l.2-.1.1.1h.1l-.2-.1-.1-.1v-.2h-.1V149l-.1-.1v.1l-.2.2h-.1v.1h.2v.3Zm.5,2v-.1h0l-.1-.1H209l-.1.1-.1.1h.1l.1-.1v.1l.1.1h.2v-.1Zm-.3.4h0l-.2.1.1.1Zm.2-.5v.1l-.2.1h-.1v-.1l.1-.2.2.1Zm.1-.2.1-.1-.1-.1h-.2v.2Zm-.1-1.8-.1-.1H209v.1Zm0-.5-.1.1.1-.1.1.2h0v.1h.2l.1-.1-.1.1v-.2l-.1-.1Zm0-.8.1.1h.1v-.2l-.1-.1-.1.2Zm1.1,2.8h-.2v-.1l-.1-.1h-.3v-.1h.2v-.1l-.1-.1-.1.1-.1.1.1.2h-.2v.1h.2v.1h0l.1-.1h.1l.1-.1.1.1-.1.2h.1l.1-.1.1-.1Zm-.6.7h-.2v-.1h-.1v.1l.1.1v.1h.1Zm-.2-3.1h0l.2.1h0Zm.1-.5h.1v-.3l.2.1-.1-.1h-.1l-.2.1Zm.3-1.2.1.1.1-.1v0Zm.6,3.4h-.2l-.1.1.1.1-.1.1h-.1v.1h.1v-.3l.1.1v.3l.1.1h.2v-.4Zm.5-.2h-.5v.1h.2l.1-.1.1.1v-.1Zm.4-.5h0l-.1.1-.1-.1-.1-.1.1-.2-.1-.1-.3.1h-.1l-.1.1h.2l.1.1.1.2h.2v.1l.1-.1Zm-.4-.5h-.1v.1h0l-.1.1.2-.1h0v-.1Zm-.4-5.5h0v0Zm.4,5.2h0l.4.1.1-.1-.2-.1-.1.1v.1Zm.5.4.1-.1V149l-.1.1v.1l-.2-.1h0l.2.1Zm-.2-1.3.1-.1-.1.1Zm.1.3Zm-.3-4.5Zm.6,4.9.1-.1-.1-.2h-.1l-.1.1h-.1v.1l.3.1v.1h.1l-.1-.1Zm-.5-5Zm.2,3.8.1-.1-.1-.1v.2Zm0-1h.1v-.1Zm.4,1.7-.1-.1h-.2l.1.1h.2Zm.1-.6h-.1v.1l-.1.1.1.1.1-.3Z"/><text class="cls-23" transform="translate(242.27 308.66) rotate(-3)">A</text><text class="cls-23" transform="translate(246.18 308.45) rotate(-3)">U</text><text class="cls-23" transform="translate(250.39 308.23) rotate(-3)">T</text><text class="cls-23" transform="translate(253.83 308.05) rotate(-3)">H</text><text class="cls-23" transform="translate(258.15 307.83) rotate(-3)">E</text><text class="cls-23" transform="translate(261.78 307.64) rotate(-3)">N</text><text class="cls-23" transform="translate(266.16 307.41) rotate(-3)">TIC</text><text class="cls-23" transform="translate(250.6 348.34) rotate(-3)">R</text><text class="cls-23" transform="translate(254.4 348.14) rotate(-3)">ECIPE</text><text class="cls-24" transform="translate(240.3 325.03) rotate(-3)">SOUTH</text><text class="cls-24" transform="translate(234.29 340.37) rotate(-3)">AFRICAN</text><text class="cls-25" transform="translate(103.74 396.75) rotate(-3.15)">*MINIMAL<tspan class="cls-26" x="29.5" y="0">L</tspan><tspan class="cls-27" x="31.91" y="0">Y PROCESSE</tspan><tspan class="cls-28" x="68.34" y="0">D</tspan><tspan x="72.52" y="0">, NO A</tspan><tspan class="cls-28" x="90.87" y="0">R</tspan><tspan x="94.58" y="0">TIFICAL ING</tspan><tspan class="cls-29" x="128.79" y="0">R</tspan><tspan x="132.56" y="0">EDIE</tspan><tspan class="cls-29" x="145.89" y="0">N</tspan><tspan class="cls-30" x="150.25" y="0">T</tspan><tspan x="153.6" y="0">S</tspan></text><text class="cls-5"></text><text class="cls-31" transform="translate(85.87 347.45) rotate(-3)">USA</text><text class="cls-32" transform="translate(75.94 324.94) rotate(-3)">PROUD</text><text class="cls-32" transform="translate(95.18 323.93) rotate(-3)">L</text><text class="cls-32" transform="translate(97.76 323.8) rotate(-3)">Y MADE</text><text class="cls-33" transform="translate(81.4 347.23) rotate(-93.15)">IN </text><text class="cls-33" transform="translate(80.99 339.86) rotate(-93.15)">T</text><text class="cls-33" transform="translate(80.82 336.71) rotate(-93.15)">H</text><text class="cls-33" transform="translate(80.6 332.74) rotate(-93.15)">E</text><path class="cls-34" d="M192.1,365.4h-1.56l-.71-.1a51.69,51.69,0,0,1-7.94-1.2l-.71.1h0a61.19,61.19,0,0,1-7.52,1.7l-.43.1c-.43,0-.71.1-1.13.1a15.6,15.6,0,0,1-6.81-1.2l-.57-.3a55.44,55.44,0,0,1-6.24-3.7h-.28a71.82,71.82,0,0,1-7.94-1l-.43-.1a11.53,11.53,0,0,1-6.24-3.5c-.14-.2-.28-.3-.28-.5a22.76,22.76,0,0,1-3-5.3l-.14-.1a56.3,56.3,0,0,1-6.38-3.4l-.28-.2a8.22,8.22,0,0,1-2.27-2.4,5,5,0,0,1-.85-2.7v-.6a19.83,19.83,0,0,1,.85-5.7l-.14-.1a43,43,0,0,1-3.4-5.1l-.14-.3A6.75,6.75,0,0,1,127,327a6.44,6.44,0,0,1,1-2.7c.14-.2.28-.3.28-.5a31.54,31.54,0,0,1,4.4-4.8v-.2a18.45,18.45,0,0,1,.43-5.6v-.3a7.92,7.92,0,0,1,4.11-4.8l.71-.3A58.58,58.58,0,0,1,145,305l.14-.1a46.84,46.84,0,0,1,4-4.9l.28-.3a12.48,12.48,0,0,1,6.81-2.9,2.12,2.12,0,0,0,.71-.1l1.42-.1c2.27-.1,4.54-.2,6.81-.1l.14-.1a62.07,62.07,0,0,1,6.81-3l.28-.1a14.68,14.68,0,0,1,3.69-.7h.28a13,13,0,0,1,4,.4l.71.2a52,52,0,0,1,7.23,2.5h.28l3.69-.3c1.42-.1,2.84-.1,4.4-.1h.28a13.09,13.09,0,0,1,7.23,2.3l.57.4a32.63,32.63,0,0,1,4.68,4.6h.14a60.25,60.25,0,0,1,7.38,2.2l.28.1a8.87,8.87,0,0,1,5,4.4.94.94,0,0,1,.14.6,36.86,36.86,0,0,1,1.28,5.6l.14.1a45,45,0,0,1,5.11,4.4l.14.2a7.39,7.39,0,0,1,1.56,2.8,4.71,4.71,0,0,1,0,2.8c0,.1-.14.3-.14.4a29.42,29.42,0,0,1-2.69,5.5v.2a26.69,26.69,0,0,1,1.56,5.5v.3a5.91,5.91,0,0,1-2.41,5.4,2,2,0,0,1-.57.4,50.47,50.47,0,0,1-5.82,3.9v.2a26.61,26.61,0,0,1-2.27,5.4l-.14.3a10.1,10.1,0,0,1-5.67,4l-.71.2a50.2,50.2,0,0,1-7.8,1.5l-.14.1a48,48,0,0,1-5.53,4.1l-.28.2a13.67,13.67,0,0,1-3.69,1.4,4.06,4.06,0,0,1-2.13.6Z"/><path class="cls-6" d="M174.66,297.3l-.28.1a47.48,47.48,0,0,0-6,2.6l-.28.2-.28.1a1.35,1.35,0,0,1-.71.2l-.28.1-.43.1a10,10,0,0,1-1.84.2h0a60.51,60.51,0,0,0-7.38.1h-.28a5.13,5.13,0,0,0-3.12,1.4l-.14.2a26.48,26.48,0,0,0-3.55,4.3l-.14.2-.14.2c-.14.1-.28.3-.43.4l-.28.2-.28.2a5.49,5.49,0,0,1-1.42.7h0a41,41,0,0,0-6.38,2.5l-.28.1a3.48,3.48,0,0,0-1.28,1,5.32,5.32,0,0,0-.71,1.2v.2a19.76,19.76,0,0,0-.28,5v1c0,.1,0,.1-.14.2s0,.2-.14.3a2.31,2.31,0,0,1-.85,1.1h0a35.23,35.23,0,0,0-4.11,4.4c0,.1-.14.1-.14.2a2.13,2.13,0,0,0-.43,1.3,4.07,4.07,0,0,0,.14,1.3l.14.2a28,28,0,0,0,3,4.5l.14.2.14.2c.14.2.14.3.28.5v.2c0,.1.14.2.14.3a2,2,0,0,1,0,1.3h0a21.18,21.18,0,0,0-.71,5.2v.2a2.36,2.36,0,0,0,.43,1.3,3.13,3.13,0,0,0,1.13,1.1l.14.1a44.41,44.41,0,0,0,5.67,3l.28.1.28.1c.14.1.43.2.57.3l.28.2.28.2a2.31,2.31,0,0,1,.85,1.1h0a22.23,22.23,0,0,0,2.84,4.8c0,.1.14.1.14.2a5,5,0,0,0,2.84,1.6H152a52,52,0,0,0,6.95.8h.71c.28,0,.43.1.71.1l.28.1.43.1a10.7,10.7,0,0,1,1.56.7h0a46,46,0,0,0,5.67,3.4l.28.1a11,11,0,0,0,1.7.5,5.7,5.7,0,0,0,1.84,0h.28c2.27-.4,4.54-.9,6.67-1.5l.43-.1.28-.1a7,7,0,0,1,1.56-.2h.43a11.4,11.4,0,0,1,1.84.1h0a60.22,60.22,0,0,0,7.23,1.1h.28a7.94,7.94,0,0,0,3.55-.8l.14-.1a36.64,36.64,0,0,0,4.82-3.6l.28-.2.14-.2.57-.4.28-.1c.14-.1.28-.1.43-.2a11,11,0,0,1,1.7-.5h0a54.18,54.18,0,0,0,7.09-1.4l.28-.1a4.27,4.27,0,0,0,1.56-.8,4.91,4.91,0,0,0,1.13-1.1l.14-.2a19.24,19.24,0,0,0,2-4.8v-.5c0-.2.14-.3.28-.5s.14-.1.14-.2.14-.2.28-.3a4.55,4.55,0,0,1,1.13-1h0a43.28,43.28,0,0,0,5.39-3.6l.28-.2a3.08,3.08,0,0,0,1.13-2.5v-.2a21.29,21.29,0,0,0-1.42-4.9l-.14-.3-.14-.2c0-.2-.14-.3-.14-.5v-.6a1.85,1.85,0,0,1,.43-1.2h0a23.42,23.42,0,0,0,2.41-4.9c0-.1,0-.2.14-.2a2.64,2.64,0,0,0-.71-2.6h0a34.14,34.14,0,0,0-4.4-3.9l-.28-.2-.14-.1c-.14-.1-.28-.3-.43-.4l-.14-.2c-.14-.1-.14-.2-.28-.3a2.07,2.07,0,0,1-.43-1.2h0a20.9,20.9,0,0,0-1.13-5.1c0-.1,0-.2-.14-.2a3.14,3.14,0,0,0-.85-1.2,3.89,3.89,0,0,0-1.42-.9l-.28-.1a47.33,47.33,0,0,0-6.52-2l-.43-.1h-.28c-.28-.1-.43-.1-.71-.2l-.28-.1c-.14-.1-.28-.1-.43-.2a11.14,11.14,0,0,1-1.28-1h0a28.17,28.17,0,0,0-4.4-4.2l-.28-.2a7.13,7.13,0,0,0-3.4-1.1h-.28a56.2,56.2,0,0,0-7.09.4h-2.13a10.49,10.49,0,0,1-1.7-.4h0a50.31,50.31,0,0,0-6.67-2.3l-.28-.1a11.55,11.55,0,0,0-1.84-.2A2.45,2.45,0,0,1,174.66,297.3Z"/><text class="cls-35" transform="translate(161.7 323.7) rotate(-3)">ALL</text><text class="cls-35" transform="translate(145.1 345.91) rotate(-3)">N<tspan class="cls-36" x="11.23" y="0">A</tspan><tspan class="cls-37" x="20.45" y="0">TURAL</tspan></text><path class="cls-1" d="M216.28,327c.1.1.1.4.2.5s0,0,0,.1a4.05,4.05,0,0,0-.9.5,5.58,5.58,0,0,1,.5.8h0c-.1.1-.1.2-.2.2l-.1.1-.1.1-.2-.2-.1-.1c-.1-.2-.3-.3-.4-.5h0c-.2.2-.4.5-.6.7h-.2c-.1,0-.1,0-.1-.1h0l-.1-.1h0v-.1l.1-.2c.1-.2.1-.3.2-.5a.14.14,0,0,0,0-.2.35.35,0,0,0-.2-.1h-.2c-.2-.1-.3-.1-.5-.2h-.1v-.1c0-.1.1-.3.1-.4V327a4.33,4.33,0,0,0,.5.1h.2l.4.1v-1.1h.5c.1.3.1.7.2,1,.2,0,.3-.1.5-.1Z"/></g></g></svg>