<svg xmlns="http://www.w3.org/2000/svg" viewBox="0 0 4157 391.38"><defs><style>.cls-1{fill:#ED1C24;}</style></defs><title>Asset 3</title><g id="Layer_2" data-name="Layer 2"><g id="Layer_1-2" data-name="Layer 1"><path class="cls-1" d="M1202.75,52.3c-1.74-.74-2.6.61,0,0Z"/><path class="cls-1" d="M2551.56,23a8.51,8.51,0,0,0,1.32-.09c1-4,1.85-7.46,2.72-10.08Z"/><path class="cls-1" d="M2768.52,48c.5.44.85.67,1.32,1.07C2769.73,46.64,2770,44.24,2768.52,48Z"/><path class="cls-1" d="M2051.65,60.32a3.41,3.41,0,0,0-3.68,2A8.83,8.83,0,0,1,2051.65,60.32Z"/><path class="cls-1" d="M805.18,73.63s.55-.19.95-.35a24.94,24.94,0,0,1-2.33-2.42Z"/><path class="cls-1" d="M809.54,66.79c4.79,2.95-1.32,5.66-3.41,6.49,5.28,5.44,10.57,5.85,15.93,3.36C822,70.45,811.91,71.39,809.54,66.79Z"/><path class="cls-1" d="M84,90.75l2.17-2.49A9.12,9.12,0,0,0,84,90.75Z"/><path class="cls-1" d="M2073,363.47c-1.07.56-2.28.84-3.26,1.47A3.17,3.17,0,0,0,2073,363.47Z"/><path class="cls-1" d="M197.8,96.89,199,87.1A31.53,31.53,0,0,0,197.8,96.89Z"/><path class="cls-1" d="M2555.59,12.83,2557.17,9A20.65,20.65,0,0,0,2555.59,12.83Z"/><path class="cls-1" d="M2969,54.31a31.86,31.86,0,0,0,1.07,7.45,1.82,1.82,0,0,1,.57.07Z"/><path class="cls-1" d="M3979.38,210.11a25.85,25.85,0,0,0-.54-3.82l-4,7A7.86,7.86,0,0,0,3979.38,210.11Z"/><path class="cls-1" d="M3243.94,96.76c.24-1.13.89-2.17.94-3.41-4.7-3.28-17.1-4-33-3.62l-1,12Z"/><path class="cls-1" d="M3544.64,377.2,3515.33,353c94.08-11.13,138,13.12,218.5-6.39l-4.46,5.24c11.72,5.6,18.34-48.74,147.83,17.63v2.42c4.49-.42,4.46-5.25,13.44,1.19l-22.38-14.82c13.41-6.08,25.13-17.64,43-19.28,3.8,2.68,5.1,7.65,5.47,11.52l43.85-4L3974,362.09c13.4-8.48,7.3-41.46,43.15-23.09-13.52-22.89,17.79-13.73,13.36-25.38,1.81,2.83,5.92,7.06,9.23,11,21.32-2.66,61.48-9.07,71.41-20.82,0,0-83.43-48.19-105.87-72.66,30,6.22,7.92-2.8,2-10.5l-2,5.7c-18-5.59-18-20-27-24a25.62,25.62,0,0,0,.52,4l1.15-1.93a6.12,6.12,0,0,1-.61,5.76c.22,3.09-.61,5.52-5.51,4.66l.94-1.51c-7.52,2.1-20.49-.16-26.13-1.19l-.11-12.07c-13.33,23-89.61-35.06-107.51-35.82-18-15.22-40.29,3.76-62.73-3.85-35.78-3.89-17.9-17.61-35.85-28-22.44-7.57,4.54,14.07-4.46,14.88l-26.88-16.79c15.62-1.45,7.14-8.73,4.28-13.39-23.23-2.05-59.87-24.18-67-.11-31.35-11.53-31.42-21.18-44.86-22.37,4.5,4.39,13.44,8.38,13.52,13.24-12.55-10.63-6,2.62-.86,5-19.15,10.46-99.39-43.9-103.42-17.46V90.48c-4.45,19.69,2.69,38.81-10.68,49.69l-8.92-8.8-13.44,8.46c-9-6.4-4.58-11.64-4.58-14-21.89,9.09-52.44-1.76-79-4.4l28.09,53.68c-22.37-12.4-62.73-37.57-67.19-20.29l-13.44-18c-44.85-34.43-31.32,15-49.21,4.58l-22.53-19.65,22.42.34c-22.42-10-31.38-16.38-49.26-29.19,0,.2-.2.34-.2.53a4.35,4.35,0,0,1,2.19,2.93l-3.13.48c-2.72,9.8-14.41,16.51-30.2,15.86-22.43-2.76-40,11.72-75.78-9.08L3129,123.64l-26.89-12v-16c26.34,1,75.92-5.13,109.78-5.95l.6-7.31c-20.08,0-42.92,7.11-56.18,5.51-6.47-3.19-23-19.83-11-30.62L3132.92,73c-67,1.79-67.45,2.56-137.39-15.55l6.07,8c-13.87,4.72-27.71,9.31-31.57-3.7-42-2.64-85.5-12.72-112.76-33l-6,18.85c-8.87-1-22.17-29.52-26.48-3.13l-18.95,8.32c-12.12-1.44-19.55,9.33-33.35-1.49h0a.1.1,0,0,0-.08,0,32.39,32.39,0,0,1-2.6-2.22,10,10,0,0,0,.15,1.57c-27.43-8.33.27,16.89-31.14,6-10.08-13.4-11.15,23.92-26.45,19.64l-15.37-27c-27.74-15.51-32.48,11.6-72.67,11.69-19.3-9.63-28.62-32.7-15.84-53.17-17.57,24.79-8,16.16-31.31,28-3.59-10.19-1.1-12.35,4-21.51-20.7-11.94-12.77,9.21-28.38,8.6-4.53,19.2-9.76,49.76-14.83,51l6,6c-16.53,10.25-34.58,15-53.8,5.41l.72-9.65-20.45,4.89-1.29-12.35L2440.07,72l4,3.33c-6.86,1.63-29.37,5.88-42.24-.57l.47-6.86c-36.32-21.4-66.27,6.64-108.81,8.9l5.58-14c-14.49-13.92-4,21.55-21.24,14.6l-.86-17.2c-15.2,22.61-19.65-4.8-30.13-13.35l4.9,22.53L2232,64.65c-21.73-7.47-13.33-28.47-10.16-40.27l-14.79,17.76-2.89-19.89c-10.81,23.14-10.81-3.72-29.76,8.69-1.56-7.52,3.23-11.84-3.21-15L2140,43.95l18.84-12.43-2.29,29.07c-19.62,22.06-26.58-3.17-40.6,4.94l9.66-8.64c-22.88,7.06-24.1-5.31-37-11.75,4,5.4,10.12,13.43.86,17.23-6.8,1.6-3.69-10.22-10.11-13.43-1.54,19.37-17.94,29.62-32.82,20.49.18-2.76.5-5.42,1.47-7.17-3.79,3.14-5.76,8.13-12.37,3.47l3.89-21.53-12.72,20.49c-8.48-5.89-20.85,9.72-19.73-4.8l4.82-4.31-64.23-5.19-.89-17.22c-6.35,23.69-35-9-32.88,20.57-12.12-16.12-47.71,11.4-40.58-22-42.2-2.57-65,29.52-116.3,13.29-18.27-28.32-68.34-19.15-101.26-22.14-64.36,11.84-106,22.49-171.74,31.57-39.56-39.52-98.69,13.6-141.26-8.72l-11.66,15.7c-28.3-25-71.51,5.59-111.21-18.78-9.73,6.87-14.83,9-17.09,9.6,1.8.75,4.54,3.73,5.4,13.69-11.34-7-34.27,1.76-32.64-18.14l2.88-2c1.67-19.91-34.41,9.3-47.06-7.94l6.94,21.33-21.48-3.6,5.75-4.1c-93.28,47.34-135.43-20.32-223,22.92,11.62-23.27-17.27,12.22-18.41-13.21-22.09-32-40.93,6.9-59,15.43a9.5,9.5,0,0,1-1.26,4.67l-31.66-3c18.91-32.16-22.8,26.67-5.43-.69-82.56-24-190.3.45-285.88-10.64L502,75.21c-24.24-1.58-54.39,8.46-72.78-4.76s-40.23,21-47.36,22.31C361.72,107,343.38,78.69,352,80.15c-21.56,3.95-41.82,33.32-71.73,20.71-10.22-27.26-81.6,26.75-82.5-4l-.33,2.59C159.17,77.85,123,114.65,81.78,95.07A21.19,21.19,0,0,1,84,90.75L0,183.95,23.91,286.52l72.78,83.3,197.23-18.06,157.41,32.57,383.09-11,27.36-23.15c75.27,40.46,171.81-6.08,252.91,22.8l1.68-19.92c22.85-1.18,21.3,11.16,27,14.64,212.67-4.41,431.62-31,623-5.84,18.45,13.17,74.57,5.42,89,19.35,62.15-24.37,128-24.13,190.22-21.62l-2.35,2.19,29.31-3.84a5.14,5.14,0,0,1,.46,5.53c33.06-17.64,85.15-.19,125.64,7l-2.36,2.17c236.2,3.62,455.48-33.56,689.74-5.76,108.91,32.5,235.62-12.36,360.58,14.71C3269.49,401.41,3522.3,386.52,3544.64,377.2Z"/><path class="cls-1" d="M3916.73,350.51l-1,.1C3915.8,359,3917.25,355.82,3916.73,350.51Z"/><path class="cls-1" d="M3394.55,121.17c.57.06,1.11.15,1.65.21L3390,109.55Z"/><path class="cls-1" d="M3729,114.24c-15-2.63-15.73-.6-13.61,2.77C3720.85,117.5,3725.61,116.87,3729,114.24Z"/><path class="cls-1" d="M4039.51,334.53c7.9.66,4.89-4.34.25-9.93-8.05,1-13.65,1.51-13.65,1.51C4030.53,328.11,4035,332.52,4039.51,334.53Z"/><path class="cls-1" d="M4007.3,220.62l2.46-6.8C4005.11,215.48,4005.3,218,4007.3,220.62Z"/><path class="cls-1" d="M2959.67,339.08c1.73.74,2.59-.61,0,0Z"/><path class="cls-1" d="M1616.95,368.38a8.44,8.44,0,0,0-1.31.09c-1,4-1.85,7.46-2.7,10.08Z"/><path class="cls-1" d="M1401,343.41c-.5-.44-.85-.67-1.32-1.07C1399.76,344.74,1399.5,347.14,1401,343.41Z"/><path class="cls-1" d="M2114.6,331.06a3.39,3.39,0,0,0,3.66-2A8.78,8.78,0,0,1,2114.6,331.06Z"/><path class="cls-1" d="M3355.45,317.75s-.54.19-.94.35a24.89,24.89,0,0,1,2.32,2.42Z"/><path class="cls-1" d="M3351.11,324.59c-4.77-2.95,1.31-5.66,3.4-6.49-5.26-5.44-10.52-5.85-15.86-3.36C3338.69,320.92,3348.75,320,3351.11,324.59Z"/><path class="cls-1" d="M4073.42,300.63l-2.16,2.49A9.11,9.11,0,0,0,4073.42,300.63Z"/><path class="cls-1" d="M2093.4,27.91c1.06-.56,2.27-.84,3.25-1.47A3.16,3.16,0,0,0,2093.4,27.91Z"/><path class="cls-1" d="M3960.09,294.48l-1.24,9.79A31.67,31.67,0,0,0,3960.09,294.48Z"/><path class="cls-1" d="M1612.93,378.55l-1.57,3.82A20.7,20.7,0,0,0,1612.93,378.55Z"/><path class="cls-1" d="M1201.43,337.07a32,32,0,0,0-1.06-7.45,1.81,1.81,0,0,1-.56-.07Z"/><path class="cls-1" d="M195.56,181.27a26,26,0,0,0,.53,3.82l4-7A7.82,7.82,0,0,0,195.56,181.27Z"/><path class="cls-1" d="M927.69,294.61a19.28,19.28,0,0,0-.93,3.41c4.68,3.28,17,4,32.82,3.62l1-12Z"/><path class="cls-1" d="M628.35,14.18l29.18,24.2C563.87,49.51,520.17,25.26,440,44.77l4.44-5.24c-11.67-5.6-18.25,48.74-147.17-17.63V19.48c-4.47.42-4.44,5.25-13.38-1.19l22.28,14.82c-13.35,6.08-25,17.64-42.81,19.28-3.78-2.68-5.07-7.65-5.44-11.52l-43.65,4L200.9,29.29c-13.34,8.48-7.26,41.46-43,23.09,13.45,22.89-17.71,13.73-13.3,25.38-1.8-2.83-5.89-7.06-9.18-11-21.22,2.66-61.2,9.07-71.09,20.82,0,0,83.06,48.19,105.39,72.66-29.88-6.22-7.88,2.8-2,10.5l2-5.7c17.91,5.59,17.91,20,26.86,24a25.74,25.74,0,0,0-.52-4L195,187a6.14,6.14,0,0,1,.61-5.76c-.22-3.09.61-5.52,5.48-4.66l-.93,1.51c7.48-2.1,20.39.16,26,1.19l.11,12.07c13.27-23,89.2,35.06,107,35.82,17.9,15.22,40.11-3.76,62.45,3.85,35.62,3.89,17.82,17.61,35.69,28,22.34,7.57-4.52-14.07,4.44-14.88L462.6,261c-15.55,1.45-7.11,8.73-4.27,13.39,23.13,2,59.6,24.18,66.72.11,31.21,11.53,31.28,21.18,44.66,22.37-4.48-4.39-13.38-8.38-13.45-13.24,12.5,10.63,6-2.62.86-5,19.07-10.46,98.94,43.9,103,17.46v4.82c4.43-19.69-2.68-38.81,10.63-49.69l8.88,8.8L693,251.54c9,6.4,4.56,11.64,4.56,14,21.79-9.09,52.2,1.76,78.6,4.4l-28-53.68c22.27,12.4,62.45,37.57,66.89,20.29l13.38,18c44.65,34.43,31.17-15,49-4.58l22.43,19.65-22.31-.34c22.31,10,31.24,16.38,49,29.19,0-.2.2-.34.2-.53a4.35,4.35,0,0,1-2.18-2.93l3.12-.48c2.7-9.8,14.34-16.51,30.07-15.86,22.33,2.76,39.78-11.72,75.44,9.08l8.89-20.09,26.77,12v16c-26.22-1-75.58,5.13-109.28,5.95L959,309c20,0,42.72-7.11,55.93-5.51,6.44,3.19,22.91,19.83,11,30.62l12.35-15.65c66.72-1.79,67.15-2.56,136.77,15.55l-6-8c13.81-4.72,27.58-9.31,31.42,3.7,41.8,2.64,85.11,12.72,112.26,33l5.94-18.85c8.83,1,22.07,29.52,26.36,3.13l18.86-8.32c12.07,1.44,19.46-9.33,33.2,1.49h0a.1.1,0,0,0,.08,0,32.28,32.28,0,0,1,2.59,2.22,10,10,0,0,0-.15-1.57c27.31,8.33-.27-16.89,31-6,10,13.4,11.1-23.92,26.34-19.64l15.3,27c27.61,15.51,32.34-11.6,72.34-11.69,19.21,9.63,28.49,32.7,15.77,53.17,17.49-24.79,8-16.16,31.17-28,3.57,10.19,1.1,12.35-4,21.51,20.61,11.94,12.72-9.21,28.26-8.6,4.51-19.2,9.72-49.76,14.77-51l-6-6c16.45-10.25,34.43-15,53.56-5.41l-.72,9.65,20.36-4.89,1.28,12.35,29.07-3.83-4-3.33c6.83-1.63,29.24-5.88,42.05.57l-.47,6.86c36.16,21.4,66-6.64,108.32-8.9l-5.56,14c14.42,13.92,4-21.55,21.14-14.6l.86,17.2c15.14-22.61,19.57,4.8,30,13.35L1915.41,322l19.64,4.75c21.63,7.47,13.27,28.47,10.11,40.27l14.73-17.76,2.88,19.89c10.76-23.14,10.76,3.72,29.62-8.69,1.55,7.52-3.22,11.84,3.19,15l31.1-28.05-18.76,12.43,2.28-29.07c19.53-22.06,26.46,3.17,40.42-4.94l-9.61,8.64c22.77-7.06,24,5.31,36.84,11.75-4-5.4-10.08-13.43-.86-17.23,6.77-1.6,3.67,10.22,10.07,13.43,1.53-19.37,17.86-29.62,32.67-20.49-.18,2.76-.5,5.42-1.46,7.17,3.78-3.14,5.73-8.13,12.31-3.47l-3.87,21.53,12.66-20.49c8.44,5.89,20.75-9.72,19.65,4.8l-4.8,4.31,63.95,5.19.89,17.22c6.32-23.69,34.83,9,32.73-20.57,12.06,16.12,47.49-11.4,40.39,22,42,2.57,64.71-29.52,115.77-13.29,18.19,28.32,68,19.15,100.8,22.14,64.07-11.84,105.48-22.49,171-31.57,39.38,39.52,98.24-13.6,140.62,8.72l11.61-15.7c28.17,25,71.19-5.59,110.71,18.78,9.69-6.87,14.77-9,17-9.6-1.79-.75-4.52-3.73-5.38-13.69,11.28,7,34.12-1.76,32.49,18.14l-2.87,2c-1.66,19.91,34.25-9.3,46.85,7.94l-6.91-21.33,21.38,3.6-5.72,4.1c92.86-47.34,134.82,20.32,222-22.92-11.56,23.27,17.19-12.22,18.33,13.21,22,32,40.74-6.9,58.78-15.43a9.53,9.53,0,0,1,1.25-4.67l31.52,3c-18.83,32.16,22.7-26.67,5.41.69,82.19,24,189.44-.45,284.59,10.64l-4.17-8.27c24.13,1.58,54.14-8.46,72.45,4.76s40-21,47.15-22.31c20.07-14.24,38.32,14.07,29.71,12.62,21.46-3.95,41.64-33.32,71.41-20.71,10.18,27.26,81.23-26.75,82.13,4l.32-2.59c38.13,21.63,74.11-15.17,115.18,4.41a21.22,21.22,0,0,1-2.17,4.32l83.58-93.2-23.8-102.57-72.45-83.3L3864.41,39.62,3707.71,7l-381.36,11-27.23,23.15c-74.94-40.46-171,6.08-251.77-22.8l-1.67,19.92c-22.75,1.18-21.21-11.16-26.83-14.64-211.71,4.41-429.67,31-620.15,5.84-18.36-13.17-74.23-5.42-88.64-19.35-61.87,24.37-127.42,24.13-189.37,21.62L2123,29.6l-29.18,3.84a5.16,5.16,0,0,1-.45-5.53c-32.91,17.64-84.76.19-125.07-7l2.35-2.17c-235.13-3.62-453.42,33.56-686.63,5.76C1175.63-8,1049.49,36.87,925.09,9.79,902.26-10,650.59,4.85,628.35,14.18Z"/><path class="cls-1" d="M257.93,40.87l1-.1C258.86,32.39,257.41,35.56,257.93,40.87Z"/><path class="cls-1" d="M777.75,270.2c-.56-.06-1.11-.15-1.64-.21l6.18,11.84Z"/><path class="cls-1" d="M444.78,277.14c15,2.63,15.66.6,13.55-2.77C452.93,273.88,448.19,274.51,444.78,277.14Z"/><path class="cls-1" d="M135.71,56.84c-7.86-.66-4.87,4.34-.25,9.93,8-1,13.59-1.51,13.59-1.51C144.64,63.27,140.24,58.85,135.71,56.84Z"/><path class="cls-1" d="M167.77,170.76l-2.45,6.8C169.95,175.89,169.76,173.41,167.77,170.76Z"/></g></g></svg>
