<?xml version="1.0" encoding="UTF-8"?>
<svg width="4157px" height="119px" viewBox="0 0 4157 119" version="1.1" xmlns="http://www.w3.org/2000/svg" xmlns:xlink="http://www.w3.org/1999/xlink">
    <!-- Generator: Sketch 46.2 (44496) - http://www.bohemiancoding.com/sketch -->
    <title>border-thin-red</title>
    <desc>Created with Sketch.</desc>
    <defs></defs>
    <g id="Page-1" stroke="none" stroke-width="1" fill="none" fill-rule="evenodd">
        <g id="border-thin-red" fill-rule="nonzero" fill="#FAFAFA">
            <path d="M4071.26,38 L4060.92,38.18 C4061.87,38.46 4064.71,38.49 4071.26,38 Z" id="Shape"></path>
            <path d="M4080.54,42.63 C4080.78,42.63 4081.18,42.63 4081.4,42.69 C4081.27,42.49 4081,42.51 4080.54,42.63 Z" id="Shape"></path>
            <path d="M771.35,115.47 C767.53,115.83 764.25,116.31 762.45,117.06 C767.94,116.75 770.46,116.15 771.35,115.47 Z" id="Shape"></path>
            <path d="M1381.45,22.21 C1381.20099,22.6163118 1381.05032,23.0751656 1381.01,23.55 C1381.92,23.21 1382.21,22.78 1381.45,22.21 Z" id="Shape"></path>
            <path d="M3950.35,40.09 C3951.94,40.2 3953.57,40.29 3955.06,40.44 C3956,39.28 3951.51,39.38 3950.35,40.09 Z" id="Shape"></path>
            <path d="M613.74,110.31 C613.224284,110.622898 612.794674,111.059383 612.49,111.58 C613.003404,111.264189 613.432377,110.828352 613.74,110.31 L613.74,110.31 Z" id="Shape"></path>
            <path d="M3576.58,18.08 C3575.18,18.31 3573.67,18.43 3572.2,18.56 C3573.67594,18.6243744 3575.15304,18.4625008 3576.58,18.08 L3576.58,18.08 Z" id="Shape"></path>
            <path d="M1504.33,118.27 C1505.75935,118.047236 1507.12376,117.518526 1508.33,116.72 C1505.87,117 1504.11,117.51 1504.33,118.27 Z" id="Shape"></path>
            <path d="M1506.27,105.25 C1475.21,109.01 1512.91,112.76 1508.27,116.73 C1516.56,115.66 1534.27,116.4 1525.88,113.39 C1542.15,121.39 1575.11,108.97 1592.72,115.32 C1593.48,114.52 1583.28,111.91 1595.47,109.94 C1613.69,109.14 1612.36,112.89 1619.79,114.5 C1625.2,112.22 1652.87,110.6 1650.19,111.72 C1662.3,109.72 1637.29,103.9 1654.19,100.47 C1665.64,95.11 1681.19,99.65 1694.7,98.18 C1710.93,101.93 1678.51,100.8 1671.78,102.6 L1717.7,100.14 C1731.21,102.9 1711.64,105.36 1698.1,104.72 C1716.41,108.12 1740,105.01 1745.41,100.62 C1756.89,101.62 1762.97,100.62 1773.78,102.4 C1763.03,104.85 1763.69,112.51 1746.83,113.81 C1719.1,113.33 1756.89,107.94 1733.29,106.81 L1731.29,111.39 C1721.17,108.78 1713.12,112.2 1702.29,112.54 C1696.23,111.39 1703.62,110.9 1707.67,110.24 C1688.06,110.59 1672.46,108.15 1657.67,113.36 C1684.08,117.58 1723.9,111.87 1735.45,117.09 L1788,110.7 C1788,108.58 1769.71,105.17 1784.57,102.07 C1790.68,107.44 1806.21,109.89 1826.51,110.84 C1819.02,104.99 1858.93,105.61 1848.74,100.9 C1839.28,103.84 1834.54,98.9 1833.21,98.47 C1852.82,98.13 1835.86,93.08 1846.65,92.76 C1882.48,94.05 1845.32,96.5 1880.49,98.6 C1865.58774,103.726255 1850.22199,107.390187 1834.61,109.54 C1835.97,112.14 1854.13,109.19 1862.34,112.14 C1850.81,109.05 1870.4,106.6 1860.91,105.29 C1889.31,102.84 1922.39,96.79 1956.83,95.48 C1951.46,104.13 1898.77,102.02 1909.62,112.28 C1926.5,110.96 1926.44,106.74 1939.98,107.38 C1951.46,112.58 1979.82,108.01 2002.85,107.85 L1992.66,105.24 C2001.42,103.11 2017.66,104.74 2027.8,105.24 L2025.15,106.38 L2035.15,104.74 C2036.72,104.96 2037.08,105.24 2037.05,105.56 C2048.05,102.88 2076.24,105.45 2097.36,103.91 C2097.36,99.68 2076.43,103.74 2066.36,103.26 C2063.61,102.26 2044.06,100.5 2053.52,97.58 C2079.77,97.58 2098.04,92.5 2127.76,92.64 L2118.31,91.36 C2127.76,88.42 2140.58,89.88 2154.74,89.7 C2180.46,92.62 2135.85,95.58 2151.43,98.03 C2141.34,101.77 2123.74,97.54 2121.06,102.91 L2137.25,108.78 C2150.79,105.2 2165.69,110.56 2175.18,109.78 L2164.99,107.18 C2166.99,102.61 2176.44,106.04 2181.21,106.69 L2174.36,100.02 C2159.54,98.87 2149.36,104.74 2138.61,100.85 C2164.92,98.72 2158.85,93.33 2190.61,93.18 C2192.04,95.78 2184.5,94.18 2181.21,96.1 C2192.03,97.89 2203.44,92.52 2221,94.63 C2210.94,96.26 2194.68,98.88 2207.56,102.46 L2216.97,97.46 C2225.07,98.26 2221.75,100.22 2225.07,100.38 C2236.6,101.38 2222.42,95.16 2240.63,96.46 C2243.34,97.46 2249.39,98.58 2246.73,99.72 C2267.66,99.89 2256.8,98.09 2276.36,95.64 C2258.84,95.64 2258.17,88 2276.36,87.17 C2302.04,87.98 2319.54,83.74 2337.17,90.08 L2348.65,86.82 C2341.28,91.55 2364.9,88.45 2373.03,89.25 C2375.73,94.46 2334.51,89.1 2334.51,97.57 C2351.39,98.39 2344.03,100.99 2338.59,103.27 C2356.87,102.47 2345.35,97.27 2353.43,93.83 C2353.43,95.95 2384.54,94.47 2373.76,99.04 C2389.29,99.35 2391.98,93.98 2403.43,94.96 C2401.7,97.04 2399.71,99.71 2400.81,102.39 C2402.17,100.63 2416.81,102.79 2419.68,102.95 C2417,101.95 2425.06,98.53 2411.57,100 C2414.93,95.93 2443.34,99.83 2442.57,96.41 C2443.98,101.12 2471.65,97.41 2485.82,99.33 C2484.43,88.25 2459.53,103.57 2454.76,94.45 C2473.63,90.69 2518.27,94.09 2548.67,89.2 C2574.98,91.31 2548.67,93.44 2554.06,97.52 C2529.79,99.32 2523.68,96.06 2502.71,98.03 C2525.71,99.95 2563.52,98.81 2580.38,95.39 C2605.43,94.9 2608.18,106.44 2638.58,103.67 C2634.58,100.11 2635.2,99.28 2625.7,97.96 C2633.8,96.68 2643.29,97.96 2652.05,97.96 C2657.43,95.69 2638.51,95.22 2650.66,93.24 C2655.4,93.9 2665.52,94.39 2663.53,96.82 L2661.53,97.15 C2690.53,93.89 2682.53,105.78 2707.48,98.94 C2705.48,97.15 2700.05,99.42 2693.94,98.27 C2689.23,95.52 2704.69,91.62 2716.24,90.46 C2714.17,92.91 2726.36,90.94 2734.45,91.75 C2739.87,95.83 2714.18,92.91 2710.14,95.67 L2732.46,96.31 L2727.76,95.67 L2752,91.65 C2735.08,92.96 2743.88,86.65 2751.31,86.11 C2768.17,86.92 2785.09,87.73 2783.06,92.29 C2785.06,87.72 2806.06,87.89 2820.89,86.9 C2804.67,85.27 2818.84,83 2823.54,81.52 L2847.88,86.07 C2822.21,87.38 2853.3,90.15 2847.26,93.25 C2839.86,97.98 2824.26,95.55 2810.76,94.9 C2837.18,103.36 2847.92,90.33 2870.91,94.37 C2870.91,96.49 2868.91,98.94 2858.77,98.47 C2862.82,99.91 2879.71,94.37 2895.26,96.81 C2891.18,95.34 2882.39,91.11 2897.88,89.32 L2918.19,94.52 C2941.84,95.66 2926.28,88.97 2945.82,86.52 L2933.07,83 C2935.07,78.42 2959.41,83 2960.07,77.94 C2947.93,77.78 2941.15,81.69 2928.39,80.24 C2923.58,75.34 2944.58,77.62 2951.91,75 C2978.31,77.12 2972.91,77.29 2992.53,81.19 C2993.26,88.84 2960.12,90.65 2964.3,100.59 C2989.95,99.27 3027.11,96.82 3043.97,99.74 C3066.97,97.46 3064.87,91.43 3061.48,87.03 C3068.24726,86.296974 3075.08775,86.6344427 3081.75,88.03 L3070.98,90.49 C3099.34,88.03 3115.53,85.41 3145.3,85.58 C3162.12,84.26 3155.3,79.7 3151.3,76.12 L3169.54,75.29 L3166.77,74.29 C3170.84,69.4 3187.05,71.03 3199.2,71.19 C3199.2,73.3 3191.81,73.8 3192.5,75.1 C3203.28,76.88 3219.5,76.39 3228.27,74.27 C3228.27,76.39 3220.9,81.11 3208.06,79.65 C3206.7,79.16 3207.37,78.36 3206.06,77.85 L3184.43,80.63 C3209.43,78.02 3224.32,83.39 3223.68,88.44 C3248.68,85.83 3203.35,83.23 3233.08,81.28 C3272.29,91.19 3307.4,78.49 3329.08,92.65 C3347.27,89.71 3368.88,84.81 3397.26,84.48 C3397.26,80.24 3416.21,82.84 3413.45,77.62 C3386.38,72.1 3362.82,85.79 3341.11,77.98 C3329,79.98 3333.11,83.52 3327.64,85.79 C3316.89,86.13 3306.73,85.65 3305.34,83.04 C3330.34,80.42 3312.05,72.78 3343.79,72.61 C3339.79,69.02 3314.04,70.33 3302.6,69.36 C3305.95,67.36 3302.53,65.13 3295.1,63.5 C3303.23,60.08 3321.4,57.14 3330.85,54.19 C3327.52,56.19 3333.62,57.3 3330.85,58.45 L3363.94,52.45 C3374.1,55.04 3376.85,58.15 3371.41,60.45 C3389.7,61.74 3420.69,56.04 3420.78,62.39 C3444.4,61.39 3413.29,58.63 3411.26,56.84 L3413.26,56.52 L3388.26,57.02 C3385.51,49.68 3416.66,58.79 3420.65,51.78 C3424.59,38.43 3455.84,56.01 3473.36,53.9 L3453.12,63.51 L3470.71,61.4 C3460.59,65.14 3460.63,71.49 3445.13,75.4 C3469.41,75.71 3503.92,78.63 3519.48,76.83 C3525.55,80.1 3528.23,83.2 3525.55,86.44 C3549.87,80.44 3563.41,89.53 3584.38,89.68 C3606.62,86.1 3562.05,84.8 3578.25,80.07 C3584.98,82.51 3597.16,80.55 3603.25,79.58 C3596.51,81.36 3572.84,78.12 3556.6,76.49 C3568.78,76.66 3567.42,71.94 3570.81,69.99 L3550.5,68.99 C3551.83,63.13 3575.5,68.52 3584.91,65.57 C3578.91,70.79 3582.23,70.95 3576.21,76.16 C3593.77,74.04 3620.11,74.04 3635.02,77.28 C3643.81,79.4 3627.62,79.89 3622.87,81.36 C3626.87,84.94 3640.42,79.23 3643.81,83.65 C3641.11,86.9 3633.03,83.97 3626.92,84.95 L3678.28,86.57 C3678.28,88.67 3665.47,89.34 3657.38,88.52 C3672.95,90.96 3684.38,89.8 3702.6,82.64 C3720.16,84.76 3740.41,87.84 3734.43,90.94 C3742.52,89.64 3737.11,87.69 3737.05,85.56 C3760.74,86.7 3763.36,79.2 3777.53,79.04 L3766.77,75 C3789.71,79.07 3772.11,68.48 3792.38,71.58 C3789.07,75.65 3790.38,80.36 3793.81,84.77 C3797.16,80.7 3810.03,84.28 3818.81,84.28 C3813.36,80.2 3837.67,80.53 3823.49,76.46 C3843.79,73.18 3853.22,78.72 3868.08,73.46 C3858.65,72.17 3885.62,69.23 3877.47,66.29 C3897.11,65.97 3910.61,70.85 3905.27,75.29 C3898.48,74.96 3887.62,73.17 3888.38,76.59 L3924.14,75.77 C3933,77.88 3944.42,78.84 3945.84,83.56 C3957.28,78.18 3979.62,87.31 3988.38,80.94 C3976.24,85.03 3966.72,79.5 3962.07,78.84 L3967.61,77.94 C3966.64238,77.9248003 3965.67687,77.8446198 3964.72,77.7 L3980.17,69.55 C3965.31,66.31 3977.53,74.92 3956.53,74.76 C3938.32,67.13 3997.73,63.21 3978.79,58.47 C3963.27,56.03 3965.99,63.37 3953.18,66.14 L3956.53,66.31 L3927.53,69.57 C3926.17,66.97 3934.96,64.84 3934.96,64.84 C3899.79,64.84 3894.36,60.78 3856.53,59.84 C3859.28,60.84 3866.7,68.84 3849.82,70.12 C3837.71,72.12 3836.3,67.35 3826.21,66.85 C3832.21,65.85 3837.66,61.47 3845.75,64.41 L3845.09,58.87 C3873.42,52.19 3858.56,46.81 3897.09,44.87 C3898.85,40.81 3926.75,38.7 3947.69,39.87 L3937.53,36.22 C3959.11,29.22 3941.61,41.92 3969.28,36.05 C3980.79,43.38 4001.82,51.99 3986.28,58.05 C4005.89,59.82 4012.59,55.92 4030.22,55.92 C4041.03,61.92 4024.82,62.44 4026.86,68.46 C4039.74,67.79 4055.93,65.19 4046.39,61.78 L4070.79,64.2 C4071.44,65.5 4062.7,65.5 4059.28,65.35 C4068.77,66.65 4086.99,63.71 4092.36,61.43 C4090.36,61.75 4084.23,62.74 4081.58,61.75 C4091.71,60.13 4109.92,57.18 4111.25,55.56 C4096.41,58.65 4095.06,51.81 4079.53,55.73 C4080.86,54.11 4083.53,50.84 4091.64,51.65 C4078.79,48.07 4065.96,48.72 4060.56,44.65 C4071.4,47.65 4078.34,43.28 4080.63,42.65 C4070.91,41.48 4051.55,42.65 4045.03,44.34 C4043.6,37.51 4007.21,45.5 4019.98,38.49 C4017.98,40.93 4003.76,41.09 3996.31,39.49 C3996.99,36.49 4015.87,34.92 4023.97,31.49 C4061.82,28.21 4023.3,36.49 4032.13,38.66 L4061.01,38.16 C4058.1,37.16 4072.57,33.38 4053.73,33.77 C4062.49,29.52 4080.73,26.58 4095.56,29.84 C4098.98,27.84 4088.14,28.21 4084.78,28.05 C4088.14,26.05 4106.36,18.91 4082.7,17.79 C4089.46,18.11 4071.22,21.05 4083.39,23.33 C4073.93,24.14 4048.26,21.23 4058.39,17.47 C4046.88,18.61 4025.28,21.4 4015.82,22.22 C4013.1,19.11 4023.91,20.91 4028.66,19.44 L3995.51,21.25 L4005,24.66 C3980.7,22.22 3965.19,30.37 3945.61,32.84 C3948.29,27.45 3964.53,26.96 3977.33,24.19 C3965.08,17.67 3969.26,27.6 3948.96,26.63 C3946.24,25.63 3945.54,24.35 3946.87,22.71 L3930.72,27.45 C3926,26.8 3928.66,25.64 3930.72,25.33 C3903.02,31.21 3931.41,32.99 3894.25,35.45 C3916.62,38.2 3913.25,31.7 3932.08,32.19 C3942.96,36.09 3910.54,39.19 3905.08,41.46 C3886.87,40.17 3884.79,32.05 3861.82,36.46 C3878.01,33.85 3862.49,31.4 3885.44,31.23 C3898.28,28.46 3878.66,28.8 3875.98,25.7 C3869.92,26.7 3879.98,31.4 3863.14,30.59 L3863.81,29.79 L3836.17,35.65 C3810.43,32.73 3778.11,42.19 3760.49,35.84 L3764.57,41.54 C3748.38,42.02 3725.4,42.2 3713.93,43.35 C3716.58,40.09 3727.41,39.77 3738.93,38.62 C3713.97115,37.7201296 3689.00134,40.073235 3664.65,45.62 C3678.88,49.69 3680.92,49.36 3694.44,52.12 C3675.57,60.12 3672.09,47.23 3647.76,51.12 C3647.09,45.58 3655.19,46.39 3649.12,41.01 C3639,44.78 3622.12,44.01 3610.6,47.23 C3604.5,41.85 3615.26,37.23 3640.26,36.78 C3659.21,41.51 3680.12,33.2 3695.71,37.78 L3686.22,34.35 C3705.17,32.72 3716.61,33.7 3732.8,31.09 L3732.14,31.91 L3740.23,26.37 L3731.47,26.37 C3737.47,23.26 3755.73,18.21 3761.14,18.05 C3734.08,18.88 3732.14,27.67 3719.32,32.57 C3694.98,32.24 3685.45,22.48 3669.26,27.21 C3667.94,24.58 3654.37,21.82 3665.26,19.4 C3678.73,17.91 3688.26,21.34 3689.55,17.58 C3675.35,17.76 3680.76,15.47 3659.16,16.14 C3655.08,21.04 3638.92,25.77 3623.46,29.68 C3607.23,32.3 3586.26,32.14 3573.38,30.68 C3589.61,30.2 3605.81,25.47 3601.72,21.88 C3592.26,26.95 3569.97,17.82 3574.72,24.82 C3555.82,24.35 3524.02,24.52 3521.97,18.49 C3539.85,16.25 3557.18,19.92 3572.34,18.62 C3568.17,18.48 3564.08,16.96 3566.54,15.54 L3588.87,16.19 C3571.98,13.26 3575.33,11.31 3553.7,11.96 C3555.06,12.45 3557.78,13.42 3555.7,13.73 C3550.31,13.9 3543.54,13.59 3538.1,13.73 L3537.43,8.19 C3521.24,10.79 3490.08,3.8 3460.43,7.88 L3463,6.71 C3439.36,5.57 3437.37,16.49 3411.69,17.81 C3419.12,15.21 3415.69,12.91 3414.39,10.31 C3401.58,13.09 3394.78,8.53 3381.92,7.07 C3396.83,10.31 3371.85,12.92 3382.67,14.71 C3383.4,20.26 3356.99,20.27 3343.47,19.62 C3335.39,12.46 3385.36,15.69 3365.04,8.38 C3351.54,7.73 3348.16,11.79 3357.66,13.1 C3340.76,12.29 3315.08,11.49 3302.87,7.1 C3282.67,12.49 3274.57,9.56 3261.73,16.56 C3272.54,16.24 3273.18,11.18 3286.73,13.95 L3271.87,19.16 C3252.29,19.5 3236.7,14.94 3223.2,14.3 L3237.39,12 L3236.7,12.83 C3242.11,10.54 3260.36,11.83 3258.3,7.94 C3245.49,12.81 3235.3,8.09 3218.45,11.52 L3219.12,10.7 C3189.42,14.78 3167.72,2.7 3148.88,12.85 C3154.28,12.68 3165.13,16.59 3161.75,18.53 C3154.94,16.1 3136.75,16.92 3137.38,13.98 L3143.48,12.98 C3126.59,12.18 3116.48,11.69 3110.33,12.67 C3105.65,16.25 3110.43,19.03 3098.25,20.99 C3068.49,18.72 3110.33,12.67 3090.09,9.57 L3062.39,13.33 L3056.29,10.07 C3015.12,6.82 2983.37,17.6 2939.47,17.61 C2938.77,12.07 2970.47,9.78 2981.31,9.43 C2967.77,4.55 2948.23,11.24 2929.99,7.81 C2913.06,7.01 2900.29,11.9 2902.99,14.99 C2882.09,16.99 2888.11,11.73 2885.44,10.77 C2878.65,16.77 2852.32,14.67 2835.44,15.98 L2834.67,12.58 L2808.36,16.8 C2815.12,17.15 2809.06,20.22 2809.07,22.33 L2802.33,22.01 C2828.07,31.3 2860.38,15.49 2886.8,26.07 C2878.71,27.37 2889.55,29.17 2881.43,30.47 C2874.69,30.13 2873.34,29.65 2872.64,28.34 C2868.59,31.11 2857.8,33.57 2872,33.39 C2871.34,40.56 2842.94,38.79 2823.4,41.23 C2807.84,36.66 2839.59,34.36 2847.66,30.95 C2840.23,31.45 2834.13,34.56 2823.34,32.76 L2825.99,27.39 C2798.99,30.32 2818.62,32.09 2812.52,37.31 C2805.18,44.16 2788.22,37 2780.8,37.49 L2788.89,36.19 C2767.96,33.91 2763.24,39.62 2744.37,39.19 L2735.49,35 C2759.21,40.38 2764.49,27.51 2778.03,30.26 C2743.55,25.26 2785.43,19.19 2796.22,14.62 C2781.33,15.62 2767.85,14.96 2759.75,12.03 C2738.12,19.03 2714.43,9.44 2693.56,17.76 C2682.08,16.76 2703.64,14 2691.49,13.84 C2668.24895,13.156133 2644.99017,14.3063661 2621.93,17.28 C2609.72,17.12 2611.81,14.68 2608.39,12.41 C2549.59,9.17 2526.67,22.04 2462.46,18.97 L2471.89,16.03 C2458.42,15.38 2446.89,14.4 2440.21,18.33 C2423.21,9.04 2382.77,24.04 2361.14,14.11 C2332.74,12.33 2331.41,20.31 2309.14,21.79 C2309.14,19.67 2315.91,15.73 2304.37,14.79 C2231.45,18.08 2165.88,18.79 2085.52,20.41 C2086.19,19.6 2090.24,18.94 2092.26,18.62 C2040.26,17.82 1988.94,26.79 1945.71,23.86 C1937.58,25.18 1913.29,26.98 1920.71,30.73 C1930.81,31.23 1932.2,35.93 1931.53,38.86 C1893.04,42.96 1912.61,32.04 1886.92,33.35 C1878.79,26.18 1903.11,28.61 1903.11,22.26 L1865.95,26.83 C1845.01,24.57 1824.07,28.63 1805.83,25.24 C1813.96,26.04 1808.48,19.87 1822.02,22.62 C1819.96,22.94 1821.34,23.42 1819.3,23.77 C1850.41,24.39 1836.23,20.33 1863.93,18.7 C1839.58,20.51 1806.5,22.31 1784.86,20.85 C1789.61,25.72 1767.31,22.96 1761.24,26.06 L1759.88,25.57 C1759.88,27.69 1746.44,29.15 1742.32,29.81 L1736.92,23.62 C1727.43,24.44 1739.61,26.72 1730.16,27.52 C1716.72,28.99 1668.67,29.68 1665.29,23.15 C1649.03,23.65 1644.29,27.24 1627.49,26.41 C1628.82,24.78 1632.87,24.14 1633.49,23.32 C1597.73,22.03 1553.8,24.14 1519.95,20.42 C1492.32,22.06 1468.65,23.04 1451.14,27.28 C1458.56,26.79 1480.21,28.28 1466.67,31.83 C1459.24,34.44 1447.77,33.46 1436.3,34.59 C1438.98,31.35 1407.21,31.52 1430.17,29.25 C1424.38,22.15 1380.67,30.64 1381.03,23.59 C1375.65,25.75 1343.03,24.5 1330.83,28.3 C1328.12,25.2 1348.45,26.17 1348.41,24.05 L1333.56,25.05 L1333.56,22.88 C1305.12,21.09 1299.82,29.73 1282.93,31.04 L1283.59,30.22 L1272.12,31.36 L1285.59,25.65 C1267.37,26.48 1257.95,31.53 1237.68,32.65 L1235.68,30.85 L1223.47,32.85 C1225.54,32.52 1226.22,31.71 1224.9,31.22 C1213.39,36.6 1187.05,34.5 1176.27,39.05 C1168.17,38.25 1161.34,31.55 1150.55,36.13 L1152.55,29.46 C1179.55,28.64 1162.62,34.18 1191.04,31.72 C1170.04,23.1 1111.28,24.1 1072.1,24.72 C1040.41,29.14 988.32,22 974.84,31.93 L978.19,27.87 L924.8,24.47 C879.51,26.13 832.9,23.04 798.45,28.57 L789,25.18 C753.3,36.58 667.4,29.92 643.84,43.62 C623.6,40.55 649.92,38.4 651.94,35.96 C637.03,34.84 612.09,43.8 597.87,37.61 C597.87,35.5 618.82,35.61 609.36,34.35 C598.55,30.44 593.87,38.25 581.66,33.87 C587.07,37.93 562.08,42.67 543.9,43.48 C547.25,43.65 547.25,43.65 548.68,44.13 C551.33,47.23 537.79,46.59 530.36,47.06 C531.115111,46.4013296 532.061328,46.0018158 533.06,45.92 C439.23,51.17 331.82,53.64 233.15,49.78 L251.33,46.84 C237.16,49.11 212.11,47.5 204.05,46.7 L206.1,46.38 C179.73,40.03 176.36,52.56 156.1,45.25 L160.1,44.59 C128.35,44.77 109.47,37.94 78.42,41.53 C54.03,39.1 56.72,35.83 39.81,32.91 C25.63,33.06 18.97,36.99 18.24,37.8 L25.03,38.13 C32.46,41.86 10.17,41.22 0.03,42.85 C7.46,48.71 3.45,57.85 31.89,63.85 C52.82,61.85 52.22,73.3 75.89,72.31 C89.36,64.49 109.71,78.15 131.27,71.15 C119.8,76.52 156.96,74.07 138.1,79.94 C146.9,84.18 183.99,75.36 200.95,80.41 C198.2,81.57 198.85,82.85 194.83,83.51 C218.5,80.41 211.06,87.25 228.62,87.24 L227.95,81.71 C234.72,79.91 236.76,83.81 242.81,82.85 C238.03,82.19 227.95,79.59 233.27,77.31 C241.38,76 248.16,74.2 256.91,74.2 C257.01,76.32 250.91,77.29 246.78,77.95 C246.78,77.95 265.78,78.44 267.09,81.04 C260.31,82.82 251.55,82.82 245.55,85.93 C270.55,87.55 247.55,87.71 259.71,92.1 C256.3,85.6 281.35,89.33 294.82,87.86 C296.22,90.47 285.36,88.68 282.01,90.64 C307.76,102.04 320.54,88.64 353.62,91.1 C352.95,91.91 348.9,92.57 346.85,92.89 C362.44,91.1 373.28,97.12 383.38,93.36 C398.28,94.5 386.1,100.71 409.09,100.53 C402.33,93.86 436.09,101.82 436.73,94.66 L454.35,98.87 C469.92,94.97 450.2,86.87 480.63,86.16 C508.33,88.77 478,97.91 494.2,101.63 L500.97,97.72 L514.51,100.49 L512.45,100.82 C520.57,99.52 535.39,100.65 535.45,102.75 C534.12,104.39 525.31,104.39 524.04,106.02 C537.48,102.44 577.39,115.77 591.53,105.02 C599.53,106.92 615.93,106.88 613.83,110.29 C621.07,105.55 649.83,111.78 660.52,108.75 C659.12,110.38 669.3,112.98 677.41,111.7 C666.56,109.91 673.36,108.12 680.72,105.5 C690.25,108.93 717.24,105.99 721.34,111.68 C736.2,108.57 730.77,104.51 734.05,100.43 C743.58,103.85 773.99,103.19 768.63,109.7 C760.47,108.91 742.22,107.6 745.63,112 C761.16,114.42 752.37,110.2 765.16,109.55 C764.16,110.74 773.87,113.55 771.41,115.46 C781.046848,114.726439 790.73063,114.877068 800.34,115.91 C783.49,112.96 811.12,111.34 801,108.74 L784.82,113.47 C765.21,113.79 780.71,109.89 773.28,108.25 C807.75,106.93 800.94,100.25 833.36,97.15 C839.44,98.28 850.24,100.07 853.64,100.24 C842.83,100.57 844.91,106.6 851.05,107.73 C869.17,102.67 883.47,110.97 898.33,112.11 C885.45,110.65 892.23,106.75 896.94,105.27 C927.99,101.69 909.12,107.54 922.66,110.27 C970.56,109.61 1001.03,117.42 1039.49,113.34 L1021.26,107.79 L1015.2,113.01 C1000.99,108.94 1017.82,101.28 1025.91,97.87 C1027.96,99.66 1051.63,98.67 1042.18,101.61 L1065.18,99.33 C1061.76,97.04 1046.89,98.03 1057.63,95.57 C1065.18,97.2 1088.76,98.34 1073.94,101.44 C1086.08,101.6 1101.6,99.8 1098.94,96.71 C1118.51,96.39 1096.94,103.39 1088.19,105.51 C1103.69,105.83 1101.7,110.38 1097.01,111.85 L1118.58,111.2 C1113.88,112.65 1113.88,114.77 1109.2,116.2 C1123.38,118.2 1133.51,112.3 1145.63,116.7 L1151.05,112.28 C1190.23,115.87 1186.21,116.51 1222.72,117 L1216.62,113.73 C1244.26,107.86 1236.87,118.95 1274.03,116.5 C1294.96,114.5 1308.49,113.05 1305.74,107.83 C1317.85,105.83 1320.6,108.98 1326.05,110.94 C1335.46,108 1355.7,102.62 1370.57,105.87 C1360.45,107.49 1352.35,108.81 1342.9,109.64 C1345.65,114.83 1375.32,110.76 1390.84,113.2 C1401.66,110.74 1436.84,104.38 1456.34,99.82 C1447.51,95.58 1450.86,89.39 1468.42,85.14 C1465.73,88.4 1492.11,88.4 1504.22,90.69 C1498.22,93.77 1531.29,98.31 1505.68,99.62 C1498.25,98 1494.83,93.62 1484.68,95.23 C1490.78,98.49 1507.06,102.23 1523.94,105.17 C1522.64,106.81 1513.82,108.9 1505.06,108.9 C1509.72,107.55 1506.95,106.55 1506.27,105.25 Z" id="Shape"></path>
            <path d="M3950.35,40.09 C3949.42,40.01 3948.53,39.92 3947.6,39.87 L3950.98,41.09 C3949.85,40.67 3949.85,40.35 3950.35,40.09 Z" id="Shape"></path>
            <path d="M2033.29,107.2 C2034.62,106.98 2037.07,106.2 2037.11,105.57 C2035.727,105.808082 2034.41884,106.366277 2033.29,107.2 L2033.29,107.2 Z" id="Shape"></path>
            <path d="M2401.44,103.66 C2401.13916,103.250843 2400.92481,102.784704 2400.81,102.29 C2400.51,102.61 2400.58,103 2401.44,103.66 Z" id="Shape"></path>
            <path d="M3974.17,76.93 L3967.6,78 C3970,78 3971.11,77.42 3974.17,76.93 Z" id="Shape"></path>
            <path d="M104.1,80.32 L114.39,80.14 C113.45,79.81 110.62,79.79 104.1,80.32 Z" id="Shape"></path>
            <path d="M94.86,75.64 C94.62,75.64 94.22,75.64 94,75.58 C94.13,75.78 94.39,75.77 94.86,75.64 Z" id="Shape"></path>
            <path d="M3389.13,2.81 C3392.93,2.45 3396.2,1.97 3397.99,1.22 C3392.53,1.52 3390,2.12 3389.13,2.81 Z" id="Shape"></path>
            <path d="M2781.78,96.06 C2782.02516,95.6526545 2782.17236,95.1939366 2782.21,94.72 C2781.31,95.06 2781,95.5 2781.78,96.06 Z" id="Shape"></path>
            <path d="M224.47,78.18 C222.89,78.07 221.27,77.98 219.78,77.83 C218.82,79 223.31,78.89 224.47,78.18 Z" id="Shape"></path>
            <path d="M3546,8 C3546.51451,7.68990194 3546.94401,7.25696149 3547.25,6.74 C3546.73778,7.0529943 3546.3089,7.48529777 3546,8 L3546,8 Z" id="Shape"></path>
            <path d="M596.54,100.19 C597.93,99.96 599.43,99.84 600.9,99.71 C599.430656,99.6456231 597.960148,99.8075139 596.54,100.19 L596.54,100.19 Z" id="Shape"></path>
            <path d="M2659.45,0 C2658.04109,0.229530204 2656.69765,0.758041064 2655.51,1.55 C2657.92,1.25 2659.67,0.77 2659.45,0 Z" id="Shape"></path>
            <path d="M2657.52,13 C2688.44,9.24 2650.91,5.49 2655.52,1.52 C2647.27,2.59 2629.69,1.85 2637.99,4.86 C2621.79,-3.14 2588.99,9.28 2571.45,2.93 C2570.69,3.73 2580.84,6.34 2568.72,8.31 C2550.59,9.11 2551.91,5.36 2544.51,3.75 C2539.13,6.03 2511.58,7.65 2514.25,6.53 C2502.19,8.53 2527.09,14.35 2510.25,17.78 C2498.85,23.14 2483.36,18.6 2469.92,20.07 C2453.76,16.32 2486.04,17.45 2492.74,15.65 L2447,18.14 C2433.55,15.38 2453,12.92 2466.51,13.56 C2448.29,10.16 2424.8,13.27 2419.42,17.66 C2407.99,16.66 2401.94,17.66 2391.18,15.88 C2401.89,13.43 2401.18,5.77 2418,4.47 C2445.61,4.95 2408,10.34 2431.48,11.47 L2433.48,6.89 C2443.55,9.49 2451.57,6.08 2462.38,5.74 C2468.38,6.89 2461.06,7.38 2457.03,8.04 C2476.55,7.69 2492.03,10.13 2506.81,4.92 C2480.51,0.7 2440.88,6.41 2429.38,1.19 L2377,7.58 C2377,9.7 2395.21,13.11 2380.41,16.21 C2374.33,10.84 2358.87,8.39 2338.66,7.44 C2346.12,13.29 2306.39,12.67 2316.53,17.38 C2325.94,14.44 2330.67,19.38 2331.99,19.81 C2312.47,20.15 2329.35,25.2 2318.61,25.52 C2283,24.22 2320,21.77 2285,19.67 C2299.83074,14.5447681 2315.12673,10.8806985 2330.67,8.73 C2329.32,6.13 2311.24,9.08 2303.06,6.13 C2314.54,9.22 2295.06,11.67 2304.48,12.98 C2276.21,15.43 2243.28,21.48 2209,22.79 C2214.34,14.14 2266.8,16.25 2256,5.99 C2239.2,7.31 2239.26,11.53 2225.78,10.89 C2214.35,5.69 2186.12,10.26 2163.2,10.42 L2173.28,13 C2164.56,15.13 2148.44,13.5 2138.28,13 L2140.92,11.85 L2130.92,13.49 C2129.36,13.27 2129,12.99 2129.02,12.67 C2118.02,15.35 2090.02,12.78 2069.02,14.32 C2069.02,18.55 2089.86,14.49 2099.93,14.97 C2102.67,15.97 2122.13,17.73 2112.71,20.65 C2086.58,20.65 2068.39,25.73 2038.81,25.59 L2048.22,26.87 C2038.81,29.81 2026.05,28.35 2011.95,28.53 C1986.34,25.61 2030.76,22.65 2015.24,20.2 C2025.24,16.46 2042.81,20.69 2045.47,15.32 L2029.35,9.45 C2015.87,13.03 2001.04,7.67 1991.59,8.45 L2001.73,11.05 C1999.73,15.62 1990.33,12.19 1985.58,11.54 L1992.4,18.21 C2007.16,19.36 2017.25,13.49 2027.99,17.38 C2001.8,19.51 2007.84,24.9 1976.27,25.05 C1974.85,22.45 1982.35,24.05 1985.63,22.13 C1974.85,20.34 1963.5,25.71 1946.02,23.6 C1956.02,21.97 1972.22,19.35 1959.4,15.78 L1950.03,20.78 C1941.96,19.98 1945.27,18.02 1941.96,17.86 C1930.48,16.86 1944.6,23.08 1926.47,21.78 C1923.77,20.78 1917.75,19.66 1920.39,18.52 C1899.55,18.34 1910.39,20.15 1890.89,22.59 C1908.33,22.59 1909,30.23 1890.89,31.06 C1865.33,30.25 1847.89,34.49 1830.35,28.15 L1818.92,31.41 C1826.26,26.68 1802.74,29.78 1794.65,28.98 C1791.97,23.76 1832.99,29.13 1832.99,20.66 C1816.19,19.84 1823.51,17.24 1828.93,14.96 C1810.73,15.76 1822.2,20.96 1814.16,24.4 C1814.16,22.28 1783.16,23.76 1793.92,19.19 C1778.46,18.88 1775.79,24.25 1764.39,23.27 C1766.11,21.19 1768.09,18.52 1767,15.84 C1765.65,17.6 1751,15.44 1748.21,15.28 C1750.88,16.28 1742.86,19.7 1756.29,18.23 C1752.94,22.3 1724.66,18.4 1725.4,21.82 C1724,17.11 1696.45,20.82 1682.34,18.9 C1683.73,29.98 1708.52,14.66 1713.26,23.78 C1694.47,27.54 1650.04,24.14 1619.78,29.03 C1593.59,26.92 1619.78,24.79 1614.42,20.71 C1638.58,18.91 1644.66,22.17 1665.54,20.2 C1642.65,18.28 1605.01,19.42 1588.22,22.84 C1563.28,23.33 1560.54,11.79 1530.28,14.56 C1534.28,18.12 1533.64,18.95 1543.1,20.27 C1535.04,21.55 1525.59,20.27 1516.87,20.27 C1511.52,22.54 1530.35,23.01 1518.25,24.99 C1513.53,24.33 1503.45,23.84 1505.44,21.41 L1507.44,21.08 C1478.54,24.34 1486.54,12.45 1461.7,19.29 C1463.7,21.08 1469.1,18.81 1475.18,19.96 C1479.87,22.71 1464.47,26.61 1452.98,27.77 C1455.04,25.32 1442.91,27.29 1434.86,26.48 C1429.46,22.4 1455.04,25.32 1459.06,22.56 L1436.84,21.92 L1441.52,22.56 L1417.36,26.48 C1434.2,25.17 1425.44,31.48 1418.05,32.02 C1401.27,31.21 1384.42,30.4 1386.44,25.84 C1384.44,30.41 1363.58,30.24 1348.78,31.23 C1364.93,32.86 1350.78,35.13 1346.14,36.61 L1321.91,32.06 C1347.46,30.75 1316.52,27.98 1322.53,24.88 C1329.9,20.15 1345.39,22.58 1358.87,23.23 C1332.57,14.77 1321.87,27.8 1298.99,23.76 C1298.99,21.64 1300.99,19.19 1311.07,19.66 C1307.07,18.22 1290.22,23.76 1274.74,21.32 C1278.8,22.79 1287.55,27.02 1272.13,28.81 L1251.91,23.61 C1228.36,22.47 1243.86,29.15 1224.4,31.61 L1237.15,35.19 C1235.15,39.76 1210.93,35.19 1210.3,40.25 C1222.38,40.41 1229.14,36.5 1241.84,37.95 C1246.63,42.85 1225.72,40.57 1218.43,43.19 C1192.15,41.07 1197.56,40.9 1178,37 C1177.28,29.35 1210.27,27.54 1206.1,17.6 C1180.57,18.92 1143.58,21.37 1126.79,18.45 C1103.92,20.73 1105.99,26.76 1109.36,31.16 C1102.6227,31.8932113 1095.81181,31.5557044 1089.18,30.16 L1099.91,27.7 C1071.67,30.16 1055.56,32.78 1025.91,32.61 C1009.17,33.93 1015.91,38.49 1019.91,42.07 L1001.75,42.9 L1004.51,43.9 C1000.46,48.79 984.32,47.16 972.22,47 C972.22,44.89 979.58,44.39 978.89,43.09 C968.16,41.31 951.99,41.8 943.28,43.92 C943.28,41.8 950.62,37.08 963.4,38.54 C964.75,39.03 964.09,39.83 965.4,40.34 L987,37.68 C962.13,40.29 947.29,34.92 947.93,29.87 C923,32.48 968.16,35.08 938.56,37 C899.56,27.09 864.56,39.79 842.97,25.63 C824.86,28.57 803.35,33.47 775.09,33.8 C775.09,38.04 756.23,35.44 758.97,40.66 C785.97,46.18 809.37,32.49 830.97,40.3 C843.02,38.3 838.97,34.76 844.38,32.49 C855.08,32.15 865.19,32.63 866.58,35.24 C841.7,37.86 859.9,45.5 828.31,45.67 C832.31,49.26 857.93,47.95 869.31,48.92 C865.97,50.92 869.38,53.15 876.78,54.78 C868.68,58.2 850.6,61.14 841.19,64.09 C844.51,62.09 838.43,60.99 841.19,59.84 L808.25,65.84 C798.14,63.25 795.4,60.14 800.82,57.84 C782.62,56.55 751.76,62.25 751.67,55.9 C728.15,56.9 759.13,59.65 761.15,61.45 L759.15,61.77 L784.03,61.27 C786.77,68.61 755.76,59.49 751.78,66.51 C747.86,79.86 716.78,62.28 699.3,64.39 L719.45,54.78 L701.91,57 C711.98,53.25 711.91,46.91 727.37,43 C703.2,42.69 668.85,39.77 653.37,41.57 C647.37,38.3 644.66,35.2 647.37,31.96 C623.16,37.96 609.68,28.87 588.81,28.72 C566.67,32.3 611.03,33.6 594.92,38.33 C588.22,35.89 576.09,37.85 570.05,38.82 C576.76,37.04 600.32,40.28 616.49,41.91 C604.36,41.74 605.71,46.46 602.34,48.41 L622.56,49.41 C621.24,55.27 597.69,49.88 588.31,52.84 C594.31,47.62 590.98,47.46 596.97,42.25 C579.49,44.37 553.26,44.37 538.43,41.13 C529.68,39.01 545.8,38.52 550.53,37.05 C546.53,33.47 533.06,39.18 529.68,34.76 C532.36,31.51 540.41,34.44 546.5,33.46 L495.37,31.84 C495.37,29.74 508.12,29.07 516.17,29.89 C500.68,27.45 489.29,28.61 471.17,35.77 C453.69,33.65 433.53,30.58 439.49,27.48 C431.44,28.78 436.82,30.73 436.88,32.86 C413.3,31.72 410.69,39.22 396.58,39.38 L407.29,43.28 C384.45,39.22 401.98,49.8 381.8,46.71 C385.09,42.64 383.8,37.93 380.38,33.52 C377.04,37.59 364.23,34.01 355.5,34.01 C360.92,38.09 336.72,37.76 350.84,41.83 C330.63,45.11 321.25,39.57 306.45,44.83 C315.76,46 288.92,49 297,51.91 C277.45,52.23 264,47.35 269.32,42.91 C276.08,43.24 286.89,45.03 286.13,41.61 L250.53,42.43 C241.71,40.32 230.34,39.36 228.93,34.64 C217.54,40.02 195.31,30.89 186.59,37.26 C198.67,33.17 208.15,38.7 212.78,39.36 L207.26,40.26 C208.220968,40.2755225 209.179801,40.3557037 210.13,40.5 L194.75,48.65 C209.54,51.89 197.38,43.28 218.29,43.44 C236.41,51.07 177.29,54.99 196.14,59.73 C211.59,62.17 208.88,54.84 221.63,52.06 L218.29,51.89 L247.2,48.63 C248.55,51.23 239.8,53.36 239.8,53.36 C274.8,53.36 280.22,57.41 317.88,58.36 C315.15,57.36 307.76,49.36 324.56,48.08 C336.62,46.08 338.02,50.85 348.06,51.35 C342.06,52.35 336.66,56.73 328.61,53.79 L329.27,59.33 C301.07,66.01 315.86,71.39 277.55,73.33 C275.8,77.39 248.03,79.5 227.18,78.33 L237.29,81.98 C215.81,88.98 233.23,76.28 205.68,82.15 C194.22,74.82 173.28,66.21 188.74,60.15 C169.22,58.38 162.55,62.28 145,62.28 C134.24,56.28 150.38,55.76 148.35,49.74 C135.53,50.41 119.41,53.01 128.91,56.42 L104.62,54 C103.98,52.7 112.67,52.7 116.08,52.85 C106.63,51.55 88.49,54.49 83.15,56.77 C85.15,56.45 91.24,55.46 93.88,56.45 C83.8,58.07 65.66,61.02 64.34,62.64 C79.11,59.55 80.46,66.39 95.92,62.47 C94.6,64.09 91.92,67.36 83.86,66.55 C96.65,70.13 109.42,69.48 114.8,73.55 C104.01,70.55 97.1,74.92 94.8,75.55 C104.47,76.72 123.75,75.55 130.24,73.86 C131.66,80.69 167.89,72.7 155.18,79.71 C157.18,77.27 171.33,77.11 178.75,78.71 C178.07,81.71 159.28,83.28 151.21,86.71 C113.53,89.99 151.87,81.71 143.08,79.54 L114.33,80.04 C117.22,81.04 102.82,84.82 121.58,84.43 C112.86,88.68 94.73,91.62 79.94,88.36 C76.53,90.36 87.33,89.99 90.67,90.15 C87.33,92.15 69.19,99.29 92.74,100.41 C86.01,100.09 104.17,97.15 92.05,94.87 C101.46,94.06 127.05,96.97 116.91,100.73 C128.37,99.59 149.91,96.8 159.29,95.98 C162,99.09 151.23,97.29 146.51,98.76 L179.51,96.95 L170.06,93.54 C194.25,95.98 209.7,87.83 229.18,85.36 C226.51,90.75 210.35,91.24 197.6,94.01 C209.8,100.53 205.6,90.6 225.84,91.57 C228.55,92.57 229.25,93.85 227.93,95.49 L244.01,90.75 C248.71,91.4 246.01,92.56 244.01,92.87 C271.59,86.99 243.32,85.21 280.32,82.75 C258.05,80 261.42,86.5 242.66,86.01 C231.83,82.11 264.1,79.01 269.52,76.74 C287.64,78.03 289.72,86.15 312.58,81.74 C296.46,84.35 311.92,86.8 289.06,86.97 C276.28,89.74 295.81,89.4 298.48,92.5 C304.48,91.5 294.48,86.8 311.26,87.61 L310.6,88.41 L338.12,82.55 C363.74,85.47 395.92,76.01 413.46,82.36 L409.4,76.66 C425.52,76.18 448.4,76 459.81,74.85 C457.17,78.11 446.39,78.43 434.97,79.58 C459.816413,80.4792078 484.673757,78.1259295 508.91,72.58 C494.75,68.51 492.71,68.84 479.26,66.08 C498.05,58.08 501.51,70.97 525.73,67.08 C526.39,72.62 518.33,71.81 524.38,77.19 C534.45,73.42 551.3,74.19 562.73,70.97 C568.81,76.35 558.09,80.97 533.21,81.42 C514.35,76.69 493.53,85 478.01,80.42 L487.45,83.85 C468.59,85.48 457.2,84.5 441.08,87.11 L441.73,86.29 L433.68,91.83 L442.4,91.83 C436.4,94.94 418.25,99.99 412.86,100.15 C439.8,99.32 441.73,90.53 454.49,85.63 C478.72,85.96 488.21,95.72 504.33,90.99 C505.65,93.62 519.16,96.38 508.33,98.81 C494.92,100.3 485.47,96.87 484.15,100.63 C498.28,100.46 492.9,102.74 514.4,102.07 C518.46,97.18 534.55,92.44 549.94,88.53 C566.1,85.91 586.94,86.07 599.79,87.53 C583.63,88.01 567.51,92.74 571.58,96.33 C580.99,91.26 603.19,100.38 598.43,93.39 C617.25,93.86 648.9,93.69 650.95,99.72 C633.15,101.96 615.95,98.29 600.81,99.59 C604.96,99.73 609.03,101.25 606.59,102.67 L584.37,102.02 C601.18,104.95 597.85,106.91 619.37,106.25 C618.02,105.76 615.31,104.79 617.37,104.48 C622.73,104.31 629.48,104.62 634.89,104.48 L635.55,110.02 C651.67,107.42 682.68,114.41 712.21,110.33 L709.56,111.47 C733.1,112.61 735.07,101.69 760.64,100.37 C753.24,102.97 756.64,105.27 757.96,107.87 C770.71,105.09 777.48,109.65 790.29,111.11 C775.44,107.87 800.29,105.26 789.54,103.47 C788.81,97.92 815.1,97.91 828.54,98.56 C836.54,105.72 786.84,102.49 807.07,109.8 C820.5,110.45 823.87,106.39 814.41,105.08 C831.23,105.9 856.8,106.69 868.95,111.08 C889.06,105.69 897.12,108.62 909.95,101.62 C899.19,101.94 898.55,107 885.05,104.23 L899.84,99.02 C919.33,98.68 934.84,103.24 948.29,103.88 L934.16,106.18 L934.85,105.35 C929.47,107.64 911.3,106.35 913.35,110.24 C926.1,105.37 936.24,110.09 953.02,106.66 L952.36,107.48 C981.93,103.4 1003.53,115.48 1022.28,105.33 C1016.9,105.5 1006.1,101.59 1009.47,99.65 C1016.25,102.08 1034.38,101.26 1033.73,104.2 L1027.66,105.2 C1044.47,106 1054.58,106.49 1060.66,105.51 C1065.32,101.93 1060.56,99.15 1072.66,97.19 C1102.28,99.46 1060.66,105.51 1080.79,108.61 L1108.37,104.85 L1114.45,108.11 C1155.45,111.36 1187.04,100.58 1230.74,100.57 C1231.43,106.12 1199.84,108.4 1189.09,108.75 C1202.57,113.63 1222.02,106.95 1240.18,110.37 C1257.04,111.17 1269.75,106.29 1267.07,103.19 C1287.87,101.19 1281.88,106.45 1284.54,107.41 C1291.29,101.41 1317.54,103.51 1334.28,102.2 L1335.05,105.6 L1361.24,101.38 C1354.51,101.03 1360.54,97.96 1360.53,95.85 L1367.24,96.17 C1341.62,86.88 1309.45,102.69 1283.15,92.11 C1291.2,90.81 1280.41,89.01 1288.5,87.71 C1295.2,88.05 1296.56,88.53 1297.25,89.84 C1301.25,87.07 1312.02,84.61 1297.89,84.79 C1298.55,77.62 1326.82,79.39 1346.27,76.95 C1361.76,81.52 1330.15,83.82 1322.12,87.23 C1329.52,86.73 1335.59,83.62 1346.33,85.42 L1343.69,90.79 C1370.55,87.86 1351.03,86.09 1357.1,80.87 C1364.41,74.02 1381.29,81.18 1388.68,80.69 L1380.7,82 C1401.53,84.28 1406.23,78.57 1425.02,79 L1433.84,83.26 C1410.22,77.88 1404.98,90.75 1391.5,88 C1425.82,93 1384.13,99.07 1373.4,103.64 C1388.23,102.64 1401.64,103.3 1409.71,106.23 C1431.24,99.23 1454.83,108.82 1475.6,100.5 C1487.03,101.5 1465.6,104.26 1477.66,104.42 C1500.7941,105.110145 1523.94652,103.966568 1546.9,101 C1559.05,101.16 1556.98,103.6 1560.38,105.87 C1618.91,109.11 1641.74,96.24 1705.65,99.31 L1696.27,102.25 C1709.68,102.9 1721.15,103.88 1727.81,99.95 C1744.7,109.24 1784.99,94.24 1806.52,104.17 C1834.79,105.95 1836.11,97.97 1858.32,96.49 C1858.32,98.61 1851.58,102.55 1863.07,103.49 C1935.66,100.2 2000.93,99.49 2080.94,97.87 C2080.28,98.68 2076.24,99.34 2074.23,99.66 C2126.02,100.46 2177.08,91.49 2220.12,94.42 C2228.21,93.1 2252.39,91.3 2244.97,87.55 C2234.91,87.05 2233.53,82.35 2234.19,79.42 C2272.5,75.32 2253.02,86.24 2278.6,84.93 C2286.7,92.1 2262.48,89.67 2262.48,96.02 L2299.48,91.45 C2320.33,93.71 2341.17,89.65 2359.33,93.04 C2351.24,92.24 2356.69,98.41 2343.21,95.66 C2345.21,95.34 2343.89,94.86 2345.92,94.51 C2314.92,93.89 2329.07,97.95 2301.49,99.58 C2325.73,97.77 2358.66,95.97 2380.2,97.43 C2375.47,92.56 2397.67,95.32 2403.72,92.22 L2405.07,92.71 C2405.07,90.59 2418.45,89.13 2422.55,88.47 L2427.93,94.66 C2437.38,93.84 2425.25,91.56 2434.66,90.76 C2448.04,89.29 2495.87,88.6 2499.23,95.13 C2515.42,94.63 2520.1,91.04 2536.86,91.87 C2535.54,93.5 2531.51,94.14 2530.86,94.96 C2566.46,96.25 2610.19,94.14 2643.86,97.86 C2671.37,96.22 2694.92,95.24 2712.36,91 C2704.97,91.49 2683.42,90 2696.9,86.45 C2704.3,83.84 2715.71,84.82 2727.13,83.69 C2724.46,86.93 2756.13,86.76 2733.24,89.03 C2739,96.13 2782.52,87.64 2782.16,94.69 C2787.51,92.53 2819.98,93.78 2832.16,89.98 C2834.86,93.08 2814.62,92.11 2814.66,94.23 L2829.44,93.23 L2829.44,95.34 C2857.75,97.13 2863.03,88.49 2879.84,87.18 L2879.19,88 L2890.61,86.86 L2877.2,92.57 C2895.33,91.74 2904.72,86.69 2924.89,85.57 L2926.89,87.37 L2939.04,85.37 C2936.98,85.7 2936.3,86.51 2937.62,87 C2949.08,81.62 2975.3,83.72 2986.03,79.17 C2994.09,79.97 3000.9,86.67 3011.63,82.09 L3009.63,88.76 C2982.75,89.59 2999.63,84.04 2971.32,86.5 C2992.19,95.12 3050.72,94.12 3089.73,93.5 C3121.28,89.08 3173.13,96.22 3186.55,86.3 L3183.21,90.36 L3236.32,93.77 C3281.41,92.11 3327.8,95.2 3362.1,89.67 L3371.53,93.07 C3407.07,81.67 3492.53,88.33 3516.03,74.63 C3536.18,77.7 3510.03,79.85 3507.97,82.29 C3522.81,83.41 3547.64,74.45 3561.8,80.64 C3561.8,82.75 3540.95,82.64 3550.36,83.9 C3561.12,87.81 3565.78,80 3577.94,84.38 C3572.56,80.32 3597.43,75.58 3615.53,74.77 C3612.19,74.6 3612.19,74.6 3610.77,74.12 C3608.13,71.02 3621.61,71.66 3629.01,71.19 C3628.2614,71.846566 3627.32219,72.2460844 3626.33,72.33 C3719.74,67.08 3826.66,64.6 3924.89,68.47 L3906.79,71.41 C3920.89,69.14 3945.79,70.75 3953.85,71.55 L3951.85,71.87 C3978.1,78.22 3981.45,65.69 4001.65,73 L3997.65,73.66 C4029.26,73.48 4048.05,80.31 4078.96,76.72 C4103.24,79.15 4100.56,82.42 4117.39,85.34 C4131.51,85.19 4138.14,81.26 4138.87,80.45 L4132.11,80.12 C4124.71,76.39 4146.91,77.03 4156.98,75.4 C4149.58,69.54 4153.57,60.4 4125.27,54.4 C4104.44,56.4 4105.03,44.95 4081.51,45.93 C4068.1,53.75 4047.84,40.09 4026.38,47.09 C4037.8,41.72 4000.81,44.17 4019.58,38.3 C4010.82,34.06 3973.9,42.89 3957.01,37.83 C3959.75,36.67 3959.1,35.39 3963.1,34.73 C3939.57,37.86 3947,31 3929.49,31 L3930.15,36.53 C3923.41,38.33 3921.38,34.43 3915.35,35.39 C3920.11,36.05 3930.15,38.65 3924.85,40.93 C3916.77,42.24 3910.03,44.04 3901.31,44.04 C3901.21,41.92 3907.31,40.95 3911.39,40.29 C3911.39,40.29 3892.49,39.8 3891.17,37.2 C3897.92,35.42 3906.64,35.42 3912.61,32.3 C3887.77,30.68 3910.61,30.52 3898.51,26.13 C3901.9,32.63 3876.97,28.9 3863.56,30.37 C3862.17,27.76 3872.97,29.55 3876.31,27.59 C3850.67,16.19 3837.95,29.59 3805.02,27.13 C3805.68,26.32 3809.72,25.66 3811.76,25.34 C3796.24,27.13 3785.45,21.11 3775.39,24.87 C3760.56,23.73 3772.68,17.52 3749.8,17.7 C3756.53,24.37 3722.88,16.41 3722.28,23.57 L3704.74,19.36 C3689.25,23.26 3708.87,31.36 3678.58,32.07 C3651,29.46 3681.19,20.32 3665.07,16.6 L3658.33,20.51 L3644.85,17.74 L3646.85,17.41 C3638.77,18.71 3624.01,17.58 3623.97,15.48 C3625.29,13.84 3634.07,13.84 3635.33,12.21 C3621.95,15.79 3582.22,2.46 3568.15,13.21 C3560.21,11.31 3543.86,11.35 3545.95,7.94 C3538.74,12.68 3510.13,6.45 3499.47,9.48 C3500.86,7.85 3490.73,5.25 3482.66,6.54 C3493.46,8.33 3486.66,10.12 3479.37,12.74 C3469.88,9.31 3443.01,12.25 3438.94,6.56 C3424.14,9.67 3429.56,13.73 3426.29,17.81 C3416.81,14.39 3386.53,15.05 3391.87,8.54 C3400,9.33 3418.16,10.64 3414.73,6.25 C3399.27,3.83 3408.02,8.05 3395.28,8.7 C3396.23,7.51 3386.61,4.7 3389.06,2.79 C3379.46652,3.52364238 3369.82588,3.3730074 3360.26,2.34 C3377.03,5.29 3349.53,6.91 3359.6,9.51 L3375.71,4.78 C3395.23,4.46 3379.8,8.36 3387.2,10 C3352.89,11.32 3359.66,18 3327.4,21.1 C3321.4,19.97 3310.6,18.18 3307.21,18.01 C3317.97,17.68 3315.9,11.65 3309.79,10.52 C3291.79,15.58 3277.52,7.28 3262.72,6.14 C3275.54,7.6 3268.8,11.5 3264.11,12.98 C3233.2,16.56 3251.98,10.71 3238.51,7.98 C3190.82,8.64 3160.51,0.83 3122.21,4.91 L3140.36,10.46 L3146.36,5.24 C3160.5,9.31 3143.75,16.97 3135.7,20.38 C3133.7,18.59 3110.1,19.58 3119.5,16.64 L3096.62,18.92 C3100.03,21.21 3114.82,20.22 3104.14,22.68 C3096.62,21.05 3073.14,19.91 3087.9,16.81 C3075.82,16.65 3060.36,18.45 3063.03,21.54 C3043.55,21.86 3065.03,14.86 3073.74,12.74 C3058.31,12.42 3060.29,7.87 3064.96,6.4 L3043.58,7 C3048.26,5.55 3048.26,3.43 3052.91,2 C3038.79,-1.33226763e-15 3028.71,5.9 3016.64,1.51 L3011.25,5.93 C2972.25,2.34 2976.25,1.7 2939.9,1.21 L2946,4.47 C2918.48,10.34 2925.84,-0.75 2888.85,1.7 C2868.02,3.7 2854.54,5.15 2857.28,10.37 C2845.22,12.32 2842.48,9.22 2837.06,7.26 C2827.69,10.2 2807.54,15.58 2792.74,12.33 C2802.81,10.71 2810.87,9.39 2820.29,8.56 C2817.52,3.37 2788,7.44 2772.54,5 C2761.76,7.46 2726.79,13.82 2707.33,18.38 C2716.12,22.62 2712.78,28.81 2695.33,33.06 C2698.01,29.8 2671.75,29.8 2659.7,27.51 C2665.7,24.43 2632.7,19.89 2658.25,18.58 C2665.65,20.2 2669.05,24.58 2679.15,22.97 C2673,19.7 2656.85,16 2640,13 C2641.29,11.37 2650.07,9.26 2658.8,9.26 C2654.09,10.73 2656.85,11.72 2657.52,13 Z" id="Shape"></path>
            <path d="M224.47,78.18 C225.4,78.26 226.29,78.35 227.21,78.4 L223.85,77.18 C225,77.6 225,77.92 224.47,78.18 Z" id="Shape"></path>
            <path d="M2132.88,11.07 C2131.56,11.29 2129.12,12.07 2129.08,12.7 C2130.45685,12.4617984 2131.75849,11.9034658 2132.88,11.07 L2132.88,11.07 Z" id="Shape"></path>
            <path d="M1766.39,14.61 C1766.68596,15.0269048 1766.89355,15.4999275 1767,16 C1767.31,15.66 1767.24,15.25 1766.39,14.61 Z" id="Shape"></path>
            <path d="M200.75,41.35 L207.29,40.29 C204.91,40.27 203.79,40.85 200.75,41.35 Z" id="Shape"></path>
        </g>
    </g>
</svg>