<svg xmlns="http://www.w3.org/2000/svg" viewBox="0 0 4157 118.27"><defs><style>.cls-1{fill:#231F20;}</style></defs><g id="Layer_2" data-name="Layer 2"><g id="Layer_1-2" data-name="Layer 1"><path class="cls-1" d="M4071.26,38l-10.34.18C4061.87,38.46,4064.71,38.49,4071.26,38Z"/><path class="cls-1" d="M4080.54,42.63c.24,0,.64,0,.86.06C4081.27,42.49,4081,42.51,4080.54,42.63Z"/><path class="cls-1" d="M771.35,115.47c-3.82.36-7.1.84-8.9,1.59C767.94,116.75,770.46,116.15,771.35,115.47Z"/><path class="cls-1" d="M1381.45,22.21a3.06,3.06,0,0,0-.44,1.34C1381.92,23.21,1382.21,22.78,1381.45,22.21Z"/><path class="cls-1" d="M3950.35,40.09c1.59.11,3.22.2,4.71.35C3956,39.28,3951.51,39.38,3950.35,40.09Z"/><path class="cls-1" d="M613.74,110.31a3.63,3.63,0,0,0-1.25,1.27A3.72,3.72,0,0,0,613.74,110.31Z"/><path class="cls-1" d="M3576.58,18.08c-1.4.23-2.91.35-4.38.48A14.48,14.48,0,0,0,3576.58,18.08Z"/><path class="cls-1" d="M1504.33,118.27a10.05,10.05,0,0,0,4-1.55C1505.87,117,1504.11,117.51,1504.33,118.27Z"/><path class="cls-1" d="M1506.27,105.25c-31.06,3.76,6.64,7.51,2,11.48,8.29-1.07,26-.33,17.61-3.34,16.27,8,49.23-4.42,66.84,1.93.76-.8-9.44-3.41,2.75-5.38,18.22-.8,16.89,2.95,24.32,4.56,5.41-2.28,33.08-3.9,30.4-2.78,12.11-2-12.9-7.82,4-11.25,11.45-5.36,27-.82,40.51-2.29,16.23,3.75-16.19,2.62-22.92,4.42l45.92-2.46c13.51,2.76-6.06,5.22-19.6,4.58,18.31,3.4,41.9.29,47.31-4.1,11.48,1,17.56,0,28.37,1.78-10.75,2.45-10.09,10.11-26.95,11.41-27.73-.48,10.06-5.87-13.54-7l-2,4.58c-10.12-2.61-18.17.81-29,1.15-6.06-1.15,1.33-1.64,5.38-2.3-19.61.35-35.21-2.09-50,3.12,26.41,4.22,66.23-1.49,77.78,3.73L1788,110.7c0-2.12-18.29-5.53-3.43-8.63,6.11,5.37,21.64,7.82,41.94,8.77-7.49-5.85,32.42-5.23,22.23-9.94-9.46,2.94-14.2-2-15.53-2.43,19.61-.34,2.65-5.39,13.44-5.71,35.83,1.29-1.33,3.74,33.84,5.84a242.92,242.92,0,0,1-45.88,10.94c1.36,2.6,19.52-.35,27.73,2.6-11.53-3.09,8.06-5.54-1.43-6.85,28.4-2.45,61.48-8.5,95.92-9.81-5.37,8.65-58.06,6.54-47.21,16.8,16.88-1.32,16.82-5.54,30.36-4.9,11.48,5.2,39.84.63,62.87.47l-10.19-2.61c8.76-2.13,25-.5,35.14,0l-2.65,1.14,10-1.64c1.57.22,1.93.5,1.9.82,11-2.68,39.19-.11,60.31-1.65,0-4.23-20.93-.17-31-.65-2.75-1-22.3-2.76-12.84-5.68,26.25,0,44.52-5.08,74.24-4.94l-9.45-1.28c9.45-2.94,22.27-1.48,36.43-1.66,25.72,2.92-18.89,5.88-3.31,8.33-10.09,3.74-27.69-.49-30.37,4.88l16.19,5.87c13.54-3.58,28.44,1.78,37.93,1l-10.19-2.6c2-4.57,11.45-1.14,16.22-.49l-6.85-6.67c-14.82-1.15-25,4.72-35.75.83,26.31-2.13,20.24-7.52,52-7.67,1.43,2.6-6.11,1-9.4,2.92,10.82,1.79,22.23-3.58,39.79-1.47-10.06,1.63-26.32,4.25-13.44,7.83l9.41-5c8.1.8,4.78,2.76,8.1,2.92,11.53,1-2.65-5.22,15.56-3.92,2.71,1,8.76,2.12,6.1,3.26,20.93.17,10.07-1.63,29.63-4.08-17.52,0-18.19-7.64,0-8.47,25.68.81,43.18-3.43,60.81,2.91l11.48-3.26c-7.37,4.73,16.25,1.63,24.38,2.43,2.7,5.21-38.52-.15-38.52,8.32,16.88.82,9.52,3.42,4.08,5.7,18.28-.8,6.76-6,14.84-9.44,0,2.12,31.11.64,20.33,5.21,15.53.31,18.22-5.06,29.67-4.08-1.73,2.08-3.72,4.75-2.62,7.43,1.36-1.76,16,.4,18.87.56-2.68-1,5.38-4.42-8.11-2.95,3.36-4.07,31.77-.17,31-3.59,1.41,4.71,29.08,1,43.25,2.92-1.39-11.08-26.29,4.24-31.06-4.88,18.87-3.76,63.51-.36,93.91-5.25,26.31,2.11,0,4.24,5.39,8.32-24.27,1.8-30.38-1.46-51.35.51,23,1.92,60.81.78,77.67-2.64,25.05-.49,27.8,11.05,58.2,8.28-4-3.56-3.38-4.39-12.88-5.71,8.1-1.28,17.59,0,26.35,0,5.38-2.27-13.54-2.74-1.39-4.72,4.74.66,14.86,1.15,12.87,3.58l-2,.33c29-3.26,21,8.63,45.95,1.79-2-1.79-7.43.48-13.54-.67-4.71-2.75,10.75-6.65,22.3-7.81-2.07,2.45,10.12.48,18.21,1.29,5.42,4.08-20.27,1.16-24.31,3.92l22.32.64-4.7-.64L2752,91.65c-16.92,1.31-8.12-5-.69-5.54,16.86.81,33.78,1.62,31.75,6.18,2-4.57,23-4.4,37.83-5.39-16.22-1.63-2.05-3.9,2.65-5.38l24.34,4.55c-25.67,1.31,5.42,4.08-.62,7.18-7.4,4.73-23,2.3-36.5,1.65,26.42,8.46,37.16-4.57,60.15-.53,0,2.12-2,4.57-12.14,4.1,4.05,1.44,20.94-4.1,36.49-1.66-4.08-1.47-12.87-5.7,2.62-7.49l20.31,5.2c23.65,1.14,8.09-5.55,27.63-8L2933.07,83c2-4.58,26.34,0,27-5.06-12.14-.16-18.92,3.75-31.68,2.3-4.81-4.9,16.19-2.62,23.52-5.24,26.4,2.12,21,2.29,40.62,6.19.73,7.65-32.41,9.46-28.23,19.4,25.65-1.32,62.81-3.77,79.67-.85,23-2.28,20.9-8.31,17.51-12.71a64.82,64.82,0,0,1,20.27,1l-10.77,2.46c28.36-2.46,44.55-5.08,74.32-4.91,16.82-1.32,10-5.88,6-9.46l18.24-.83-2.77-1c4.07-4.89,20.28-3.26,32.43-3.1,0,2.11-7.39,2.61-6.7,3.91,10.78,1.78,27,1.29,35.77-.83,0,2.12-7.37,6.84-20.21,5.38-1.36-.49-.69-1.29-2-1.8l-21.63,2.78c25-2.61,39.89,2.76,39.25,7.81,25-2.61-20.33-5.21,9.4-7.16,39.21,9.91,74.32-2.79,96,11.37,18.19-2.94,39.8-7.84,68.18-8.17,0-4.24,18.95-1.64,16.19-6.86-27.07-5.52-50.63,8.17-72.34.36-12.11,2-8,5.54-13.47,7.81-10.75.34-20.91-.14-22.3-2.75,25-2.62,6.71-10.26,38.45-10.43-4-3.59-29.75-2.28-41.19-3.25,3.35-2-.07-4.23-7.5-5.86,8.13-3.42,26.3-6.36,35.75-9.31-3.33,2,2.77,3.11,0,4.26l33.09-6c10.16,2.59,12.91,5.7,7.47,8,18.29,1.29,49.28-4.41,49.37,1.94,23.62-1-7.49-3.76-9.52-5.55l2-.32-25,.5c-2.75-7.34,28.4,1.77,32.39-5.24,3.94-13.35,35.19,4.23,52.71,2.12l-20.24,9.61,17.59-2.11c-10.12,3.74-10.08,10.09-25.58,14,24.28.31,58.79,3.23,74.35,1.43,6.07,3.27,8.75,6.37,6.07,9.61,24.32-6,37.86,3.09,58.83,3.24,22.24-3.58-22.33-4.88-6.13-9.61,6.73,2.44,18.91.48,25-.49-6.74,1.78-30.41-1.46-46.65-3.09,12.18.17,10.82-4.55,14.21-6.5l-20.31-1c1.33-5.86,25-.47,34.41-3.42-6,5.22-2.68,5.38-8.7,10.59,17.56-2.12,43.9-2.12,58.81,1.12,8.79,2.12-7.4,2.61-12.15,4.08,4,3.58,17.55-2.13,20.94,2.29-2.7,3.25-10.78.32-16.89,1.3l51.36,1.62c0,2.1-12.81,2.77-20.9,1.95,15.57,2.44,27,1.28,45.22-5.88,17.56,2.12,37.81,5.2,31.83,8.3,8.09-1.3,2.68-3.25,2.62-5.38,23.69,1.14,26.31-6.36,40.48-6.52L3766.77,75c22.94,4.07,5.34-6.52,25.61-3.42-3.31,4.07-2,8.78,1.43,13.19,3.35-4.07,16.22-.49,25-.49-5.45-4.08,18.86-3.75,4.68-7.82,20.3-3.28,29.73,2.26,44.59-3-9.43-1.29,17.54-4.23,9.39-7.17,19.64-.32,33.14,4.56,27.8,9-6.79-.33-17.65-2.12-16.89,1.3l35.76-.82c8.86,2.11,20.28,3.07,21.7,7.79,11.44-5.38,33.78,3.75,42.54-2.62-12.14,4.09-21.66-1.44-26.31-2.1l5.54-.9a21.61,21.61,0,0,1-2.89-.24l15.45-8.15c-14.86-3.24-2.64,5.37-23.64,5.21-18.21-7.63,41.2-11.55,22.26-16.29-15.52-2.44-12.8,4.9-25.61,7.67l3.35.17-29,3.26c-1.36-2.6,7.43-4.73,7.43-4.73-35.17,0-40.6-4.06-78.43-5,2.75,1,10.17,9-6.71,10.28-12.11,2-13.52-2.77-23.61-3.27,6-1,11.45-5.38,19.54-2.44l-.66-5.54c28.33-6.68,13.47-12.06,52-14,1.76-4.06,29.66-6.17,50.6-5l-10.16-3.65c21.58-7,4.08,5.7,31.75-.17,11.51,7.33,32.54,15.94,17,22,19.61,1.77,26.31-2.13,43.94-2.13,10.81,6-5.4,6.52-3.36,12.54,12.88-.67,29.07-3.27,19.53-6.68l24.4,2.42c.65,1.3-8.09,1.3-11.51,1.15,9.49,1.3,27.71-1.64,33.08-3.92-2,.32-8.13,1.31-10.78.32,10.13-1.62,28.34-4.57,29.67-6.19-14.84,3.09-16.19-3.75-31.72.17,1.33-1.62,4-4.89,12.11-4.08-12.85-3.58-25.68-2.93-31.08-7,10.84,3,17.78-1.37,20.07-2-9.72-1.17-29.08,0-35.6,1.69-1.43-6.83-37.82,1.16-25.05-5.85-2,2.44-16.22,2.6-23.67,1,.68-3,19.56-4.57,27.66-8,37.85-3.28-.67,5,8.16,7.17l28.88-.5c-2.91-1,11.56-4.78-7.28-4.39,8.76-4.25,27-7.19,41.83-3.93,3.42-2-7.42-1.63-10.78-1.79,3.36-2,21.58-9.14-2.08-10.26,6.76.32-11.48,3.26.69,5.54-9.46.81-35.13-2.1-25-5.86-11.51,1.14-33.11,3.93-42.57,4.75-2.72-3.11,8.09-1.31,12.84-2.78l-33.15,1.81,9.49,3.41c-24.3-2.44-39.81,5.71-59.39,8.18,2.68-5.39,18.92-5.88,31.72-8.65-12.25-6.52-8.07,3.41-28.37,2.44-2.72-1-3.42-2.28-2.09-3.92l-16.15,4.74c-4.72-.65-2.06-1.81,0-2.12-27.7,5.88.69,7.66-36.47,10.12,22.37,2.75,19-3.75,37.83-3.26,10.88,3.9-21.54,7-27,9.27-18.21-1.29-20.29-9.41-43.26-5,16.19-2.61.67-5.06,23.62-5.23,12.84-2.77-6.78-2.43-9.46-5.53-6.06,1,4,5.7-12.84,4.89l.67-.8-27.64,5.86c-25.74-2.92-58.06,6.54-75.68.19l4.08,5.7c-16.19.48-39.17.66-50.64,1.81,2.65-3.26,13.48-3.58,25-4.73a287.77,287.77,0,0,0-74.28,7c14.23,4.07,16.27,3.74,29.79,6.5-18.87,8-22.35-4.89-46.68-1-.67-5.54,7.43-4.73,1.36-10.11-10.12,3.77-27,3-38.52,6.22-6.1-5.38,4.66-10,29.66-10.45,18.95,4.73,39.86-3.58,55.45,1l-9.49-3.43c18.95-1.63,30.39-.65,46.58-3.26l-.66.82,8.09-5.54h-8.76c6-3.11,24.26-8.16,29.67-8.32-27.06.83-29,9.62-41.82,14.52-24.34-.33-33.87-10.09-50.06-5.36-1.32-2.63-14.89-5.39-4-7.81,13.47-1.49,23,1.94,24.29-1.82-14.2.18-8.79-2.11-30.39-1.44-4.08,4.9-20.24,9.63-35.7,13.54-16.23,2.62-37.2,2.46-50.08,1,16.23-.48,32.43-5.21,28.34-8.8-9.46,5.07-31.75-4.06-27,2.94-18.9-.47-50.7-.3-52.75-6.33,17.88-2.24,35.21,1.43,50.37.13-4.17-.14-8.26-1.66-5.8-3.08l22.33.65c-16.89-2.93-13.54-4.88-35.17-4.23,1.36.49,4.08,1.46,2,1.77-5.39.17-12.16-.14-17.6,0l-.67-5.54c-16.19,2.6-47.35-4.39-77-.31L3463,6.71c-23.64-1.14-25.63,9.78-51.31,11.1,7.43-2.6,4-4.9,2.7-7.5-12.81,2.78-19.61-1.78-32.47-3.24,14.91,3.24-10.07,5.85.75,7.64.73,5.55-25.68,5.56-39.2,4.91-8.08-7.16,41.89-3.93,21.57-11.24-13.5-.65-16.88,3.41-7.38,4.72-16.9-.81-42.58-1.61-54.79-6-20.2,5.39-28.3,2.46-41.14,9.46,10.81-.32,11.45-5.38,25-2.61l-14.86,5.21c-19.58.34-35.17-4.22-48.67-4.86l14.19-2.3-.69.83c5.41-2.29,23.66-1,21.6-4.89-12.81,4.87-23,.15-39.85,3.58l.67-.82c-29.7,4.08-51.4-8-70.24,2.15,5.4-.17,16.25,3.74,12.87,5.68-6.81-2.43-25-1.61-24.37-4.55l6.1-1c-16.89-.8-27-1.29-33.15-.31-4.68,3.58.1,6.36-12.08,8.32-29.76-2.27,12.08-8.32-8.16-11.42l-27.7,3.76-6.1-3.26c-41.17-3.25-72.92,7.53-116.82,7.54-.7-5.54,31-7.83,41.84-8.18-13.54-4.88-33.08,1.81-51.32-1.62-16.93-.8-29.7,4.09-27,7.18-20.9,2-14.88-3.26-17.55-4.22-6.79,6-33.12,3.9-50,5.21l-.77-3.4-26.31,4.22c6.76.35.7,3.42.71,5.53l-6.74-.32c25.74,9.29,58.05-6.52,84.47,4.06-8.09,1.3,2.75,3.1-5.37,4.4-6.74-.34-8.09-.82-8.79-2.13-4.05,2.77-14.84,5.23-.64,5.05-.66,7.17-29.06,5.4-48.6,7.84-15.56-4.57,16.19-6.87,24.26-10.28-7.43.5-13.53,3.61-24.32,1.81l2.65-5.37c-27,2.93-7.37,4.7-13.47,9.92-7.34,6.85-24.3-.31-31.72.18l8.09-1.3c-20.93-2.28-25.65,3.43-44.52,3L2735.49,35c23.72,5.38,29-7.49,42.54-4.74-34.48-5,7.4-11.07,18.19-15.64-14.89,1-28.37.34-36.47-2.59-21.63,7-45.32-2.59-66.19,5.73-11.48-1,10.08-3.76-2.07-3.92a442.2,442.2,0,0,0-69.56,3.44c-12.21-.16-10.12-2.6-13.54-4.87-58.8-3.24-81.72,9.63-145.93,6.56l9.43-2.94c-13.47-.65-25-1.63-31.68,2.3-17-9.29-57.44,5.71-79.07-4.22-28.4-1.78-29.73,6.2-52,7.68,0-2.12,6.77-6.06-4.77-7-72.92,3.29-138.49,4-218.85,5.62.67-.81,4.72-1.47,6.74-1.79-52-.8-103.32,8.17-146.55,5.24-8.13,1.32-32.42,3.12-25,6.87,10.1.5,11.49,5.2,10.82,8.13-38.49,4.1-18.92-6.82-44.61-5.51-8.13-7.17,16.19-4.74,16.19-11.09l-37.16,4.57c-20.94-2.26-41.88,1.8-60.12-1.59,8.13.8,2.65-5.37,16.19-2.62-2.06.32-.68.8-2.72,1.15,31.11.62,16.93-3.44,44.63-5.07-24.35,1.81-57.43,3.61-79.07,2.15,4.75,4.87-17.55,2.11-23.62,5.21l-1.36-.49c0,2.12-13.44,3.58-17.56,4.24l-5.4-6.19c-9.49.82,2.69,3.1-6.76,3.9-13.44,1.47-61.49,2.16-64.87-4.37-16.26.5-21,4.09-37.8,3.26,1.33-1.63,5.38-2.27,6-3.09-35.76-1.29-79.69.82-113.54-2.9-27.63,1.64-51.3,2.62-68.81,6.86,7.42-.49,29.07,1,15.53,4.55-7.43,2.61-18.9,1.63-30.37,2.76,2.68-3.24-29.09-3.07-6.13-5.34-5.79-7.1-49.5,1.39-49.14-5.66-5.38,2.16-38,.91-50.2,4.71-2.71-3.1,17.62-2.13,17.58-4.25l-14.85,1V22.88c-28.44-1.79-33.74,6.85-50.63,8.16l.66-.82-11.47,1.14,13.47-5.71c-18.22.83-27.64,5.88-47.91,7l-2-1.8-12.21,2c2.07-.33,2.75-1.14,1.43-1.63-11.51,5.38-37.85,3.28-48.63,7.83-8.1-.8-14.93-7.5-25.72-2.92l2-6.67c27-.82,10.07,4.72,38.49,2.26-21-8.62-79.76-7.62-118.94-7-31.69,4.42-83.78-2.72-97.26,7.21l3.35-4.06L924.8,24.47c-45.29,1.66-91.9-1.43-126.35,4.1L789,25.18c-35.7,11.4-121.6,4.74-145.16,18.44-20.24-3.07,6.08-5.22,8.1-7.66-14.91-1.12-39.85,7.84-54.07,1.65,0-2.11,20.95-2,11.49-3.26-10.81-3.91-15.49,3.9-27.7-.48,5.41,4.06-19.58,8.8-37.76,9.61,3.35.17,3.35.17,4.78.65,2.65,3.1-10.89,2.46-18.32,2.93a4.69,4.69,0,0,1,2.7-1.14c-93.83,5.25-201.24,7.72-299.91,3.86l18.18-2.94c-14.17,2.27-39.22.66-47.28-.14l2.05-.32c-26.37-6.35-29.74,6.18-50-1.13l4-.66c-31.75.18-50.63-6.65-81.68-3.06-24.39-2.43-21.7-5.7-38.61-8.62-14.18.15-20.84,4.08-21.57,4.89l6.79.33c7.43,3.73-14.86,3.09-25,4.72,7.43,5.86,3.42,15,31.86,21,20.93-2,20.33,9.45,44,8.46,13.47-7.82,33.82,5.84,55.38-1.16-11.47,5.37,25.69,2.92,6.83,8.79,8.8,4.24,45.89-4.58,62.85.47-2.75,1.16-2.1,2.44-6.12,3.1,23.67-3.1,16.23,3.74,33.79,3.73l-.67-5.53c6.77-1.8,8.81,2.1,14.86,1.14-4.78-.66-14.86-3.26-9.54-5.54,8.11-1.31,14.89-3.11,23.64-3.11.1,2.12-6,3.09-10.13,3.75,0,0,19,.49,20.31,3.09-6.78,1.78-15.54,1.78-21.54,4.89,25,1.62,2,1.78,14.16,6.17-3.41-6.5,21.64-2.77,35.11-4.24,1.4,2.61-9.46.82-12.81,2.78,25.75,11.4,38.53-2,71.61.46-.67.81-4.72,1.47-6.77,1.79,15.59-1.79,26.43,4.23,36.53.47,14.9,1.14,2.72,7.35,25.71,7.17-6.76-6.67,27,1.29,27.64-5.87l17.62,4.21c15.57-3.9-4.15-12,26.28-12.71,27.7,2.61-2.63,11.75,13.57,15.47l6.77-3.91,13.54,2.77-2.06.33c8.12-1.3,22.94-.17,23,1.93-1.33,1.64-10.14,1.64-11.41,3.27,13.44-3.58,53.35,9.75,67.49-1,8,1.9,24.4,1.86,22.3,5.27,7.24-4.74,36,1.49,46.69-1.54-1.4,1.63,8.78,4.23,16.89,2.95-10.85-1.79-4.05-3.58,3.31-6.2,9.53,3.43,36.52.49,40.62,6.18,14.86-3.11,9.43-7.17,12.71-11.25,9.53,3.42,39.94,2.76,34.58,9.27-8.16-.79-26.41-2.1-23,2.3,15.53,2.42,6.74-1.8,19.53-2.45-1,1.19,8.71,4,6.25,5.91a158.28,158.28,0,0,1,28.93.45c-16.85-2.95,10.78-4.57.66-7.17l-16.18,4.73c-19.61.32-4.11-3.58-11.54-5.22,34.47-1.32,27.66-8,60.08-11.1,6.08,1.13,16.88,2.92,20.28,3.09-10.81.33-8.73,6.36-2.59,7.49,18.12-5.06,32.42,3.24,47.28,4.38-12.88-1.46-6.1-5.36-1.39-6.84,31.05-3.58,12.18,2.27,25.72,5,47.9-.66,78.37,7.15,116.83,3.07l-18.23-5.55-6.06,5.22c-14.21-4.07,2.62-11.73,10.71-15.14,2.05,1.79,25.72.8,16.27,3.74l23-2.28c-3.42-2.29-18.29-1.3-7.55-3.76,7.55,1.63,31.13,2.77,16.31,5.87,12.14.16,27.66-1.64,25-4.73,19.57-.32-2,6.68-10.75,8.8,15.5.32,13.51,4.87,8.82,6.34l21.57-.65c-4.7,1.45-4.7,3.57-9.38,5,14.18,2,24.31-3.9,36.43.5l5.42-4.42c39.18,3.59,35.16,4.23,71.67,4.72l-6.1-3.27c27.64-5.87,20.25,5.22,57.41,2.77,20.93-2,34.46-3.45,31.71-8.67,12.11-2,14.86,1.15,20.31,3.11,9.41-2.94,29.65-8.32,44.52-5.07-10.12,1.62-18.22,2.94-27.67,3.77,2.75,5.19,32.42,1.12,47.94,3.56,10.82-2.46,46-8.82,65.5-13.38-8.83-4.24-5.48-10.43,12.08-14.68-2.69,3.26,23.69,3.26,35.8,5.55-6,3.08,27.07,7.62,1.46,8.93-7.43-1.62-10.85-6-21-4.39,6.1,3.26,22.38,7,39.26,9.94-1.3,1.64-10.12,3.73-18.88,3.73C1509.72,107.55,1506.95,106.55,1506.27,105.25Z"/><path class="cls-1" d="M3950.35,40.09c-.93-.08-1.82-.17-2.75-.22l3.38,1.22C3949.85,40.67,3949.85,40.35,3950.35,40.09Z"/><path class="cls-1" d="M2033.29,107.2c1.33-.22,3.78-1,3.82-1.63A9,9,0,0,0,2033.29,107.2Z"/><path class="cls-1" d="M2401.44,103.66a3.74,3.74,0,0,1-.63-1.37C2400.51,102.61,2400.58,103,2401.44,103.66Z"/><path class="cls-1" d="M3974.17,76.93,3967.6,78C3970,78,3971.11,77.42,3974.17,76.93Z"/><path class="cls-1" d="M104.1,80.32l10.29-.18C113.45,79.81,110.62,79.79,104.1,80.32Z"/><path class="cls-1" d="M94.86,75.64c-.24,0-.64,0-.86-.06C94.13,75.78,94.39,75.77,94.86,75.64Z"/><path class="cls-1" d="M3389.13,2.81c3.8-.36,7.07-.84,8.86-1.59C3392.53,1.52,3390,2.12,3389.13,2.81Z"/><path class="cls-1" d="M2781.78,96.06a3.07,3.07,0,0,0,.43-1.34C2781.31,95.06,2781,95.5,2781.78,96.06Z"/><path class="cls-1" d="M224.47,78.18c-1.58-.11-3.2-.2-4.69-.35C218.82,79,223.31,78.89,224.47,78.18Z"/><path class="cls-1" d="M3546,8a3.63,3.63,0,0,0,1.25-1.26A3.72,3.72,0,0,0,3546,8Z"/><path class="cls-1" d="M596.54,100.19c1.39-.23,2.89-.35,4.36-.48A14.35,14.35,0,0,0,596.54,100.19Z"/><path class="cls-1" d="M2659.45,0a10,10,0,0,0-3.94,1.55C2657.92,1.25,2659.67.77,2659.45,0Z"/><path class="cls-1" d="M2657.52,13c30.92-3.76-6.61-7.51-2-11.48-8.25,1.07-25.83.33-17.53,3.34-16.2-8-49,4.42-66.54-1.93-.76.8,9.39,3.41-2.73,5.38-18.13.8-16.81-2.95-24.21-4.56-5.38,2.28-32.93,3.9-30.26,2.78-12.06,2,12.84,7.82-4,11.25-11.4,5.36-26.89.82-40.33,2.29-16.16-3.75,16.12-2.62,22.82-4.42L2447,18.14c-13.45-2.76,6-5.22,19.51-4.58-18.22-3.4-41.71-.29-47.09,4.1-11.43-1-17.48,0-28.24-1.78,10.71-2.45,10-10.11,26.82-11.41,27.61.48-10,5.87,13.48,7l2-4.58c10.07,2.6,18.09-.81,28.9-1.15,6,1.15-1.32,1.64-5.35,2.3,19.52-.35,35,2.09,49.78-3.12-26.3-4.22-65.93,1.49-77.43-3.73L2377,7.58c0,2.12,18.21,5.53,3.41,8.63-6.08-5.37-21.54-7.82-41.75-8.77,7.46,5.85-32.27,5.23-22.13,9.94,9.41-2.94,14.14,2,15.46,2.43-19.52.34-2.64,5.39-13.38,5.71C2283,24.22,2320,21.77,2285,19.67a240.92,240.92,0,0,1,45.67-10.94c-1.35-2.6-19.43.35-27.61-2.6,11.48,3.09-8,5.54,1.42,6.85-28.27,2.45-61.2,8.5-95.48,9.81,5.34-8.65,57.8-6.54,47-16.8-16.8,1.32-16.74,5.54-30.22,4.9-11.43-5.2-39.66-.63-62.58-.47L2173.28,13c-8.72,2.13-24.84.5-35,0l2.64-1.15-10,1.64c-1.56-.22-1.92-.5-1.9-.82-11,2.68-39,.11-60,1.65,0,4.23,20.84.17,30.91.65,2.74,1,22.2,2.76,12.78,5.68-26.13,0-44.32,5.08-73.9,4.94l9.41,1.28c-9.41,2.94-22.17,1.48-36.27,1.66-25.61-2.92,18.81-5.88,3.29-8.33,10-3.74,27.57.49,30.23-4.88l-16.12-5.87c-13.48,3.58-28.31-1.78-37.76-1l10.14,2.6c-2,4.57-11.4,1.14-16.15.49l6.82,6.67c14.76,1.15,24.85-4.72,35.59-.83-26.19,2.13-20.15,7.52-51.72,7.67-1.42-2.6,6.08-1,9.36-2.92-10.78-1.79-22.13,3.58-39.61,1.47,10-1.63,26.2-4.25,13.38-7.82l-9.37,5c-8.07-.8-4.76-2.76-8.07-2.92-11.48-1,2.64,5.22-15.49,3.92-2.7-1-8.72-2.12-6.08-3.26-20.84-.18-10,1.63-29.5,4.07,17.44,0,18.11,7.64,0,8.47-25.56-.81-43,3.43-60.54-2.91l-11.43,3.26c7.34-4.73-16.18-1.63-24.27-2.43-2.68-5.22,38.34.15,38.34-8.32-16.8-.82-9.48-3.42-4.06-5.7-18.2.8-6.73,6-14.77,9.44,0-2.12-31-.64-20.24-5.21-15.46-.31-18.13,5.06-29.53,4.08,1.72-2.08,3.7-4.75,2.61-7.43-1.35,1.76-16-.4-18.79-.56,2.67,1-5.35,4.42,8.08,2.95-3.35,4.07-31.63.17-30.89,3.59-1.4-4.71-28.95-1-43.06-2.92,1.39,11.08,26.18-4.24,30.92,4.88-18.79,3.76-63.22.36-93.48,5.25-26.19-2.11,0-4.24-5.36-8.32,24.16-1.8,30.24,1.46,51.12-.51-22.89-1.92-60.53-.78-77.32,2.64-24.94.49-27.68-11.05-57.94-8.28,4,3.56,3.36,4.39,12.82,5.71-8.06,1.28-17.51,0-26.23,0-5.35,2.27,13.48,2.74,1.38,4.72-4.72-.66-14.8-1.15-12.81-3.58l2-.33c-28.9,3.26-20.9-8.63-45.74-1.79,2,1.79,7.4-.48,13.48.67,4.69,2.75-10.71,6.65-22.2,7.81,2.06-2.45-10.07-.48-18.12-1.29-5.4-4.08,20.18-1.16,24.2-3.92l-22.22-.64,4.68.64-24.16,3.92c16.84-1.31,8.08,5,.69,5.54-16.78-.81-33.63-1.62-31.61-6.18-2,4.57-22.86,4.4-37.66,5.39,16.15,1.63,2,3.9-2.64,5.38l-24.23-4.55c25.55-1.31-5.39-4.08.62-7.18,7.37-4.73,22.86-2.3,36.34-1.65-26.3-8.46-37,4.57-59.88.53,0-2.12,2-4.57,12.08-4.1-4-1.44-20.85,4.1-36.33,1.66,4.06,1.47,12.81,5.7-2.61,7.49l-20.22-5.2c-23.55-1.14-8.05,5.54-27.51,8l12.75,3.58c-2,4.57-26.22,0-26.85,5.06,12.08.16,18.84-3.75,31.54-2.3,4.79,4.9-16.12,2.62-23.41,5.24-26.28-2.12-20.87-2.29-40.43-6.19-.72-7.65,32.27-9.46,28.1-19.4-25.53,1.32-62.52,3.77-79.31.85-22.87,2.28-20.8,8.31-17.43,12.71a64.24,64.24,0,0,1-20.18-1l10.73-2.46c-28.24,2.46-44.35,5.08-74,4.91-16.74,1.32-10,5.88-6,9.46l-18.16.83,2.76,1c-4.05,4.89-20.19,3.26-32.29,3.1,0-2.11,7.36-2.61,6.67-3.91-10.73-1.78-26.9-1.29-35.61.83,0-2.12,7.34-6.84,20.12-5.38,1.35.49.69,1.29,2,1.8L987,37.68c-24.87,2.61-39.71-2.76-39.07-7.81C923,32.48,968.16,35.08,938.56,37c-39-9.91-74,2.79-95.59-11.37-18.11,2.94-39.62,7.84-67.88,8.17,0,4.24-18.86,1.64-16.12,6.86,27,5.52,50.4-8.17,72-.36,12.05-2,8-5.54,13.41-7.81,10.7-.34,20.81.14,22.2,2.75-24.88,2.62-6.68,10.26-38.27,10.43,4,3.59,29.62,2.28,41,3.25-3.34,2,.07,4.23,7.47,5.86-8.1,3.42-26.18,6.36-35.59,9.31,3.32-2-2.76-3.1,0-4.25l-32.94,6c-10.11-2.59-12.85-5.7-7.43-8-18.2-1.29-49.06,4.41-49.15-1.94-23.52,1,7.46,3.75,9.48,5.55l-2,.32,24.88-.5c2.74,7.34-28.27-1.78-32.25,5.24-3.92,13.35-35-4.23-52.48-2.12l20.15-9.61L701.91,57c10.07-3.75,10-10.09,25.46-14-24.17-.31-58.52-3.23-74-1.43-6-3.27-8.71-6.37-6-9.61-24.21,6-37.69-3.09-58.56-3.24-22.14,3.58,22.22,4.88,6.11,9.61-6.7-2.44-18.83-.48-24.87.49,6.71-1.78,30.27,1.46,46.44,3.09-12.13-.17-10.78,4.55-14.15,6.5l20.22,1c-1.32,5.86-24.87.47-34.25,3.43,6-5.22,2.67-5.38,8.66-10.59-17.48,2.12-43.71,2.12-58.54-1.12-8.75-2.12,7.37-2.61,12.1-4.08-4-3.58-17.47,2.13-20.85-2.29,2.68-3.25,10.73-.32,16.82-1.3l-51.13-1.62c0-2.1,12.75-2.77,20.8-1.95-15.49-2.44-26.88-1.28-45,5.88-17.48-2.12-37.64-5.19-31.68-8.29-8.05,1.3-2.67,3.25-2.61,5.38-23.58-1.14-26.19,6.36-40.3,6.52l10.71,3.9c-22.84-4.06-5.31,6.52-25.49,3.43,3.29-4.07,2-8.78-1.42-13.19-3.34,4.07-16.15.49-24.88.49,5.42,4.08-18.78,3.75-4.66,7.82-20.21,3.28-29.59-2.26-44.39,3C315.76,46,288.92,49,297,51.91c-19.55.32-33-4.56-27.68-9,6.76.33,17.57,2.12,16.81-1.3l-35.6.82c-8.82-2.11-20.19-3.07-21.6-7.79-11.39,5.38-33.62-3.75-42.34,2.62,12.08-4.09,21.56,1.44,26.19,2.1l-5.52.9a21.42,21.42,0,0,1,2.87.24l-15.38,8.15c14.79,3.24,2.63-5.37,23.54-5.21,18.12,7.63-41,11.55-22.15,16.29,15.45,2.44,12.74-4.89,25.49-7.67l-3.34-.17,28.91-3.26c1.35,2.6-7.4,4.73-7.4,4.73,35,0,40.42,4.05,78.08,5-2.73-1-10.12-9,6.68-10.28,12.06-2,13.46,2.77,23.5,3.27-6,1-11.4,5.38-19.45,2.44l.66,5.54c-28.2,6.68-13.41,12.06-51.72,14-1.75,4.06-29.52,6.17-50.37,5l10.11,3.65c-21.48,7-4.06-5.7-31.61.17-11.46-7.33-32.4-15.94-16.94-22-19.52-1.77-26.19,2.13-43.74,2.13-10.76-6,5.38-6.52,3.35-12.54-12.82.67-28.94,3.27-19.44,6.68l-24.29-2.42c-.64-1.3,8.05-1.3,11.46-1.15-9.45-1.3-27.59,1.64-32.93,3.92,2-.32,8.09-1.31,10.73-.32-10.08,1.62-28.22,4.57-29.54,6.19,14.77-3.09,16.12,3.75,31.58-.17-1.32,1.62-4,4.89-12.06,4.08,12.79,3.58,25.56,2.93,30.94,7-10.79-3-17.7,1.37-20,2,9.67,1.17,28.95,0,35.44-1.69,1.42,6.83,37.65-1.16,24.94,5.85,2-2.44,16.15-2.6,23.57-1-.68,3-19.47,4.57-27.54,8-37.68,3.28.66-5-8.13-7.17l-28.75.5c2.89,1-11.51,4.78,7.25,4.39-8.72,4.25-26.85,7.19-41.64,3.93-3.41,2,7.39,1.63,10.73,1.79-3.34,2-21.48,9.14,2.07,10.26-6.73-.32,11.43-3.26-.69-5.54,9.41-.81,35,2.1,24.86,5.86,11.46-1.14,33-3.93,42.38-4.75,2.71,3.11-8.06,1.31-12.78,2.78l33-1.81-9.45-3.41c24.19,2.44,39.64-5.71,59.12-8.18-2.67,5.39-18.83,5.88-31.58,8.65,12.2,6.52,8-3.41,28.24-2.44,2.71,1,3.41,2.28,2.09,3.92l16.08-4.74c4.7.65,2,1.81,0,2.12,27.58-5.88-.69-7.66,36.31-10.12-22.27-2.75-18.9,3.75-37.66,3.26-10.83-3.9,21.44-7,26.86-9.27,18.12,1.29,20.2,9.41,43.06,5-16.12,2.61-.66,5.06-23.52,5.23-12.78,2.77,6.75,2.43,9.42,5.53,6-1-4-5.7,12.78-4.89l-.66.8,27.52-5.86c25.62,2.92,57.8-6.54,75.34-.19l-4.06-5.7c16.12-.48,39-.66,50.41-1.81-2.64,3.26-13.42,3.58-24.84,4.73a285.23,285.23,0,0,0,73.94-7c-14.16-4.07-16.2-3.74-29.65-6.5,18.79-8,22.25,4.89,46.47,1,.66,5.54-7.4,4.73-1.35,10.11,10.07-3.77,26.92-3,38.35-6.22,6.08,5.38-4.64,10-29.52,10.45-18.86-4.73-39.68,3.58-55.2-1l9.44,3.43c-18.86,1.63-30.25.65-46.37,3.26l.65-.82-8.05,5.54h8.72c-6,3.11-24.15,8.16-29.54,8.32,26.94-.83,28.87-9.62,41.63-14.52,24.23.33,33.72,10.09,49.84,5.36,1.32,2.63,14.83,5.39,4,7.82-13.41,1.49-22.86-1.94-24.18,1.82,14.13-.17,8.75,2.11,30.25,1.44,4.06-4.89,20.15-9.63,35.54-13.54,16.16-2.62,37-2.46,49.85-1-16.16.48-32.28,5.21-28.21,8.8,9.41-5.07,31.61,4.05,26.85-2.94,18.82.47,50.47.3,52.52,6.33-17.8,2.24-35-1.43-50.14-.13,4.15.14,8.22,1.66,5.78,3.08l-22.22-.65c16.81,2.93,13.48,4.89,35,4.23-1.35-.49-4.06-1.46-2-1.77,5.36-.17,12.11.14,17.52,0l.66,5.54c16.12-2.6,47.13,4.39,76.66.31l-2.65,1.14c23.54,1.14,25.51-9.78,51.08-11.1-7.4,2.6-4,4.9-2.68,7.5,12.75-2.78,19.52,1.78,32.33,3.24-14.85-3.24,10-5.85-.75-7.64-.73-5.55,25.56-5.56,39-4.91,8,7.16-41.7,3.93-21.47,11.24,13.43.65,16.8-3.41,7.34-4.72,16.82.82,42.39,1.61,54.54,6,20.11-5.39,28.17-2.46,41-9.46-10.76.32-11.4,5.38-24.9,2.61l14.79-5.21c19.49-.34,35,4.22,48.45,4.86l-14.13,2.3.69-.83c-5.38,2.29-23.55,1-21.5,4.89,12.75-4.87,22.89-.15,39.67-3.58l-.66.82c29.57-4.08,51.17,8,69.92-2.15-5.38.17-16.18-3.74-12.81-5.68,6.78,2.43,24.91,1.61,24.26,4.55l-6.07,1c16.81.8,26.92,1.29,33,.31,4.66-3.58-.1-6.36,12-8.32,29.62,2.27-12,8.32,8.13,11.42l27.58-3.76,6.08,3.26c41,3.25,72.59-7.53,116.29-7.54.69,5.55-30.9,7.83-41.65,8.18,13.48,4.88,32.93-1.8,51.09,1.62,16.86.8,29.57-4.08,26.89-7.18,20.8-2,14.81,3.26,17.47,4.22,6.75-6,33-3.9,49.74-5.21l.77,3.4,26.19-4.22c-6.73-.35-.7-3.42-.71-5.53l6.71.32c-25.62-9.29-57.79,6.52-84.09-4.06,8.05-1.3-2.74-3.1,5.35-4.4,6.7.34,8.06.82,8.75,2.13,4-2.77,14.77-5.23.64-5.05.66-7.17,28.93-5.4,48.38-7.84,15.49,4.57-16.12,6.87-24.15,10.28,7.4-.5,13.47-3.61,24.21-1.81l-2.64,5.37c26.86-2.93,7.34-4.7,13.41-9.92,7.31-6.85,24.19.31,31.58-.18L1380.7,82c20.83,2.28,25.53-3.43,44.32-3l8.82,4.26c-23.62-5.38-28.86,7.49-42.34,4.74,34.32,5-7.37,11.07-18.1,15.64,14.83-1,28.24-.34,36.31,2.59,21.53-7,45.12,2.59,65.89-5.73,11.43,1-10,3.76,2.06,3.92A438.24,438.24,0,0,0,1546.9,101c12.15.16,10.08,2.6,13.48,4.87,58.53,3.24,81.36-9.63,145.27-6.56l-9.38,2.94c13.41.65,24.88,1.63,31.54-2.3,16.89,9.29,57.18-5.71,78.71,4.22,28.27,1.78,29.59-6.2,51.8-7.68,0,2.12-6.74,6.06,4.75,7,72.59-3.29,137.86-4,217.87-5.62-.66.81-4.7,1.47-6.71,1.79,51.79.8,102.85-8.17,145.89-5.24,8.09-1.32,32.27-3.12,24.85-6.87-10.06-.5-11.44-5.2-10.78-8.13,38.31-4.1,18.83,6.82,44.41,5.51,8.1,7.17-16.12,4.74-16.12,11.09l37-4.57c20.85,2.26,41.69-1.8,59.85,1.59-8.09-.8-2.64,5.37-16.12,2.62,2-.32.68-.8,2.71-1.15-31-.62-16.85,3.44-44.43,5.07,24.24-1.81,57.17-3.61,78.71-2.15-4.73-4.87,17.47-2.11,23.52-5.21l1.35.49c0-2.12,13.38-3.58,17.48-4.24l5.38,6.19c9.45-.82-2.68-3.1,6.73-3.9,13.38-1.47,61.21-2.16,64.57,4.37,16.19-.5,20.87-4.09,37.63-3.26-1.32,1.63-5.35,2.27-6,3.09,35.6,1.29,79.33-.82,113,2.9,27.51-1.64,51.06-2.62,68.5-6.86-7.39.49-28.94-1-15.46-4.55,7.4-2.61,18.81-1.63,30.23-2.76-2.67,3.24,29,3.07,6.11,5.34,5.76,7.1,49.28-1.39,48.92,5.66,5.35-2.16,37.82-.91,50-4.71,2.7,3.1-17.54,2.13-17.5,4.25l14.78-1v2.11c28.31,1.79,33.59-6.85,50.4-8.16l-.65.82,11.42-1.14-13.41,5.71c18.13-.83,27.52-5.88,47.69-7l2,1.8,12.15-2c-2.06.33-2.74,1.14-1.42,1.63,11.46-5.38,37.68-3.28,48.41-7.83,8.06.8,14.87,7.5,25.6,2.92l-2,6.67c-26.88.83-10-4.72-38.31-2.26,20.87,8.62,79.4,7.62,118.41,7,31.55-4.42,83.4,2.72,96.82-7.2l-3.34,4.06,53.11,3.41c45.09-1.66,91.48,1.43,125.78-4.1l9.43,3.4c35.54-11.4,121-4.74,144.5-18.44,20.15,3.07-6,5.22-8.06,7.66,14.84,1.12,39.67-7.84,53.83-1.65,0,2.11-20.85,2-11.44,3.26,10.76,3.91,15.42-3.9,27.58.48-5.38-4.06,19.49-8.8,37.59-9.61-3.34-.17-3.34-.17-4.76-.65-2.64-3.1,10.84-2.46,18.24-2.93a4.66,4.66,0,0,1-2.68,1.14c93.41-5.25,200.33-7.73,298.56-3.86l-18.1,2.94c14.1-2.27,39-.66,47.06.14l-2,.32c26.25,6.35,29.6-6.18,49.8,1.13l-4,.66c31.61-.18,50.4,6.65,81.31,3.06,24.28,2.43,21.6,5.7,38.43,8.62,14.12-.15,20.75-4.08,21.48-4.89l-6.76-.33c-7.4-3.73,14.8-3.09,24.87-4.72-7.4-5.86-3.41-15-31.71-21-20.83,2-20.24-9.45-43.76-8.47-13.41,7.82-33.67-5.84-55.13,1.16,11.42-5.37-25.57-2.92-6.8-8.79-8.76-4.24-45.68,4.59-62.57-.47,2.74-1.16,2.09-2.44,6.09-3.1C3939.57,37.86,3947,31,3929.49,31l.66,5.53c-6.74,1.8-8.77-2.1-14.8-1.14,4.76.66,14.8,3.26,9.5,5.54-8.08,1.31-14.82,3.11-23.54,3.11-.1-2.12,6-3.09,10.08-3.75,0,0-18.9-.49-20.22-3.09,6.75-1.78,15.47-1.78,21.44-4.9-24.84-1.62-2-1.78-14.1-6.17,3.39,6.5-21.54,2.77-34.95,4.24-1.39-2.61,9.41-.82,12.75-2.78-25.64-11.4-38.36,2-71.29-.46.66-.81,4.7-1.47,6.74-1.79-15.52,1.79-26.31-4.23-36.37-.47-14.83-1.14-2.71-7.35-25.59-7.17,6.73,6.67-26.92-1.29-27.52,5.87l-17.54-4.21c-15.49,3.9,4.13,12-26.16,12.71-27.58-2.61,2.61-11.75-13.51-15.47l-6.74,3.91-13.48-2.77,2-.33c-8.08,1.3-22.84.17-22.88-1.93,1.32-1.64,10.1-1.64,11.36-3.27-13.38,3.58-53.11-9.75-67.18,1-7.94-1.9-24.29-1.86-22.2-5.27-7.21,4.74-35.82-1.49-46.48,1.54,1.39-1.63-8.74-4.23-16.81-2.94,10.8,1.79,4,3.58-3.29,6.2-9.49-3.43-36.36-.49-40.43-6.18-14.8,3.11-9.38,7.17-12.65,11.25-9.48-3.42-39.76-2.76-34.42-9.27,8.13.79,26.29,2.1,22.86-2.29-15.46-2.42-6.71,1.8-19.45,2.45.95-1.19-8.67-4-6.22-5.91a156.85,156.85,0,0,1-28.8-.45c16.77,2.95-10.73,4.57-.66,7.17l16.11-4.73c19.52-.32,4.09,3.58,11.49,5.22-34.31,1.32-27.54,8-59.8,11.1-6-1.13-16.8-2.92-20.19-3.09,10.76-.33,8.69-6.36,2.58-7.49-18,5.06-32.27-3.24-47.07-4.38,12.82,1.46,6.08,5.36,1.39,6.84-30.91,3.58-12.13-2.27-25.6-5-47.69.66-78-7.15-116.3-3.07l18.15,5.55,6-5.22c14.14,4.07-2.61,11.73-10.66,15.14-2-1.79-25.6-.8-16.2-3.74l-22.88,2.28c3.41,2.29,18.2,1.3,7.52,3.76-7.52-1.63-31-2.77-16.24-5.87-12.08-.16-27.54,1.64-24.87,4.73-19.48.32,2-6.68,10.71-8.8-15.43-.32-13.45-4.87-8.78-6.34L3043.58,7c4.68-1.45,4.68-3.57,9.33-5-14.12-2-24.2,3.9-36.27-.49l-5.39,4.42c-39-3.59-35-4.23-71.35-4.72L2946,4.47c-27.52,5.87-20.16-5.22-57.15-2.77-20.83,2-34.31,3.45-31.57,8.67-12.06,1.95-14.8-1.15-20.22-3.11-9.37,2.94-29.52,8.32-44.32,5.07,10.07-1.62,18.13-2.94,27.55-3.77C2817.52,3.37,2788,7.44,2772.54,5c-10.78,2.46-45.75,8.82-65.21,13.38,8.79,4.24,5.45,10.43-12,14.68,2.68-3.26-23.58-3.26-35.63-5.55,6-3.08-27-7.62-1.45-8.93,7.4,1.62,10.8,6,20.9,4.39C2673,19.7,2656.85,16,2640,13c1.29-1.63,10.07-3.74,18.8-3.74C2654.09,10.73,2656.85,11.72,2657.52,13Z"/><path class="cls-1" d="M224.47,78.18c.93.08,1.82.17,2.74.22l-3.36-1.22C225,77.6,225,77.92,224.47,78.18Z"/><path class="cls-1" d="M2132.88,11.07c-1.32.22-3.76,1-3.8,1.63A8.92,8.92,0,0,0,2132.88,11.07Z"/><path class="cls-1" d="M1766.39,14.61A3.75,3.75,0,0,1,1767,16C1767.31,15.66,1767.24,15.25,1766.39,14.61Z"/><path class="cls-1" d="M200.75,41.35l6.54-1.06C204.91,40.27,203.79,40.85,200.75,41.35Z"/></g></g></svg>
