<svg id="Layer_1" data-name="Layer 1" xmlns="http://www.w3.org/2000/svg" viewBox="0 0 2480 100"><defs><style>.cls-1{fill:#ef3940;}</style></defs><title>Artboard 1</title><polygon class="cls-1" points="79.91 58.31 77.75 59.16 95.74 57.06 79.91 58.31"/><path class="cls-1" d="M194,58.34c-10.79-3.57-41.36.58-61.69-.69L129,56.83l-9.17,2.88C144.54,59.26,176.64,57.35,194,58.34Z"/><path class="cls-1" d="M254.9,66.06c-3.76-1.39,13.16-1.19-14.19-.43,1.37.15,1.77.24,2.57.35C245.74,66,249.13,66,254.9,66.06Z"/><path class="cls-1" d="M243.27,66c-12,.1,7.86,1.16,0,0Z"/><path class="cls-1" d="M298.78,65.19,283,66.43c3.31.82,17.4,1,12.16,1.6C311.36,67.35,308,66.53,298.78,65.19Z"/><path class="cls-1" d="M313.79,62.58l-8.21.52C307,63.45,309.2,63.57,313.79,62.58Z"/><path class="cls-1" d="M288.19,64.21l17.4-1.11c-2.29-.58-2.54-1.73-8,.4C299,62.45,295.58,63.47,288.19,64.21Z"/><path class="cls-1" d="M278.34,63.67c-8.88-.78-20.35-1.27-4.46-2.5C243.59,61.66,248,64.17,278.34,63.67Z"/><path class="cls-1" d="M199.87,54.65,188,53.6l-10.27,1.2C182.85,54.21,200.6,55.77,199.87,54.65Z"/><path class="cls-1" d="M397.41,67c1-.76-5.32-2-6.5-3l-11.69.87C385.22,65.43,396.62,65.91,397.41,67Z"/><path class="cls-1" d="M390.91,64l17.5-1.3C392.77,62.58,389.92,63.2,390.91,64Z"/><polygon class="cls-1" points="316.62 58.62 287.87 61.36 322.16 58.58 316.62 58.62"/><polygon class="cls-1" points="464.24 67.13 454.32 68.89 471.99 66.23 464.24 67.13"/><path class="cls-1" d="M508.57,66.82c-7.34,1.46,10.06,2.46,2.3,3.36a305,305,0,0,0,31.58-2.64A219,219,0,0,1,508.57,66.82Z"/><path class="cls-1" d="M558,65.91c-4.91.35-10,1-15.55,1.64C547.67,67.21,552.81,66.72,558,65.91Z"/><path class="cls-1" d="M438.21,63.11c1.35.46,4,1.66,13.77,2.17l-6.88-2.14Z"/><path class="cls-1" d="M444.86,63.07l.24.07,14.87.12Z"/><path class="cls-1" d="M436.47,63.1h1.73A2.17,2.17,0,0,0,436.47,63.1Z"/><path class="cls-1" d="M362.49,60.55c10.28-1.19,31.71-2.47,11-4.3C366.08,57.72,378,58.75,362.49,60.55Z"/><path class="cls-1" d="M427.93,60.43l-18.58-.49c.37.56,3.72,1.39-1.37,2Z"/><polygon class="cls-1" points="437.03 59.75 427.93 60.43 434.82 60.61 437.03 59.75"/><path class="cls-1" d="M526.16,63.91c8-.93,16.81-1,26.73-1.16-10.63-.42-21.62-.65-32.06-.64C519.35,62.78,514.76,64,526.16,63.91Z"/><path class="cls-1" d="M486.65,63.32l1.78-.12C487.34,63,486.46,63,486.65,63.32Z"/><path class="cls-1" d="M650.55,62.76c-.54-.12-1-.27-1.57-.39a4,4,0,0,1-.37.37Z"/><path class="cls-1" d="M519,61.71a80.6,80.6,0,0,0-17.32.77c6-.21,12.31-.35,19.1-.37C521.49,61.81,521.61,61.61,519,61.71Z"/><path class="cls-1" d="M585.24,64.91c-4.16-.45-8.88-.83-13.84-1.17C575.47,64.41,583.76,65.47,585.24,64.91Z"/><path class="cls-1" d="M491.13,63.79l-1.2.1C492.55,64.33,492.22,64.11,491.13,63.79Z"/><path class="cls-1" d="M491.13,63.79c4.11-.31,7.35-.84,10.59-1.31-4.86.17-9.38.4-13.29.72A21.76,21.76,0,0,1,491.13,63.79Z"/><path class="cls-1" d="M680.13,49c-1.41,2-22.42,3.81-40.56,1.69-17.85,1.48-6.18,8,9.4,11.64.55-.86.55-1.66,18.92-2.83-6.43-1.08-40.75-2.53-25.26-4.32,24.33-1,19.93.7,31.76,1.75-10.05-2.47,31-3.59,25.65-7.22L678.73,51C678.33,50.47,686.06,49.57,680.13,49Z"/><path class="cls-1" d="M614,62.18l-7.56.25c8.62.34,14.78,1.14,26.14,2.69,12.57-1,15.18-1.7,16-2.36l-37.21-.28Z"/><path class="cls-1" d="M572.5,62.43c5.9-2.15,24.05-3.07,12.94-5.4-22.18.15-15.54,1.8-28.79,2.74,35.79-.54-10.28,1.2,15.58,2.42-7,.37-13.36.48-19.33.57,6.45.26,12.66.59,18.51,1l-.82-.13h-.17s0,0,0,0c-1.54-.27-2.05-.44-.31-.28.12,0,.55,0,.75,0a4.29,4.29,0,0,1,1.62-.81c10.37.44,1.63.56-1.62.81-.12.11-.4.21-.43.33l.13,0,35.85-1.18C598.84,62.12,589.34,62.18,572.5,62.43Z"/><path class="cls-1" d="M392.58,51.62c1.11.19,1.06.34,1.15.5C396,51.86,396.93,51.68,392.58,51.62Z"/><path class="cls-1" d="M407.33,52.92a56.46,56.46,0,0,1-13.25.94c-7.35-.65,0-1-.35-1.74-5.11.57-17.87,1.54-1.86,2.6l2.54-.3c14.43.74,33,3.43,30.46,3.72C420.65,56.2,416.94,54.83,407.33,52.92Z"/><path class="cls-1" d="M490.94,57.13l29.85-1.06-15.2-1.86.77,1.12C489.39,54.89,493.05,56.26,490.94,57.13Z"/><polygon class="cls-1" points="653.96 63.84 650 66.11 667.25 62.9 653.96 63.84"/><polygon class="cls-1" points="692.76 63.57 691.33 65.54 701.57 64.35 692.76 63.57"/><path class="cls-1" d="M2077.9,62.76l-8.77.56C2073.28,63.15,2075.95,63,2077.9,62.76Z"/><path class="cls-1" d="M2141.41,62.9l1.56-1C2140,62.46,2138.82,62.86,2141.41,62.9Z"/><path class="cls-1" d="M1645.6,63.34c12.78,1.85,27.05,4.71,25.51,2.49l-3.92-2.17A170.39,170.39,0,0,1,1645.6,63.34Z"/><path class="cls-1" d="M2298.17,50.39l-3.74-.66-8.63,2.07Z"/><path class="cls-1" d="M2307.18,41.41l16.85,1.4C2320.24,42.33,2314.82,41.86,2307.18,41.41Z"/><path class="cls-1" d="M1731,65.06l-10.24,2.21C1736.82,67.26,1729.77,66.15,1731,65.06Z"/><path class="cls-1" d="M1090.12,62.76c11,.85,19.8,1.21,27.51,1.31C1104.34,62.83,1093.63,61,1090.12,62.76Z"/><path class="cls-1" d="M2102.89,39.74c-5.37.39-7.66.83-7.5,1.32C2100.91,40.69,2104,40.28,2102.89,39.74Z"/><path class="cls-1" d="M1149.47,64.07c-1.94-.22-3.85-.33-5.83-.51-8.06.36-16.17.66-26,.52C1127.44,65,1138.67,65.57,1149.47,64.07Z"/><path class="cls-1" d="M473.07,63.27c-.91-.09-2-.14-2.85-.26C469.94,63.3,471.21,63.32,473.07,63.27Z"/><path class="cls-1" d="M106.58,41.38c3.61-.14,9.5-.14,15-.17C118.93,41.06,114.39,41.08,106.58,41.38Z"/><path class="cls-1" d="M848.86,64.51c-8.23.14-1.3.24,0,0Z"/><path class="cls-1" d="M808.85,55.93c1.75-.24,3.08-.55,3.29-1.06A7.27,7.27,0,0,1,808.85,55.93Z"/><path class="cls-1" d="M1231.44,50.57h.71C1229.7,50.15,1230.12,50.23,1231.44,50.57Z"/><path class="cls-1" d="M836.48,63.53c3.09.27,6.65.49,10.52.64C845.3,64,842.11,63.79,836.48,63.53Z"/><path class="cls-1" d="M838.15,64.55,831,64.34C829.92,64.7,830.84,64.93,838.15,64.55Z"/><path class="cls-1" d="M860.32,64.39c-4.71,0-9.09-.07-13.32-.22,1.62.15,2.29.27,1.86.34Z"/><path class="cls-1" d="M1147.09,57.46c-.54-.07-1.17-.11-1.76-.2C1137,58.16,1140.67,58,1147.09,57.46Z"/><path class="cls-1" d="M1859.76,40.82c-.39,0-.59.08-.94.1L1860,41Z"/><path class="cls-1" d="M1889.31,39.2c-12.58,2.7-19.74,2.37-29.28,1.8l9.78,6.25Z"/><path class="cls-1" d="M1925.83,63.39l20.75,2c-25.05,3.21-43.18,2.1-23.69,4.84,2.94-6.79,80.67-.69,83.56-7.48l13.68,1.43c-3.92-.07-4.55.33-8.42.27,26.61,3.25,19.77-4.91,54-3.94,11.95.52,20.29,1.51,12.14,2.31l26.62-1.68c7.75.13,5.85,1.31-1.86,1.18l40.61-.54-.3.2c5.79-1.06,18.92-2.71,25.33-3.41,10.32,1-5.18.72-2.54,1.56l22.48-1.64c9.16,1.76-9.48,3.47-25,3.22,21,6.78,18.65-1.71,64,2.25l-21.23.86c13.69,3.85,30.25,2.45,54.26,4.86-5.69-1.25-48.05-6-23.65-7.74a157.91,157.91,0,0,0,29.1-.61c.12,2.42,13,1.82,29.06,1.68l-1.1,3.2c17.39-.92,16-2.55,26.25-4,19.38.32,23.4,2.79,28,4.88,31,.51-21.43-4,15.3-4.58,25.81,1.22,43.94-.08,74.81-2,18.07,1.11-3.16,2,3.32,2.87l16-2.55c3.92.06,2.65.84,2,1.24,13.06-1,1.87-3.06,20.67-4V43.73c-.34,0-1,.06-1.65.09-5.72,3.52-43.55-5.15-69.81-1.15-6.47-.91,3.12-2,1.15-3.2-36,2.63-30.88,1.91-60.46,5.44l-25.2-2.1c18.52,2.4-5.14,5.24-25.86,7.58,6.57,1.16,12.18,2.18,15.95,2.66L2281,54.77c-4-.52-.66-1.62,4.75-3-2.25.26-4.39.53-6.06.77-11.82-1.18-5.69-3,2.78-4.82,4,.63,8,1.3,11.91,2,8.17-1.94,15.81-4.1,14.11-6a100.33,100.33,0,0,1-10.84.87c2.14-.53,3.5-1,2.51-1.32s-4.57.37-10,1.19l-7.52-3.57-1.82,1.42-43.26-2.23c-31,3.59-57.88,8.87-107,10.34,12.19-2.61,2.62-4.27,3.28-7.37,13.4,3.28,38-1.39,63.51-.73-13.29-.34-10.36-1.83-7-2.34L2145,43c1-2.54-9.64-1.9-21.51-2.95,9,5-33.85,3.34-52.32,4.87-1.15-1.68,3.28-3.4,25.83-3-24.87-3.77-32.14,5.88-56.55,2.68,5.51,0,8.47.22,10.65-.64-12.86,1.5-44.29.31-36.89-1.15l5.49,0c-36.54-.59-111.24,0-116.69,4.22-.37-.55,4.79-5.13,7-6l-65.2,14.31c5.74-3.65-16.31-12.35,14-14.42a259.74,259.74,0,0,0-37.81.17c5.94.52,14.79,5.28,6.68,5.61-22.26-4.07-15.46-2.17-42.9-5.64,8.9.78-1,6.51-15,6.33,2.19-.86-1.17-5.65,4-6.25l-35,5.62c8.73-1,1.54-4.77-6.29-6.36,3.63,1.1-30.26-.1-39.58.46l14.83,1.31c-39.51-.85-39,7.91-78.22,7.61,4.75-1.16,11.72-7.15-8.21-7.85-9.13,2.88-40.45,13.85-75.13,16.07l-6.65-1.65-26.61,1.88c16.57-4.33,63.07-13.45,88.46-17-14.78-1.3-4.12-1.94-26.26-1.79-7.82-1.54,12.07-2.34,18.58-2.43l-51.55-1c2.29,3.36-39.42,3.37-37.46,6.17l56-3.48c2.27,3.36-32.38,9.54-68.9,8.95-9.29-1.34,6.95-6,6.19-7.11-4.74,1.16-34.67,2.21-38,1.39l15.5-1.8c-20.33-1.26-33.19,4.46-57.62,1.25-8.43-.22-25.18-4.33-26.64-2.34,13.76,3.84,16.44,15.7,7.28,18.58-3-.26-44.29-3.67-53.92-5.56-13.89-3,20.85-7.17,9-9.75-.51.92-8.18,2.05-11.38,2.42-8.86-.78,3.67-2.85-15.58-2.43-3.21,3.4-39.15-.29-9.1,2.88-18.83,1-20-.7-42.12-.55,7,2.2-19.85,7.49-38.71,8.47,1.11-.87-3.12-2-5.18-2.51-38.59-.31-59.31-1.86-95.3-1.88-3.32-.83-20.68-1.83-13.29-3.29-5.18.6-9.93,1.76-21,1.84-21.48-2.95,24.75-.46,8.37-4-1.4,2-28.71,2.74-44.52,4,4.86,3.06,36.53.59,52.36-.65.07,4.22-27.49,8.64-65.1,10.59-29.89,1-13-2.73-18.15-2.13-56.15-.74-47.84,7.37-94.46,4.32-18.5-2.69-.84-5.34-4.94-7.28,24.35-1,37.39,1.71,53.89,1.6L969,52.38c7.75-.9,24-1.57,32.86-.79-15.51-2.41-94.86-.46-138.19-2.69-7.7.9-21,1.83-14.69,2.91l13.71-.37c12.6,2.17-25.8,3-8.45,4-18.39,1.52-39,3.92-64.88,2.69l-4.86-3.06c.55.9,16.92,1.82,24.2.89-10.79,1.36-39.69-4.15-51.51-.14l18.15,2.12c-18.46,1.54-41.28,4.8-64.22,3.83,10.44,3,5.29-.35,21.59,3.2-14.13-4.41,58.69.19,36-4.44,16.73,4.11,29,1.74,50.82,5.25-.68-1-7.75-1.94,11.51-1.44a38.07,38.07,0,0,1,4.23-.89l1.3.08-1.06-.12c.84-.15.91-.18-.4,0a52.93,52.93,0,0,1-9.81-1.54c9.56-2.32,40.19-2.25,50.54-3.45,11.43.48-4.78,1.16,1.46,2.24l15.47-1.8c1.53,2.24,30.36,3.73,3.44,5l24.23.1c14.26,1.26,33.89,1.76,46,.82,11.43.48,28.87-2.49,18.91-.73l38-1.39.35.56c37.49.28,77.18-3.72,120,.34,12.62-.57,25.67-1.26,46.78-.62l4.12,1.94c16.2-.68,48.67,1.95,55.63-.08,17.48,5.23,78.65,1.14,107.16,2.07l1.08-2.54c19.62.14,38.43-.58,62.78-1.6l-1.5-2.24c21-1.84,54,1.59,87.19,1.36-2.26.86-10.68.64-16.64.12,39.68,5.07,83.71-3.68,119.7,0a113.56,113.56,0,0,1,21.75,0c-.84,0-1.58,0-2.22.12.92,0,2.28,0,3.68,0,4,.39,8,.83,12.46,1.19-3.76-.54-7.35-1-10.48-1.2,6.91,0,17.4-.32,27.68-.89l4.38,2.41,2.38-.07c10.09.89,8.11-1.14,2.73-3,5.18-.39,9.92-.87,13.6-1.45,8.2,3.89,27-1.31,38.16,2.83,6.93-2,51.69-1.52,57.16-5.78.35.56,3.38.82-2.17.86,11.46.48,22.91,1,33.2-.23l4.86,3.06,25-4.11c15.2,1.86,21.51,2.95,6.41,5.3,36.45-3.63,29.58-1.37,60.58-5l-1.51,2c11.08-.08,28.8-2.73,35.48-1.09,24.79,3.76,122.66.52,186.28,4-12.34-5.83,29.58,2.61,32.1-1.91,3.71,1.38,12.57,2.16,2.27,3.35,32.47-1.35,48.79,2.19,71.21-1.62,3.72,1.38-6.95,2-3.64,2.84,2.6-.3,10.32-1.2,13.7-.38s-4.75,1.16-9.9,1.75c33.17-.23,36.53-4.48,38.94-8.47,16.81,1.89,25.2,1.62,37.34-1,5.85,1.3,15.61,2.67-5,3.14,11.6.19,70.84,1.91,72-1.28,3.63.81,16.21.24,19.26-.13,26,.19,28.31.48,53.86.18l-7.08-.52c9-3.44,18.85-1.43,35.56-1.28V46c-2,0-4.06,0-6.28,0l.59-.39c-47.23-2.78-20.39,1.33-67-1.85l2.54,2.4c-4.34,5.16-41.28-3-68.32-1.07l9.76,1.37c-14.77,1.77-41.28-7-56.12-7.66-3.23-.45,5.11-.72,9.62-1-38.83-3-5,3.14-34,3.87-5.34-1.7,6.88-4.31-12.6-4.63-9.7-1.37-56.49,5.5-83.06,2.25,5.86,1.31,11.67,2.61-1.77,3.59-20.6.47-55.7-4.93-74.3-.82-2.62-.36-3.61-.7-3.72-1-15.75,1.06-51.18,1.76-60.66,4-14.55-8.28-97.9,4-97.55-3.61l-48.44.41,1.27-.78c-31-.5-41.91,1.33-52.79,3.16-7.16-.52-1.93-1.24-1.34-1.63-45.24-1.54-49.74-1.22-87.67,2.59l-3.94-2.48c-10.28,1.44-65.41-3.89-109.78-1,.43-.28,1.35-.76,4.88-1.11-49.92,2.91-119.52-6.87-137.81,2.15L1468.59,45c42.62.7-6.35,3.92,11.19,5.41-16.76.53-43.33-2.72-22.74-3.19l3.22.45c7.57-4.7-53-1.67-51.82-4.87-83.87.24-165.61-2.37-244.17-2.57l9.05,3.66-27.4-.21c-7.19-.85-9.65-2.86,9.9-2.71-10.28-2.07-32.79,1.74-33.34,2.53-38.28-1.48,15-4.26,3.21-4.35l-15.94.27,3.59.43c-12.92,1.49-14.07,3.08-37.57,2.9-14.87-.73-7.63-2.26-13.48-2.39,0-.26-1.94-.39-9-.11l-34.53-.31,13.81,2.89c-15.3,1.42-32.46-.15-16.53,3.12-23.38-5-128.78-1.81-143.14-3.37-21.43,2.1-42.59,2.07-68.79,1.81,6.51.6,10.41,3.85-12.19,3.45,8.26-6.7-41.39-2.91-59.66-7.73,16.33,3.2-64.26.79-38.64,5.33-18.86-.54-1.15-2.51-15.46-4.09-44.89,2.59-98.93-1.69-154.42-.81-.86.88,8.43,2.22-3.47,3.53L491,39.66c-11,.43-10.09,5.08-30.11,2,2.83.74,7,1.85-.3,2.14-108.7-4.28-222.12,3.51-332.52-4.54,15,1.71,5,1.87-6.43,1.94,7.42.41-.17,2.17,1.29,3.36L76.7,41.26c-8.42,3.31-49.55.22-54.38,3.39L37,44.08C17.5,47.82,64.2,52.38,61.35,57.17c21.79-4.24,57.47,6.28,93.22.21,7.89,1-6.73,1.54-2.51,2.65,9.07-2.05,20-2.48,40.29-1.56l-2.29.51c57-.5,81.42,1.52,145.44,2.87l-4.74-2.37c13.76.31,16.65,1.06,23.09,1.65,15.79-3.59-38.64-.2-24.25-4.16,18.25,4.82,97,.07,109.34,5.55,21.17,0-6.2-2.74,15-2.71l5.61,1.48,5.35-1.91c13.87.32,20.87,2.17,21.39,3.42-3.37-.15-9.57.35-13.18.46,18,1.75,50.73-.59,56.91,0l-20.33-.91c57.76-1.39,128.28.56,184.08-2.46l-4.24-1.12C732.1,56.69,723.61,60,770.4,59l-1.7.27a287.07,287.07,0,0,1,34.67-1.55c-11.81,1.31,22.23,2.54,6.73,4C856.3,59.52,833,60,863.47,55.84l7,1.86c10.4-1.68,11.27-2.57,34.63-3-19.16,1.59,14.91,2.82-6.55,4.93,49,4.06,72.8-4.09,95.3,1.84,22.51-5.13-42.43-2.85-29.82-3.95-10.56-1.68,18.58-3.84,34-3.32,15.66.12,26.63,6.57,66,6.47-3.92,0-4.19.37-8.1.34,14.74,1.31,28.89-1.77,47,.36,10.14-3.11,23.48.18,26.4-3.78l-36.14.92c20.49-1,39.7-5.67,73.46-3.42-2.63.8-12.67,1.85-19.57,2.43,9.87,1.17,19-.77,29.24.43-2.92,4-43.92.86-65.87,3.88,10.59,1.67,41.52-2.87,30.49,1.42,15.86-5.45,38.82.69,65.5-3.48l-1.76,2.37c4.22-.37,13-1.49,20.74-1.43l-14.07,3.08c21.6-2.62,41.64,2.3,62.36.87-43.38.07-9.74-2.86-28.08-4.59,53.51-3.17,30.77,6.21,90.68,5.07-8.11.34-30.45-1.42-17.76-2.52C1330,63,1345,63.95,1352,65.2c39.69-.5-6.09-2.44,10.8-3.9,13.51,2.89,19.49-1.18,36.89-2.1l.12,2.41c45.23,1.55,12-5,52.71-3.16l-17.21,3.34,21.23-.86-4.38,2.74c23.09-2,30.28-1.51,52.91-.74-5.26-1.7,3-4.38,23-4.45,13.66,1.43-7.65,2.29,20.74,1.95-6.41,1.51-13.43,3.4-25.79,1.18-1.27.79-6.32,1.51-7.63,2.29,14.71,1.65,37,.37,47.26.35-4-.09-8.69-.22-11.12-.56l41.16-3.35c6.48.91,1.34,1.63-3.75,2.35,8.34-.26,14.11-1.37,26.36-1.58-3.17,2-2.41,4-19.77,4.91l39.22-2.18c2.62.85,20.13,2.34,15,3.06,21.74,1.15,53.34-3.81,82.16-2.28,1.5-.38,4.5-.74,10.63-1,27.09.44,51.09,2.85,83.21.16L1844,67.28c25.15-.8-24.66-4.43,17.21-5.75,29.65-1.12,11.07,3,21.47,4,14.74-1.77,40.38-5.38,67.61-2.52C1941.32,63.65,1934.25,63.13,1925.83,63.39ZM2236,61.83c-6,.5-18,2.07-22.39.64C2220.45,59.71,2225.75,61,2236,61.83Zm16.51-16.08c4.47-.79,11.38-.4,19.18.51A156.62,156.62,0,0,1,2252.51,45.75ZM939.05,62.55c.26,0,.43-.07.64-.12C953.1,63.37,948.35,63,939.05,62.55Zm-27.84-1c-2.8.33-2.6.67-1.42,1,1.94-.61,8.2-.65,15.31-.48C923.13,61.4,919.53,61,911.22,61.5Zm148-20.27,5.42.63C1052.39,42.55,1055.82,41.92,1059.21,41.23Z"/><path class="cls-1" d="M2306,42.45a4.15,4.15,0,0,1,2.57,1.31C2310.9,43.36,2310.95,42.89,2306,42.45Z"/><path class="cls-1" d="M1732.93,64.66l-.94,0a2.29,2.29,0,0,0-.95.44Z"/><path class="cls-1" d="M1342.45,41a75.88,75.88,0,0,1,11.05,1.24C1353.81,41.71,1351.2,41.2,1342.45,41Z"/><path class="cls-1" d="M763.69,65.6,781.53,65a116.13,116.13,0,0,1-16.06-.79C765.86,64.74,769.27,65.56,763.69,65.6Z"/><path class="cls-1" d="M608.91,50.67c-2.6.3-5.53,0-8.1.33l.71,1.12C612.63,52.05,620.39,51.15,608.91,50.67Z"/><path class="cls-1" d="M747.18,57.59c-1.41-2-12.6-1.34-25.09-1,.75,0,1.46,0,2.21,0C720.62,59.46,733.93,58.52,747.18,57.59Z"/><path class="cls-1" d="M719.2,56.69c-3.85.09-7.78.14-11.55.05C706.19,57.88,712.33,57,719.2,56.69Z"/><path class="cls-1" d="M875.9,62.85c-5.92-.52-3.72,2.59-7.07,1.77C862.22,67.2,908.33,61.49,875.9,62.85Z"/><polygon class="cls-1" points="737.07 50.9 741.55 53.41 748.55 51.39 737.07 50.9"/><path class="cls-1" d="M835.7,52.74l-20-.7c.3.42-2.23.66-5.35.85C822.69,53,836.17,53.48,835.7,52.74Z"/><path class="cls-1" d="M810.39,52.9a160,160,0,0,0-16.06.42C797.79,53.29,805.25,53.21,810.39,52.9Z"/><polygon class="cls-1" points="764.36 50.15 770.26 50.67 784.35 50.85 764.36 50.15"/><path class="cls-1" d="M1050.26,53.22,1072,52.5c2.22-.86-3.72-1.38-11.83-1C1055,52.06,1046.92,52.39,1050.26,53.22Z"/><path class="cls-1" d="M984.38,46.36c5.89.52,6.29,1.08,9.61,1.9l.66-3.1Z"/><path class="cls-1" d="M1047.9,45.64c2.17-.86,31.61-2.47,4-2.28C1049.7,44.21,1027.88,44.93,1047.9,45.64Z"/><polygon class="cls-1" points="1376.13 49.56 1370.59 49.61 1371.38 54.7 1376.13 49.56"/><path class="cls-1" d="M1665.41,37.38c-25.81-1.22-6.13,3.14-29.45,1.62-6.06,1.2,19.06,1.24,12.85,2.28C1664.39,40,1672.57,40.73,1665.41,37.38Z"/><path class="cls-1" d="M1648.81,41.29c-2.5.2-5.14.44-8,.77C1645.37,41.74,1647.5,41.5,1648.81,41.29Z"/><polygon class="cls-1" points="45.77 38.64 29.17 37.58 39.89 39.29 45.77 38.64"/><path class="cls-1" d="M13.91,42.42,10,39.18,0,42.11C3.78,42,11.05,41.69,13.91,42.42Z"/><path class="cls-1" d="M2282.11,68.37l1.27-.78c-2.57-.84-6.46-.91-14.24-1Z"/><polygon class="cls-1" points="2056.99 65.94 2060.86 66.01 2053.62 63.07 2056.99 65.94"/><path class="cls-1" d="M1868,69.68c7.71.12,16.78-.53,24.52-.4C1875.76,69.81,1866,66,1868,69.68Z"/></svg>