<svg xmlns="http://www.w3.org/2000/svg" xmlns:xlink="http://www.w3.org/1999/xlink" version="1.1" x="0px" y="0px" viewBox="0 0 100 100" enable-background="new 0 0 100 100" xml:space="preserve"><path d="M81.813,42.678h-9.628l9.682-12.87c1.063-1.417,0.776-3.436-0.64-4.5l-4.451-3.35c-0.685-0.515-1.532-0.729-2.383-0.611  c-0.853,0.121-1.605,0.564-2.119,1.249l-15.071,20.04c-0.011,0.014-0.017,0.029-0.026,0.043H17.375c-0.828,0-1.5,0.671-1.5,1.5  c0,18.668,15.127,33.856,33.721,33.856c18.592,0,33.717-15.188,33.717-33.856C83.313,43.349,82.641,42.678,81.813,42.678z   M74.673,24.396c0.041-0.055,0.099-0.074,0.14-0.08c0.041-0.007,0.103-0.005,0.16,0.039l4.451,3.349  c0.092,0.069,0.111,0.21,0.044,0.301l-10.92,14.517c-0.037,0.049-0.063,0.103-0.094,0.155h-7.53L74.673,24.396z M80.276,45.678  c-0.104,2.155-0.434,4.251-0.956,6.27H19.868c-0.523-2.019-0.854-4.114-0.957-6.27H80.276z M49.596,75.034  c-13.169,0-24.422-8.368-28.782-20.087h57.561C74.014,66.666,62.763,75.034,49.596,75.034z"></path></svg>