<svg xmlns="http://www.w3.org/2000/svg" xmlns:xlink="http://www.w3.org/1999/xlink" version="1.1" x="0px" y="0px" viewBox="0 0 512 512" enable-background="new 0 0 512 512" xml:space="preserve"><g><g><g><path d="M172.161,511.982c-1.023,0-2.047-0.391-2.828-1.172L55.692,397.169c-1.562-1.562-1.562-4.093,0-5.655     s4.093-1.562,5.656,0l113.642,113.641c1.562,1.562,1.562,4.094,0,5.656C174.208,511.592,173.185,511.982,172.161,511.982z"></path></g></g><g><g><path d="M58.52,398.341c-1.023,0-2.046-0.391-2.828-1.172c-5.82-5.819-9.023-13.554-9.023-21.772     c0-8.218,3.207-15.951,9.027-21.764c1.562-1.562,4.093-1.562,5.656,0s1.562,4.094,0,5.656c-4.308,4.304-6.683,10.03-6.683,16.107     c0,6.086,2.371,11.805,6.679,16.117c1.562,1.562,1.562,4.093,0,5.655C60.566,397.95,59.543,398.341,58.52,398.341z"></path></g></g><g><g><path d="M58.527,360.461c-1.191,0-2.371-0.531-3.16-1.547c-1.355-1.742-1.043-4.25,0.699-5.609     c0.211-0.164,22.116-17.429,91.963-87.269c69.847-69.85,87.115-91.775,87.283-91.99c1.355-1.742,3.867-2.051,5.613-0.699     c1.742,1.359,2.055,3.867,0.699,5.613c-0.684,0.879-17.542,22.331-87.94,92.732c-70.398,70.394-91.831,87.237-92.706,87.925     C60.25,360.188,59.387,360.461,58.527,360.461z"></path></g></g><g><g><path d="M172.161,511.982L172.161,511.982c-2.21,0-4-1.797-4-4c0-2.109,1.625-3.828,3.683-3.992     c1.414-0.266,23.39-5.78,118.247-100.634c96.182-96.205,100.525-117.438,100.658-118.29c0.008-2.211,1.781-3.82,3.991-3.82     c0,0,0,0,0.008,0c2.203,0.008,3.984,1.977,3.984,4.188c-0.008,3.438-4.983,25.553-102.985,123.578     C197.754,507.006,175.61,511.982,172.161,511.982z"></path></g></g><g><g><path d="M170.661,491.569c-1.324,0-2.617-0.656-3.378-1.851c-1.188-1.867-0.637-4.344,1.227-5.523     c15.425-9.812,46.575-34.271,107.373-95.064c60.754-60.754,85.214-91.908,95.041-107.346c1.188-1.852,3.663-2.398,5.522-1.227     c1.859,1.188,2.414,3.656,1.227,5.523c-10.038,15.772-34.865,47.435-96.135,108.704c-61.312,61.31-92.971,86.128-108.731,96.158     C172.138,491.366,171.396,491.569,170.661,491.569z"></path></g></g><g><g><path d="M394.733,289.434c-1.022,0-2.046-0.391-2.827-1.172l-80.52-80.51c-1.562-1.562-1.562-4.094,0-5.656     c1.562-1.562,4.094-1.562,5.656,0l80.519,80.51c1.562,1.562,1.562,4.094,0,5.656C396.78,289.043,395.757,289.434,394.733,289.434     z"></path></g></g><g><g><path d="M296.084,196.413c-31.686,0-51.177-26.745-51.399-27.053c-1.281-1.797-0.863-4.289,0.93-5.574     c1.804-1.289,4.296-0.871,5.581,0.922c0.902,1.262,22.64,30.795,57.317,22.135c2.155-0.52,4.319,0.766,4.851,2.906     c0.539,2.145-0.766,4.316-2.906,4.852C305.427,195.862,300.63,196.413,296.084,196.413z"></path></g></g><g><g><path d="M309.489,194.721c-0.938,0-1.875-0.324-2.633-0.984c-1.664-1.449-1.836-3.977-0.383-5.645     C318.043,174.808,420.412,58.249,451.199,57.19c4.141-0.156,6.547,1.476,7.921,2.851c1.562,1.562,1.562,4.094,0,5.656     c-1.562,1.562-4.093,1.562-5.655,0c-0.141-0.141-0.578-0.637-1.992-0.512c-20.687,0.711-94.439,77.034-138.969,128.164     C311.715,194.256,310.598,194.721,309.489,194.721z"></path></g></g><g><g><path d="M247.942,171.035c-1.023,0-2.046-0.391-2.828-1.171c-1.562-1.562-1.562-4.093,0-5.656l151.533-151.53     c1.562-1.562,4.094-1.562,5.656,0s1.562,4.094,0,5.656L250.77,169.863C249.989,170.644,248.965,171.035,247.942,171.035z"></path></g></g><g><g><path d="M456.293,66.87c-1.023,0-2.047-0.391-2.828-1.172c-1.562-1.562-1.562-4.094,0-5.656c3.992-3.996,4.952-11.698,2.562-20.6     c-3.367-12.574-13.641-27.135-26.741-30.643c-9.116-2.449-18.21,0.766-26.982,9.535c-1.562,1.562-4.094,1.562-5.656,0     s-1.562-4.094,0-5.656c13.616-13.616,26.397-13.831,34.709-11.604c16.78,4.492,28.553,21.963,32.396,36.295     c3.188,11.87,1.5,22.197-4.633,28.33C458.339,66.479,457.316,66.87,456.293,66.87z"></path></g></g><g><g><path d="M392.219,74.455c-3.203,0-6.211-1.25-8.469-3.523c-2.273-2.273-3.523-5.3-3.516-8.519     c0.008-3.203,1.266-6.203,3.539-8.456c4.492-4.488,12.397-4.516,16.937-0.004c4.688,4.698,4.688,12.308,0.016,16.979     C398.437,73.205,395.421,74.455,392.219,74.455z M392.242,58.456c-1.07,0-2.078,0.418-2.828,1.172     c-0.766,0.758-1.18,1.746-1.18,2.805c-0.008,1.074,0.414,2.086,1.18,2.852c1.516,1.527,4.133,1.504,5.663-0.016     c1.547-1.551,1.547-4.09-0.016-5.652C394.319,58.874,393.305,58.456,392.242,58.456z"></path></g></g><g><g><path d="M352.627,114.054c-3.211,0-6.219-1.254-8.477-3.527c-2.272-2.277-3.522-5.308-3.507-8.526     c0.008-3.195,1.266-6.195,3.538-8.445c4.461-4.484,12.383-4.515,16.93-0.016c4.687,4.691,4.687,12.304,0.016,16.987     C358.846,112.804,355.83,114.054,352.627,114.054z M352.643,98.051c-1.07,0-2.062,0.418-2.812,1.168     c-0.773,0.766-1.188,1.754-1.188,2.808c-0.008,1.074,0.414,2.09,1.18,2.859c1.508,1.515,4.133,1.5,5.648-0.016     c1.555-1.559,1.555-4.101,0-5.66C354.721,98.469,353.713,98.051,352.643,98.051z"></path></g></g><g><g><path d="M313.035,153.646c-3.21,0-6.218-1.25-8.476-3.523c-2.273-2.273-3.523-5.3-3.516-8.519     c0.008-3.203,1.266-6.203,3.539-8.456c4.484-4.488,12.397-4.516,16.937-0.004c4.688,4.687,4.688,12.3,0.016,16.983     C319.246,152.399,316.23,153.646,313.035,153.646z M313.043,137.646c-1.062,0-2.062,0.414-2.82,1.167     c-0.765,0.762-1.179,1.75-1.179,2.809c-0.008,1.074,0.414,2.086,1.179,2.852c1.516,1.523,4.133,1.504,5.664-0.012     c1.547-1.551,1.547-4.094-0.008-5.652C315.121,138.064,314.113,137.646,313.043,137.646z"></path></g></g><g><g><path d="M73.5,387.396c-3.211,0-6.222-1.25-8.48-3.531c-2.266-2.266-3.52-5.289-3.512-8.5c0.004-3.202,1.262-6.21,3.535-8.468     c4.496-4.492,12.397-4.516,16.94-0.008c4.683,4.688,4.687,12.304,0.02,16.983C79.714,386.154,76.698,387.396,73.5,387.396z      M73.511,371.397c-1.066,0-2.07,0.414-2.82,1.172c-0.765,0.758-1.183,1.749-1.183,2.812c-0.004,1.07,0.418,2.078,1.179,2.844     c1.516,1.531,4.125,1.516,5.664-0.008c1.547-1.555,1.547-4.102-0.016-5.655C75.589,371.812,74.577,371.397,73.511,371.397z"></path></g></g></g></svg>