<svg xmlns="http://www.w3.org/2000/svg" xmlns:xlink="http://www.w3.org/1999/xlink" version="1.1" x="0px" y="0px" viewBox="0 0 100 100" enable-background="new 0 0 100 100" xml:space="preserve"><path fill="none" stroke="#000000" stroke-width="2" stroke-linecap="round" stroke-linejoin="round" stroke-miterlimit="10" d="  M31.391,25.394H14.766c0,0,1.75,7.583,6.833,7.583c0,0,0,7.083,0,9.75s1.417,8.167,9.792,8.167s9.792-5.5,9.792-8.167s0-9.75,0-9.75  c5.083,0,6.833-7.583,6.833-7.583H31.391z"></path><g><path d="M26.164,24.459c-0.056-0.019-0.108-0.045-0.169-0.054c-3.528-0.519-4.728-4.966-4.739-5.009   c-0.118-0.46-0.544-0.772-1.018-0.75c-0.475,0.023-0.868,0.378-0.939,0.848c-0.363,2.379-0.248,3.949-0.014,4.965H26.164z"></path><path d="M43.457,24.459c0.234-1.016,0.35-2.586-0.014-4.965c-0.072-0.47-0.464-0.824-0.939-0.848c-0.457-0.021-0.9,0.29-1.018,0.75   c-0.011,0.045-1.188,4.486-4.739,5.009c-0.061,0.009-0.113,0.034-0.169,0.054H43.457z"></path></g><circle cx="27.912" cy="38.582" r="1.312"></circle><circle cx="35.099" cy="38.582" r="1.312"></circle><path fill="none" stroke="#000000" stroke-width="2" stroke-linecap="round" stroke-linejoin="round" stroke-miterlimit="10" d="  M45.683,31.228c0,0,17.5,0,20.417,0c2.917,0,5.917,0.667,7.5,2.083c1.583,1.417,2,3.958,2,6.583s0,26.5,0,26.5  c0,2.75-2.895,3.833-4,3.833l-5.167-12.667H39.849c0,0,0,2.917,0,7c0,4.083-1.917,5.167-4.75,6.25l-5-19.417"></path><path fill="none" stroke="#000000" stroke-width="2" stroke-linecap="round" stroke-linejoin="round" stroke-miterlimit="10" d="  M64.097,31.228c0,0,4.667,0,6.833,0c2.167,0,9.917,2.917,9.917,9.667s0,5,0,5"></path></svg>