<?xml version="1.0" encoding="utf-8"?>
<!-- Generator: Adobe Illustrator 16.0.0, SVG Export Plug-In . SVG Version: 6.00 Build 0)  -->
<!DOCTYPE svg PUBLIC "-//W3C//DTD SVG 1.1//EN" "http://www.w3.org/Graphics/SVG/1.1/DTD/svg11.dtd">
<svg version="1.1" id="Layer_1" xmlns="http://www.w3.org/2000/svg" xmlns:xlink="http://www.w3.org/1999/xlink" x="0px" y="0px"
	 width="72px" height="72px" viewBox="0 0 72 72" enable-background="new 0 0 72 72" xml:space="preserve">
<g>
	<path d="M36.367,69.966c-0.001,0-0.002,0-0.003,0c-0.442-0.002-0.8-0.362-0.798-0.804l0.144-44.681
		c0.001-0.442,0.36-0.798,0.801-0.798c0.001,0,0.002,0,0.003,0c0.443,0.001,0.8,0.361,0.798,0.804l-0.144,44.68
		C37.167,69.61,36.808,69.966,36.367,69.966z"/>
	<g>
		<path d="M46.625,66.521c-0.253,0-0.503-0.121-0.659-0.344l-6.713-9.653C39,56.16,39.09,55.661,39.453,55.408
			c0.361-0.252,0.862-0.163,1.116,0.201l6.712,9.653c0.252,0.363,0.163,0.863-0.2,1.115C46.942,66.473,46.782,66.521,46.625,66.521z
			"/>
		<path d="M32.969,46.896c-0.254,0-0.503-0.12-0.66-0.344L20.446,29.494c-0.252-0.364-0.163-0.862,0.2-1.116
			c0.361-0.252,0.862-0.163,1.116,0.201l11.864,17.058c0.252,0.364,0.162,0.861-0.201,1.116
			C33.286,46.849,33.126,46.896,32.969,46.896z"/>
		<path d="M26.137,66.454c-0.16,0-0.32-0.048-0.46-0.147c-0.362-0.253-0.449-0.755-0.193-1.114l6.782-9.619
			c0.254-0.361,0.754-0.451,1.116-0.192c0.362,0.254,0.449,0.754,0.193,1.115l-6.782,9.618
			C26.636,66.334,26.389,66.454,26.137,66.454z"/>
		<path d="M39.938,46.873c-0.16,0-0.32-0.049-0.46-0.147c-0.362-0.254-0.448-0.755-0.194-1.115l11.939-16.938
			c0.257-0.362,0.755-0.449,1.117-0.194c0.361,0.255,0.447,0.755,0.193,1.117L40.594,46.533
			C40.437,46.753,40.189,46.873,39.938,46.873z"/>
	</g>
	<g>
		<path d="M36.524,24.972h-0.017c-4.632-0.012-8.393-4.323-8.384-9.609c0.027-5.143,7.572-12.458,7.894-12.767
			c0.31-0.3,0.804-0.3,1.114,0.004c0.319,0.311,7.823,7.678,7.812,12.805C44.922,20.681,41.146,24.972,36.524,24.972z M36.569,4.312
			c-1.721,1.769-6.822,7.326-6.843,11.057c-0.007,4.401,3.037,7.991,6.785,8.001l0.013,0.802V23.37c3.741,0,6.799-3.575,6.817-7.969
			C43.349,11.682,38.279,6.092,36.569,4.312z"/>
		<path d="M30.055,20.791c-0.206,0-0.412-0.079-0.568-0.236c-0.312-0.314-0.311-0.821,0.004-1.132l11.28-11.206
			c0.312-0.314,0.82-0.311,1.132,0.004c0.312,0.313,0.311,0.821-0.004,1.132l-11.28,11.205
			C30.463,20.714,30.259,20.791,30.055,20.791z"/>
		<path d="M34.387,20.228c0.638,0.457,1.355,0.713,2.14,0.718c2.405,0.004,4.369-2.487,4.38-5.551c0-0.377-0.11-0.833-0.3-1.34
			L34.387,20.228z"/>
		<path d="M36.538,14.338c-0.206,0-0.411-0.079-0.568-0.236L31.224,9.33c-0.312-0.313-0.311-0.822,0.003-1.134
			c0.315-0.314,0.821-0.31,1.134,0.003l4.746,4.773c0.312,0.314,0.311,0.821-0.003,1.133C36.947,14.262,36.743,14.338,36.538,14.338
			z"/>
	</g>
	<g>
		<path d="M16.84,31.087c-3.072,0-6.055-1.654-7.978-4.423C5.926,22.453,7.914,12.125,8,11.688c0.083-0.425,0.48-0.71,0.915-0.636
			c0.44,0.071,10.812,1.794,13.727,6.012c1.582,2.266,2.231,5.021,1.777,7.558c-0.381,2.132-1.514,3.948-3.19,5.115
			C19.957,30.619,18.439,31.087,16.84,31.087z M9.438,12.773c-0.396,2.431-1.391,9.919,0.74,12.976
			c1.601,2.305,4.153,3.735,6.662,3.735c1.271,0,2.473-0.368,3.474-1.064c1.325-0.921,2.222-2.37,2.528-4.081
			c0.378-2.12-0.174-4.439-1.516-6.361C19.396,15.187,12.696,13.399,9.438,12.773z"/>
		<path d="M13.083,30.155c-0.047,0-0.094-0.004-0.143-0.012c-0.436-0.079-0.725-0.496-0.647-0.931l2.82-15.644
			c0.079-0.436,0.499-0.717,0.931-0.646c0.436,0.079,0.725,0.495,0.647,0.931l-2.82,15.644
			C13.801,29.884,13.464,30.155,13.083,30.155z"/>
		<path d="M16.77,27.067c0.781,0.002,1.517-0.202,2.159-0.644c1.981-1.372,2.163-4.541,0.417-7.054
			c-0.219-0.312-0.568-0.62-1.027-0.925L16.77,27.067z"/>
		<path d="M14.704,21.155c-0.047,0-0.095-0.003-0.142-0.012l-6.626-1.188C7.5,19.877,7.21,19.46,7.288,19.025
			c0.078-0.436,0.504-0.72,0.93-0.648l6.626,1.188c0.437,0.078,0.726,0.495,0.648,0.93C15.423,20.883,15.085,21.155,14.704,21.155z"
			/>
	</g>
	<g>
		<path d="M56.445,31.211C56.444,31.211,56.444,31.211,56.445,31.211c-1.62,0-3.152-0.477-4.431-1.379
			c-1.671-1.176-2.796-3.001-3.165-5.138c-0.439-2.537,0.224-5.285,1.818-7.541c2.956-4.201,13.337-5.862,13.778-5.93
			c0.428-0.068,0.828,0.218,0.91,0.642c0.084,0.437,2.008,10.774-0.948,14.968C62.48,29.575,59.504,31.211,56.445,31.211z
			 M63.913,12.946c-2.424,0.46-9.79,2.083-11.935,5.131c-1.352,1.911-1.916,4.224-1.55,6.345c0.296,1.714,1.188,3.17,2.51,4.101
			c1.008,0.711,2.219,1.086,3.506,1.086c2.5,0.001,5.049-1.417,6.652-3.697C65.242,22.869,64.295,15.385,63.913,12.946z"/>
		<path d="M60.15,30.3c-0.383,0-0.722-0.274-0.789-0.665l-2.706-15.663c-0.076-0.436,0.217-0.85,0.652-0.926
			c0.438-0.07,0.851,0.217,0.927,0.653l2.707,15.663c0.075,0.436-0.218,0.85-0.654,0.926C60.241,30.296,60.195,30.3,60.15,30.3z"/>
		<path d="M56.475,27.184c-0.777,0.007-1.517-0.202-2.141-0.648c-1.979-1.389-2.143-4.556-0.372-7.062
			c0.216-0.306,0.577-0.618,1.02-0.923L56.475,27.184z"/>
		<path d="M58.59,21.294c-0.382,0-0.722-0.275-0.789-0.665c-0.075-0.437,0.218-0.851,0.653-0.926l6.648-1.147
			c0.442-0.069,0.851,0.217,0.926,0.653c0.075,0.437-0.217,0.852-0.653,0.926l-6.647,1.147
			C58.681,21.291,58.635,21.294,58.59,21.294z"/>
	</g>
	<path d="M45.923,33.589c-0.001,0-0.002,0-0.003,0c-0.441-0.001-0.8-0.361-0.798-0.804l0.006-2.192
		c0.001-0.441,0.359-0.798,0.801-0.798c0.001,0,0.002,0,0.002,0c0.442,0.001,0.8,0.361,0.798,0.804l-0.007,2.192
		C46.723,33.232,46.365,33.589,45.923,33.589z"/>
	<path d="M52.298,38.017L52.298,38.017l-2.238-0.004c-0.442-0.001-0.801-0.36-0.8-0.802c0.001-0.442,0.359-0.8,0.801-0.8h0.001
		l2.237,0.003c0.442,0.001,0.801,0.36,0.8,0.803S52.739,38.017,52.298,38.017z"/>
	<path d="M49.461,41.32c-0.001,0-0.002,0-0.003,0l-2.233-0.008c-0.443-0.001-0.8-0.361-0.798-0.804
		c0.001-0.442,0.36-0.798,0.801-0.798c0.001,0,0.002,0,0.003,0l2.233,0.007c0.442,0.001,0.8,0.361,0.798,0.804
		C50.261,40.963,49.902,41.32,49.461,41.32z"/>
	<path d="M27.045,33.538c-0.001,0-0.002,0-0.003,0c-0.443-0.001-0.8-0.361-0.798-0.804l0.007-2.203
		c0.001-0.442,0.36-0.798,0.801-0.798c0.001,0,0.002,0,0.002,0c0.443,0.001,0.8,0.361,0.798,0.804l-0.007,2.204
		C27.845,33.181,27.485,33.538,27.045,33.538z"/>
	<path d="M22.875,37.93c-0.001,0-0.001,0-0.002,0l-2.247-0.006c-0.442-0.001-0.8-0.36-0.799-0.803s0.359-0.799,0.801-0.799
		c0.001,0,0.001,0,0.002,0l2.247,0.006c0.443,0,0.8,0.359,0.799,0.803C23.675,37.573,23.317,37.93,22.875,37.93z"/>
	<path d="M25.688,41.248c-0.001,0-0.002,0-0.004,0l-2.239-0.01c-0.441-0.002-0.799-0.362-0.797-0.805
		c0.002-0.44,0.36-0.797,0.801-0.797c0.001,0,0.002,0,0.004,0l2.239,0.009c0.442,0.002,0.799,0.361,0.797,0.805
		C26.488,40.891,26.129,41.248,25.688,41.248z"/>
</g>
</svg>
