<svg xmlns="http://www.w3.org/2000/svg" data-name="Layer 1" viewBox="0 0 100 100" x="0px" y="0px"><title>78 all</title><path d="M65.18,20.5H65a22.32,22.32,0,0,0-15,6.13c-4.85-4.57-9.39-6.89-13.49-6.89a19.71,19.71,0,0,0-14.21,6,20.91,20.91,0,0,0,0,29.06L47.71,79.32a3.28,3.28,0,0,0,4.58,0L77.7,54.78a20.95,20.95,0,0,0,0-29A17.27,17.27,0,0,0,65.18,20.5ZM76.29,53.36,50.9,77.89a1.29,1.29,0,0,1-1.8,0L23.73,53.38a18.89,18.89,0,0,1,0-26.24,17.72,17.72,0,0,1,12.77-5.4c3.73,0,8,2.31,12.67,6.87a1.17,1.17,0,0,0,1.66,0A20.39,20.39,0,0,1,65,22.5h.12a15.32,15.32,0,0,1,11.1,4.64,18.95,18.95,0,0,1,0,26.22Z"></path><path d="M64.59,38.46,47.14,54.94,37.3,46.22A1,1,0,0,0,36,47.71L46.5,57a1,1,0,0,0,1.35,0L66,39.92a1,1,0,0,0-1.37-1.45Z"></path></svg>