<svg xmlns="http://www.w3.org/2000/svg" xmlns:xlink="http://www.w3.org/1999/xlink" version="1.1" x="0px" y="0px" viewBox="0 0 100 100" style="enable-background:new 0 0 100 100;" xml:space="preserve"><g><path d="M86.6,50c0-20.2-16.4-36.6-36.6-36.6S13.4,29.8,13.4,50c0,20.2,16.4,36.6,36.6,36.6S86.6,70.2,86.6,50z M19.4,50   c0-16.9,13.7-30.6,30.6-30.6S80.6,33.1,80.6,50c0,16.9-13.7,30.6-30.6,30.6S19.4,66.9,19.4,50z"></path><path d="M68.5,39.1c-1.1-1.2-3-1.2-4.2-0.1L45.6,56.7l-9.8-9.8c-1.2-1.2-3.1-1.2-4.2,0c-1.2,1.2-1.2,3.1,0,4.2L43.4,63   c0.6,0.6,1.4,0.9,2.1,0.9c0.7,0,1.5-0.3,2.1-0.8l20.7-19.7C69.6,42.2,69.6,40.3,68.5,39.1z"></path></g></svg>