<?xml version="1.0" encoding="utf-8"?>
<!-- Generator: Adobe Illustrator 16.0.0, SVG Export Plug-In . SVG Version: 6.00 Build 0)  -->
<!DOCTYPE svg PUBLIC "-//W3C//DTD SVG 1.1//EN" "http://www.w3.org/Graphics/SVG/1.1/DTD/svg11.dtd">
<svg version="1.1" id="Layer_1" xmlns="http://www.w3.org/2000/svg" xmlns:xlink="http://www.w3.org/1999/xlink" x="0px" y="0px"
	 width="72px" height="72px" viewBox="0 0 72 72" enable-background="new 0 0 72 72" xml:space="preserve">
<g>
	<path d="M49.271,49.094c0,0-3.766-7.59-4.969-9.604c-1.205-2.01-2.602-4.162-4.781-4.473c-2.475-0.365-3.84,1.291-4.301,2.207
		c-0.453,0.912-1.918,3.121-4.301,0.746c-2.383-2.371-3.842,0.746-3.842,0.746l-5.195,10.09c0,0-1.479,2.107-0.529,3.664
		c1.055,1.76,3.02,1.643,3.02,1.643s15.398,0.045,21.432-0.063C52.103,53.952,49.271,49.094,49.271,49.094z"/>
	<path d="M48.938,59.459l-26.434,0.08c-2.613,0.002-5.371-2.631-6.223-4.994c-1.281-3.549,0.395-6.75,1.883-9.584
		c0.219-0.393,0.406-0.781,0.611-1.168l8.969-17.821c0.191-0.395,0.174-0.854,0.146-1.426c0.008-0.195-0.01-0.387-0.01-0.582
		l-0.029-12.201c-0.006-0.426,0.33-0.775,0.73-0.783c0.4,0.004,0.75,0.35,0.756,0.775l0.023,12.207
		c0.002,0.18,0.01,0.348,0.008,0.525c0.043,0.676,0.07,1.441-0.322,2.217l-8.965,17.807c-0.191,0.404-0.406,0.797-0.625,1.205
		c-1.393,2.654-2.84,5.406-1.799,8.281c0.646,1.805,2.955,3.975,4.834,3.975l26.434-0.07c1.881-0.004,4.18-2.191,4.805-3.998
		c1.033-2.887-0.436-5.625-1.83-8.275c-0.221-0.4-0.428-0.801-0.643-1.191l-9.063-17.776c-0.377-0.758-0.359-1.529-0.328-2.213
		c0.004-0.17,0.006-0.34,0.016-0.516l-0.039-12.207c0-0.432,0.324-0.785,0.734-0.779c0.402-0.004,0.732,0.348,0.738,0.773
		l0.037,12.203c-0.002,0.201-0.006,0.395-0.014,0.58c-0.027,0.568-0.031,1.029,0.168,1.428l9.059,17.77
		c0.188,0.383,0.402,0.771,0.613,1.164c1.508,2.824,3.215,6.02,1.934,9.578C54.284,56.809,51.54,59.452,48.938,59.459z"/>
</g>
</svg>
