<svg xmlns="http://www.w3.org/2000/svg" xmlns:xlink="http://www.w3.org/1999/xlink" version="1.1" x="0px" y="0px" viewBox="0 0 100 100" enable-background="new 0 0 100 100" xml:space="preserve"><g><path d="M48.13,44.047c-1.217,0-2.364,0.474-3.229,1.337c-1.775,1.779-1.775,4.673,0.001,6.45c0.863,0.862,2.009,1.338,3.229,1.338   c1.218,0,2.363-0.475,3.225-1.336c1.779-1.778,1.779-4.673,0-6.454C50.494,44.521,49.348,44.047,48.13,44.047z M49.941,50.421   c-0.968,0.969-2.657,0.966-3.625-0.001c-0.998-0.999-0.997-2.625-0.001-3.623c0.486-0.484,1.13-0.751,1.815-0.751   c0.684,0,1.328,0.267,1.812,0.75C50.94,47.796,50.94,49.423,49.941,50.421z"></path><path d="M57.831,34.345c-2.516,0-4.562,2.047-4.562,4.563c0,2.515,2.046,4.562,4.562,4.562s4.562-2.046,4.562-4.562   C62.393,36.392,60.347,34.345,57.831,34.345z M57.831,41.469c-1.412,0-2.562-1.149-2.562-2.562c0-1.413,1.149-2.563,2.562-2.563   s2.562,1.149,2.562,2.563C60.393,40.32,59.243,41.469,57.831,41.469z"></path><path d="M38.429,53.749c-2.516,0-4.562,2.046-4.562,4.562s2.046,4.563,4.562,4.563s4.562-2.047,4.562-4.563   S40.945,53.749,38.429,53.749z M38.429,60.873c-1.413,0-2.562-1.149-2.562-2.563c0-1.412,1.149-2.562,2.562-2.562   s2.562,1.149,2.562,2.562C40.991,59.724,39.842,60.873,38.429,60.873z"></path><path d="M48.662,9.269c-21.691,0-39.338,17.647-39.338,39.338c0,10.845,4.412,20.679,11.534,27.803c0,0,0,0,0,0h0   c7.123,7.123,16.958,11.535,27.803,11.535C70.354,87.945,88,70.298,88,48.607S70.354,9.269,48.662,9.269z M48.662,11.269   c9.935,0,18.968,3.908,25.664,10.257l-8.725,8.726c-0.084-0.017-0.176-0.028-0.277-0.028c-0.351,0-0.777,0.106-1.564,0.309   c-0.968,0.25-2.292,0.591-3.366,0.591c-0.269,0-0.507-0.021-0.708-0.064c-1.027-0.219-2.09-0.446-3.145-0.446   c-1.532,0-2.766,0.488-3.77,1.493c-1.911,1.912-2.246,3.561-2.542,5.014l-0.164,0.822c-0.111,0.568-0.258,1.317-0.371,1.658   c-0.344,0.114-1.103,0.262-1.679,0.375l-0.803,0.159c-1.456,0.299-3.107,0.638-5.014,2.544c-1.905,1.905-2.244,3.554-2.544,5.017   l-0.156,0.788c-0.113,0.581-0.263,1.346-0.377,1.691c-0.342,0.114-1.1,0.262-1.676,0.374l-0.808,0.16   c-1.456,0.299-3.105,0.638-5.009,2.543c-2.08,2.078-1.532,4.647-1.048,6.914c0.244,1.144-0.224,2.969-0.534,4.176   c-0.208,0.813-0.339,1.336-0.273,1.741l-8.192,8.191c-6.35-6.696-10.258-15.73-10.258-25.666   C11.324,28.019,28.074,11.269,48.662,11.269z M63.725,37.47c0.432,2.025,0.804,3.774-0.505,5.084   c-1.482,1.483-2.649,1.721-4.001,1.996c-0.348,0.071-0.686,0.132-1.001,0.189c-1.177,0.211-2.027,0.365-2.522,0.861   c-0.497,0.497-0.65,1.348-0.861,2.527c-0.057,0.315-0.117,0.651-0.19,1.01c-0.277,1.348-0.517,2.512-1.995,3.99   c-1.484,1.484-2.651,1.722-4.003,1.998c-0.347,0.07-0.683,0.131-0.997,0.188c-1.18,0.212-2.032,0.364-2.526,0.862   c-0.498,0.497-0.649,1.347-0.86,2.521c-0.057,0.316-0.117,0.654-0.189,1.011c-0.279,1.351-0.519,2.516-1.996,3.992   c-0.628,0.628-1.354,0.908-2.356,0.908c-0.845,0-1.76-0.196-2.729-0.403c-0.343-0.073-0.728-0.11-1.144-0.11   c-1.314,0-2.755,0.358-3.834,0.635c0.355-1.388,0.856-3.418,0.524-4.979c-0.501-2.348-0.717-3.861,0.506-5.083   c1.479-1.481,2.646-1.721,4-1.999l0.785-0.155c1.588-0.31,2.309-0.464,2.735-0.892c0.43-0.429,0.586-1.154,0.898-2.753l0.154-0.775   c0.277-1.35,0.517-2.517,1.998-3.997c1.483-1.482,2.65-1.722,4.003-2l0.784-0.156c1.59-0.31,2.311-0.466,2.74-0.895   c0.426-0.427,0.58-1.141,0.889-2.716l0.16-0.806c0.274-1.349,0.512-2.514,1.997-4c0.627-0.627,1.354-0.907,2.355-0.907   c0.844,0,1.758,0.195,2.728,0.402c0.338,0.072,0.717,0.108,1.125,0.108c1.233,0,2.574-0.325,3.618-0.592   c0.029,0.122,0.082,0.234,0.158,0.341C63.815,34.266,63.418,36.033,63.725,37.47z M48.662,85.945   c-9.936,0-18.969-3.908-25.666-10.259l8.858-8.857c0.162-0.039,0.34-0.084,0.549-0.138c0.987-0.253,2.339-0.6,3.444-0.6   c0.276,0,0.521,0.021,0.726,0.065c1.028,0.221,2.091,0.448,3.148,0.448c1.532,0,2.766-0.489,3.771-1.494   c1.9-1.899,2.24-3.548,2.543-5.015c0.074-0.365,0.138-0.719,0.197-1.05c0.091-0.507,0.212-1.184,0.319-1.446   c0.264-0.107,0.943-0.229,1.452-0.321c0.329-0.059,0.681-0.122,1.043-0.196c1.457-0.297,3.108-0.634,5.018-2.543   c1.903-1.9,2.241-3.548,2.543-5.016c0.074-0.363,0.138-0.715,0.196-1.044c0.092-0.509,0.214-1.188,0.321-1.452   c0.264-0.107,0.941-0.229,1.449-0.32c0.33-0.06,0.683-0.123,1.046-0.197c1.457-0.297,3.108-0.634,5.016-2.542   c2.077-2.078,1.529-4.648,1.046-6.916c-0.236-1.111,0.223-2.892,0.525-4.07c0.064-0.25,0.119-0.468,0.167-0.673l9.368-9.369   C82.092,29.637,86,38.671,86,48.607C86,69.195,69.25,85.945,48.662,85.945z"></path></g></svg>