<svg fill="#FFFFFF" xmlns="http://www.w3.org/2000/svg" xmlns:xlink="http://www.w3.org/1999/xlink" version="1.1" x="0px" y="0px" viewBox="0 0 64 64" style="enable-background:new 0 0 64 64;" xml:space="preserve"><rect x="9" y="7" width="2" height="2"></rect><rect x="13" y="7" width="2" height="2"></rect><rect x="17" y="7" width="2" height="2"></rect><path d="M51,24h2c0-1.654,1.346-3,3-3v-2c-1.654,0-3-1.346-3-3h-2c0,1.654-1.346,3-3,3v2C49.654,21,51,22.346,51,24z M52,18.969  c0.292,0.393,0.638,0.739,1.031,1.031c-0.393,0.292-0.739,0.638-1.031,1.031c-0.292-0.393-0.638-0.739-1.031-1.031  C51.362,19.708,51.708,19.362,52,18.969z"></path><path d="M57,13h2c0-1.654,1.346-3,3-3V8c-1.654,0-3-1.346-3-3h-2c0,1.654-1.346,3-3,3v2C55.654,10,57,11.346,57,13z M58,7.969  C58.292,8.362,58.638,8.708,59.031,9C58.638,9.292,58.292,9.638,58,10.031C57.708,9.638,57.362,9.292,56.969,9  C57.362,8.708,57.708,8.362,58,7.969z"></path><path d="M39.419,59.304c-10.048-0.85-21.536-4.617-30.731-10.08l-2.727-1.619c0.406-0.95,0.641-1.943,0.87-2.91  c0.068-0.29,0.137-0.579,0.209-0.865c0.211-0.827,0.445-2.175,0.716-3.734c0.39-2.245,0.875-5.039,1.313-6.162l5.99-15.352  c0.131-0.335,0.25-0.696,0.372-1.065c0.324-0.986,0.66-2.007,1.288-2.559c0.354-0.312,0.815-0.544,1.26-0.749  c0.052-0.023,0.101-0.051,0.146-0.083l11.853-9.077c0.594-0.457,1.418-0.451,2.004,0.02l5.944,4.755  c0.376,0.301,0.598,0.75,0.608,1.232s-0.191,0.94-0.554,1.258l-3.792,3.317c-0.644,0.563-1.616,0.528-2.219-0.073  c-0.346-0.346-0.516-0.822-0.468-1.309c0.049-0.486,0.31-0.921,0.717-1.192l0.336-0.225l-1.111-1.662l-0.335,0.224  c-0.907,0.604-1.489,1.573-1.597,2.658s0.273,2.149,1.044,2.92c1.345,1.346,3.52,1.418,4.949,0.165l3.189-2.79l0.981,1.472  l-5.991,5.136l-7.157-0.895c0.109-0.512,0.234-1.021,0.38-1.525l-1.92-0.557c-0.671,2.309-0.981,4.698-0.926,7.103  c0.03,1.291,0.168,2.577,0.302,3.821c0.156,1.462,0.304,2.843,0.295,4.242c-0.027,4.189-1.65,8.1-4.341,10.459l1.318,1.504  c1.905-1.67,3.316-3.923,4.152-6.5c0.302-0.101,0.686-0.094,1.063-0.062c1.313,0.117,2.588,0.477,3.785,1.016  c-0.488,0.784-0.886,1.621-1.182,2.503l1.896,0.637c0.258-0.769,0.612-1.497,1.047-2.178c0.024,0.016,0.05,0.028,0.073,0.044  l0.959-1.399c1.884-2.11,4.66-3.581,7.889-4.064c4.835-0.725,9.33,0.933,11.751,4.317l1.627-1.164  c-1.004-1.403-2.306-2.55-3.808-3.42c2.897-2.411,7.09-3.279,10.665-2.037l0.656-1.889c-4.508-1.57-9.844-0.3-13.271,2.994  c-2.38-0.907-5.106-1.201-7.915-0.779c-3.739,0.558-6.961,2.292-9.154,4.787c-1.514-0.741-3.157-1.208-4.843-1.359  c-0.221-0.02-0.458-0.029-0.7-0.027c0.208-1.087,0.325-2.213,0.332-3.369c0.01-1.514-0.151-3.016-0.307-4.469  c-0.129-1.203-0.262-2.447-0.29-3.655c-0.024-1.004,0.032-2.005,0.148-2.998l7.666,0.958C33.917,22.997,33.959,23,34,23  c0.237,0,0.469-0.085,0.65-0.241l7-6c0.385-0.329,0.462-0.893,0.182-1.313l-1.754-2.632c0.299-0.548,0.471-1.161,0.457-1.803  c-0.023-1.076-0.52-2.079-1.359-2.751l-5.943-4.755c-1.308-1.046-3.148-1.062-4.474-0.042l-11.323,8.712l-0.37,0.253  c-0.535,0.249-1.143,0.567-1.666,1.027c-1.036,0.911-1.479,2.252-1.868,3.436c-0.109,0.333-0.217,0.66-0.335,0.964l-5.99,15.352  c-0.511,1.31-0.974,3.973-1.421,6.547c-0.253,1.455-0.491,2.83-0.683,3.583c-0.076,0.297-0.147,0.597-0.218,0.897  c-0.28,1.186-0.545,2.305-1.097,3.257c-0.274,0.474-0.116,1.081,0.354,1.36l3.523,2.093c9.443,5.609,21.25,9.479,31.585,10.353  c0.801,0.068,1.81,0.108,2.962,0.108c5.749,0,15.023-1.006,19.423-4.633l-1.271-1.543C55.82,58.975,44.479,59.73,39.419,59.304z"></path></svg>