<?xml version="1.0" encoding="utf-8"?>
<!-- Generator: Adobe Illustrator 16.0.0, SVG Export Plug-In . SVG Version: 6.00 Build 0)  -->
<!DOCTYPE svg PUBLIC "-//W3C//DTD SVG 1.1//EN" "http://www.w3.org/Graphics/SVG/1.1/DTD/svg11.dtd">
<svg version="1.1" id="Layer_1" xmlns="http://www.w3.org/2000/svg" xmlns:xlink="http://www.w3.org/1999/xlink" x="0px" y="0px"
	 width="72px" height="72px" viewBox="0 0 72 72" enable-background="new 0 0 72 72" xml:space="preserve">
<g>
	<path fill="#FFFFFF" d="M36.912,45.311c-2.781,0-5.319-0.441-7.988-1.389c-3.138-1.115-6.172-4.521-8.609-7.26
		c-1.167-1.311-2.176-2.443-2.874-2.951c-0.254-0.186-0.578-0.405-0.945-0.654c-2.056-1.394-5.163-3.5-5.837-5.858
		c-0.293-1.026-0.131-2.087,0.468-3.067c1.231-2.014,4.249-3.585,8.496-4.424c1.745-0.345,4.361-0.521,7.773-0.521
		c7.748,0,18.29,0.956,22.56,2.046l0.982,0.249c3.689,0.933,6.356,1.605,8.161,3.256c1.858,1.702,3.674,3.365,2.933,6.562
		c-0.707,3.049-4.148,6.33-7.047,8.087l-0.969,0.59c-2.618,1.602-4.88,2.982-8.243,3.984C42.618,44.858,39.64,45.311,36.912,45.311z
		 M27.396,20.873c-3.256,0-5.831,0.169-7.446,0.488c-3.726,0.736-6.417,2.066-7.385,3.649c-0.353,0.576-0.448,1.156-0.285,1.726
		c0.506,1.77,3.42,3.746,5.161,4.927c0.386,0.261,0.726,0.492,0.992,0.687c0.845,0.614,1.908,1.81,3.141,3.194
		c2.31,2.592,5.184,5.82,7.915,6.791c2.482,0.881,4.841,1.293,7.424,1.293c2.572,0,5.395-0.432,8.388-1.283
		c3.145-0.938,5.216-2.203,7.838-3.805l0.973-0.594c2.688-1.631,5.709-4.568,6.278-7.027c0.52-2.238-0.612-3.274-2.324-4.843
		c-1.595-1.458-4.089-2.088-7.54-2.96l-0.985-0.25C45.378,21.805,35.031,20.873,27.396,20.873z"/>
	<path fill="#FFFFFF" d="M36.896,56.174c-3.489,0-6.077-0.709-7.973-1.383c-3.142-1.117-6.202-4.529-8.661-7.271
		c-1.17-1.305-2.181-2.432-2.877-2.939c-0.25-0.182-0.588-0.41-0.979-0.676c-3.104-2.105-5.89-4.162-5.89-6.186V26.85
		c0-0.466,0.377-0.843,0.843-0.843s0.843,0.377,0.843,0.843v10.87c0,1.297,3.742,3.836,5.15,4.791
		c0.41,0.277,0.764,0.518,1.025,0.709c0.84,0.611,1.905,1.801,3.14,3.176c2.331,2.6,5.232,5.836,7.971,6.809
		c3.279,1.166,8.04,2.219,15.812,0.01c3.246-0.967,5.414-2.287,8.159-3.955l0.727-0.441c2.927-1.775,6.33-5.111,6.33-6.75v-10.87
		c0-0.466,0.377-0.843,0.843-0.843s0.843,0.377,0.843,0.843v10.87c0,2.916-4.812,6.777-7.142,8.191l-0.726,0.439
		c-2.735,1.664-5.099,3.102-8.562,4.133C42.311,55.815,39.376,56.174,36.896,56.174z"/>
	<path fill="#FFFFFF" d="M27.664,32.04c-2.911,0-5.191-1.563-5.191-3.56s2.28-3.561,5.191-3.561c2.91,0,5.19,1.564,5.19,3.561
		S30.574,32.04,27.664,32.04z M27.664,26.605c-2.066,0-3.506,0.988-3.506,1.875s1.439,1.874,3.506,1.874
		c2.065,0,3.505-0.987,3.505-1.874S29.729,26.605,27.664,26.605z"/>
</g>
</svg>
