<?xml version="1.0" encoding="utf-8"?>
<!-- Generator: Adobe Illustrator 16.0.0, SVG Export Plug-In . SVG Version: 6.00 Build 0)  -->
<!DOCTYPE svg PUBLIC "-//W3C//DTD SVG 1.1//EN" "http://www.w3.org/Graphics/SVG/1.1/DTD/svg11.dtd">
<svg version="1.1" id="Layer_1" xmlns="http://www.w3.org/2000/svg" xmlns:xlink="http://www.w3.org/1999/xlink" x="0px" y="0px"
	 width="72px" height="72px" viewBox="0 0 72 72" enable-background="new 0 0 72 72" xml:space="preserve">
<g>
	<path fill="#FFFFFF" d="M18.819,29.981c-0.144,0-0.286-0.037-0.414-0.108c-0.194-0.11-0.338-0.293-0.397-0.509l-4.881-17.531
		c-0.125-0.448,0.137-0.912,0.585-1.037l17.531-4.884c0.212-0.061,0.445-0.033,0.641,0.078c0.194,0.109,0.338,0.292,0.397,0.508
		l4.881,17.528c0.125,0.448-0.137,0.912-0.585,1.037L19.046,29.95C18.972,29.971,18.896,29.981,18.819,29.981z M14.977,12.193
		l4.429,15.907l15.907-4.435L30.884,7.762L14.977,12.193z"/>
	<polygon fill="#FFFFFF" points="18.71,17.095 28.827,22.802 20.913,25.006 	"/>
	<path fill="#FFFFFF" d="M33.497,67.606c-0.066,0-0.133-0.008-0.198-0.023l-17.682-4.287c-0.452-0.111-0.73-0.566-0.621-1.018
		l4.283-17.691c0.053-0.219,0.189-0.404,0.381-0.521c0.19-0.117,0.419-0.152,0.637-0.1l17.684,4.289
		c0.452,0.109,0.729,0.564,0.62,1.018l-4.284,17.689c-0.053,0.217-0.189,0.404-0.381,0.521
		C33.803,67.563,33.65,67.606,33.497,67.606z M16.833,61.856l16.044,3.889l3.888-16.051L20.72,45.801L16.833,61.856z"/>
	<polygon fill="#FFFFFF" points="19.925,59.833 21.856,51.852 27.911,61.77 	"/>
	<path fill="#FFFFFF" d="M51.595,47.557c-0.221,0-0.441-0.086-0.605-0.258L38.349,34.212c-0.156-0.16-0.24-0.376-0.236-0.6
		s0.096-0.437,0.256-0.592l13.098-12.637c0.336-0.323,0.871-0.314,1.191,0.021l12.639,13.09c0.156,0.16,0.24,0.376,0.236,0.6
		s-0.096,0.437-0.256,0.591L52.181,47.321C52.017,47.479,51.806,47.557,51.595,47.557z M40.146,33.648l11.471,11.875l11.883-11.465
		L52.03,22.182L40.146,33.648z"/>
	<polygon fill="#FFFFFF" points="46.011,36.178 57.63,36.383 51.72,42.088 	"/>
</g>
</svg>
